<svg width="13" height="16" viewBox="0 0 13 16" fill="none" xmlns="http://www.w3.org/2000/svg">
<path d="M3.17322 5.47696L6.37005 11.2632L9.56688 5.47696L6.37005 2.84472L3.17322 5.47696Z" fill="#D29CFF"/>
<path d="M9.56695 5.47696L6.37012 11.2632V2.84472L9.56695 5.47696Z" fill="#C177FF"/>
<path d="M12.3614 4.94873V4.93958C12.3429 4.83896 12.2875 4.75662 12.2045 4.68341L6.66548 0.109466C6.58236 0.0363131 6.47158 -0.00030899 6.37007 -0.00030899L5.4469 2.29121L6.37007 4.03394L8.3918 5.69886L10.1999 6.27197L12.3614 4.94873Z" fill="#B255FF"/>
<path d="M6.37012 15.6123L7.29329 11.951L6.37012 9.35823L4.34839 5.69907L2.59693 4.45331L0.378772 4.94895C0.360278 5.04957 0.369541 5.15017 0.424931 5.2508L5.96393 15.3927C6.04704 15.5391 6.20395 15.6123 6.37012 15.6123Z" fill="#B255FF"/>
<path d="M6.37016 4.0343V5.34058e-05C6.26862 5.34058e-05 6.15787 0.0366755 6.07475 0.109828L0.535753 4.68377C0.452699 4.75699 0.397309 4.83932 0.378845 4.93994V4.94909L4.34846 5.69922L6.37016 4.0343Z" fill="#C177FF"/>
<path d="M12.3615 4.94894L8.39185 5.69907L6.37012 9.35823V15.6123C6.53629 15.6123 6.69319 15.5391 6.77631 15.3927L12.3153 5.25076C12.3707 5.15017 12.3799 5.04957 12.3615 4.94894Z" fill="#7D00E6"/>
</svg>
