<svg width="13" height="18" viewBox="0 0 13 18" fill="none" xmlns="http://www.w3.org/2000/svg">
<path d="M3.0368 5.98816L6.50003 12.314L9.96326 5.98816L6.50003 3.11046L3.0368 5.98816Z" fill="#D29CFF"/>
<path d="M9.96323 5.98816L6.5 12.314V3.11046L9.96323 5.98816Z" fill="#D29CFF"/>
<path d="M12.9906 5.41078V5.40078C12.9706 5.29077 12.9106 5.20076 12.8206 5.12072L6.82006 0.120249C6.73002 0.0402751 6.61001 0.000237942 6.50003 0.000237942L5.49994 2.50544L6.50003 4.41069L8.69024 6.23086L10.6491 6.85742L12.9906 5.41078Z" fill="#B255FF"/>
<path d="M6.49999 17.0684L7.50009 13.0657L6.49999 10.2311L4.30978 6.2307L2.41237 4.86877L0.00937644 5.41062C-0.0106588 5.52063 -0.000624505 5.63061 0.0593812 5.74062L6.05995 16.8283C6.14999 16.9883 6.31997 17.0684 6.49999 17.0684Z" fill="#B255FF"/>
<path d="M6.50001 4.4103V-0.000155449C6.39 -0.000155449 6.27002 0.0398822 6.17998 0.119856L0.179413 5.12033C0.0894376 5.20037 0.0294318 5.29038 0.00942993 5.40039V5.41039L4.30984 6.23047L6.50001 4.4103Z" fill="#C177FF"/>
<path d="M12.9906 5.41062L8.69021 6.2307L6.5 10.2311V17.0684C6.68002 17.0684 6.85 16.9883 6.94004 16.8283L12.9406 5.74058C13.0006 5.63061 13.0106 5.52063 12.9906 5.41062Z" fill="#7D00E6"/>
</svg>
