<svg width="118" height="39" viewBox="0 0 118 39" fill="none" xmlns="http://www.w3.org/2000/svg">
<path d="M89.2702 37.9999L98.1022 4.3999H109.142L117.974 37.9999H111.446L109.622 30.6079H97.6223L95.7982 37.9999H89.2702ZM99.1103 24.7519H108.134L104.054 8.3839H103.19L99.1103 24.7519Z" fill="white"/>
<path d="M70.3455 37.9999L61.8015 4.3999H68.3295L75.4335 33.9199H76.1055L83.2095 4.3999H89.7375L81.1935 37.9999H70.3455Z" fill="white"/>
<path d="M45.3802 38.672C41.1562 38.672 37.7962 37.52 35.3002 35.216C32.8042 32.88 31.5562 29.552 31.5562 25.232V17.168C31.5562 12.848 32.8042 9.53603 35.3002 7.23203C37.7962 4.89603 41.1562 3.72803 45.3802 3.72803C49.6042 3.72803 52.9642 4.89603 55.4602 7.23203C57.9562 9.53603 59.2042 12.848 59.2042 17.168V25.232C59.2042 29.552 57.9562 32.88 55.4602 35.216C52.9642 37.52 49.6042 38.672 45.3802 38.672ZM45.3802 33.008C47.7482 33.008 49.5882 32.32 50.9002 30.944C52.2122 29.568 52.8682 27.728 52.8682 25.424V16.976C52.8682 14.672 52.2122 12.832 50.9002 11.456C49.5882 10.08 47.7482 9.39203 45.3802 9.39203C43.0442 9.39203 41.2042 10.08 39.8602 11.456C38.5482 12.832 37.8922 14.672 37.8922 16.976V25.424C37.8922 27.728 38.5482 29.568 39.8602 30.944C41.2042 32.32 43.0442 33.008 45.3802 33.008Z" fill="white"/>
<path fill-rule="evenodd" clip-rule="evenodd" d="M61.8344 3.09302L32.4354 37.6801L29.3283 35.0391L58.7273 0.452006L61.8344 3.09302Z" fill="white"/>
<path d="M0.167999 37.9999V4.3999H12.216L18.888 33.6799H19.752V4.3999H25.992V37.9999H13.944L7.272 8.7199H6.408V37.9999H0.167999Z" fill="white"/>
</svg>
