<svg width="182" height="60" viewBox="0 0 182 60" fill="none" xmlns="http://www.w3.org/2000/svg">
<path d="M142.59 57.2489L154.611 11.5156H169.638L181.659 57.2489H172.774L170.291 47.1876H153.958L151.475 57.2489H142.59ZM155.983 39.2169H168.266L162.712 16.9383H161.536L155.983 39.2169Z" fill="white"/>
<path d="M108.028 57.2489L96.3992 11.5156H105.284L114.954 51.6956H115.868L125.538 11.5156H134.423L122.794 57.2489H108.028Z" fill="white"/>
<path d="M43.061 11.668C45.8241 12.3151 48.9937 13.9197 51.3076 15.8558C53.8331 17.9339 54.8571 19.165 56.45 22.127C58.4096 25.7782 59.1314 29.1821 58.8949 33.654C58.6399 38.5363 59.1198 40.6302 61.0511 43.3765C63.2767 46.5015 66.0855 48.2061 69.9813 48.748C72.4398 49.09 73.2597 49.0163 75.5213 48.2798C80.0771 46.8488 83.0376 43.5816 83.91 38.9729C85.0546 33.2384 82.5056 28.0036 77.3202 25.3678C76.5291 24.9574 74.1218 24.2472 72.0671 23.7737C66.1249 22.4216 62.2256 19.9647 58.8349 15.5138C56.2618 12.1152 54.2344 5.90185 54.7076 2.77677L54.9043 1.64038L55.2647 2.92934C56.6996 7.85897 65.5908 13.7882 74.5608 15.8242C76.8803 16.3345 79.444 17.029 80.2403 17.4025C83.0778 18.6231 86.5855 21.401 88.613 24.0104C95.754 33.3752 93.8957 46.1806 84.3187 53.2199C79.7665 56.566 74.4593 57.8549 68.5589 57.0342C62.8475 56.2398 58.5597 53.8039 54.8286 49.3057C51.1681 44.8548 49.7782 40.1567 50.2637 33.6172C50.5604 29.2663 50.0412 25.5151 48.4519 20.8643C47.071 16.6555 44.3805 12.7149 42.2411 11.7416C41.1576 11.2155 41.2333 11.2261 43.061 11.668Z" fill="#9D27FF"/>
<path d="M0 57.2489V11.5156H16.3986L25.48 51.3689H26.656V11.5156H35.1493V57.2489H18.7506L9.66932 17.3956H8.49332V57.2489H0Z" fill="white"/>
</svg>
