<svg width="229" height="74" viewBox="0 0 229 74" fill="none" xmlns="http://www.w3.org/2000/svg">
<path d="M179.749 71.3414L194.903 13.6899H213.846L229 71.3414H217.799L214.669 58.6581H194.08L190.95 71.3414H179.749ZM196.633 48.6103H212.116L205.116 20.5258H203.633L196.633 48.6103Z" fill="white"/>
<path d="M136.181 71.3414L121.521 13.6899H132.722L144.911 64.3409H146.064L158.253 13.6899H169.454L154.794 71.3414H136.181Z" fill="white"/>
<path d="M53.6572 14.7045C57.1615 15.4239 61.2114 17.3359 64.1945 19.6952C67.4491 22.2261 68.7822 23.7419 70.8923 27.419C73.4886 31.9519 74.5163 36.2162 74.3737 41.8595C74.222 48.0207 74.8994 50.6426 77.4285 54.0361C80.3416 57.8968 83.9402 59.9472 88.8683 60.4947C91.9782 60.8403 93.0088 60.719 95.8331 59.7122C101.524 57.7507 105.141 53.5309 106.081 47.693C107.324 40.427 103.93 33.9191 97.304 30.7778C96.2928 30.2882 93.2347 29.4768 90.6291 28.9515C83.0942 27.4542 78.0952 24.4936 73.6679 19.0027C70.3074 14.8094 67.5368 7.05028 68.0245 3.09586L68.2328 1.65703L68.7319 3.26876C70.7112 9.43086 82.1212 16.5935 93.4953 18.8476C96.4358 19.4101 99.6905 20.1961 100.707 20.6392C104.325 22.0786 108.842 25.4572 111.487 28.6751C120.811 40.2277 118.914 56.4287 107.091 65.6318C101.47 70.0064 94.8275 71.815 87.3637 70.9858C80.1391 70.1831 74.6513 67.2626 69.7934 61.7239C65.026 56.2424 63.1113 50.3705 63.496 42.113C63.7187 36.62 62.9341 31.9111 60.7699 26.1058C58.8836 20.8501 55.3563 15.9779 52.6266 14.8258C51.243 14.2005 51.3387 14.2111 53.6572 14.7045Z" fill="#77099E"/>
<path d="M0 71.3414V13.6899H20.6722L32.1201 63.9291H33.6026V13.6899H44.3093V71.3414H23.6371L12.1892 21.1023H10.7067V71.3414H0Z" fill="white"/>
</svg>
