<svg width="21" height="21" viewBox="0 0 21 21" fill="none" xmlns="http://www.w3.org/2000/svg">
<path fill-rule="evenodd" clip-rule="evenodd" d="M10.4999 20.9168C5.58945 20.9168 3.13422 20.9168 1.60874 19.3913C0.0832518 17.8659 0.083252 15.4106 0.083252 10.5002C0.083252 5.58969 0.0832518 3.13446 1.60874 1.60899C3.13422 0.083496 5.58945 0.0834961 10.4999 0.0834961C15.4103 0.0834961 17.8656 0.083496 19.3911 1.60899C20.9166 3.13446 20.9166 5.58969 20.9166 10.5002C20.9166 15.4106 20.9166 17.8659 19.3911 19.3913C17.8656 20.9168 15.4103 20.9168 10.4999 20.9168ZM7.3433 7.34357C7.6484 7.03848 8.14306 7.03848 8.44815 7.34357L10.4999 9.39537L12.5516 7.34359C12.8567 7.0385 13.3514 7.0385 13.6565 7.34359C13.9616 7.64868 13.9616 8.14335 13.6565 8.44839L11.6047 10.5002L13.6565 12.5519C13.9616 12.8569 13.9616 13.3516 13.6565 13.6567C13.3514 13.9618 12.8567 13.9618 12.5516 13.6567L10.4999 11.6051L8.44815 13.6567C8.14309 13.9618 7.64842 13.9618 7.34332 13.6567C7.03823 13.3516 7.03823 12.857 7.34332 12.5519L9.39502 10.5002L7.3433 8.44839C7.03821 8.14333 7.03821 7.64866 7.3433 7.34357Z" fill="#7D00E6"/>
</svg>
