<svg width="24" height="23" viewBox="0 0 24 23" fill="none" xmlns="http://www.w3.org/2000/svg">
<path d="M11.7895 2.35514C11.4951 2.68634 11.5043 3.22914 11.8079 3.54194C12.0011 3.72594 12.1391 3.77194 12.4979 3.77194H12.9579V4.31474V4.85754L12.4795 4.92194C12.2127 4.95874 11.9551 5.02314 11.8999 5.05994C11.8539 5.09674 11.6055 5.17954 11.3479 5.23474C10.8695 5.35434 9.72866 5.85114 9.64586 5.97074C9.61826 6.01674 9.46186 6.11794 9.30546 6.20074C9.13986 6.28354 9.00186 6.38474 9.00186 6.42154C9.00186 6.45834 8.89146 6.53194 8.76266 6.59634C8.54186 6.69754 8.49586 6.66994 8.04506 6.20074C7.59426 5.74074 7.52986 5.70394 7.13426 5.70394C6.55466 5.70394 6.33386 5.92474 6.33386 6.48594C6.33386 6.86314 6.37986 6.94594 6.83986 7.40594C7.11586 7.69114 7.34586 7.93954 7.34586 7.95794C7.34586 8.05914 7.12506 8.46394 7.06986 8.46394C7.03306 8.46394 6.93186 8.63874 6.83066 8.85034C6.73866 9.07114 6.60986 9.29194 6.55466 9.35634C6.49026 9.42074 6.38906 9.67834 6.32466 9.93594C6.26026 10.1843 6.17746 10.3959 6.13146 10.3959C6.09466 10.3959 6.05786 10.5155 6.05786 10.6719C6.05786 10.8191 6.09466 10.9479 6.14066 10.9479C6.18666 10.9479 6.24186 11.0307 6.26946 11.1319C6.29706 11.2331 6.38906 11.3435 6.49026 11.3711C6.58226 11.3987 6.72026 11.4539 6.81226 11.4999C7.05146 11.6287 7.67706 11.2791 7.75066 10.9755C7.83346 10.6627 8.35786 9.56794 8.52346 9.40234C8.57866 9.33794 8.63386 9.24594 8.63386 9.20914C8.63386 9.13554 9.74706 7.98554 10.0139 7.78314C10.0875 7.72794 10.2623 7.61754 10.4095 7.55314C10.5475 7.47954 10.6579 7.38754 10.6579 7.34154C10.6579 7.30474 10.7039 7.26794 10.7591 7.26794C10.8051 7.26794 11.0719 7.16674 11.3295 7.04714C11.9643 6.74354 12.3967 6.64234 13.2891 6.56874C14.2827 6.48594 15.4143 6.66074 16.1503 7.00114C16.4631 7.14834 16.7667 7.26794 16.8219 7.26794C16.8679 7.26794 16.9139 7.30474 16.9139 7.34154C16.9139 7.38754 17.0243 7.47034 17.1531 7.53474C17.5671 7.71874 18.7539 8.74914 18.7539 8.92394C18.7539 8.95154 18.8367 9.06194 18.9287 9.17234C19.0207 9.27354 19.1771 9.49434 19.2599 9.66914C19.3519 9.84394 19.4531 10.0003 19.4899 10.0279C19.5727 10.0923 19.8579 10.9387 19.8579 11.1411C19.8579 11.2331 19.9131 11.3159 19.9775 11.3435C20.1155 11.3895 20.1431 14.3243 19.9959 14.4255C19.9407 14.4623 19.8211 14.7383 19.7291 15.0419C19.6371 15.3455 19.4899 15.6951 19.3979 15.8239C19.3151 15.9527 19.2231 16.0999 19.2047 16.1643C19.1311 16.3667 18.1559 17.5719 18.0179 17.6179C17.9443 17.6455 17.7327 17.7835 17.5579 17.9399C17.3831 18.0871 17.1899 18.2159 17.1255 18.2159C17.0611 18.2159 16.9783 18.2711 16.9415 18.3355C16.9047 18.4091 16.6655 18.5379 16.4079 18.6299C16.1595 18.7311 15.9295 18.8323 15.9019 18.8691C15.8191 18.9795 14.9267 19.1267 13.9331 19.1911C12.9579 19.2555 12.9395 19.2647 12.7187 19.5499C12.4335 19.9271 12.4427 20.1755 12.7463 20.5803L12.9947 20.9023L14.2735 20.8655C14.9727 20.8471 15.5799 20.7827 15.6075 20.7367C15.6443 20.6815 15.9111 20.5895 16.2147 20.5251C16.5091 20.4607 16.9507 20.3043 17.1899 20.1847C17.4291 20.0651 17.6499 19.9639 17.6775 19.9639C17.7419 19.9639 18.5239 19.4395 18.7907 19.2279C18.9655 19.0899 20.0879 17.9583 20.3455 17.6547C20.4283 17.5627 20.5663 17.3511 20.6491 17.1947C20.7319 17.0291 20.8515 16.8451 20.9067 16.7807C20.9711 16.7255 21.0723 16.4955 21.1459 16.2747C21.2195 16.0539 21.3023 15.8515 21.3391 15.8239C21.4219 15.7595 21.6979 14.6003 21.6979 14.2967C21.6979 14.1771 21.7439 14.0759 21.7899 14.0759C21.8451 14.0759 21.8819 13.6159 21.8819 12.8799C21.8819 12.1439 21.8451 11.6839 21.7899 11.6839C21.7439 11.6839 21.6979 11.5827 21.6979 11.4447C21.6979 11.1135 21.4219 9.93594 21.3391 9.93594C21.3115 9.93594 21.2195 9.75194 21.1551 9.51274C21.0907 9.28274 20.9803 9.04354 20.9251 8.98834C20.8699 8.92394 20.7411 8.73074 20.6491 8.55594C20.5479 8.38114 20.4191 8.18794 20.3731 8.13274C20.3179 8.06834 20.1523 7.86594 19.9959 7.67274C19.6463 7.24034 19.2415 6.86314 18.6343 6.42154C18.3675 6.22834 18.1099 6.03514 18.0455 5.97994C17.9903 5.93394 17.7603 5.82354 17.5395 5.73154C17.3187 5.64874 17.1255 5.54754 17.0979 5.50154C17.0703 5.46474 16.7575 5.36354 16.4079 5.27154C16.0491 5.17954 15.7455 5.07834 15.7179 5.05074C15.6903 5.01394 15.4327 4.96794 15.1475 4.93114L14.6139 4.86674V4.31474V3.77194H15.0647C15.6903 3.77194 15.9939 3.49594 15.9939 2.94394C15.9939 2.66794 15.9387 2.49314 15.7915 2.33674C15.5799 2.12514 15.5523 2.11594 13.7859 2.11594H11.9919L11.7895 2.35514Z" fill="#B255FF"/>
<path d="M16.3619 9.20016C16.3619 9.24616 16.3067 9.29216 16.2423 9.29216C16.0951 9.29216 13.1419 12.2454 13.1419 12.4018C13.1419 12.457 13.1051 12.5122 13.0499 12.5122C13.0039 12.5122 12.9579 12.6778 12.9579 12.8802C12.9579 13.0826 12.9947 13.2482 13.0407 13.2482C13.0867 13.2482 13.1419 13.331 13.1695 13.423C13.2247 13.6346 13.7583 13.7634 14.0987 13.653C14.4023 13.5426 17.3647 10.6078 17.4291 10.3502C17.4567 10.2398 17.4659 9.99136 17.4475 9.78896C17.4291 9.52216 17.3647 9.40257 17.2175 9.33816C17.0979 9.29216 17.0059 9.21856 17.0059 9.18177C17.0059 9.13577 16.8587 9.10816 16.6839 9.10816C16.5091 9.10816 16.3619 9.14496 16.3619 9.20016Z" fill="#B255FF"/>
<path d="M2.00989 12.7511C1.82589 12.8063 1.45789 13.3859 1.45789 13.6251C1.45789 13.7263 1.52229 13.8735 1.59589 13.9471C1.66949 14.0207 1.77069 14.1587 1.81669 14.2415C1.89949 14.3887 2.26749 14.3979 6.39829 14.3979H10.8879L11.1087 14.1771C11.4215 13.8643 11.4215 13.2755 11.1087 12.9627L10.8879 12.7419L6.51789 12.7327C4.11669 12.7235 2.08349 12.7327 2.00989 12.7511Z" fill="#B255FF"/>
<path d="M4.01549 15.7871C3.70269 15.9895 3.66589 16.0447 3.66589 16.4127C3.66589 16.7531 3.71189 16.8543 3.95109 17.0567L4.23629 17.2959H7.52989C10.8327 17.2959 10.8327 17.2959 11.0535 17.0843C11.5135 16.6519 11.4767 16.0815 10.9707 15.7503C10.6671 15.5479 10.6211 15.5479 7.51149 15.5571H4.35589L4.01549 15.7871Z" fill="#B255FF"/>
<path d="M6.21428 18.5564C5.89228 18.6392 5.74508 19.5684 6.00268 19.9272C6.12228 20.0928 6.27868 20.102 8.47748 20.1296L10.8235 20.1572L11.0811 19.9364C11.4491 19.6144 11.4583 19.0256 11.0903 18.7128C10.8327 18.492 10.8327 18.492 8.60628 18.5012C7.38268 18.5104 6.30628 18.5288 6.21428 18.5564Z" fill="#B255FF"/>
</svg>
