<svg width="18" height="18" viewBox="0 0 18 18" fill="none" xmlns="http://www.w3.org/2000/svg">
<g clip-path="url(#clip0_24_1727)">
<path fill-rule="evenodd" clip-rule="evenodd" d="M2.26623 1.34431C2.33977 0.997815 2.64568 0.75 2.99989 0.75H5.62489C8.11246 0.75 10.4627 1.61746 12.3856 3.04124L12.6104 2.82931C12.9055 2.55104 13.3684 2.55785 13.6552 2.84467L15.1552 4.34467C15.4421 4.63149 15.4489 5.09438 15.1706 5.38951L14.9587 5.61428C16.3824 7.5372 17.2499 9.88748 17.2499 12.375V15C17.2499 15.3542 17.0021 15.6602 16.6556 15.7337C16.3091 15.8072 15.9584 15.6283 15.8145 15.3046C14.666 12.7205 13.4162 10.6077 11.9393 8.81955L4.34149 16.9163C3.61692 17.6885 2.39712 17.7079 1.64837 16.9592L1.04075 16.3515C0.29201 15.6028 0.311396 14.383 1.08355 13.6584L9.18031 6.06063C7.39219 4.58363 5.27939 3.33385 2.69529 2.18536C2.37161 2.0415 2.1927 1.6908 2.26623 1.34431ZM10.3061 7.06128L2.10997 14.7522C1.95554 14.8972 1.95166 15.1411 2.10142 15.2908L2.70904 15.8985C2.85878 16.0482 3.10274 16.0444 3.24766 15.8899L10.9386 7.69388C10.7324 7.47829 10.5216 7.26754 10.3061 7.06128ZM6.23896 2.27052C7.95361 3.22505 9.45931 4.27585 10.8024 5.47727C11.4086 6.0195 11.9804 6.59136 12.5226 7.19752C13.724 8.54063 14.7749 10.0463 15.7294 11.761C15.5885 9.6534 14.7305 7.66268 13.393 6.04712C12.9595 5.52347 12.4764 5.04043 11.9528 4.60689C10.3372 3.26935 8.34646 2.41136 6.23896 2.27052Z" fill="#B255FF"/>
</g>
<defs>
<clipPath id="clip0_24_1727">
<rect width="18" height="18" fill="white"/>
</clipPath>
</defs>
</svg>
