<svg width="27" height="26" viewBox="0 0 27 26" fill="none" xmlns="http://www.w3.org/2000/svg">
<path d="M14.1623 5.39521L9.12476 3.37939V9.97933L14.1623 12.0285V5.39521Z" fill="#7A00B4" stroke="#A17FF1" stroke-width="0.10183" stroke-miterlimit="10"/>
<path d="M14.1289 5.42257L19.0973 3.44413L14.1037 1.3877L9.11414 3.39213L14.1289 5.42257Z" fill="#A73EE7" stroke="#A17FF1" stroke-width="0.101383" stroke-miterlimit="10"/>
<g clip-path="url(#clip0_24_1729)">
<path d="M9.73146 5.25039V4.71019L9.9097 4.81551L9.6748 4.13963L9.43994 4.53793L9.61816 4.64324V5.18343L9.73146 5.25039Z" fill="#A17FF1"/>
</g>
<path d="M19.1486 13.9011L24.1861 11.8853V17.8254L19.1486 20.1638V13.9011Z" fill="#7A00B4" stroke="#A17FF1" stroke-width="0.10183" stroke-miterlimit="10"/>
<path d="M19.1412 7.42117L24.1787 5.45898V11.8826L19.1412 13.9212V7.42117Z" fill="#7A00B4" stroke="#A17FF1" stroke-width="0.10183" stroke-miterlimit="10"/>
<path d="M19.0868 7.40923L14.1849 5.32761L19.1103 3.47998L24.1478 5.42998L19.0868 7.40923Z" fill="#A73EE7" stroke="#A17FF1" stroke-width="0.10183" stroke-miterlimit="10"/>
<path d="M9.04348 13.8873L4.00598 11.9438V17.936L9.04348 20.2492V13.8873Z" fill="#7A00B4" stroke="#A17FF1" stroke-width="0.10183" stroke-miterlimit="10"/>
<path d="M9.03054 13.9295L14.068 11.9657L9.03054 9.96289L3.99304 11.9129L9.03054 13.9295Z" fill="#A73EE7" stroke="#A17FF1" stroke-width="0.10183" stroke-miterlimit="10"/>
<path d="M6.50854 12.9048L11.5428 10.9004" stroke="#A17FF1" stroke-width="0.10183" stroke-miterlimit="10"/>
<path d="M14.1038 15.9722L9.06628 13.9702V20.2387L14.1038 22.6412V15.9722Z" fill="#7A00B4" stroke="#A17FF1" stroke-width="0.10183" stroke-miterlimit="10"/>
<path d="M14.0631 16.03L19.1453 14.0142V20.2387L14.0631 22.6413V16.03Z" fill="#7A00B4" stroke="#A17FF1" stroke-width="0.10183" stroke-miterlimit="10"/>
<path d="M14.0745 9.38191L19.112 7.39453V14.0245L14.0745 16.0436V9.38191Z" fill="#7A00B4" stroke="#A17FF1" stroke-width="0.10183" stroke-miterlimit="10"/>
<path d="M14.0745 9.3664L9.03699 7.35059V13.9505L14.0745 15.9996V9.3664Z" fill="#7A00B4" stroke="#A17FF1" stroke-width="0.10183" stroke-miterlimit="10"/>
<path d="M14.085 9.35031L19.0973 7.37187L14.0598 5.31543L9.02234 7.31987L14.085 9.35031Z" fill="#A73EE7" stroke="#A17FF1" stroke-width="0.10183" stroke-miterlimit="10"/>
<path d="M11.2762 8.24614L16.3105 6.2417" stroke="#A17FF1" stroke-width="0.10183" stroke-miterlimit="10"/>
<path d="M11.4525 4.36332L16.4868 2.35889" stroke="#A17FF1" stroke-width="0.10183" stroke-miterlimit="10"/>
<path d="M16.9564 4.29492L22.0882 6.28311" stroke="#A17FF1" stroke-width="0.10183" stroke-miterlimit="10"/>
<path opacity="0.3" d="M15.7295 6.0083L10.6595 8.02655L11.8637 8.50836L16.8979 6.50474L15.7295 6.0083Z" fill="#A17FF1" stroke="#A17FF1" stroke-width="0.0888979" stroke-miterlimit="10"/>
<path opacity="0.3" d="M15.9505 2.12549L10.8805 4.14374L12.0846 4.62555L17.1181 2.62193L15.9505 2.12549Z" fill="#A17FF1" stroke="#A17FF1" stroke-width="0.0888979" stroke-miterlimit="10"/>
<path opacity="0.3" d="M5.95105 12.6977L7.15436 13.1787L9.05724 12.4215L9.03611 11.4692L5.95105 12.6977Z" fill="#A17FF1" stroke="#A17FF1" stroke-width="0.0888979" stroke-miterlimit="10"/>
<path opacity="0.3" d="M17.5121 4.08594L16.4242 4.5125L21.4836 6.47306L22.574 6.04731L17.5121 4.08594Z" fill="#A17FF1" stroke="#A17FF1" stroke-width="0.0784911" stroke-miterlimit="10"/>
<path opacity="0.3" d="M7.13161 13.1583L5.95105 12.6992V14.0358L6.11436 13.9253L6.26061 14.1568L6.34511 14.1902L6.45724 14.091L6.56855 14.2763L6.67336 14.3177L6.82692 14.1828L7.0203 14.4526L7.13161 14.4957V13.1583Z" fill="#A17FF1" stroke="#A17FF1" stroke-width="0.124903" stroke-miterlimit="10"/>
<path opacity="0.3" d="M12.0741 4.59773L10.8927 4.13867V5.47523L11.0568 5.36473L11.2023 5.5963L11.2868 5.62961L11.3989 5.53048L11.5102 5.71573L11.6158 5.75717L11.7686 5.6223L11.9628 5.89205L12.0741 5.93511V4.59773Z" fill="#A17FF1" stroke="#A17FF1" stroke-width="0.124903" stroke-miterlimit="10"/>
<path opacity="0.3" d="M11.8792 8.50691L10.6986 8.04785V9.38441L10.8619 9.27391L11.0082 9.50548L11.0927 9.53798L11.2048 9.43966L11.3161 9.62491L11.4209 9.66554L11.5745 9.53066L11.7679 9.80041L11.8792 9.84348V8.50691Z" fill="#A17FF1" stroke="#A17FF1" stroke-width="0.124903" stroke-miterlimit="10"/>
<path opacity="0.3" d="M10.7229 14.6622L11.91 15.1051L11.8913 13.7685L11.7288 13.8814L11.5793 13.6523L11.4948 13.6206L11.3843 13.7206L11.2705 13.5369L11.1641 13.4971L11.013 13.6344L10.8155 13.3671L10.7042 13.3257L10.7229 14.6622Z" fill="#A17FF1" stroke="#A17FF1" stroke-width="0.124903" stroke-miterlimit="10"/>
<path opacity="0.3" d="M6.00062 18.855L7.13162 19.3741L7.16981 17.9604L7.00731 18.0733L6.85781 17.8442L6.77331 17.8125L6.662 17.9125L6.54825 17.7288L6.44262 17.6898L6.2915 17.8263L6.09406 17.5598L5.98193 17.5176L6.00062 18.855Z" fill="#A17FF1" stroke="#A17FF1" stroke-width="0.124903" stroke-miterlimit="10"/>
<path opacity="0.3" d="M22.6188 12.518L21.4382 12.9771V11.6405L21.6015 11.751L21.7478 11.5195L21.8323 11.487L21.9444 11.5853L22.0557 11.4L22.1605 11.3586L22.3141 11.4935L22.5075 11.2237L22.6188 11.1807V12.518Z" fill="#A17FF1" stroke="#A17FF1" stroke-width="0.124903" stroke-miterlimit="10"/>
<path opacity="0.3" d="M21.4617 6.49408L22.6487 6.05127L22.6301 7.38783L22.4684 7.27571L22.3189 7.50483L22.2344 7.53652L22.1231 7.43577L22.0093 7.62021L21.9037 7.65921L21.7526 7.52271L21.5551 7.78921L21.443 7.83146L21.4617 6.49408Z" fill="#A17FF1" stroke="#A17FF1" stroke-width="0.124903" stroke-miterlimit="10"/>
<path opacity="0.3" d="M17.4731 21.0202L16.2917 21.5678V20.1427L16.4559 20.2532L16.6021 20.0216L16.6858 19.9891L16.7987 20.0874L16.9092 19.9022L17.0149 19.8615L17.1684 19.9964L17.3618 19.7267L17.4731 19.6836V21.0202Z" fill="#A17FF1" stroke="#A17FF1" stroke-width="0.124903" stroke-miterlimit="10"/>
<path opacity="0.3" d="M16.3162 15.1285L17.5032 14.6865L17.4845 16.0231L17.3229 15.9101L17.1734 16.1393L17.088 16.171L16.9775 16.071L16.8638 16.2546L16.7582 16.2945L16.6062 16.1571L16.4096 16.4245L16.2975 16.4659L16.3162 15.1285Z" fill="#A17FF1" stroke="#A17FF1" stroke-width="0.124903" stroke-miterlimit="10"/>
<path opacity="0.55" d="M18.2686 10.9606L18.1288 10.9289V10.8874L18.2491 10.7184C18.2549 10.7111 18.2592 10.7026 18.2617 10.6935C18.2642 10.6844 18.2649 10.675 18.2637 10.6656C18.2627 10.6585 18.259 10.6521 18.2534 10.6475C18.2479 10.643 18.2408 10.6408 18.2336 10.6413L18.0801 10.6461L18.0679 10.6096L18.1637 10.4292C18.1685 10.4216 18.1714 10.4131 18.1724 10.4042C18.1734 10.3954 18.1724 10.3864 18.1694 10.378C18.1661 10.3716 18.1606 10.3666 18.1539 10.3639C18.1472 10.3612 18.1397 10.361 18.1329 10.3634L17.9704 10.4048L17.9509 10.3748L18.0191 10.1887C18.0233 10.1815 18.0254 10.1734 18.0254 10.1651C18.0254 10.1569 18.0233 10.1487 18.0191 10.1416C18.0137 10.1363 18.0067 10.1329 17.9992 10.1321C17.9917 10.1312 17.9842 10.1328 17.9777 10.1367L17.8152 10.2131L17.7892 10.1911L17.8274 10.0067C17.8298 9.99917 17.8299 9.99106 17.8276 9.98349C17.8253 9.97592 17.8206 9.96926 17.8144 9.96444C17.807 9.96091 17.7988 9.95956 17.7908 9.96057C17.7827 9.96158 17.7751 9.9649 17.7689 9.97013L17.6064 10.0782L17.5747 10.0644L17.5804 9.88969C17.5815 9.88231 17.58 9.87476 17.5762 9.86836C17.5723 9.86197 17.5663 9.85715 17.5592 9.85475C17.5507 9.85337 17.5419 9.85413 17.5336 9.85697C17.5254 9.8598 17.518 9.86462 17.5121 9.871L17.3626 10.0059L17.3261 10.001L17.2992 9.8385C17.2984 9.83132 17.295 9.82469 17.2896 9.81989C17.2842 9.81509 17.2772 9.81246 17.27 9.8125C17.2609 9.81323 17.2521 9.81585 17.2442 9.82019C17.2362 9.82453 17.2292 9.83049 17.2237 9.83769L17.0904 9.99531L17.0506 9.99938L16.9929 9.86288C16.9902 9.85607 16.985 9.85053 16.9784 9.84737C16.9718 9.84421 16.9642 9.84365 16.9572 9.84581C16.9385 9.85109 16.9225 9.86329 16.9125 9.87994L16.8004 10.0538L16.7597 10.0668L16.6728 9.95713C16.6677 9.95165 16.661 9.94803 16.6536 9.94686C16.6463 9.94568 16.6387 9.947 16.6322 9.95063C16.614 9.95897 16.5995 9.97372 16.5916 9.99206L16.5046 10.1757L16.464 10.1968L16.3519 10.1156C16.3452 10.1112 16.3375 10.1089 16.3295 10.1089C16.3216 10.1089 16.3138 10.1112 16.3072 10.1156C16.2902 10.1267 16.2776 10.1433 16.2714 10.1627L16.2137 10.3479L16.1739 10.3772L16.0407 10.3333C16.0324 10.3315 16.0239 10.3319 16.0158 10.3343C16.0077 10.3367 16.0003 10.3411 15.9944 10.3471C15.979 10.3603 15.9686 10.3784 15.9651 10.3983L15.9383 10.5795L15.9017 10.6153L15.7522 10.6071C15.7431 10.6074 15.7342 10.6096 15.7261 10.6137C15.7179 10.6178 15.7108 10.6236 15.7051 10.6307C15.6919 10.6452 15.6844 10.6639 15.684 10.6835L15.6897 10.8533L15.658 10.8939L15.4955 10.9224C15.4767 10.9269 15.4604 10.9386 15.45 10.9549C15.4444 10.9623 15.4403 10.9709 15.4381 10.9799C15.4358 10.989 15.4355 10.9985 15.437 11.0077L15.4744 11.1596L15.4484 11.2035L15.2859 11.2677C15.2677 11.2755 15.2529 11.2896 15.2444 11.3075C15.2406 11.3153 15.2385 11.324 15.2385 11.3327C15.2385 11.3414 15.2406 11.35 15.2444 11.3579L15.3127 11.4854L15.2932 11.5318L15.1307 11.6284C15.1136 11.6392 15.1007 11.6556 15.0941 11.6748C15.0908 11.6823 15.0896 11.6905 15.0906 11.6987C15.0916 11.7068 15.0948 11.7146 15.0998 11.7211L15.1957 11.8202L15.1835 11.8673L15.0299 11.9933C15.0144 12.0061 15.0037 12.0239 14.9999 12.0436C14.9977 12.0511 14.9979 12.059 15.0005 12.0663C15.0032 12.0736 15.0081 12.0799 15.0145 12.0843L15.1347 12.1509V12.1956L14.995 12.3459C14.9812 12.3601 14.9731 12.3789 14.9722 12.3987C14.9714 12.406 14.9732 12.4135 14.9774 12.4196C14.9816 12.4257 14.9878 12.4301 14.995 12.432L15.1347 12.4637V12.5051L15.0145 12.6741C15.0087 12.6815 15.0044 12.69 15.0019 12.6991C14.9994 12.7081 14.9987 12.7176 14.9999 12.7269C15.0009 12.734 15.0045 12.7405 15.0101 12.745C15.0157 12.7495 15.0228 12.7518 15.0299 12.7513L15.1835 12.7464L15.1957 12.783L15.0998 12.9634C15.0951 12.9709 15.0921 12.9795 15.0911 12.9883C15.0901 12.9972 15.0912 13.0062 15.0941 13.0146C15.0974 13.021 15.103 13.026 15.1097 13.0287C15.1164 13.0314 15.1238 13.0316 15.1307 13.0292L15.2932 12.9878L15.3127 13.0178L15.2444 13.2039C15.2403 13.211 15.2381 13.2192 15.2381 13.2274C15.2381 13.2357 15.2403 13.2438 15.2444 13.251C15.2498 13.2563 15.2568 13.2596 15.2643 13.2605C15.2718 13.2614 15.2794 13.2598 15.2859 13.2559L15.4484 13.1795L15.4744 13.2014L15.437 13.3859C15.4347 13.3933 15.4347 13.4012 15.437 13.4086C15.4394 13.416 15.4439 13.4225 15.45 13.4273C15.4573 13.4308 15.4655 13.4322 15.4736 13.4312C15.4817 13.4302 15.4893 13.4269 15.4955 13.4216L15.658 13.3136L15.6897 13.3274L15.684 13.5021C15.6828 13.5094 15.6843 13.517 15.6882 13.5234C15.692 13.5298 15.698 13.5346 15.7051 13.537C15.7137 13.5384 15.7225 13.5376 15.7307 13.5348C15.7389 13.532 15.7463 13.5271 15.7522 13.5208L15.9017 13.3859L15.9383 13.3908L15.9651 13.5533C15.9657 13.5605 15.9691 13.5672 15.9746 13.5721C15.98 13.5769 15.9871 13.5795 15.9944 13.5793C16.0034 13.5785 16.0122 13.5759 16.0202 13.5716C16.0282 13.5672 16.0351 13.5613 16.0407 13.5541L16.1739 13.3964L16.2137 13.3924L16.2714 13.5289C16.2743 13.5355 16.2796 13.5409 16.2862 13.5439C16.2928 13.5469 16.3003 13.5473 16.3072 13.5451C16.3259 13.5399 16.3419 13.5277 16.3519 13.511L16.464 13.3371L16.5046 13.3241L16.5916 13.4338C16.5966 13.4393 16.6034 13.4429 16.6107 13.4441C16.6181 13.4453 16.6257 13.4439 16.6322 13.4403C16.6504 13.432 16.6648 13.4172 16.6728 13.3989L16.7597 13.2153L16.8004 13.1933L16.9125 13.2746C16.9191 13.2789 16.9269 13.2813 16.9348 13.2813C16.9428 13.2813 16.9505 13.2789 16.9572 13.2746C16.9741 13.2634 16.9868 13.2468 16.9929 13.2274L17.0506 13.0422L17.0904 13.0129L17.2237 13.0568C17.2319 13.0585 17.2405 13.0581 17.2486 13.0557C17.2566 13.0533 17.264 13.0489 17.27 13.043C17.2854 13.0299 17.2958 13.0118 17.2992 12.9918L17.3261 12.8106L17.3626 12.7749L17.5121 12.783C17.5212 12.7827 17.5301 12.7805 17.5383 12.7764C17.5464 12.7724 17.5536 12.7666 17.5592 12.7594C17.5724 12.745 17.5799 12.7262 17.5804 12.7066L17.5747 12.5368L17.6064 12.4962L17.7689 12.4678C17.7877 12.4633 17.804 12.4516 17.8144 12.4353C17.82 12.4278 17.8241 12.4193 17.8263 12.4102C17.8285 12.4011 17.8289 12.3917 17.8274 12.3824L17.79 12.2305L17.8038 12.1874L17.9663 12.1233C17.9845 12.1155 17.9992 12.1013 18.0077 12.0834C18.0116 12.0756 18.0136 12.067 18.0136 12.0583C18.0136 12.0495 18.0116 12.0409 18.0077 12.0331L17.9395 11.9055L17.959 11.8592L18.1215 11.7625C18.1387 11.7517 18.1516 11.7354 18.1581 11.7162C18.1614 11.7087 18.1626 11.7004 18.1616 11.6922C18.1606 11.6841 18.1574 11.6764 18.1524 11.6699L18.0565 11.5708L18.0687 11.5236L18.2222 11.3977C18.2378 11.3849 18.2484 11.3671 18.2523 11.3473C18.2545 11.3399 18.2543 11.3319 18.2516 11.3246C18.249 11.3173 18.2441 11.311 18.2377 11.3067L18.1174 11.2401V11.1954L18.2572 11.0451C18.2709 11.0308 18.279 11.012 18.2799 10.9923C18.2813 10.9864 18.281 10.9803 18.2789 10.9747C18.2769 10.9691 18.2733 10.9642 18.2686 10.9606ZM17.3317 12.5758C17.2781 12.5864 17.244 12.5458 17.2554 12.4848C17.2612 12.4544 17.2753 12.4263 17.2961 12.4033C17.3169 12.3804 17.3435 12.3636 17.3732 12.3548C17.4268 12.3443 17.4609 12.3849 17.4496 12.4458C17.4436 12.4762 17.4295 12.5043 17.4087 12.5272C17.388 12.5501 17.3614 12.5669 17.3317 12.5758ZM17.2838 12.2589C17.2568 12.267 17.2325 12.2824 17.2136 12.3033C17.1947 12.3242 17.1819 12.3499 17.1766 12.3776L17.127 12.6416C16.9783 12.7768 16.8084 12.8866 16.6241 12.9666C16.463 13.0394 16.2872 13.0736 16.1106 13.0666L16.061 12.8448C16.0504 12.7984 16.0025 12.7863 15.9537 12.8179L15.749 12.9512C15.711 12.9261 15.6756 12.8973 15.6434 12.8651L16.6395 12.4418C16.6509 12.4369 16.6582 12.432 16.6582 12.4206V12.0509C16.6582 12.0404 16.6509 12.0412 16.6395 12.0461L16.3478 12.1696V11.9356L16.6631 11.8015C16.6815 11.791 16.7022 11.7851 16.7233 11.7843C16.7445 11.7836 16.7656 11.788 16.7847 11.7972C16.8038 11.8064 16.8204 11.8201 16.833 11.8371C16.8457 11.8541 16.854 11.874 16.8572 11.8949C16.8694 11.9413 16.8971 12.0973 16.9157 12.1387C16.9344 12.1801 17.0108 12.2784 17.0921 12.2443L17.5885 12.0331L17.6064 12.0233C17.5722 12.0867 17.5341 12.1493 17.4934 12.2102L17.2838 12.2589ZM15.9026 13.1771C15.8489 13.212 15.7961 13.1982 15.7847 13.147C15.7814 13.1164 15.7868 13.0856 15.8003 13.0579C15.8139 13.0303 15.8349 13.0071 15.8611 12.991C15.9147 12.9561 15.9676 12.9699 15.9789 13.0211C15.9826 13.0513 15.9777 13.082 15.9647 13.1096C15.9518 13.1371 15.9314 13.1605 15.9058 13.1771H15.9026ZM15.5247 11.7316C15.5343 11.7606 15.5346 11.7918 15.5256 11.821C15.5166 11.8501 15.4987 11.8757 15.4744 11.8941C15.424 11.9388 15.3655 11.9396 15.3436 11.8941C15.334 11.8652 15.3336 11.8339 15.3427 11.8048C15.3517 11.7757 15.3696 11.7501 15.3939 11.7316C15.4476 11.6902 15.5061 11.6886 15.528 11.7316H15.5247ZM15.4086 12.0696L15.6222 11.8795C15.6438 11.863 15.6597 11.8403 15.668 11.8144C15.6763 11.7886 15.6765 11.7608 15.6686 11.7349L15.6247 11.6496L15.7977 11.5764V12.3889L15.4492 12.5368C15.4174 12.4295 15.4018 12.318 15.4029 12.2061C15.4037 12.1639 15.4037 12.1168 15.4118 12.0696H15.4086ZM16.3446 11.5927V11.3489L16.7557 11.1743C16.7768 11.1653 16.906 11.1361 16.906 11.2368C16.906 11.3181 16.8069 11.3928 16.7256 11.4269L16.3437 11.5894L16.3446 11.5927ZM17.8396 11.1734C17.8396 11.2054 17.8396 11.2374 17.8396 11.2693L17.7144 11.3221C17.7088 11.3245 17.704 11.3286 17.7008 11.3339C17.6975 11.3391 17.6961 11.3452 17.6966 11.3514V11.4115C17.6998 11.4618 17.688 11.5119 17.6625 11.5553C17.637 11.5988 17.599 11.6336 17.5536 11.6553C17.4902 11.6902 17.4195 11.6845 17.4106 11.6471C17.3732 11.4416 17.3106 11.4213 17.2115 11.3814C17.3461 11.2581 17.4344 11.0923 17.4617 10.9118C17.466 10.8533 17.4491 10.7952 17.414 10.7482C17.3789 10.7012 17.3281 10.6684 17.2708 10.6559C17.1834 10.6374 17.0925 10.6448 17.0092 10.677L15.7157 11.2271C15.8885 10.9479 16.1217 10.711 16.3982 10.534L16.5509 10.6372C16.5851 10.6608 16.6427 10.6372 16.6785 10.586L16.8491 10.3423C16.9989 10.2956 17.1594 10.2964 17.3087 10.3444C17.4581 10.3923 17.589 10.4852 17.6836 10.6104L17.5666 10.9354C17.5462 10.9914 17.5666 11.0394 17.6129 11.041L17.8379 11.0499C17.8401 11.0895 17.8412 11.1306 17.8412 11.1734H17.8396ZM16.5469 10.3252C16.5867 10.2691 16.6492 10.2439 16.6866 10.2691C16.724 10.2943 16.7232 10.3609 16.6866 10.4178C16.6501 10.4747 16.5842 10.4991 16.5469 10.4739C16.5095 10.4487 16.5111 10.3813 16.5509 10.3244L16.5469 10.3252ZM17.7063 10.8127C17.7153 10.7839 17.7324 10.7584 17.7556 10.7392C17.7789 10.72 17.8072 10.708 17.8371 10.7046C17.8875 10.7046 17.9094 10.7583 17.8875 10.82C17.8785 10.8488 17.8614 10.8743 17.8382 10.8935C17.8149 10.9127 17.7866 10.9247 17.7567 10.9281C17.7104 10.9232 17.6876 10.8712 17.7096 10.8062L17.7063 10.8127Z" fill="black"/>
<path opacity="0.56" d="M13.3026 19.0294L13.1482 18.871L13.1441 18.8247L13.2766 18.7556C13.2835 18.7513 13.2889 18.7449 13.2918 18.7372C13.2947 18.7296 13.2951 18.7212 13.2928 18.7134C13.2883 18.6924 13.2765 18.6737 13.2595 18.6605L13.0905 18.5281L13.0775 18.4794L13.1831 18.3762C13.1885 18.3694 13.1919 18.3612 13.193 18.3526C13.194 18.344 13.1925 18.3353 13.1888 18.3274C13.1813 18.307 13.167 18.2897 13.1482 18.2787L12.9694 18.1763L12.9483 18.1275L13.0231 17.9935C13.0267 17.985 13.0283 17.9758 13.0275 17.9666C13.0268 17.9574 13.0239 17.9485 13.019 17.9407C13.0091 17.9215 12.9927 17.9065 12.9727 17.8984L12.7915 17.831L12.7631 17.7847L12.8045 17.6222C12.8062 17.6125 12.8059 17.6026 12.8035 17.5931C12.8011 17.5836 12.7967 17.5746 12.7907 17.5669C12.7791 17.5496 12.7614 17.5374 12.7411 17.5328L12.5648 17.5019L12.5299 17.4589L12.5364 17.2801C12.5359 17.2594 12.5274 17.2396 12.5128 17.2249C12.5065 17.2173 12.4987 17.2112 12.4899 17.2069C12.4811 17.2025 12.4714 17.2001 12.4616 17.1997L12.2991 17.2078L12.2593 17.1696L12.2301 16.9795C12.2262 16.9584 12.215 16.9394 12.1984 16.9259C12.1916 16.9195 12.1835 16.9148 12.1746 16.9123C12.1657 16.9097 12.1563 16.9094 12.1472 16.9112L12.0001 16.9567L11.9562 16.9259L11.8929 16.7309C11.886 16.7103 11.8722 16.6928 11.8539 16.6813C11.8469 16.6761 11.8387 16.673 11.8301 16.6723C11.8215 16.6716 11.8128 16.6733 11.8051 16.6772L11.6816 16.7585L11.6337 16.7374L11.5386 16.544C11.5293 16.5246 11.5135 16.509 11.4939 16.5001C11.4868 16.4962 11.4786 16.4947 11.4705 16.4958C11.4624 16.497 11.455 16.5008 11.4492 16.5066L11.3542 16.622L11.3095 16.6082L11.186 16.4254C11.1749 16.4076 11.1575 16.3948 11.1372 16.3896C11.1298 16.3873 11.1217 16.3877 11.1146 16.3909C11.1074 16.394 11.1016 16.3996 11.0982 16.4067L11.0349 16.5497L10.991 16.5448L10.8439 16.3823C10.8377 16.3745 10.8299 16.3682 10.8211 16.3636C10.8123 16.3589 10.8027 16.3562 10.7927 16.3555C10.785 16.3552 10.7774 16.3579 10.7715 16.3631C10.7656 16.3682 10.7619 16.3754 10.7611 16.3831L10.7318 16.5497L10.692 16.5545L10.5295 16.4124C10.5229 16.4057 10.5148 16.4007 10.5059 16.3978C10.497 16.3948 10.4876 16.394 10.4783 16.3953C10.4707 16.3976 10.4641 16.4025 10.4597 16.4092C10.4554 16.4159 10.4536 16.424 10.4547 16.4319L10.4612 16.6155L10.4263 16.6301L10.25 16.5164C10.2431 16.5109 10.2348 16.5074 10.2261 16.5063C10.2174 16.5051 10.2085 16.5064 10.2004 16.5099C10.1938 16.5148 10.1889 16.5217 10.1864 16.5295C10.1839 16.5374 10.184 16.5459 10.1866 16.5537L10.2281 16.7471L10.1996 16.7699L10.0184 16.6886C10.0112 16.6843 10.0028 16.6825 9.99447 16.6834C9.98613 16.6843 9.97829 16.6878 9.97212 16.6935C9.96697 16.7006 9.96388 16.709 9.96316 16.7177C9.96244 16.7264 9.96414 16.7352 9.96806 16.743L10.0428 16.938L10.0217 16.9697L9.84293 16.9259C9.83543 16.9231 9.82721 16.9232 9.81976 16.926C9.8123 16.9289 9.80611 16.9343 9.80231 16.9413C9.79901 16.9501 9.79781 16.9595 9.7988 16.9688C9.79979 16.9781 9.80294 16.987 9.80799 16.9949L9.91362 17.185L9.90062 17.2232L9.73162 17.2175C9.7238 17.2168 9.71601 17.2191 9.70982 17.224C9.70363 17.2288 9.69951 17.2358 9.69831 17.2435C9.69709 17.2534 9.6979 17.2634 9.70069 17.2729C9.70349 17.2824 9.70821 17.2912 9.71456 17.2988L9.84699 17.4767L9.84293 17.5198L9.68856 17.5523C9.68082 17.554 9.67398 17.5586 9.66935 17.565C9.66471 17.5714 9.66258 17.5793 9.66337 17.5872C9.66431 17.6082 9.67334 17.628 9.68856 17.6425L9.84293 17.8009L9.84699 17.8472L9.71456 17.9163C9.7076 17.9206 9.70224 17.9271 9.69931 17.9347C9.69637 17.9423 9.69602 17.9507 9.69831 17.9585C9.7029 17.9795 9.71469 17.9982 9.73162 18.0114L9.90062 18.1438L9.91362 18.1925L9.80799 18.2957C9.80257 18.3025 9.79917 18.3107 9.79816 18.3193C9.79716 18.3279 9.79859 18.3366 9.80231 18.3445C9.80981 18.3649 9.82416 18.3822 9.84293 18.3932L10.0217 18.4956L10.0428 18.5444L9.96806 18.6784C9.96447 18.6869 9.96296 18.6961 9.96367 18.7053C9.96437 18.7145 9.96727 18.7234 9.97212 18.7312C9.98201 18.7504 9.99844 18.7654 10.0184 18.7735L10.1996 18.8409L10.2281 18.8872L10.1866 19.0497C10.1849 19.0594 10.1853 19.0693 10.1876 19.0788C10.19 19.0883 10.1944 19.0973 10.2004 19.105C10.212 19.1223 10.2297 19.1345 10.25 19.1391L10.4263 19.17L10.4612 19.213L10.4547 19.3918C10.4553 19.4125 10.4637 19.4323 10.4783 19.447C10.4846 19.4546 10.4924 19.4607 10.5012 19.465C10.5101 19.4694 10.5197 19.4718 10.5295 19.4722L10.692 19.4649L10.7318 19.5031L10.7611 19.6932C10.7649 19.7143 10.7761 19.7333 10.7927 19.7469C10.7994 19.7534 10.8075 19.7582 10.8164 19.7609C10.8254 19.7636 10.8348 19.764 10.8439 19.7623L10.9902 19.7168L11.0341 19.7477L11.0974 19.9427C11.1043 19.9632 11.1181 19.9807 11.1364 19.9922C11.1434 19.9974 11.1516 20.0005 11.1602 20.0012C11.1688 20.0019 11.1775 20.0002 11.1852 19.9963L11.3087 19.915L11.3534 19.9378L11.4484 20.1312C11.4577 20.1506 11.4735 20.1661 11.4931 20.175C11.5003 20.1789 11.5085 20.1803 11.5165 20.1791C11.5246 20.1779 11.532 20.1742 11.5378 20.1685L11.6329 20.0532L11.6776 20.067L11.8011 20.2498C11.8121 20.2675 11.8296 20.2803 11.8498 20.2855C11.8573 20.2879 11.8653 20.2874 11.8725 20.2843C11.8797 20.2812 11.8854 20.2755 11.8888 20.2685L11.9522 20.1255L11.9961 20.1304L12.1431 20.2929C12.1494 20.3006 12.1572 20.3069 12.166 20.3115C12.1748 20.3161 12.1844 20.3189 12.1943 20.3197C12.2021 20.3199 12.2097 20.3172 12.2156 20.3121C12.2215 20.307 12.2252 20.2998 12.226 20.292L12.2552 20.1295L12.2951 20.1247L12.4576 20.2669C12.4642 20.2735 12.4722 20.2785 12.4811 20.2815C12.49 20.2844 12.4995 20.2853 12.5087 20.2839C12.5164 20.2817 12.523 20.2767 12.5273 20.27C12.5316 20.2633 12.5334 20.2553 12.5323 20.2474L12.5258 20.0637L12.5607 20.0491L12.7371 20.1629C12.7439 20.1684 12.7522 20.1719 12.7609 20.1731C12.7697 20.1742 12.7786 20.1729 12.7866 20.1694C12.7933 20.1645 12.7982 20.1576 12.8007 20.1497C12.8032 20.1418 12.8031 20.1333 12.8004 20.1255L12.759 19.9321L12.7874 19.9094L12.9686 19.9906C12.9758 19.9949 12.9842 19.9967 12.9926 19.9958C13.0009 19.995 13.0088 19.9914 13.0149 19.9857C13.0201 19.9786 13.0232 19.9703 13.0239 19.9615C13.0246 19.9528 13.0229 19.944 13.019 19.9362L12.9442 19.7412L12.9654 19.7095L13.1441 19.7534C13.1516 19.7561 13.1598 19.756 13.1673 19.7532C13.1748 19.7503 13.1809 19.7449 13.1847 19.7379C13.1881 19.7292 13.1893 19.7197 13.1883 19.7104C13.1874 19.7011 13.1842 19.6921 13.1791 19.6843L13.0734 19.4942L13.0864 19.456L13.2554 19.4617C13.2632 19.4624 13.271 19.4601 13.2772 19.4553C13.2834 19.4504 13.2875 19.4434 13.2887 19.4357C13.29 19.4258 13.2892 19.4159 13.2864 19.4064C13.2836 19.3969 13.2788 19.388 13.2725 19.3804L13.1401 19.2025L13.1441 19.1594L13.2985 19.1269C13.3062 19.1252 13.3131 19.1207 13.3177 19.1142C13.3223 19.1078 13.3245 19.0999 13.3237 19.092C13.3247 19.0807 13.3234 19.0692 13.3198 19.0585C13.3161 19.0477 13.3103 19.0378 13.3026 19.0294ZM12.2715 19.8858C12.244 19.8691 12.2218 19.845 12.2074 19.8163C12.1931 19.7875 12.1871 19.7553 12.1902 19.7233C12.2024 19.6697 12.2609 19.6559 12.3194 19.6924C12.3469 19.7091 12.3691 19.7332 12.3835 19.762C12.3979 19.7907 12.4038 19.8229 12.4007 19.8549C12.3885 19.9061 12.3308 19.9224 12.2715 19.8858ZM12.2195 19.5104C12.1659 19.4771 12.1131 19.4893 12.1017 19.5389L12.0472 19.772C11.8572 19.7767 11.6685 19.7401 11.4939 19.6648C11.286 19.5783 11.0939 19.4581 10.9252 19.3089L10.8707 19.031C10.8646 19.0014 10.8504 18.9741 10.8295 18.9521C10.8087 18.9301 10.7822 18.9144 10.7529 18.9067L10.5279 18.8629C10.4862 18.8027 10.4474 18.741 10.4117 18.6776L11.5086 19.1261C11.5207 19.131 11.5289 19.1326 11.5289 19.1212V18.7337C11.5289 18.7223 11.5207 18.7166 11.5086 18.7117L11.1876 18.5809V18.3372L11.5346 18.4794C11.5895 18.5041 11.6377 18.5418 11.6749 18.5892C11.7121 18.6366 11.7373 18.6923 11.7482 18.7515C11.7621 18.8117 11.7921 18.9994 11.8132 19.0644C11.845 19.1737 11.9136 19.2687 12.0074 19.3333L12.5534 19.5567L12.5729 19.5632C12.535 19.5993 12.4933 19.6311 12.4486 19.6583L12.2195 19.5104ZM10.7026 19.239C10.6706 19.2302 10.6417 19.2128 10.619 19.1888C10.5962 19.1647 10.5804 19.1349 10.5734 19.1025C10.5612 19.0384 10.5986 18.9953 10.6546 19.0067C10.6865 19.0156 10.7153 19.033 10.7381 19.0571C10.7608 19.0811 10.7766 19.1109 10.7838 19.1432C10.7992 19.2074 10.7619 19.2504 10.7026 19.239ZM10.2849 17.3817C10.3093 17.4467 10.2849 17.5011 10.2297 17.5027C10.1972 17.4995 10.1664 17.4869 10.1409 17.4666C10.1154 17.4463 10.0963 17.4191 10.0859 17.3882C10.0615 17.3232 10.0859 17.2687 10.1411 17.2671C10.1736 17.2704 10.2044 17.2829 10.2299 17.3032C10.2554 17.3236 10.2745 17.3508 10.2849 17.3817ZM10.1574 17.6327L10.3922 17.6246C10.4426 17.6246 10.4653 17.5734 10.4426 17.5141L10.3938 17.3849L10.5839 17.4662V18.3234L10.2004 18.1665C10.1673 18.0395 10.1501 17.9087 10.1492 17.7774C10.1497 17.7285 10.1529 17.6796 10.159 17.6311L10.1574 17.6327ZM11.1876 17.9707V17.718L11.6402 17.9033C11.6637 17.913 11.8027 17.9975 11.8027 18.104C11.8027 18.1917 11.6938 18.1787 11.6044 18.1422L11.1844 17.9707H11.1876ZM12.8329 18.871C12.8329 18.9046 12.8329 18.9373 12.8329 18.9693L12.6956 18.9132C12.6818 18.9075 12.6761 18.9132 12.6761 18.9279V18.9912C12.6761 19.1399 12.5949 19.1383 12.5185 19.1164C12.484 19.1061 12.4521 19.0887 12.4249 19.0651C12.3978 19.0416 12.3759 19.0125 12.3609 18.9799C12.3414 18.8072 12.2644 18.6461 12.1423 18.5224C12.2772 18.4915 12.4177 18.4233 12.4177 18.2535C12.4027 18.0862 12.328 17.9299 12.2073 17.8131C12.1254 17.7247 12.0275 17.6525 11.9189 17.6002L10.4954 17.0177C10.6052 16.9464 10.7289 16.8991 10.8582 16.879C10.9876 16.8588 11.1198 16.8662 11.2461 16.9007L11.4143 17.1444C11.4525 17.1997 11.5151 17.2257 11.5549 17.2054L11.7426 17.1022C12.1428 17.348 12.4621 17.7059 12.6607 18.1316L12.5323 18.3697C12.5238 18.3971 12.524 18.4265 12.5331 18.4537C12.5421 18.481 12.5595 18.5047 12.5827 18.5216L12.8264 18.7329C12.8318 18.78 12.8346 18.826 12.8346 18.871H12.8329ZM11.4119 16.8186C11.4557 16.795 11.524 16.8243 11.5662 16.8852C11.6085 16.9462 11.6061 17.0144 11.5662 17.038C11.5264 17.0615 11.4541 17.0323 11.4119 16.9714C11.3696 16.9104 11.3688 16.8446 11.4119 16.8186ZM12.6875 18.3664C12.7119 18.3209 12.7761 18.3225 12.8313 18.3664C12.8568 18.3849 12.8758 18.4109 12.8858 18.4408C12.8957 18.4707 12.896 18.5029 12.8866 18.533C12.8622 18.5785 12.798 18.5769 12.7427 18.533C12.7177 18.5147 12.699 18.4891 12.6891 18.4597C12.6792 18.4303 12.6787 18.3986 12.6875 18.3689V18.3664Z" fill="black"/>
<path opacity="0.55" d="M23.4784 15.2135L23.3386 15.1818V15.1404L23.4589 14.9714C23.4647 14.964 23.469 14.9555 23.4715 14.9464C23.474 14.9374 23.4747 14.9279 23.4735 14.9186C23.4725 14.9114 23.4688 14.905 23.4633 14.9005C23.4577 14.8959 23.4506 14.8937 23.4434 14.8942L23.2899 14.8991L23.2777 14.8625L23.3736 14.6821C23.3783 14.6746 23.3813 14.666 23.3823 14.6572C23.3832 14.6483 23.3822 14.6393 23.3793 14.6309C23.3759 14.6245 23.3704 14.6195 23.3637 14.6168C23.357 14.6141 23.3495 14.6139 23.3427 14.6163L23.1802 14.6577L23.1558 14.6252L23.2241 14.4392C23.2282 14.432 23.2304 14.4239 23.2304 14.4156C23.2304 14.4073 23.2282 14.3992 23.2241 14.3921C23.2187 14.3868 23.2117 14.3834 23.2042 14.3825C23.1967 14.3817 23.1891 14.3833 23.1826 14.3872L23.0201 14.4636L22.9941 14.4416L23.0323 14.2572C23.0348 14.2497 23.0349 14.2415 23.0326 14.234C23.0302 14.2264 23.0256 14.2198 23.0193 14.2149C23.012 14.2114 23.0038 14.2101 22.9957 14.2111C22.9877 14.2121 22.9801 14.2154 22.9738 14.2206L22.8113 14.3287L22.7796 14.3149L22.7853 14.1402C22.7865 14.1328 22.785 14.1252 22.7811 14.1189C22.7773 14.1125 22.7713 14.1076 22.7642 14.1052C22.7556 14.1039 22.7468 14.1046 22.7386 14.1075C22.7304 14.1103 22.723 14.1151 22.7171 14.1215L22.5676 14.2564L22.531 14.2515L22.5042 14.089C22.5034 14.0818 22.5 14.0752 22.4946 14.0704C22.4892 14.0656 22.4822 14.0629 22.4749 14.063C22.4659 14.0637 22.4571 14.0663 22.4491 14.0707C22.4411 14.075 22.4342 14.081 22.4286 14.0882L22.2954 14.2458L22.2556 14.2499L22.1979 14.1134C22.1952 14.1066 22.19 14.101 22.1833 14.0979C22.1767 14.0947 22.1691 14.0941 22.1621 14.0963C22.1434 14.1016 22.1275 14.1138 22.1174 14.1304L22.0053 14.3043L21.9647 14.3173L21.8778 14.2076C21.8727 14.2021 21.8659 14.1985 21.8586 14.1973C21.8512 14.1962 21.8437 14.1975 21.8371 14.2011C21.819 14.2095 21.8045 14.2242 21.7965 14.2426L21.7096 14.4262L21.6689 14.4473L21.5568 14.3661C21.5502 14.3617 21.5424 14.3594 21.5345 14.3594C21.5265 14.3594 21.5188 14.3617 21.5121 14.3661C21.4952 14.3772 21.4825 14.3938 21.4764 14.4132L21.4187 14.5984L21.3789 14.6277L21.2456 14.5838C21.2374 14.582 21.2288 14.5824 21.2207 14.5848C21.2126 14.5872 21.2053 14.5916 21.1993 14.5976C21.1839 14.6107 21.1736 14.6289 21.1701 14.6488L21.1433 14.83L21.1067 14.8657L20.9572 14.8576C20.9481 14.8579 20.9392 14.8601 20.931 14.8642C20.9229 14.8683 20.9157 14.8741 20.9101 14.8812C20.8969 14.8957 20.8894 14.9144 20.8889 14.934L20.8946 15.1038L20.8629 15.1444L20.7004 15.1729C20.6816 15.1774 20.6653 15.1891 20.6549 15.2054C20.6493 15.2128 20.6453 15.2214 20.643 15.2304C20.6408 15.2395 20.6404 15.249 20.6419 15.2582L20.6793 15.4101L20.6533 15.454L20.4908 15.5182C20.4726 15.526 20.4579 15.5401 20.4494 15.558C20.4455 15.5658 20.4435 15.5744 20.4435 15.5832C20.4435 15.5919 20.4455 15.6005 20.4494 15.6084L20.5176 15.7359L20.4981 15.7822L20.3356 15.8789C20.3185 15.8897 20.3056 15.9061 20.2991 15.9252C20.2958 15.9328 20.2945 15.941 20.2955 15.9492C20.2965 15.9573 20.2997 15.9651 20.3048 15.9716L20.4006 16.0707L20.3884 16.1178L20.2349 16.2437C20.2193 16.2565 20.2087 16.2743 20.2048 16.2941C20.2026 16.3016 20.2029 16.3095 20.2055 16.3168C20.2081 16.3241 20.213 16.3304 20.2194 16.3347L20.3397 16.4014V16.4461L20.1999 16.5964C20.1862 16.6106 20.1781 16.6294 20.1772 16.6492C20.1764 16.6565 20.1782 16.6639 20.1824 16.6701C20.1866 16.6762 20.1928 16.6806 20.1999 16.6825L20.3397 16.7142V16.7556L20.2194 16.9246C20.2137 16.932 20.2094 16.9405 20.2069 16.9496C20.2044 16.9586 20.2037 16.9681 20.2048 16.9774C20.2058 16.9845 20.2095 16.991 20.2151 16.9955C20.2206 17 20.2277 17.0023 20.2349 17.0018L20.3884 16.9969L20.4006 17.0335L20.3048 17.2139C20.3 17.2214 20.2971 17.2299 20.2961 17.2388C20.2951 17.2477 20.2961 17.2566 20.2991 17.2651C20.3024 17.2715 20.3079 17.2765 20.3146 17.2792C20.3213 17.2819 20.3288 17.282 20.3356 17.2797L20.4981 17.2382L20.5176 17.2683L20.4413 17.469C20.4371 17.4762 20.4349 17.4843 20.4349 17.4925C20.4349 17.5008 20.4371 17.5089 20.4413 17.5161C20.4467 17.5214 20.4536 17.5247 20.4611 17.5256C20.4686 17.5265 20.4762 17.5249 20.4827 17.521L20.6452 17.4446L20.6712 17.4666L20.6338 17.651C20.6315 17.6584 20.6315 17.6663 20.6339 17.6737C20.6362 17.6811 20.6407 17.6877 20.6468 17.6924C20.6542 17.696 20.6623 17.6973 20.6704 17.6963C20.6785 17.6953 20.6861 17.692 20.6923 17.6867L20.8548 17.5787L20.8865 17.5925L20.8808 17.7672C20.8797 17.7746 20.8811 17.7821 20.885 17.7885C20.8889 17.7949 20.8949 17.7997 20.9019 17.8021C20.9105 17.8035 20.9193 17.8027 20.9275 17.7999C20.9358 17.7971 20.9432 17.7922 20.9491 17.7859L21.0986 17.651L21.1351 17.6559L21.1619 17.8184C21.1626 17.8256 21.1659 17.8324 21.1714 17.8372C21.1768 17.842 21.1839 17.8446 21.1912 17.8444C21.2002 17.8436 21.209 17.841 21.217 17.8367C21.225 17.8323 21.232 17.8264 21.2375 17.8192L21.3708 17.6616L21.4106 17.6575L21.4683 17.794C21.4711 17.8006 21.4764 17.806 21.483 17.809C21.4896 17.812 21.4971 17.8124 21.504 17.8102C21.5227 17.805 21.5387 17.7928 21.5487 17.7761L21.6608 17.6022L21.7014 17.5892L21.7884 17.6989C21.7935 17.7044 21.8002 17.708 21.8076 17.7092C21.8149 17.7104 21.8225 17.709 21.829 17.7054C21.8472 17.6971 21.8617 17.6823 21.8696 17.664L21.9566 17.4804L21.9972 17.4584L22.1093 17.5397C22.116 17.544 22.1237 17.5464 22.1317 17.5464C22.1396 17.5464 22.1474 17.544 22.154 17.5397C22.171 17.5285 22.1836 17.5119 22.1898 17.4925L22.2474 17.3073L22.2873 17.2781L22.4205 17.3219C22.4288 17.3236 22.4373 17.3232 22.4454 17.3208C22.4535 17.3184 22.4608 17.3141 22.4668 17.3081C22.4822 17.295 22.4926 17.2769 22.4961 17.2569L22.5269 17.0627L22.5635 17.027L22.713 17.0351C22.7221 17.0348 22.731 17.0326 22.7392 17.0285C22.7473 17.0245 22.7545 17.0187 22.7601 17.0116C22.7733 16.9971 22.7808 16.9783 22.7813 16.9587L22.7756 16.7889L22.8073 16.7483L22.9698 16.7199C22.9886 16.7154 23.0049 16.7037 23.0153 16.6874C23.0209 16.6799 23.0249 16.6714 23.0272 16.6623C23.0294 16.6532 23.0298 16.6438 23.0283 16.6346L22.9909 16.4826L23.0169 16.4387L23.1794 16.3746C23.1976 16.3668 23.2123 16.3526 23.2208 16.3347C23.2247 16.3269 23.2267 16.3183 23.2267 16.3096C23.2267 16.3008 23.2247 16.2922 23.2208 16.2844L23.1526 16.1568L23.1721 16.1105L23.3346 16.0138C23.3517 16.003 23.3647 15.9867 23.3711 15.9675C23.3738 15.9606 23.3748 15.9531 23.3739 15.9458C23.3731 15.9384 23.3705 15.9314 23.3663 15.9252L23.2704 15.8261L23.2826 15.779L23.4361 15.6531C23.4517 15.6402 23.4623 15.6224 23.4662 15.6027C23.4684 15.5952 23.4682 15.5873 23.4655 15.58C23.4629 15.5727 23.458 15.5664 23.4516 15.5621L23.3313 15.4954V15.4507L23.4711 15.3004C23.4848 15.2862 23.4929 15.2674 23.4938 15.2476C23.4953 15.241 23.4947 15.2341 23.4919 15.2279C23.4891 15.2218 23.4843 15.2167 23.4784 15.2135ZM22.5416 16.8287C22.4879 16.8393 22.4538 16.7987 22.4652 16.7377C22.4711 16.7074 22.4851 16.6792 22.5059 16.6563C22.5267 16.6333 22.5534 16.6165 22.583 16.6077C22.6366 16.5972 22.6708 16.6378 22.6594 16.6987C22.6535 16.7293 22.6393 16.7577 22.6184 16.7808C22.5975 16.8038 22.5706 16.8207 22.5408 16.8296L22.5416 16.8287ZM22.4936 16.5119C22.4666 16.52 22.4424 16.5353 22.4235 16.5562C22.4045 16.5771 22.3917 16.6028 22.3864 16.6305L22.3368 16.8946C22.1882 17.0298 22.0182 17.1396 21.8339 17.2196C21.6728 17.2923 21.497 17.3265 21.3204 17.3195L21.2708 17.0977C21.2603 17.0514 21.2123 17.0392 21.1636 17.0709L20.9588 17.2041C20.9208 17.1791 20.8854 17.1502 20.8532 17.118L21.8493 16.6947C21.8607 16.6898 21.868 16.6849 21.868 16.6736V16.3039C21.868 16.2933 21.8607 16.2941 21.8493 16.299L21.5576 16.4225V16.1885L21.8729 16.0544C21.8913 16.0439 21.912 16.038 21.9332 16.0373C21.9544 16.0365 21.9754 16.0409 21.9945 16.0501C22.0136 16.0593 22.0302 16.073 22.0429 16.09C22.0555 16.1071 22.0638 16.1269 22.0671 16.1479C22.0793 16.1942 22.1069 16.3502 22.1256 16.3916C22.1443 16.4331 22.2206 16.5314 22.3019 16.4972L22.7983 16.286L22.8162 16.2762C22.7821 16.3396 22.7439 16.4022 22.7033 16.4631L22.4936 16.5119ZM21.1124 17.43C21.0588 17.4649 21.0059 17.4511 20.9946 17.3999C20.9912 17.3694 20.9967 17.3385 21.0102 17.3109C21.0237 17.2833 21.0448 17.26 21.0709 17.2439C21.1246 17.209 21.1774 17.2228 21.1888 17.274C21.1924 17.3042 21.1875 17.3349 21.1746 17.3625C21.1616 17.3901 21.1412 17.4135 21.1156 17.43H21.1124ZM20.7346 15.9846C20.7442 16.0135 20.7445 16.0447 20.7354 16.0739C20.7264 16.103 20.7085 16.1286 20.6842 16.1471C20.6338 16.1917 20.5753 16.1926 20.5534 16.1471C20.5438 16.1181 20.5435 16.0869 20.5525 16.0577C20.5615 16.0286 20.5795 16.003 20.6038 15.9846C20.6566 15.9431 20.7151 15.9415 20.7378 15.9846H20.7346ZM20.6184 16.3226L20.8321 16.1324C20.8536 16.1159 20.8696 16.0932 20.8778 16.0674C20.8861 16.0415 20.8863 16.0138 20.8784 15.9878L20.8345 15.9025L21.0076 15.8294V16.6419L20.659 16.7897C20.6272 16.6824 20.6116 16.571 20.6127 16.4591C20.6143 16.4127 20.6168 16.3697 20.6216 16.3226H20.6184ZM21.5544 15.8456V15.6019L21.9655 15.4272C21.9866 15.4182 22.1158 15.389 22.1158 15.4897C22.1158 15.571 22.0167 15.6457 21.9354 15.6799L21.5536 15.8424L21.5544 15.8456ZM23.0494 15.4264C23.0494 15.4583 23.0494 15.4903 23.0494 15.5222L22.9243 15.5751C22.9186 15.5774 22.9138 15.5815 22.9106 15.5868C22.9074 15.592 22.9059 15.5982 22.9064 15.6043V15.6644C22.9097 15.7147 22.8978 15.7648 22.8723 15.8082C22.8468 15.8517 22.8089 15.8865 22.7634 15.9082C22.7 15.9431 22.6293 15.9374 22.6204 15.9001C22.583 15.6945 22.5204 15.6742 22.4213 15.6344C22.5559 15.511 22.6442 15.3453 22.6716 15.1647C22.6759 15.1062 22.6589 15.0482 22.6238 15.0012C22.5888 14.9541 22.5379 14.9214 22.4806 14.9088C22.3932 14.8904 22.3023 14.8977 22.219 14.9299L20.9288 15.4784C21.1015 15.1992 21.3348 14.9623 21.6113 14.7853L21.764 14.8885C21.7981 14.9121 21.8558 14.8885 21.8916 14.8373L22.0622 14.5936C22.212 14.5469 22.3725 14.5477 22.5218 14.5957C22.6712 14.6436 22.802 14.7365 22.8966 14.8617L22.7796 15.1867C22.7593 15.2427 22.7796 15.2907 22.8259 15.2923L23.051 15.3012C23.0521 15.3419 23.0526 15.3836 23.0526 15.4264H23.0494ZM21.7567 14.5781C21.7965 14.5221 21.8591 14.4969 21.8964 14.5221C21.9338 14.5472 21.933 14.6139 21.8964 14.6707C21.8599 14.7276 21.7941 14.752 21.7567 14.7268C21.7193 14.7016 21.7201 14.6342 21.7599 14.5773L21.7567 14.5781ZM22.9161 15.0656C22.9251 15.0368 22.9422 15.0113 22.9655 14.9921C22.9887 14.9729 23.017 14.9609 23.0469 14.9576C23.0973 14.9576 23.1193 15.0112 23.0973 15.0729C23.0884 15.1017 23.0712 15.1272 23.048 15.1464C23.0248 15.1656 22.9965 15.1776 22.9665 15.181C22.9194 15.1761 22.8966 15.1241 22.9194 15.0624L22.9161 15.0656Z" fill="black"/>
<g clip-path="url(#clip1_24_1729)">
<path d="M4.65664 13.8109V13.2707L4.83487 13.3761L4.59997 12.7002L4.36511 13.0985L4.54333 13.2038V13.744L4.65664 13.8109Z" fill="#A17FF1"/>
</g>
<g clip-path="url(#clip2_24_1729)">
<path d="M8.3633 15.3109V14.7707L8.54153 14.8761L8.30664 14.2002L8.07178 14.5985L8.24999 14.7038V15.244L8.3633 15.3109Z" fill="#A17FF1"/>
</g>
<g clip-path="url(#clip3_24_1729)">
<path d="M9.64296 9.22207V8.68187L9.8212 8.78719L9.5863 8.11131L9.35144 8.50961L9.52965 8.61492V9.15511L9.64296 9.22207Z" fill="#A17FF1"/>
</g>
<g clip-path="url(#clip4_24_1729)">
<path d="M13.3496 10.7216V10.1814L13.5279 10.2867L13.293 9.61082L13.0581 10.0091L13.2363 10.1144V10.6546L13.3496 10.7216Z" fill="#A17FF1"/>
</g>
<g clip-path="url(#clip5_24_1729)">
<path d="M14.7531 17.3425V16.8023L14.9151 16.705L14.7015 16.2961L14.488 16.9613L14.65 16.8641V17.4043L14.7531 17.3425Z" fill="#A17FF1"/>
</g>
<g clip-path="url(#clip6_24_1729)">
<path d="M18.5035 15.8425V15.3023L18.6656 15.205L18.452 14.7961L18.2385 15.4613L18.4005 15.3641V15.9043L18.5035 15.8425Z" fill="#A17FF1"/>
</g>
<g clip-path="url(#clip7_24_1729)">
<path d="M19.871 8.91423V8.37404L20.033 8.27682L19.8195 7.86786L19.606 8.53305L19.768 8.43584V8.97603L19.871 8.91423Z" fill="#A17FF1"/>
</g>
<g clip-path="url(#clip8_24_1729)">
<path d="M23.6223 7.41423V6.87404L23.7843 6.77682L23.5708 6.36786L23.3573 7.03305L23.5193 6.93584V7.47603L23.6223 7.41423Z" fill="#A17FF1"/>
</g>
<defs>
<clipPath id="clip0_24_1729">
<rect width="1.07728" height="0.545639" fill="white" transform="matrix(0 -1 0.860927 0.508729 9.43994 5.07812)"/>
</clipPath>
<clipPath id="clip1_24_1729">
<rect width="1.07728" height="0.545639" fill="white" transform="matrix(0 -1 0.860927 0.508729 4.36511 13.6387)"/>
</clipPath>
<clipPath id="clip2_24_1729">
<rect width="1.07728" height="0.545639" fill="white" transform="matrix(0 -1 0.860927 0.508729 8.07178 15.1387)"/>
</clipPath>
<clipPath id="clip3_24_1729">
<rect width="1.07728" height="0.545639" fill="white" transform="matrix(0 -1 0.860927 0.508729 9.35144 9.0498)"/>
</clipPath>
<clipPath id="clip4_24_1729">
<rect width="1.07728" height="0.545639" fill="white" transform="matrix(0 -1 0.860927 0.508729 13.0581 10.5493)"/>
</clipPath>
<clipPath id="clip5_24_1729">
<rect width="1.07728" height="0.498022" fill="white" transform="matrix(0 -1 0.857493 -0.514496 14.488 17.5015)"/>
</clipPath>
<clipPath id="clip6_24_1729">
<rect width="1.07728" height="0.498022" fill="white" transform="matrix(0 -1 0.857493 -0.514496 18.2385 16.0015)"/>
</clipPath>
<clipPath id="clip7_24_1729">
<rect width="1.07728" height="0.498022" fill="white" transform="matrix(0 -1 0.857493 -0.514496 19.606 9.07324)"/>
</clipPath>
<clipPath id="clip8_24_1729">
<rect width="1.07728" height="0.498022" fill="white" transform="matrix(0 -1 0.857493 -0.514496 23.3573 7.57324)"/>
</clipPath>
</defs>
</svg>
