<svg width="11" height="13" viewBox="0 0 11 13" xmlns="http://www.w3.org/2000/svg">
<g clip-path="url(#clip0_24_749)">
<g clip-path="url(#clip1_24_749)">
<path d="M4.09977 12.1248C3.66375 12.1248 3.31029 11.7713 3.31029 11.3353V7.91425C3.31029 7.47824 2.95683 7.12478 2.52082 7.12478H1.85128C1.18525 7.12478 0.818505 6.35085 1.24025 5.83538L5.19927 0.996581C5.51515 0.610516 6.10544 0.610514 6.42131 0.99658L10.3803 5.83538C10.8021 6.35085 10.4353 7.12478 9.76931 7.12478H9.09977C8.66375 7.12478 8.31029 7.47824 8.31029 7.91425V11.3353C8.31029 11.7713 7.95683 12.1248 7.52082 12.1248H4.09977Z" />
</g>
</g>
<defs>
<clipPath id="clip0_24_749">
<rect width="10" height="13" transform="translate(0.810059)"/>
</clipPath>
<clipPath id="clip1_24_749">
<rect width="10" height="13" transform="translate(0.810059)"/>
</clipPath>
</defs>
</svg>
