<svg width="2103" height="2060" viewBox="0 0 2103 2060" fill="none" xmlns="http://www.w3.org/2000/svg">
<g filter="url(#filter0_f_2027_273)">
<ellipse cx="1016.58" cy="1029.43" rx="134.482" ry="96.9452" transform="rotate(2.95 1016.58 1029.43)" fill="#AD38C1"/>
</g>
<path d="M979.42 934.336C952.52 927.462 930.564 927.984 916.618 935.766C902.697 943.533 897.404 958.178 901.558 977.702C905.714 997.232 919.111 1020.62 939.877 1044.56C960.641 1068.5 987.71 1091.77 1017.26 1111.07C1046.81 1130.37 1077.34 1144.73 1104.53 1152.12C1131.72 1159.51 1154.16 1159.55 1168.71 1152.28C1175.98 1148.64 1181.1 1143.28 1183.97 1136.43C1186.84 1129.57 1187.46 1121.22 1185.72 1111.62C1182.24 1092.41 1169.48 1069.19 1149.21 1045.25M1015.67 925.804C968.123 899.398 924.807 885.054 893.511 885.322C877.867 885.456 865.761 889.236 857.553 896.303C849.347 903.367 845.011 913.739 844.955 927.111C844.843 953.87 861.883 990.823 893.058 1031.32C924.227 1071.81 967.456 1113.16 1014.96 1147.92C1062.47 1182.67 1111.12 1208.54 1152.15 1220.88C1172.66 1227.05 1190.59 1229.63 1205.24 1228.67C1219.89 1227.72 1231.25 1223.23 1238.66 1215.28C1246.07 1207.33 1249.31 1196.15 1248.4 1182.37C1247.49 1168.58 1242.42 1152.21 1233.23 1133.89C1214.85 1097.25 1181.2 1055.28 1138.33 1015.55M739.967 835.652C693.662 887.658 785.324 1030.78 944.698 1155.32C1104.07 1279.87 1270.81 1338.67 1317.11 1286.67C1363.42 1234.66 1271.76 1091.54 1112.38 966.993C953.008 842.449 786.271 783.646 739.967 835.652Z" stroke="white" stroke-opacity="0.1" stroke-width="1.03922"/>
<g filter="url(#filter1_f_2027_273)">
<ellipse cx="1037.46" cy="1063.82" rx="57.9491" ry="56.6381" transform="rotate(2.95 1037.46 1063.82)" fill="#9489E4" fill-opacity="0.51"/>
</g>
<g filter="url(#filter2_f_2027_273)">
<ellipse cx="1044.9" cy="1056.35" rx="32.346" ry="31.6142" transform="rotate(2.95 1044.9 1056.35)" fill="#A5FAFF"/>
</g>
<g filter="url(#filter3_f_2027_273)">
<path d="M883.722 970.038C892.521 967.189 897.311 957.843 894.424 949.163C891.535 940.482 882.062 935.756 873.263 938.605C864.465 941.454 859.674 950.8 862.562 959.48C865.45 968.161 874.924 972.887 883.722 970.038Z" fill="url(#paint0_radial_2027_273)"/>
</g>
<path d="M863.686 1081.62C850.803 1069.97 849.94 1050.21 861.759 1037.5C873.577 1024.79 893.602 1023.94 906.484 1035.6C919.368 1047.26 920.231 1067.01 908.412 1079.72C896.593 1092.43 876.569 1093.28 863.686 1081.62Z" fill="url(#paint1_radial_2027_273)"/>
<g filter="url(#filter4_f_2027_273)">
<path d="M798.981 1083.34C806.265 1080.05 809.464 1071.56 806.127 1064.37C802.79 1057.18 794.18 1054.03 786.897 1057.32C779.613 1060.61 776.413 1069.11 779.75 1076.29C783.088 1083.48 791.697 1086.63 798.981 1083.34Z" fill="url(#paint2_radial_2027_273)"/>
</g>
<g filter="url(#filter5_f_2027_273)">
<path d="M997.127 1095.63C990.368 1099.68 988.218 1108.37 992.324 1115.04C996.431 1121.7 1005.24 1123.82 1012 1119.77C1018.76 1115.72 1020.91 1107.03 1016.8 1100.36C1012.69 1093.7 1003.89 1091.57 997.127 1095.63Z" fill="url(#paint3_radial_2027_273)"/>
</g>
<path d="M1218.27 1075.28C1234.26 1082.25 1252.95 1075.12 1260.02 1059.35C1267.09 1043.58 1259.86 1025.14 1243.87 1018.16C1227.89 1011.19 1209.2 1018.32 1202.13 1034.09C1195.06 1049.86 1202.29 1068.3 1218.27 1075.28Z" fill="url(#paint4_radial_2027_273)"/>
<path d="M1237.92 1045.05C1238.21 1043.1 1236.73 1042.06 1234.71 1041.36L1235.36 1038.73L1233.76 1038.33L1233.12 1040.89C1232.7 1040.79 1232.27 1040.69 1231.84 1040.59L1232.48 1038.01L1230.88 1037.61L1230.22 1040.24C1229.87 1040.16 1229.53 1040.09 1229.2 1040L1229.2 1040L1226.99 1039.44L1226.56 1041.16C1226.56 1041.16 1227.75 1041.43 1227.73 1041.44C1228.37 1041.61 1228.49 1042.04 1228.47 1042.38L1227.72 1045.38C1227.77 1045.39 1227.83 1045.4 1227.89 1045.43C1227.84 1045.42 1227.78 1045.4 1227.72 1045.39L1226.67 1049.59C1226.59 1049.79 1226.39 1050.08 1225.94 1049.97C1225.95 1049.99 1224.77 1049.68 1224.77 1049.68L1223.98 1051.51L1226.06 1052.03C1226.45 1052.13 1226.83 1052.23 1227.21 1052.33L1226.54 1054.99L1228.14 1055.39L1228.8 1052.76C1229.24 1052.87 1229.66 1052.98 1230.08 1053.09L1229.42 1055.71L1231.03 1056.11L1231.69 1053.45C1234.43 1053.97 1236.48 1053.76 1237.35 1051.29C1238.04 1049.3 1237.31 1048.15 1235.87 1047.4C1236.92 1047.16 1237.71 1046.47 1237.92 1045.05ZM1234.26 1050.18C1233.76 1052.17 1230.41 1051.1 1229.32 1050.83L1230.2 1047.3C1231.29 1047.57 1234.78 1048.11 1234.26 1050.18ZM1234.75 1045.02C1234.3 1046.83 1231.51 1045.91 1230.61 1045.68L1231.4 1042.48C1232.31 1042.71 1235.22 1043.13 1234.75 1045.02Z" fill="url(#paint5_linear_2027_273)"/>
<path d="M1134.86 1034.47C1125.61 1040.58 1123.14 1052.94 1129.33 1062.06C1135.53 1071.19 1148.05 1073.64 1157.3 1067.52C1166.56 1061.41 1169.03 1049.06 1162.84 1039.93C1156.64 1030.8 1144.12 1028.36 1134.86 1034.47Z" fill="url(#paint6_radial_2027_273)"/>
<path d="M953.682 1061.59L1029.06 1060.11" stroke="url(#paint7_linear_2027_273)" stroke-width="1.96429" stroke-linecap="round"/>
<g filter="url(#filter6_i_2027_273)">
<path d="M1145.08 1151.4C1160.25 1133.83 1186.99 1131.71 1204.81 1146.68C1222.62 1161.65 1224.76 1188.03 1209.59 1205.6C1194.42 1223.18 1167.68 1225.29 1149.87 1210.33C1132.05 1195.36 1129.91 1168.98 1145.08 1151.4Z" fill="url(#paint8_radial_2027_273)"/>
</g>
<path d="M1038.11 1049.32L1126.02 1127" stroke="url(#paint9_linear_2027_273)" stroke-width="3.20413" stroke-linecap="round"/>
<g filter="url(#filter7_f_2027_273)">
<ellipse cx="1243.75" cy="1115.26" rx="14.063" ry="13.6359" transform="rotate(-171.642 1243.75 1115.26)" fill="url(#paint10_radial_2027_273)"/>
</g>
<path d="M864.206 1194.89C876.171 1178.34 872.272 1155.35 855.496 1143.55C838.721 1131.74 815.422 1135.59 803.457 1152.14C791.492 1168.69 795.391 1191.67 812.166 1203.48C828.941 1215.28 852.24 1211.44 864.206 1194.89Z" fill="url(#paint11_radial_2027_273)"/>
<path fill-rule="evenodd" clip-rule="evenodd" d="M841.373 1167.6L832.337 1163.98L824.641 1169.89L825.98 1179.42L835.016 1183.04L842.713 1177.13L841.373 1167.6ZM840.736 1168.09L832.448 1164.77L825.389 1170.19L826.617 1178.93L834.905 1182.25L841.965 1176.83L840.736 1168.09Z" fill="url(#paint12_linear_2027_273)"/>
<path d="M829.512 1168.56L829.239 1172.12L837.331 1171.01L836.085 1167.66L829.512 1168.56Z" fill="url(#paint13_linear_2027_273)"/>
<path d="M832.278 1174.03L832.309 1176.11L835.734 1175.64L835.191 1173.64L835.683 1171.71L831.273 1172.32L832.278 1174.03Z" fill="url(#paint14_linear_2027_273)"/>
<path d="M831.581 1174.13L829.393 1173.21L827.44 1175.09L831.193 1179.77L832.444 1179.6L833.659 1178.13L833.568 1177.49L831.891 1176.34L831.581 1174.13Z" fill="url(#paint15_linear_2027_273)"/>
<path d="M835.888 1173.54L837.74 1172.07L840.137 1173.35L837.818 1178.87L836.566 1179.04L834.993 1177.95L834.902 1177.3L836.198 1175.75L835.888 1173.54Z" fill="url(#paint16_linear_2027_273)"/>
<g filter="url(#filter8_f_2027_273)">
<ellipse cx="1051.71" cy="1030.16" rx="246.221" ry="147.635" transform="rotate(38.6945 1051.71 1030.16)" fill="#AD38C1" fill-opacity="0.5"/>
</g>
<defs>
<filter id="filter0_f_2027_273" x="682.182" y="732.361" width="668.797" height="594.136" filterUnits="userSpaceOnUse" color-interpolation-filters="sRGB">
<feFlood flood-opacity="0" result="BackgroundImageFix"/>
<feBlend mode="normal" in="SourceGraphic" in2="BackgroundImageFix" result="shape"/>
<feGaussianBlur stdDeviation="100" result="effect1_foregroundBlur_2027_273"/>
</filter>
<filter id="filter1_f_2027_273" x="909.513" y="937.173" width="255.894" height="253.286" filterUnits="userSpaceOnUse" color-interpolation-filters="sRGB">
<feFlood flood-opacity="0" result="BackgroundImageFix"/>
<feBlend mode="normal" in="SourceGraphic" in2="BackgroundImageFix" result="shape"/>
<feGaussianBlur stdDeviation="35" result="effect1_foregroundBlur_2027_273"/>
</filter>
<filter id="filter2_f_2027_273" x="952.555" y="964.735" width="184.69" height="183.234" filterUnits="userSpaceOnUse" color-interpolation-filters="sRGB">
<feFlood flood-opacity="0" result="BackgroundImageFix"/>
<feBlend mode="normal" in="SourceGraphic" in2="BackgroundImageFix" result="shape"/>
<feGaussianBlur stdDeviation="30" result="effect1_foregroundBlur_2027_273"/>
</filter>
<filter id="filter3_f_2027_273" x="857.721" y="933.775" width="41.5432" height="41.0923" filterUnits="userSpaceOnUse" color-interpolation-filters="sRGB">
<feFlood flood-opacity="0" result="BackgroundImageFix"/>
<feBlend mode="normal" in="SourceGraphic" in2="BackgroundImageFix" result="shape"/>
<feGaussianBlur stdDeviation="2" result="effect1_foregroundBlur_2027_273"/>
</filter>
<filter id="filter4_f_2027_273" x="773.429" y="1051.02" width="39.0205" height="38.6304" filterUnits="userSpaceOnUse" color-interpolation-filters="sRGB">
<feFlood flood-opacity="0" result="BackgroundImageFix"/>
<feBlend mode="normal" in="SourceGraphic" in2="BackgroundImageFix" result="shape"/>
<feGaussianBlur stdDeviation="2.5" result="effect1_foregroundBlur_2027_273"/>
</filter>
<filter id="filter5_f_2027_273" x="985.24" y="1088.57" width="38.6437" height="38.2588" filterUnits="userSpaceOnUse" color-interpolation-filters="sRGB">
<feFlood flood-opacity="0" result="BackgroundImageFix"/>
<feBlend mode="normal" in="SourceGraphic" in2="BackgroundImageFix" result="shape"/>
<feGaussianBlur stdDeviation="2.5" result="effect1_foregroundBlur_2027_273"/>
</filter>
<filter id="filter6_i_2027_273" x="1134.97" y="1136.7" width="85.7386" height="84.6001" filterUnits="userSpaceOnUse" color-interpolation-filters="sRGB">
<feFlood flood-opacity="0" result="BackgroundImageFix"/>
<feBlend mode="normal" in="SourceGraphic" in2="BackgroundImageFix" result="shape"/>
<feColorMatrix in="SourceAlpha" type="matrix" values="0 0 0 0 0 0 0 0 0 0 0 0 0 0 0 0 0 0 127 0" result="hardAlpha"/>
<feOffset dx="1" dy="1"/>
<feGaussianBlur stdDeviation="2.5"/>
<feComposite in2="hardAlpha" operator="arithmetic" k2="-1" k3="1"/>
<feColorMatrix type="matrix" values="0 0 0 0 0.992157 0 0 0 0 0.568627 0 0 0 0 1 0 0 0 1 0"/>
<feBlend mode="normal" in2="shape" result="effect1_innerShadow_2027_273"/>
</filter>
<filter id="filter7_f_2027_273" x="1222.69" y="1094.62" width="42.1118" height="41.2939" filterUnits="userSpaceOnUse" color-interpolation-filters="sRGB">
<feFlood flood-opacity="0" result="BackgroundImageFix"/>
<feBlend mode="normal" in="SourceGraphic" in2="BackgroundImageFix" result="shape"/>
<feGaussianBlur stdDeviation="3.5" result="effect1_foregroundBlur_2027_273"/>
</filter>
<filter id="filter8_f_2027_273" x="0.912781" y="0.304749" width="2101.6" height="2059.7" filterUnits="userSpaceOnUse" color-interpolation-filters="sRGB">
<feFlood flood-opacity="0" result="BackgroundImageFix"/>
<feBlend mode="normal" in="SourceGraphic" in2="BackgroundImageFix" result="shape"/>
<feGaussianBlur stdDeviation="418.78" result="effect1_foregroundBlur_2027_273"/>
</filter>
<radialGradient id="paint0_radial_2027_273" cx="0" cy="0" r="1" gradientUnits="userSpaceOnUse" gradientTransform="translate(855.031 945.632) rotate(26.3778) scale(45.1181 44.7529)">
<stop offset="0.473925" stop-color="#190F2E"/>
<stop offset="0.945943" stop-color="#7D4087"/>
</radialGradient>
<radialGradient id="paint1_radial_2027_273" cx="0" cy="0" r="1" gradientUnits="userSpaceOnUse" gradientTransform="translate(858.997 1059.16) rotate(-1.38134) scale(62.2884 66.4223)">
<stop stop-color="#386480"/>
<stop offset="0.682292" stop-color="#5B4BB9"/>
<stop offset="0.932292" stop-color="#F9FDFF"/>
</radialGradient>
<radialGradient id="paint2_radial_2027_273" cx="0" cy="0" r="1" gradientUnits="userSpaceOnUse" gradientTransform="translate(780.219 1095.26) rotate(-62.3627) scale(44.9466 45.2971)">
<stop offset="0.473925" stop-color="#130F1A"/>
<stop offset="0.823158" stop-color="#3B2A5E"/>
<stop offset="0.991368" stop-color="#8543B1"/>
</radialGradient>
<radialGradient id="paint3_radial_2027_273" cx="0" cy="0" r="1" gradientUnits="userSpaceOnUse" gradientTransform="translate(1000.79 1110.19) rotate(-25.469) scale(19.733 19.5666)">
<stop stop-color="#77099E"/>
<stop offset="0.697917" stop-color="#6B2DAA"/>
<stop offset="1" stop-color="#6CE8FF"/>
</radialGradient>
<radialGradient id="paint4_radial_2027_273" cx="0" cy="0" r="1" gradientUnits="userSpaceOnUse" gradientTransform="translate(1256.95 1043.41) rotate(172.885) scale(62.2822 55.864)">
<stop stop-color="#FF994F"/>
<stop offset="0.71875" stop-color="#EB6E53"/>
<stop offset="0.895833" stop-color="#DEFFFB"/>
</radialGradient>
<linearGradient id="paint5_linear_2027_273" x1="1224.1" y1="1040.74" x2="1237.61" y2="1056.44" gradientUnits="userSpaceOnUse">
<stop stop-color="#6F3500" stop-opacity="0.34"/>
<stop offset="1" stop-color="#B55700" stop-opacity="0"/>
</linearGradient>
<radialGradient id="paint6_radial_2027_273" cx="0" cy="0" r="1" gradientUnits="userSpaceOnUse" gradientTransform="translate(1151.35 1046.08) rotate(151.144) scale(32.1753 34.403)">
<stop stop-color="#200F31"/>
<stop offset="0.837244" stop-color="#82118C"/>
</radialGradient>
<linearGradient id="paint7_linear_2027_273" x1="953.716" y1="1061.59" x2="953.772" y2="1058.66" gradientUnits="userSpaceOnUse">
<stop offset="0.190577" stop-color="#BAFBFF"/>
<stop offset="0.427388" stop-color="#AFD4F9" stop-opacity="0"/>
</linearGradient>
<radialGradient id="paint8_radial_2027_273" cx="0" cy="0" r="1" gradientUnits="userSpaceOnUse" gradientTransform="translate(1205.04 1201.37) rotate(-141.817) scale(90.4597 80.3162)">
<stop stop-color="#45122B"/>
<stop offset="0.692708" stop-color="#1B1200"/>
<stop offset="0.880208" stop-color="#FFE7D1"/>
</radialGradient>
<linearGradient id="paint9_linear_2027_273" x1="1125.98" y1="1127.02" x2="1050.37" y2="1038.71" gradientUnits="userSpaceOnUse">
<stop offset="0.190577" stop-color="#BAFBFF"/>
<stop offset="0.427388" stop-color="#AFD4F9" stop-opacity="0"/>
</linearGradient>
<radialGradient id="paint10_radial_2027_273" cx="0" cy="0" r="1" gradientUnits="userSpaceOnUse" gradientTransform="translate(1235.88 1115.14) rotate(2.01794) scale(21.5033 22.0328)">
<stop offset="0.412964"/>
<stop offset="0.601387"/>
<stop offset="1" stop-color="#3F048B"/>
</radialGradient>
<radialGradient id="paint11_radial_2027_273" cx="0" cy="0" r="1" gradientUnits="userSpaceOnUse" gradientTransform="translate(796.667 1200.8) rotate(-34.2527) scale(90.2579 89.8187)">
<stop offset="0.473925" stop-color="#07090F"/>
<stop offset="0.702566" stop-color="#07193E"/>
<stop offset="0.926338" stop-color="#015980"/>
</radialGradient>
<linearGradient id="paint12_linear_2027_273" x1="841.746" y1="1164.22" x2="824.304" y2="1184.53" gradientUnits="userSpaceOnUse">
<stop stop-color="#68DBFF" stop-opacity="0.26"/>
<stop offset="1" stop-color="#48D3FF" stop-opacity="0"/>
</linearGradient>
<linearGradient id="paint13_linear_2027_273" x1="841.746" y1="1164.22" x2="824.304" y2="1184.53" gradientUnits="userSpaceOnUse">
<stop stop-color="#68DBFF" stop-opacity="0.26"/>
<stop offset="1" stop-color="#48D3FF" stop-opacity="0"/>
</linearGradient>
<linearGradient id="paint14_linear_2027_273" x1="841.746" y1="1164.22" x2="824.304" y2="1184.53" gradientUnits="userSpaceOnUse">
<stop stop-color="#68DBFF" stop-opacity="0.26"/>
<stop offset="1" stop-color="#48D3FF" stop-opacity="0"/>
</linearGradient>
<linearGradient id="paint15_linear_2027_273" x1="841.746" y1="1164.22" x2="824.304" y2="1184.53" gradientUnits="userSpaceOnUse">
<stop stop-color="#68DBFF" stop-opacity="0.26"/>
<stop offset="1" stop-color="#48D3FF" stop-opacity="0"/>
</linearGradient>
<linearGradient id="paint16_linear_2027_273" x1="841.746" y1="1164.22" x2="824.304" y2="1184.53" gradientUnits="userSpaceOnUse">
<stop stop-color="#68DBFF" stop-opacity="0.26"/>
<stop offset="1" stop-color="#48D3FF" stop-opacity="0"/>
</linearGradient>
</defs>
</svg>
