<svg width="722" height="750" viewBox="0 0 722 750" fill="none" xmlns="http://www.w3.org/2000/svg">
<g clip-path="url(#clip0_2016_319)">
<g filter="url(#filter0_f_2016_319)">
<ellipse cx="348.581" cy="268.429" rx="134.482" ry="96.9452" transform="rotate(2.95 348.581 268.429)" fill="#AD38C1"/>
</g>
<path d="M311.42 173.335C284.52 166.462 262.564 166.984 248.618 174.765C234.697 182.532 229.404 197.177 233.558 216.701C237.714 236.232 251.111 259.622 271.877 283.564C292.641 307.502 319.71 330.768 349.26 350.071C378.809 369.374 409.337 383.733 436.526 391.122C463.722 398.513 486.164 398.547 500.712 391.277C507.977 387.644 513.097 382.278 515.966 375.427C518.836 368.574 519.46 360.223 517.724 350.62C514.243 331.41 501.478 308.193 481.208 284.252M347.666 164.804C300.123 138.397 256.807 124.053 225.511 124.321C209.867 124.455 197.761 128.236 189.553 135.302C181.347 142.367 177.011 152.739 176.955 166.111C176.843 192.87 193.883 229.823 225.058 270.322C256.227 310.813 299.456 352.16 346.961 386.915C394.467 421.67 443.117 447.542 484.15 459.878C504.665 466.046 522.594 468.625 537.244 467.67C551.894 466.715 563.253 462.228 570.662 454.277C578.072 446.326 581.313 435.147 580.404 421.365C579.488 407.58 574.423 391.205 565.232 372.886C546.847 336.249 513.201 294.284 470.334 254.548M71.9668 74.6514C25.6622 126.658 117.324 269.78 276.698 394.323C436.073 518.867 602.808 577.669 649.112 525.665C695.417 473.658 603.759 330.536 444.382 205.992C285.008 81.4485 118.271 22.6452 71.9668 74.6514Z" stroke="white" stroke-opacity="0.1" stroke-width="1.03922"/>
<g filter="url(#filter1_f_2016_319)">
<ellipse cx="369.46" cy="302.816" rx="57.9491" ry="56.6381" transform="rotate(2.95 369.46 302.816)" fill="#9489E4" fill-opacity="0.51"/>
</g>
<g filter="url(#filter2_f_2016_319)">
<ellipse cx="376.899" cy="295.352" rx="32.346" ry="31.6142" transform="rotate(2.95 376.899 295.352)" fill="#A5FAFF"/>
</g>
<g filter="url(#filter3_f_2016_319)">
<path d="M215.722 209.038C224.521 206.189 229.311 196.843 226.424 188.163C223.535 179.482 214.062 174.756 205.263 177.605C196.465 180.454 191.674 189.8 194.562 198.48C197.45 207.161 206.924 211.887 215.722 209.038Z" fill="url(#paint0_radial_2016_319)"/>
</g>
<path d="M195.686 320.624C182.803 308.965 181.94 289.212 193.759 276.503C205.577 263.794 225.602 262.943 238.484 274.602C251.368 286.26 252.231 306.014 240.412 318.723C228.593 331.431 208.569 332.283 195.686 320.624Z" fill="url(#paint1_radial_2016_319)"/>
<g filter="url(#filter4_f_2016_319)">
<path d="M130.981 322.342C138.265 319.05 141.464 310.556 138.127 303.37C134.79 296.184 126.18 293.027 118.897 296.32C111.613 299.612 108.413 308.106 111.75 315.292C115.087 322.478 123.697 325.634 130.981 322.342Z" fill="url(#paint2_radial_2016_319)"/>
</g>
<g filter="url(#filter5_f_2016_319)">
<path d="M329.127 334.626C322.368 338.678 320.218 347.367 324.324 354.035C328.431 360.703 337.239 362.825 343.998 358.773C350.757 354.722 352.907 346.032 348.8 339.364C344.694 332.696 335.886 330.575 329.127 334.626Z" fill="url(#paint3_radial_2016_319)"/>
</g>
<path d="M550.272 314.278C566.259 321.253 584.95 314.121 592.019 298.349C599.089 282.577 591.861 264.137 575.874 257.162C559.887 250.188 541.196 257.319 534.126 273.091C527.056 288.863 534.285 307.303 550.272 314.278Z" fill="url(#paint4_radial_2016_319)"/>
<path d="M569.922 284.048C570.213 282.105 568.732 281.06 566.707 280.363L567.364 277.73L565.761 277.331L565.121 279.894C564.7 279.789 564.267 279.69 563.837 279.592L564.481 277.012L562.878 276.612L562.221 279.244C561.872 279.165 561.529 279.086 561.197 279.004L561.199 278.995L558.987 278.444L558.561 280.155C558.561 280.155 559.75 280.428 559.725 280.445C560.375 280.607 560.492 281.036 560.472 281.377L559.724 284.376C559.769 284.387 559.827 284.404 559.891 284.429C559.838 284.416 559.781 284.401 559.722 284.387L558.673 288.589C558.594 288.786 558.392 289.082 557.938 288.969C557.954 288.993 556.773 288.679 556.773 288.679L555.977 290.513L558.063 291.033C558.452 291.13 558.832 291.232 559.206 291.328L558.543 293.991L560.145 294.39L560.802 291.755C561.239 291.874 561.664 291.984 562.08 292.087L561.425 294.709L563.028 295.109L563.692 292.451C566.426 292.968 568.482 292.759 569.348 290.288C570.045 288.298 569.313 287.15 567.874 286.401C568.922 286.16 569.711 285.471 569.922 284.048ZM566.258 289.183C565.762 291.173 562.41 290.097 561.323 289.827L562.203 286.299C563.29 286.57 566.776 287.107 566.258 289.183ZM566.754 284.019C566.302 285.83 563.511 284.91 562.606 284.684L563.405 281.485C564.31 281.71 567.225 282.131 566.754 284.019Z" fill="url(#paint5_linear_2016_319)"/>
<path d="M466.865 273.47C457.613 279.583 455.136 291.937 461.333 301.065C467.529 310.192 480.052 312.636 489.304 306.523C498.555 300.41 501.031 288.055 494.837 278.928C488.639 269.8 476.116 267.357 466.865 273.47Z" fill="url(#paint6_radial_2016_319)"/>
<path d="M285.682 300.593L361.06 299.106" stroke="url(#paint7_linear_2016_319)" stroke-width="1.96429" stroke-linecap="round"/>
<g filter="url(#filter6_i_2016_319)">
<path d="M477.079 390.401C492.25 372.826 518.99 370.712 536.805 385.679C554.62 400.646 556.763 427.027 541.592 444.603C526.421 462.178 499.68 464.293 481.865 449.325C464.051 434.358 461.908 407.977 477.079 390.401Z" fill="url(#paint8_radial_2016_319)"/>
</g>
<path d="M370.105 288.323L458.019 366" stroke="url(#paint9_linear_2016_319)" stroke-width="3.20413" stroke-linecap="round"/>
<g filter="url(#filter7_f_2016_319)">
<ellipse cx="575.745" cy="354.265" rx="14.063" ry="13.6359" transform="rotate(-171.642 575.745 354.265)" fill="url(#paint10_radial_2016_319)"/>
</g>
<path d="M196.206 433.887C208.171 417.337 204.272 394.351 187.496 382.547C170.721 370.742 147.422 374.589 135.457 391.139C123.492 407.689 127.391 430.674 144.166 442.479C160.941 454.283 184.24 450.437 196.206 433.887Z" fill="url(#paint11_radial_2016_319)"/>
<path fill-rule="evenodd" clip-rule="evenodd" d="M173.373 406.603L164.337 402.982L156.641 408.892L157.98 418.422L167.016 422.043L174.713 416.133L173.373 406.603ZM172.736 407.092L164.448 403.772L157.389 409.192L158.617 417.933L166.905 421.254L173.965 415.833L172.736 407.092Z" fill="url(#paint12_linear_2016_319)"/>
<path d="M161.512 407.556L161.239 411.119L169.331 410.012L168.086 406.656L161.512 407.556Z" fill="url(#paint13_linear_2016_319)"/>
<path d="M164.278 413.034L164.309 415.113L167.734 414.644L167.191 412.636L167.683 410.712L163.274 411.316L164.278 413.034Z" fill="url(#paint14_linear_2016_319)"/>
<path d="M163.581 413.13L161.393 412.212L159.44 414.088L163.193 418.772L164.444 418.601L165.659 417.135L165.568 416.488L163.891 415.335L163.581 413.13Z" fill="url(#paint15_linear_2016_319)"/>
<path d="M167.888 412.54L169.74 411.07L172.137 412.351L169.818 417.865L168.566 418.036L166.993 416.952L166.902 416.305L168.198 414.745L167.888 412.54Z" fill="url(#paint16_linear_2016_319)"/>
<g filter="url(#filter8_f_2016_319)">
<ellipse cx="383.711" cy="269.157" rx="246.221" ry="147.635" transform="rotate(38.6945 383.711 269.157)" fill="#AD38C1" fill-opacity="0.5"/>
</g>
</g>
<defs>
<filter id="filter0_f_2016_319" x="14.1825" y="-28.6392" width="668.797" height="594.136" filterUnits="userSpaceOnUse" color-interpolation-filters="sRGB">
<feFlood flood-opacity="0" result="BackgroundImageFix"/>
<feBlend mode="normal" in="SourceGraphic" in2="BackgroundImageFix" result="shape"/>
<feGaussianBlur stdDeviation="100" result="effect1_foregroundBlur_2016_319"/>
</filter>
<filter id="filter1_f_2016_319" x="241.513" y="176.173" width="255.894" height="253.286" filterUnits="userSpaceOnUse" color-interpolation-filters="sRGB">
<feFlood flood-opacity="0" result="BackgroundImageFix"/>
<feBlend mode="normal" in="SourceGraphic" in2="BackgroundImageFix" result="shape"/>
<feGaussianBlur stdDeviation="35" result="effect1_foregroundBlur_2016_319"/>
</filter>
<filter id="filter2_f_2016_319" x="284.555" y="203.735" width="184.69" height="183.234" filterUnits="userSpaceOnUse" color-interpolation-filters="sRGB">
<feFlood flood-opacity="0" result="BackgroundImageFix"/>
<feBlend mode="normal" in="SourceGraphic" in2="BackgroundImageFix" result="shape"/>
<feGaussianBlur stdDeviation="30" result="effect1_foregroundBlur_2016_319"/>
</filter>
<filter id="filter3_f_2016_319" x="189.721" y="172.775" width="41.5432" height="41.0923" filterUnits="userSpaceOnUse" color-interpolation-filters="sRGB">
<feFlood flood-opacity="0" result="BackgroundImageFix"/>
<feBlend mode="normal" in="SourceGraphic" in2="BackgroundImageFix" result="shape"/>
<feGaussianBlur stdDeviation="2" result="effect1_foregroundBlur_2016_319"/>
</filter>
<filter id="filter4_f_2016_319" x="105.429" y="290.016" width="39.0205" height="38.6304" filterUnits="userSpaceOnUse" color-interpolation-filters="sRGB">
<feFlood flood-opacity="0" result="BackgroundImageFix"/>
<feBlend mode="normal" in="SourceGraphic" in2="BackgroundImageFix" result="shape"/>
<feGaussianBlur stdDeviation="2.5" result="effect1_foregroundBlur_2016_319"/>
</filter>
<filter id="filter5_f_2016_319" x="317.24" y="327.57" width="38.6437" height="38.2588" filterUnits="userSpaceOnUse" color-interpolation-filters="sRGB">
<feFlood flood-opacity="0" result="BackgroundImageFix"/>
<feBlend mode="normal" in="SourceGraphic" in2="BackgroundImageFix" result="shape"/>
<feGaussianBlur stdDeviation="2.5" result="effect1_foregroundBlur_2016_319"/>
</filter>
<filter id="filter6_i_2016_319" x="466.966" y="375.702" width="85.7385" height="84.6001" filterUnits="userSpaceOnUse" color-interpolation-filters="sRGB">
<feFlood flood-opacity="0" result="BackgroundImageFix"/>
<feBlend mode="normal" in="SourceGraphic" in2="BackgroundImageFix" result="shape"/>
<feColorMatrix in="SourceAlpha" type="matrix" values="0 0 0 0 0 0 0 0 0 0 0 0 0 0 0 0 0 0 127 0" result="hardAlpha"/>
<feOffset dx="1" dy="1"/>
<feGaussianBlur stdDeviation="2.5"/>
<feComposite in2="hardAlpha" operator="arithmetic" k2="-1" k3="1"/>
<feColorMatrix type="matrix" values="0 0 0 0 0.992157 0 0 0 0 0.568627 0 0 0 0 1 0 0 0 1 0"/>
<feBlend mode="normal" in2="shape" result="effect1_innerShadow_2016_319"/>
</filter>
<filter id="filter7_f_2016_319" x="554.689" y="333.618" width="42.1118" height="41.2939" filterUnits="userSpaceOnUse" color-interpolation-filters="sRGB">
<feFlood flood-opacity="0" result="BackgroundImageFix"/>
<feBlend mode="normal" in="SourceGraphic" in2="BackgroundImageFix" result="shape"/>
<feGaussianBlur stdDeviation="3.5" result="effect1_foregroundBlur_2016_319"/>
</filter>
<filter id="filter8_f_2016_319" x="-667.087" y="-760.695" width="2101.6" height="2059.7" filterUnits="userSpaceOnUse" color-interpolation-filters="sRGB">
<feFlood flood-opacity="0" result="BackgroundImageFix"/>
<feBlend mode="normal" in="SourceGraphic" in2="BackgroundImageFix" result="shape"/>
<feGaussianBlur stdDeviation="418.78" result="effect1_foregroundBlur_2016_319"/>
</filter>
<radialGradient id="paint0_radial_2016_319" cx="0" cy="0" r="1" gradientUnits="userSpaceOnUse" gradientTransform="translate(187.031 184.632) rotate(26.3778) scale(45.1181 44.7529)">
<stop offset="0.473925" stop-color="#190F2E"/>
<stop offset="0.945943" stop-color="#7D4087"/>
</radialGradient>
<radialGradient id="paint1_radial_2016_319" cx="0" cy="0" r="1" gradientUnits="userSpaceOnUse" gradientTransform="translate(190.997 298.162) rotate(-1.38134) scale(62.2884 66.4223)">
<stop stop-color="#386480"/>
<stop offset="0.682292" stop-color="#5B4BB9"/>
<stop offset="0.932292" stop-color="#F9FDFF"/>
</radialGradient>
<radialGradient id="paint2_radial_2016_319" cx="0" cy="0" r="1" gradientUnits="userSpaceOnUse" gradientTransform="translate(112.219 334.263) rotate(-62.3627) scale(44.9466 45.2971)">
<stop offset="0.473925" stop-color="#130F1A"/>
<stop offset="0.823158" stop-color="#3B2A5E"/>
<stop offset="0.991368" stop-color="#8543B1"/>
</radialGradient>
<radialGradient id="paint3_radial_2016_319" cx="0" cy="0" r="1" gradientUnits="userSpaceOnUse" gradientTransform="translate(332.79 349.188) rotate(-25.469) scale(19.733 19.5666)">
<stop stop-color="#77099E"/>
<stop offset="0.697917" stop-color="#6B2DAA"/>
<stop offset="1" stop-color="#6CE8FF"/>
</radialGradient>
<radialGradient id="paint4_radial_2016_319" cx="0" cy="0" r="1" gradientUnits="userSpaceOnUse" gradientTransform="translate(588.953 282.409) rotate(172.885) scale(62.2822 55.864)">
<stop stop-color="#FF994F"/>
<stop offset="0.71875" stop-color="#EB6E53"/>
<stop offset="0.895833" stop-color="#DEFFFB"/>
</radialGradient>
<linearGradient id="paint5_linear_2016_319" x1="556.096" y1="279.735" x2="569.612" y2="295.439" gradientUnits="userSpaceOnUse">
<stop stop-color="#6F3500" stop-opacity="0.34"/>
<stop offset="1" stop-color="#B55700" stop-opacity="0"/>
</linearGradient>
<radialGradient id="paint6_radial_2016_319" cx="0" cy="0" r="1" gradientUnits="userSpaceOnUse" gradientTransform="translate(483.348 285.08) rotate(151.144) scale(32.1753 34.403)">
<stop stop-color="#200F31"/>
<stop offset="0.837244" stop-color="#82118C"/>
</radialGradient>
<linearGradient id="paint7_linear_2016_319" x1="285.716" y1="300.594" x2="285.772" y2="297.664" gradientUnits="userSpaceOnUse">
<stop offset="0.190577" stop-color="#BAFBFF"/>
<stop offset="0.427388" stop-color="#AFD4F9" stop-opacity="0"/>
</linearGradient>
<radialGradient id="paint8_radial_2016_319" cx="0" cy="0" r="1" gradientUnits="userSpaceOnUse" gradientTransform="translate(537.037 440.369) rotate(-141.817) scale(90.4597 80.3162)">
<stop stop-color="#45122B"/>
<stop offset="0.692708" stop-color="#1B1200"/>
<stop offset="0.880208" stop-color="#FFE7D1"/>
</radialGradient>
<linearGradient id="paint9_linear_2016_319" x1="457.979" y1="366.016" x2="382.372" y2="277.708" gradientUnits="userSpaceOnUse">
<stop offset="0.190577" stop-color="#BAFBFF"/>
<stop offset="0.427388" stop-color="#AFD4F9" stop-opacity="0"/>
</linearGradient>
<radialGradient id="paint10_radial_2016_319" cx="0" cy="0" r="1" gradientUnits="userSpaceOnUse" gradientTransform="translate(567.876 354.144) rotate(2.01794) scale(21.5033 22.0328)">
<stop offset="0.412964"/>
<stop offset="0.601387"/>
<stop offset="1" stop-color="#3F048B"/>
</radialGradient>
<radialGradient id="paint11_radial_2016_319" cx="0" cy="0" r="1" gradientUnits="userSpaceOnUse" gradientTransform="translate(128.667 439.796) rotate(-34.2527) scale(90.2579 89.8187)">
<stop offset="0.473925" stop-color="#07090F"/>
<stop offset="0.702566" stop-color="#07193E"/>
<stop offset="0.926338" stop-color="#015980"/>
</radialGradient>
<linearGradient id="paint12_linear_2016_319" x1="173.746" y1="403.217" x2="156.304" y2="423.529" gradientUnits="userSpaceOnUse">
<stop stop-color="#68DBFF" stop-opacity="0.26"/>
<stop offset="1" stop-color="#48D3FF" stop-opacity="0"/>
</linearGradient>
<linearGradient id="paint13_linear_2016_319" x1="173.746" y1="403.217" x2="156.304" y2="423.529" gradientUnits="userSpaceOnUse">
<stop stop-color="#68DBFF" stop-opacity="0.26"/>
<stop offset="1" stop-color="#48D3FF" stop-opacity="0"/>
</linearGradient>
<linearGradient id="paint14_linear_2016_319" x1="173.746" y1="403.217" x2="156.304" y2="423.53" gradientUnits="userSpaceOnUse">
<stop stop-color="#68DBFF" stop-opacity="0.26"/>
<stop offset="1" stop-color="#48D3FF" stop-opacity="0"/>
</linearGradient>
<linearGradient id="paint15_linear_2016_319" x1="173.746" y1="403.217" x2="156.304" y2="423.53" gradientUnits="userSpaceOnUse">
<stop stop-color="#68DBFF" stop-opacity="0.26"/>
<stop offset="1" stop-color="#48D3FF" stop-opacity="0"/>
</linearGradient>
<linearGradient id="paint16_linear_2016_319" x1="173.746" y1="403.217" x2="156.304" y2="423.529" gradientUnits="userSpaceOnUse">
<stop stop-color="#68DBFF" stop-opacity="0.26"/>
<stop offset="1" stop-color="#48D3FF" stop-opacity="0"/>
</linearGradient>
<clipPath id="clip0_2016_319">
<rect width="721.08" height="750" fill="white"/>
</clipPath>
</defs>
</svg>
