<svg width="390" height="868" viewBox="0 0 390 868" fill="none" xmlns="http://www.w3.org/2000/svg">
<g filter="url(#filter0_f_2_582)">
<ellipse cx="176.021" cy="398.554" rx="115.877" ry="83.533" transform="rotate(-88.8064 176.021 398.554)" fill="#AD38C1"/>
</g>
<path d="M95.1035 433.07C89.8941 456.419 90.9232 475.315 97.9934 487.12C105.05 498.904 117.803 503.076 134.509 498.983C151.219 494.888 171.01 482.732 191.082 464.215C211.15 445.7 230.473 421.772 246.317 395.813C262.161 369.854 273.722 343.183 279.367 319.571C285.015 295.954 284.452 276.624 277.806 264.287C274.485 258.126 269.728 253.858 263.752 251.568C257.774 249.278 250.566 248.96 242.341 250.71C225.888 254.214 206.229 265.821 186.146 283.912M86.7983 402.079C65.3116 443.722 54.1018 481.407 55.1589 508.354C55.6875 521.823 59.263 532.15 65.5659 539.032C71.8671 545.913 80.9145 549.374 92.4326 549.069C115.481 548.458 146.857 532.807 180.914 504.888C214.963 476.974 249.432 438.651 278.11 396.82C306.788 354.987 327.785 312.405 337.326 276.739C342.096 258.908 343.844 243.399 342.634 230.807C341.425 218.214 337.26 208.55 330.217 202.379C323.174 196.208 313.46 193.711 301.614 194.858C289.766 196.012 275.797 200.806 260.263 209.205C229.195 226.007 193.941 256.092 160.851 294.061M16.4361 641.904C62.4492 680.411 183.292 597.688 286.346 457.138C389.399 316.588 435.639 171.435 389.628 132.929C343.614 94.4223 222.772 177.143 119.718 317.694C16.6637 458.244 -29.577 603.398 16.4361 641.904Z" stroke="white" stroke-opacity="0.1" stroke-width="1.03922"/>
<g filter="url(#filter1_f_2_582)">
<ellipse cx="205.085" cy="379.664" rx="49.9319" ry="48.8023" transform="rotate(-88.8064 205.085 379.664)" fill="#9489E4" fill-opacity="0.51"/>
</g>
<g filter="url(#filter2_f_2_582)">
<ellipse cx="198.46" cy="373.454" rx="27.8709" ry="27.2404" transform="rotate(-88.8064 198.46 373.454)" fill="#A5FAFF"/>
</g>
<g filter="url(#filter3_f_2_582)">
<path d="M128.38 514.547C125.693 507.045 117.517 503.165 110.118 505.882C102.719 508.598 98.8977 516.882 101.584 524.385C104.27 531.887 112.446 535.766 119.846 533.05C127.245 530.333 131.066 522.049 128.38 514.547Z" fill="url(#paint0_radial_2_582)"/>
</g>
<path d="M225.012 528.856C215.311 540.259 198.321 541.524 187.063 531.681C175.806 521.838 174.544 504.614 184.245 493.211C193.945 481.808 210.936 480.543 222.193 490.386C233.45 500.229 234.713 517.453 225.012 528.856Z" fill="url(#paint1_radial_2_582)"/>
<g filter="url(#filter4_f_2_582)">
<path d="M228.2 584.538C225.173 578.351 217.773 575.82 211.672 578.884C205.571 581.948 203.08 589.446 206.108 595.632C209.136 601.819 216.536 604.35 222.636 601.286C228.737 598.222 231.228 590.724 228.2 584.538Z" fill="url(#paint2_radial_2_582)"/>
</g>
<g filter="url(#filter5_f_2_582)">
<path d="M233.547 413.561C237.215 419.275 244.756 420.897 250.39 417.184C256.024 413.471 257.619 405.829 253.951 400.115C250.283 394.401 242.742 392.779 237.108 396.492C231.474 400.205 229.879 407.847 233.547 413.561Z" fill="url(#paint3_radial_2_582)"/>
</g>
<path d="M210.182 223.638C215.767 209.685 209.131 193.776 195.361 188.103C181.59 182.431 165.9 189.144 160.315 203.097C154.73 217.049 161.366 232.959 175.136 238.631C188.907 244.303 204.597 237.59 210.182 223.638Z" fill="url(#paint4_radial_2_582)"/>
<path d="M183.628 207.513C181.946 207.314 181.085 208.616 180.539 210.378L178.254 209.882L177.952 211.274L180.177 211.757C180.097 212.123 180.024 212.498 179.95 212.871L177.711 212.385L177.41 213.776L179.694 214.272C179.634 214.575 179.576 214.872 179.513 215.16L179.506 215.159L179.089 217.078L180.575 217.4C180.575 217.4 180.778 216.368 180.793 216.39C180.916 215.826 181.283 215.713 181.576 215.721L184.179 216.287C184.188 216.248 184.2 216.197 184.221 216.142C184.211 216.188 184.2 216.237 184.189 216.289L187.835 217.081C188.007 217.144 188.267 217.31 188.183 217.704C188.202 217.689 187.963 218.715 187.963 218.715L189.564 219.352L189.956 217.541C190.03 217.204 190.108 216.874 190.18 216.549L192.491 217.05L192.793 215.66L190.506 215.164C190.597 214.784 190.68 214.415 190.758 214.054L193.034 214.549L193.335 213.158L191.029 212.656C191.402 210.288 191.168 208.523 189.017 207.842C187.284 207.294 186.315 207.955 185.708 209.214C185.473 208.318 184.858 207.656 183.628 207.513ZM188.146 210.533C189.874 210.907 189.035 213.823 188.832 214.766L185.77 214.101C185.975 213.157 186.345 210.141 188.146 210.533ZM183.687 210.242C185.257 210.583 184.539 213.011 184.369 213.796L181.592 213.193C181.762 212.408 182.048 209.886 183.687 210.242Z" fill="url(#paint5_linear_2_582)"/>
<path d="M205.384 451.876L202.112 386.996" stroke="url(#paint6_linear_2_582)" stroke-width="1.96429" stroke-linecap="round"/>
<path d="M192.586 379.491L257.164 301.724" stroke="url(#paint7_linear_2_582)" stroke-width="3.20413" stroke-linecap="round"/>
<path d="M177.238 296.55C182.748 304.356 193.453 306.163 201.15 300.585C208.848 295.008 210.622 284.158 205.112 276.352C199.603 268.545 188.898 266.739 181.2 272.315C173.503 277.894 171.729 288.743 177.238 296.55Z" fill="url(#paint8_radial_2_582)"/>
<g filter="url(#filter6_i_2_582)">
<path d="M277.676 284.664C262.138 272.062 259.611 249.088 272.031 233.35C284.452 217.612 307.116 215.069 322.653 227.671C338.191 240.273 340.718 263.248 328.298 278.986C315.877 294.724 293.213 297.266 277.676 284.664Z" fill="url(#paint9_radial_2_582)"/>
</g>
<g filter="url(#filter7_f_2_582)">
<ellipse cx="243.947" cy="200.643" rx="12.1174" ry="11.7494" transform="rotate(96.6017 243.947 200.643)" fill="url(#paint10_radial_2_582)"/>
</g>
<path d="M322.545 525.417C307.976 515.549 288.283 519.514 278.559 534.274C268.835 549.033 272.764 568.998 287.333 578.866C301.903 588.734 321.596 584.769 331.32 570.009C341.043 555.25 337.115 535.285 322.545 525.417Z" fill="url(#paint11_radial_2_582)"/>
<path fill-rule="evenodd" clip-rule="evenodd" d="M299.65 545.802L296.771 553.68L302.064 560.153L310.236 558.747L313.116 550.869L307.823 544.397L299.65 545.802ZM300.089 546.338L297.447 553.564L302.302 559.5L309.798 558.211L312.439 550.986L307.584 545.049L300.089 546.338Z" fill="url(#paint12_linear_2_582)"/>
<path d="M300.784 555.993L303.86 556.134L302.693 549.194L299.836 550.355L300.784 555.993Z" fill="url(#paint13_linear_2_582)"/>
<path d="M305.429 553.466L307.219 553.384L306.725 550.447L305.009 550.968L303.34 550.594L303.976 554.376L305.429 553.466Z" fill="url(#paint14_linear_2_582)"/>
<path d="M305.53 554.064L304.798 555.972L306.465 557.604L310.399 554.249L310.219 553.176L308.924 552.168L308.369 552.263L307.421 553.738L305.53 554.064Z" fill="url(#paint15_linear_2_582)"/>
<path d="M304.908 550.37L303.593 548.813L304.633 546.715L309.443 548.567L309.624 549.64L308.732 551.024L308.177 551.12L306.799 550.044L304.908 550.37Z" fill="url(#paint16_linear_2_582)"/>
<g filter="url(#filter8_f_2_582)">
<ellipse cx="175.72" cy="368.28" rx="212.156" ry="127.21" transform="rotate(-53.0619 175.72 368.28)" fill="#AD38C1" fill-opacity="0.5"/>
</g>
<defs>
<filter id="filter0_f_2_582" x="-107.529" y="82.689" width="567.101" height="631.73" filterUnits="userSpaceOnUse" color-interpolation-filters="sRGB">
<feFlood flood-opacity="0" result="BackgroundImageFix"/>
<feBlend mode="normal" in="SourceGraphic" in2="BackgroundImageFix" result="shape"/>
<feGaussianBlur stdDeviation="100" result="effect1_foregroundBlur_2_582"/>
</filter>
<filter id="filter1_f_2_582" x="86.2823" y="259.733" width="237.606" height="239.863" filterUnits="userSpaceOnUse" color-interpolation-filters="sRGB">
<feFlood flood-opacity="0" result="BackgroundImageFix"/>
<feBlend mode="normal" in="SourceGraphic" in2="BackgroundImageFix" result="shape"/>
<feGaussianBlur stdDeviation="35" result="effect1_foregroundBlur_2_582"/>
</filter>
<filter id="filter2_f_2_582" x="111.219" y="285.583" width="174.482" height="175.742" filterUnits="userSpaceOnUse" color-interpolation-filters="sRGB">
<feFlood flood-opacity="0" result="BackgroundImageFix"/>
<feBlend mode="normal" in="SourceGraphic" in2="BackgroundImageFix" result="shape"/>
<feGaussianBlur stdDeviation="30" result="effect1_foregroundBlur_2_582"/>
</filter>
<filter id="filter3_f_2_582" x="96.7246" y="501.015" width="36.5145" height="36.9023" filterUnits="userSpaceOnUse" color-interpolation-filters="sRGB">
<feFlood flood-opacity="0" result="BackgroundImageFix"/>
<feBlend mode="normal" in="SourceGraphic" in2="BackgroundImageFix" result="shape"/>
<feGaussianBlur stdDeviation="2" result="effect1_foregroundBlur_2_582"/>
</filter>
<filter id="filter4_f_2_582" x="199.819" y="572.583" width="34.6694" height="35.0049" filterUnits="userSpaceOnUse" color-interpolation-filters="sRGB">
<feFlood flood-opacity="0" result="BackgroundImageFix"/>
<feBlend mode="normal" in="SourceGraphic" in2="BackgroundImageFix" result="shape"/>
<feGaussianBlur stdDeviation="2.5" result="effect1_foregroundBlur_2_582"/>
</filter>
<filter id="filter5_f_2_582" x="226.574" y="389.498" width="34.3488" height="34.6802" filterUnits="userSpaceOnUse" color-interpolation-filters="sRGB">
<feFlood flood-opacity="0" result="BackgroundImageFix"/>
<feBlend mode="normal" in="SourceGraphic" in2="BackgroundImageFix" result="shape"/>
<feGaussianBlur stdDeviation="2.5" result="effect1_foregroundBlur_2_582"/>
</filter>
<filter id="filter6_i_2_582" x="264.146" y="219.66" width="73.0363" height="74.0156" filterUnits="userSpaceOnUse" color-interpolation-filters="sRGB">
<feFlood flood-opacity="0" result="BackgroundImageFix"/>
<feBlend mode="normal" in="SourceGraphic" in2="BackgroundImageFix" result="shape"/>
<feColorMatrix in="SourceAlpha" type="matrix" values="0 0 0 0 0 0 0 0 0 0 0 0 0 0 0 0 0 0 127 0" result="hardAlpha"/>
<feOffset dx="1" dy="1"/>
<feGaussianBlur stdDeviation="2.5"/>
<feComposite in2="hardAlpha" operator="arithmetic" k2="-1" k3="1"/>
<feColorMatrix type="matrix" values="0 0 0 0 0.992157 0 0 0 0 0.568627 0 0 0 0 1 0 0 0 1 0"/>
<feBlend mode="normal" in2="shape" result="effect1_innerShadow_2_582"/>
</filter>
<filter id="filter7_f_2_582" x="225.192" y="181.529" width="37.5109" height="38.2271" filterUnits="userSpaceOnUse" color-interpolation-filters="sRGB">
<feFlood flood-opacity="0" result="BackgroundImageFix"/>
<feBlend mode="normal" in="SourceGraphic" in2="BackgroundImageFix" result="shape"/>
<feGaussianBlur stdDeviation="3.5" result="effect1_foregroundBlur_2_582"/>
</filter>
<filter id="filter8_f_2_582" x="-824.921" y="-655.335" width="2001.28" height="2047.23" filterUnits="userSpaceOnUse" color-interpolation-filters="sRGB">
<feFlood flood-opacity="0" result="BackgroundImageFix"/>
<feBlend mode="normal" in="SourceGraphic" in2="BackgroundImageFix" result="shape"/>
<feGaussianBlur stdDeviation="418.78" result="effect1_foregroundBlur_2_582"/>
</filter>
<radialGradient id="paint0_radial_2_582" cx="0" cy="0" r="1" gradientUnits="userSpaceOnUse" gradientTransform="translate(108.118 539.902) rotate(-65.3786) scale(38.8761 38.5614)">
<stop offset="0.473925" stop-color="#190F2E"/>
<stop offset="0.945943" stop-color="#7D4087"/>
</radialGradient>
<radialGradient id="paint1_radial_2_582" cx="0" cy="0" r="1" gradientUnits="userSpaceOnUse" gradientTransform="translate(205.79 533.487) rotate(-93.1377) scale(53.6709 57.2328)">
<stop stop-color="#386480"/>
<stop offset="0.682292" stop-color="#5B4BB9"/>
<stop offset="0.932292" stop-color="#F9FDFF"/>
</radialGradient>
<radialGradient id="paint2_radial_2_582" cx="0" cy="0" r="1" gradientUnits="userSpaceOnUse" gradientTransform="translate(238.963 600.381) rotate(-154.119) scale(38.7283 39.0303)">
<stop offset="0.473925" stop-color="#130F1A"/>
<stop offset="0.823158" stop-color="#3B2A5E"/>
<stop offset="0.991368" stop-color="#8543B1"/>
</radialGradient>
<radialGradient id="paint3_radial_2_582" cx="0" cy="0" r="1" gradientUnits="userSpaceOnUse" gradientTransform="translate(245.992 410.021) rotate(-117.225) scale(17.003 16.8596)">
<stop stop-color="#77099E"/>
<stop offset="0.697917" stop-color="#6B2DAA"/>
<stop offset="1" stop-color="#6CE8FF"/>
</radialGradient>
<radialGradient id="paint4_radial_2_582" cx="0" cy="0" r="1" gradientUnits="userSpaceOnUse" gradientTransform="translate(181.713 191.166) rotate(81.1285) scale(53.6656 48.1353)">
<stop stop-color="#FF994F"/>
<stop offset="0.71875" stop-color="#EB6E53"/>
<stop offset="0.895833" stop-color="#DEFFFB"/>
</radialGradient>
<linearGradient id="paint5_linear_2_582" x1="180.278" y1="219.534" x2="193.446" y2="207.479" gradientUnits="userSpaceOnUse">
<stop stop-color="#6F3500" stop-opacity="0.34"/>
<stop offset="1" stop-color="#B55700" stop-opacity="0"/>
</linearGradient>
<linearGradient id="paint6_linear_2_582" x1="205.383" y1="451.847" x2="202.859" y2="451.876" gradientUnits="userSpaceOnUse">
<stop offset="0.190577" stop-color="#BAFBFF"/>
<stop offset="0.427388" stop-color="#AFD4F9" stop-opacity="0"/>
</linearGradient>
<linearGradient id="paint7_linear_2_582" x1="257.179" y1="301.758" x2="183.121" y2="369.207" gradientUnits="userSpaceOnUse">
<stop offset="0.190577" stop-color="#BAFBFF"/>
<stop offset="0.427388" stop-color="#AFD4F9" stop-opacity="0"/>
</linearGradient>
<radialGradient id="paint8_radial_2_582" cx="0" cy="0" r="1" gradientUnits="userSpaceOnUse" gradientTransform="translate(186.802 282.047) rotate(59.3876) scale(27.7239 29.6434)">
<stop stop-color="#200F31"/>
<stop offset="0.837244" stop-color="#82118C"/>
</radialGradient>
<radialGradient id="paint9_radial_2_582" cx="0" cy="0" r="1" gradientUnits="userSpaceOnUse" gradientTransform="translate(319.127 231.706) rotate(126.426) scale(77.9448 69.2045)">
<stop stop-color="#45122B"/>
<stop offset="0.692708" stop-color="#1B1200"/>
<stop offset="0.880208" stop-color="#FFE7D1"/>
</radialGradient>
<radialGradient id="paint10_radial_2_582" cx="0" cy="0" r="1" gradientUnits="userSpaceOnUse" gradientTransform="translate(237.167 200.539) rotate(2.01794) scale(18.5284 18.9846)">
<stop offset="0.412964"/>
<stop offset="0.601387"/>
<stop offset="1" stop-color="#3F048B"/>
</radialGradient>
<radialGradient id="paint11_radial_2_582" cx="0" cy="0" r="1" gradientUnits="userSpaceOnUse" gradientTransform="translate(329.418 583.429) rotate(-126.009) scale(77.7708 77.3924)">
<stop offset="0.473925" stop-color="#07090F"/>
<stop offset="0.702566" stop-color="#07193E"/>
<stop offset="0.926338" stop-color="#015980"/>
</radialGradient>
<linearGradient id="paint12_linear_2_582" x1="296.724" y1="545.57" x2="314.679" y2="560.055" gradientUnits="userSpaceOnUse">
<stop stop-color="#68DBFF" stop-opacity="0.26"/>
<stop offset="1" stop-color="#48D3FF" stop-opacity="0"/>
</linearGradient>
<linearGradient id="paint13_linear_2_582" x1="296.724" y1="545.571" x2="314.679" y2="560.056" gradientUnits="userSpaceOnUse">
<stop stop-color="#68DBFF" stop-opacity="0.26"/>
<stop offset="1" stop-color="#48D3FF" stop-opacity="0"/>
</linearGradient>
<linearGradient id="paint14_linear_2_582" x1="296.724" y1="545.571" x2="314.679" y2="560.056" gradientUnits="userSpaceOnUse">
<stop stop-color="#68DBFF" stop-opacity="0.26"/>
<stop offset="1" stop-color="#48D3FF" stop-opacity="0"/>
</linearGradient>
<linearGradient id="paint15_linear_2_582" x1="296.725" y1="545.571" x2="314.679" y2="560.056" gradientUnits="userSpaceOnUse">
<stop stop-color="#68DBFF" stop-opacity="0.26"/>
<stop offset="1" stop-color="#48D3FF" stop-opacity="0"/>
</linearGradient>
<linearGradient id="paint16_linear_2_582" x1="296.724" y1="545.571" x2="314.678" y2="560.056" gradientUnits="userSpaceOnUse">
<stop stop-color="#68DBFF" stop-opacity="0.26"/>
<stop offset="1" stop-color="#48D3FF" stop-opacity="0"/>
</linearGradient>
</defs>
</svg>
