<svg width="26" height="26" viewBox="0 0 26 26" fill="none" xmlns="http://www.w3.org/2000/svg">
<g clip-path="url(#clip0_86_858)">
<path d="M8.00237 13.5177C7.98592 13.5177 7.96938 13.5172 7.95276 13.5162L0.794632 13.0692C0.6607 13.0609 0.531065 13.0188 0.417863 12.9467C0.304661 12.8747 0.211593 12.775 0.147374 12.6572C0.0831543 12.5394 0.0498824 12.4072 0.0506729 12.273C0.0514635 12.1388 0.0862906 12.007 0.151894 11.89C0.189371 11.8229 1.09155 10.2322 2.80958 8.84488C5.13125 6.97034 7.83017 6.36234 10.6144 7.08678C10.7285 7.11649 10.8345 7.17125 10.9248 7.24707C11.015 7.3229 11.0873 7.41788 11.1362 7.52512C11.1851 7.63237 11.2096 7.74917 11.2077 7.86703C11.2058 7.9849 11.1777 8.10087 11.1254 8.20651L8.7131 13.0766C8.64745 13.209 8.54614 13.3204 8.42057 13.3984C8.295 13.4763 8.15016 13.5177 8.00237 13.5177Z" fill="#7D00E6"/>
<path d="M13.773 26C13.5712 26 13.377 25.923 13.2299 25.7848C13.0828 25.6466 12.9939 25.4576 12.9813 25.2561L12.5346 18.098C12.5249 17.942 12.5615 17.7867 12.6396 17.6515C12.7178 17.5162 12.8342 17.407 12.9742 17.3376L17.8442 14.9251C17.9499 14.8728 18.0659 14.8447 18.1837 14.8429C18.3016 14.841 18.4184 14.8655 18.5256 14.9144C18.6329 14.9633 18.728 15.0355 18.8038 15.1258C18.8796 15.2161 18.9344 15.3222 18.964 15.4363C19.6886 18.2206 19.0806 20.9195 17.2059 23.2411C15.8187 24.9592 14.2279 25.8612 14.1608 25.8988C14.0423 25.9652 13.9088 26.0001 13.773 26Z" fill="#7D00E6"/>
<path d="M24.7782 6.40125L19.6493 1.27234C19.5484 1.17146 19.4222 1.09966 19.2839 1.0645C19.1457 1.02934 19.0005 1.03213 18.8636 1.07257C15.4301 2.08819 12.6116 3.68105 10.4858 5.80675C10.0424 6.25028 9.61648 6.73092 9.22013 7.23513C8.06765 8.70047 7.10499 10.433 6.35912 12.3847C5.88406 13.6286 5.49726 14.9612 5.20943 16.3454C4.70675 18.7633 4.67978 20.4962 4.67877 20.5688C4.6775 20.6746 4.6974 20.7796 4.73729 20.8776C4.77719 20.9756 4.83628 21.0647 4.91109 21.1395C5.05991 21.2882 5.26169 21.3717 5.47207 21.3718H5.48177C5.55459 21.371 7.2875 21.344 9.70515 20.8414C11.0893 20.5535 12.4219 20.1667 13.6661 19.6914C15.6176 18.9456 17.3501 17.9831 18.815 16.8308C19.3197 16.4343 19.8003 16.0084 20.2438 15.5648C22.3697 13.439 23.9625 10.6205 24.978 7.18694C25.0185 7.05011 25.0212 6.90492 24.9861 6.76664C24.9509 6.62837 24.8791 6.50214 24.7782 6.40125Z" fill="#B255FF"/>
<path d="M10.2472 19.6463L6.40443 15.8036C6.12077 15.5199 5.66988 15.4927 5.35412 15.7403C5.11074 15.9309 4.87903 16.136 4.66025 16.3545C1.98646 19.0282 1.90374 23.171 1.90156 23.346C1.90018 23.4519 1.92003 23.5569 1.95993 23.6549C1.99983 23.753 2.05898 23.842 2.13388 23.9168C2.20747 23.9906 2.29487 24.049 2.39109 24.0889C2.4873 24.1288 2.59045 24.1494 2.69461 24.1494C2.69799 24.1494 2.70138 24.1493 2.70476 24.1492C2.8797 24.147 7.02274 24.0643 9.69633 21.3905C9.91474 21.1717 10.1198 20.94 10.3104 20.6966C10.558 20.3808 10.5309 19.93 10.2472 19.6463Z" fill="#C177FF"/>
<path d="M6.42048 12.2261L4.06291 14.5838C3.98922 14.6575 3.93075 14.7449 3.89086 14.8411C3.85098 14.9373 3.83044 15.0404 3.83044 15.1446C3.83044 15.2488 3.85098 15.3519 3.89086 15.4481C3.93075 15.5443 3.98922 15.6317 4.06291 15.7054L10.3453 21.9878C10.4939 22.1365 10.6956 22.22 10.9061 22.22C11.1166 22.22 11.3181 22.1365 11.4669 21.9878L13.8244 19.6302L6.42048 12.2261Z" fill="#7D00E6"/>
<path d="M16.7123 11.7584C16.066 11.7584 15.4582 11.5067 15.0011 11.0497C14.0577 10.1063 14.0577 8.57132 15.0011 7.6277C15.4582 7.17067 16.066 6.91895 16.7123 6.91895C17.3586 6.91895 17.9663 7.17067 18.4233 7.6277C18.8804 8.08473 19.1321 8.69233 19.1321 9.33877C19.1321 9.98507 18.8804 10.5927 18.4233 11.0497C17.9663 11.5067 17.3585 11.7584 16.7123 11.7584Z" fill="#D29CFF"/>
<path d="M16.712 12.5345C15.8585 12.5345 15.0561 12.202 14.4526 11.5986C13.2067 10.3527 13.2067 8.32537 14.4526 7.07945C15.0561 6.47602 15.8587 6.14355 16.712 6.14355C17.5656 6.14355 18.368 6.47602 18.9716 7.07945C19.5752 7.68309 19.9075 8.48548 19.9075 9.33902C19.9075 10.1925 19.5752 10.995 18.9716 11.5986C18.368 12.202 17.5656 12.5345 16.712 12.5345ZM16.712 7.72991C16.2824 7.72991 15.8781 7.89734 15.5742 8.20121C14.947 8.82866 14.947 9.84942 15.5742 10.4769C15.8781 10.7807 16.2824 10.9481 16.712 10.9481C17.1418 10.9481 17.546 10.7807 17.8498 10.4769C18.1537 10.173 18.3211 9.76888 18.3211 9.33902C18.3211 8.90915 18.1537 8.50509 17.8498 8.20121C17.546 7.89734 17.1418 7.72991 16.712 7.72991Z" fill="#7D00E6"/>
<path d="M25.8185 0.232419C25.6672 0.0810913 25.46 -0.0040181 25.2474 0.000145965C25.1297 0.00151706 22.3259 0.0487437 18.8636 1.0727L24.978 7.18706C26.002 3.7248 26.0492 0.920962 26.0506 0.803353C26.052 0.697514 26.0321 0.592467 25.9923 0.49441C25.9524 0.396352 25.8933 0.30727 25.8185 0.232419Z" fill="#7D00E6"/>
<path d="M24.7783 6.40137L22.2138 3.83691L4.91113 21.1396C5.05987 21.2883 5.26158 21.3719 5.47191 21.3719H5.48181C5.55443 21.3711 7.28734 21.3441 9.70519 20.8415C11.0894 20.5536 12.4218 20.1668 13.6659 19.6915C15.6176 18.9457 17.3502 17.9833 18.8151 16.8309C19.3195 16.4344 19.8003 16.0085 20.2437 15.5649C22.3696 13.4391 23.9624 10.6206 24.9778 7.18706C25.0184 7.05026 25.0213 6.90505 24.9862 6.76675C24.951 6.62846 24.8792 6.50222 24.7783 6.40137Z" fill="#B255FF"/>
<path d="M10.2472 19.6465L8.32578 17.7251L2.13367 23.917V23.9172C2.28248 24.0659 2.48425 24.1495 2.69465 24.1495H2.70455C2.87969 24.1474 7.02253 24.0644 9.69626 21.3906C9.91462 21.1719 10.1196 20.9401 10.3102 20.6968C10.558 20.381 10.5311 19.9301 10.2472 19.6465Z" fill="#C177FF"/>
<path d="M10.1225 15.9282L7.20398 18.8468L10.3453 21.9881C10.4941 22.1368 10.6958 22.2203 10.9061 22.2203C11.1164 22.2203 11.3181 22.1368 11.4669 21.9881L13.8244 19.6303L10.1225 15.9282Z" fill="#7D00E6"/>
<path d="M18.4233 7.62793H18.4231L15.0011 11.0499H15.0013C15.4581 11.507 16.0659 11.7587 16.7122 11.7587C17.3585 11.7587 17.9663 11.507 18.4233 11.0499C18.8803 10.5929 19.1321 9.9853 19.1321 9.339C19.1318 8.69276 18.8803 8.08496 18.4233 7.62793Z" fill="#C177FF"/>
<path d="M18.9716 7.0791L17.8498 8.20086C18.1537 8.50473 18.3211 8.9088 18.3211 9.33866C18.3211 9.76853 18.1537 10.1726 17.8498 10.4765C17.5459 10.7804 17.1419 10.9478 16.712 10.9478C16.2821 10.9478 15.8781 10.7804 15.5742 10.4765V10.4763L14.4524 11.5981V11.5982C15.056 12.2017 15.8584 12.5341 16.712 12.5341C17.5656 12.5341 18.3679 12.2017 18.9716 11.5982C19.575 10.9946 19.9075 10.1922 19.9075 9.33866C19.9075 8.48508 19.575 7.68274 18.9716 7.0791Z" fill="#7D00E6"/>
<path d="M25.8184 0.232422L21.9209 4.13009L24.9781 7.18727C26.002 3.725 26.0493 0.921168 26.0506 0.803559C26.052 0.697675 26.0322 0.592589 25.9923 0.494498C25.9524 0.396407 25.8932 0.307297 25.8184 0.232422Z" fill="#7D00E6"/>
</g>
<defs>
<clipPath id="clip0_86_858">
<rect width="26" height="26" fill="white"/>
</clipPath>
</defs>
</svg>
