<svg width="45" height="45" viewBox="0 0 45 45" fill="none" xmlns="http://www.w3.org/2000/svg">
<g clip-path="url(#clip0_86_877)">
<path d="M22.483 8.48438L11.8171 4.21631V18.1903L22.483 22.5289V8.48438Z" fill="#7A00B4" stroke="#A17FF1" stroke-width="0.10183" stroke-miterlimit="10"/>
<path d="M22.4126 8.54302L32.9323 4.35408L22.3593 0L11.7949 4.24398L22.4126 8.54302Z" fill="#A73EE7" stroke="#A17FF1" stroke-width="0.101383" stroke-miterlimit="10"/>
<g clip-path="url(#clip1_86_877)">
<path d="M13.1019 8.1787V7.03495L13.4792 7.25794L12.9819 5.82689L12.4846 6.67022L12.862 6.89318V8.03693L13.1019 8.1787Z" fill="#A17FF1"/>
</g>
<path d="M33.04 26.4946L43.7059 22.2266V34.8037L33.04 39.7547V26.4946Z" fill="#7A00B4" stroke="#A17FF1" stroke-width="0.10183" stroke-miterlimit="10"/>
<path d="M33.0249 12.7751L43.6908 8.62061V22.2213L33.0249 26.5375V12.7751Z" fill="#7A00B4" stroke="#A17FF1" stroke-width="0.10183" stroke-miterlimit="10"/>
<path d="M32.9096 12.7496L22.531 8.34214L32.9595 4.43018L43.6253 8.5589L32.9096 12.7496Z" fill="#A73EE7" stroke="#A17FF1" stroke-width="0.10183" stroke-miterlimit="10"/>
<path d="M11.6451 26.4655L0.979248 22.3506V35.0378L11.6451 39.9355V26.4655Z" fill="#7A00B4" stroke="#A17FF1" stroke-width="0.10183" stroke-miterlimit="10"/>
<path d="M11.6175 26.5543L22.2834 22.3963L11.6175 18.1558L0.95166 22.2845L11.6175 26.5543Z" fill="#A73EE7" stroke="#A17FF1" stroke-width="0.10183" stroke-miterlimit="10"/>
<path d="M6.27759 24.3851L16.9366 20.1411" stroke="#A17FF1" stroke-width="0.10183" stroke-miterlimit="10"/>
<path d="M22.3592 30.879L11.6934 26.6401V39.9123L22.3592 44.9992V30.879Z" fill="#7A00B4" stroke="#A17FF1" stroke-width="0.10183" stroke-miterlimit="10"/>
<path d="M22.2732 31.002L33.0337 26.7339V39.9131L22.2732 45V31.002Z" fill="#7A00B4" stroke="#A17FF1" stroke-width="0.10183" stroke-miterlimit="10"/>
<path d="M22.2971 16.9256L32.963 12.7178V26.7554L22.2971 31.0304V16.9256Z" fill="#7A00B4" stroke="#A17FF1" stroke-width="0.10183" stroke-miterlimit="10"/>
<path d="M22.297 16.8931L11.6311 12.625V26.599L22.297 30.9376V16.8931Z" fill="#7A00B4" stroke="#A17FF1" stroke-width="0.10183" stroke-miterlimit="10"/>
<path d="M22.3195 16.8584L32.9321 12.6695L22.2662 8.31543L11.6003 12.5594L22.3195 16.8584Z" fill="#A73EE7" stroke="#A17FF1" stroke-width="0.10183" stroke-miterlimit="10"/>
<path d="M16.3723 14.5208L27.0313 10.2769" stroke="#A17FF1" stroke-width="0.10183" stroke-miterlimit="10"/>
<path d="M16.7458 6.29965L27.4048 2.05566" stroke="#A17FF1" stroke-width="0.10183" stroke-miterlimit="10"/>
<path d="M28.3989 6.15527L39.2644 10.3649" stroke="#A17FF1" stroke-width="0.10183" stroke-miterlimit="10"/>
<path opacity="0.3" d="M25.8011 9.78418L15.0664 14.0574L17.6159 15.0775L28.2749 10.8353L25.8011 9.78418Z" fill="#A17FF1" stroke="#A17FF1" stroke-width="0.0888979" stroke-miterlimit="10"/>
<path opacity="0.3" d="M26.2694 1.56201L15.5347 5.83524L18.0842 6.85538L28.7414 2.61312L26.2694 1.56201Z" fill="#A17FF1" stroke="#A17FF1" stroke-width="0.0888979" stroke-miterlimit="10"/>
<path opacity="0.3" d="M5.09766 23.9468L7.64542 24.9652L11.6744 23.3619L11.6296 21.3457L5.09766 23.9468Z" fill="#A17FF1" stroke="#A17FF1" stroke-width="0.0888979" stroke-miterlimit="10"/>
<path opacity="0.3" d="M29.5757 5.71338L27.2722 6.61654L37.9845 10.7676L40.2932 9.86619L29.5757 5.71338Z" fill="#A17FF1" stroke="#A17FF1" stroke-width="0.0784911" stroke-miterlimit="10"/>
<path opacity="0.3" d="M7.59725 24.9222L5.09766 23.9502V26.7801L5.44344 26.5461L5.75309 27.0364L5.932 27.1069L6.1694 26.8971L6.40509 27.2893L6.62701 27.377L6.95214 27.0915L7.36157 27.6626L7.59725 27.7538V24.9222Z" fill="#A17FF1" stroke="#A17FF1" stroke-width="0.124903" stroke-miterlimit="10"/>
<path opacity="0.3" d="M18.0616 6.79717L15.5603 5.8252V8.65509L15.9078 8.42113L16.2157 8.91142L16.3947 8.98195L16.6321 8.77207L16.8677 9.1643L17.0914 9.25204L17.4148 8.96647L17.8259 9.53761L18.0616 9.62878V6.79717Z" fill="#A17FF1" stroke="#A17FF1" stroke-width="0.124903" stroke-miterlimit="10"/>
<path opacity="0.3" d="M17.649 15.0735L15.1494 14.1016V16.9315L15.4952 16.6975L15.8048 17.1878L15.9838 17.2566L16.2212 17.0484L16.4568 17.4407L16.6788 17.5267L17.0039 17.2411L17.4133 17.8123L17.649 17.9034V15.0735Z" fill="#A17FF1" stroke="#A17FF1" stroke-width="0.124903" stroke-miterlimit="10"/>
<path opacity="0.3" d="M15.2009 28.1063L17.7143 29.0438L17.6747 26.2139L17.3307 26.4531L17.0141 25.9679L16.8352 25.9008L16.6013 26.1124L16.3604 25.7236L16.1351 25.6394L15.8151 25.9301L15.3971 25.3641L15.1614 25.2764L15.2009 28.1063Z" fill="#A17FF1" stroke="#A17FF1" stroke-width="0.124903" stroke-miterlimit="10"/>
<path opacity="0.3" d="M5.20241 36.9835L7.59707 38.0827L7.67792 35.0894L7.33386 35.3285L7.01733 34.8434L6.83842 34.7763L6.60273 34.9879L6.36189 34.5991L6.13825 34.5166L5.81828 34.8056L5.40024 34.2413L5.16284 34.1519L5.20241 36.9835Z" fill="#A17FF1" stroke="#A17FF1" stroke-width="0.124903" stroke-miterlimit="10"/>
<path opacity="0.3" d="M40.3878 23.5665L37.8882 24.5385V21.7086L38.234 21.9425L38.5436 21.4522L38.7225 21.3834L38.9599 21.5916L39.1956 21.1993L39.4175 21.1116L39.7427 21.3972L40.1521 20.826L40.3878 20.7349V23.5665Z" fill="#A17FF1" stroke="#A17FF1" stroke-width="0.124903" stroke-miterlimit="10"/>
<path opacity="0.3" d="M37.938 10.8121L40.4514 9.87451L40.4118 12.7044L40.0695 12.467L39.7529 12.9521L39.574 13.0192L39.3383 12.8059L39.0975 13.1964L38.8738 13.279L38.5539 12.99L38.1358 13.5542L37.8984 13.6437L37.938 10.8121Z" fill="#A17FF1" stroke="#A17FF1" stroke-width="0.124903" stroke-miterlimit="10"/>
<path opacity="0.3" d="M29.493 41.5672L26.9917 42.7267V39.7093L27.3392 39.9432L27.6489 39.453L27.826 39.3841L28.0652 39.5923L28.2991 39.2001L28.5228 39.1141L28.8479 39.3996L29.2573 38.8285L29.493 38.7373V41.5672Z" fill="#A17FF1" stroke="#A17FF1" stroke-width="0.124903" stroke-miterlimit="10"/>
<path opacity="0.3" d="M27.0435 29.094L29.5568 28.1582L29.5173 30.9881L29.1749 30.749L28.8584 31.2341L28.6778 31.3012L28.4438 31.0896L28.203 31.4784L27.9793 31.5627L27.6576 31.2719L27.2413 31.8379L27.0039 31.9257L27.0435 29.094Z" fill="#A17FF1" stroke="#A17FF1" stroke-width="0.124903" stroke-miterlimit="10"/>
<g clip-path="url(#clip2_86_877)">
<path d="M2.35674 26.3032V25.1595L2.73411 25.3825L2.23677 23.9514L1.7395 24.7947L2.11683 25.0177V26.1614L2.35674 26.3032Z" fill="#A17FF1"/>
</g>
<g clip-path="url(#clip3_86_877)">
<path d="M10.2044 29.4795V28.3357L10.5818 28.5587L10.0844 27.1277L9.58716 27.971L9.96449 28.194V29.3377L10.2044 29.4795Z" fill="#A17FF1"/>
</g>
<g clip-path="url(#clip4_86_877)">
<path d="M12.9144 16.5874V15.4436L13.2917 15.6666L12.7944 14.2356L12.2971 15.0789L12.6745 15.3019V16.4456L12.9144 16.5874Z" fill="#A17FF1"/>
</g>
<g clip-path="url(#clip5_86_877)">
<path d="M20.7625 19.7627V18.6189L21.1399 18.8419L20.6425 17.4109L20.1453 18.2542L20.5226 18.4772V19.6209L20.7625 19.7627Z" fill="#A17FF1"/>
</g>
<g clip-path="url(#clip6_86_877)">
<path d="M23.734 33.781V32.6372L24.077 32.4314L23.6249 31.5655L23.1729 32.9739L23.5159 32.7681V33.9119L23.734 33.781Z" fill="#A17FF1"/>
</g>
<g clip-path="url(#clip7_86_877)">
<path d="M31.6747 30.6047V29.461L32.0177 29.2551L31.5656 28.3893L31.1135 29.7977L31.4566 29.5918V30.7356L31.6747 30.6047Z" fill="#A17FF1"/>
</g>
<g clip-path="url(#clip8_86_877)">
<path d="M34.5699 15.9358V14.792L34.913 14.5862L34.4608 13.7203L34.0088 15.1287L34.3518 14.9229V16.0666L34.5699 15.9358Z" fill="#A17FF1"/>
</g>
<g clip-path="url(#clip9_86_877)">
<path d="M42.5125 12.76V11.6163L42.8556 11.4104L42.4035 10.5445L41.9514 11.9529L42.2944 11.7471V12.8909L42.5125 12.76Z" fill="#A17FF1"/>
</g>
</g>
<defs>
<clipPath id="clip0_86_877">
<rect width="45" height="45" fill="white"/>
</clipPath>
<clipPath id="clip1_86_877">
<rect width="2.28091" height="1.15528" fill="white" transform="matrix(0 -1 0.860927 0.508729 12.4846 7.81396)"/>
</clipPath>
<clipPath id="clip2_86_877">
<rect width="2.28091" height="1.15528" fill="white" transform="matrix(0 -1 0.860927 0.508729 1.7395 25.9385)"/>
</clipPath>
<clipPath id="clip3_86_877">
<rect width="2.28091" height="1.15528" fill="white" transform="matrix(0 -1 0.860927 0.508729 9.58716 29.1147)"/>
</clipPath>
<clipPath id="clip4_86_877">
<rect width="2.28091" height="1.15528" fill="white" transform="matrix(0 -1 0.860927 0.508729 12.2971 16.2227)"/>
</clipPath>
<clipPath id="clip5_86_877">
<rect width="2.28091" height="1.15528" fill="white" transform="matrix(0 -1 0.860927 0.508729 20.1453 19.3979)"/>
</clipPath>
<clipPath id="clip6_86_877">
<rect width="2.28091" height="1.05446" fill="white" transform="matrix(0 -1 0.857493 -0.514496 23.1729 34.1177)"/>
</clipPath>
<clipPath id="clip7_86_877">
<rect width="2.28091" height="1.05446" fill="white" transform="matrix(0 -1 0.857493 -0.514496 31.1135 30.9414)"/>
</clipPath>
<clipPath id="clip8_86_877">
<rect width="2.28091" height="1.05446" fill="white" transform="matrix(0 -1 0.857493 -0.514496 34.0088 16.2725)"/>
</clipPath>
<clipPath id="clip9_86_877">
<rect width="2.28091" height="1.05446" fill="white" transform="matrix(0 -1 0.857493 -0.514496 41.9514 13.0967)"/>
</clipPath>
</defs>
</svg>
