<svg width="27" height="26" viewBox="0 0 27 26" fill="none" xmlns="http://www.w3.org/2000/svg">
<g clip-path="url(#clip0_86_877)">
<path d="M13.3402 4.90203L7.17773 2.43604V10.5099L13.3402 13.0167V4.90203Z" fill="#7A00B4" stroke="#A17FF1" stroke-width="0.10183" stroke-miterlimit="10"/>
<path d="M13.2995 4.93597L19.3775 2.51569L13.2687 0L7.16479 2.45208L13.2995 4.93597Z" fill="#A73EE7" stroke="#A17FF1" stroke-width="0.101383" stroke-miterlimit="10"/>
<g clip-path="url(#clip1_86_877)">
<path d="M7.91998 4.72538V4.06455L8.13802 4.19339L7.85066 3.36656L7.56335 3.85382L7.78137 3.98264V4.64347L7.91998 4.72538Z" fill="#A17FF1"/>
</g>
<path d="M19.4399 15.3078L25.6024 12.8418V20.1086L19.4399 22.9692V15.3078Z" fill="#7A00B4" stroke="#A17FF1" stroke-width="0.10183" stroke-miterlimit="10"/>
<path d="M19.4312 7.38135L25.5937 4.98096V12.8391L19.4312 15.333V7.38135Z" fill="#7A00B4" stroke="#A17FF1" stroke-width="0.10183" stroke-miterlimit="10"/>
<path d="M19.3644 7.36632L13.3679 4.81982L19.3933 2.55957L25.5558 4.94506L19.3644 7.36632Z" fill="#A73EE7" stroke="#A17FF1" stroke-width="0.10183" stroke-miterlimit="10"/>
<path d="M7.0784 15.2911L0.915894 12.9136V20.244L7.0784 23.0738V15.2911Z" fill="#7A00B4" stroke="#A17FF1" stroke-width="0.10183" stroke-miterlimit="10"/>
<path d="M7.0624 15.3427L13.2249 12.9403L7.0624 10.4902L0.899902 12.8757L7.0624 15.3427Z" fill="#A73EE7" stroke="#A17FF1" stroke-width="0.10183" stroke-miterlimit="10"/>
<path d="M3.97717 14.0893L10.1357 11.6372" stroke="#A17FF1" stroke-width="0.10183" stroke-miterlimit="10"/>
<path d="M13.2687 17.8412L7.1062 15.3921V23.0604L13.2687 25.9995V17.8412Z" fill="#7A00B4" stroke="#A17FF1" stroke-width="0.10183" stroke-miterlimit="10"/>
<path d="M13.219 17.9123L19.4362 15.4463V23.061L13.219 26.0001V17.9123Z" fill="#7A00B4" stroke="#A17FF1" stroke-width="0.10183" stroke-miterlimit="10"/>
<path d="M13.2329 9.77935L19.3954 7.34814V15.4588L13.2329 17.9288V9.77935Z" fill="#7A00B4" stroke="#A17FF1" stroke-width="0.10183" stroke-miterlimit="10"/>
<path d="M13.2328 9.76043L7.07031 7.29443V15.3683L13.2328 17.8751V9.76043Z" fill="#7A00B4" stroke="#A17FF1" stroke-width="0.10183" stroke-miterlimit="10"/>
<path d="M13.2458 9.74065L19.3775 7.32038L13.215 4.80469L7.05249 7.25677L13.2458 9.74065Z" fill="#A73EE7" stroke="#A17FF1" stroke-width="0.10183" stroke-miterlimit="10"/>
<path d="M9.80957 8.39007L15.9681 5.93799" stroke="#A17FF1" stroke-width="0.10183" stroke-miterlimit="10"/>
<path d="M10.0254 3.63958L16.1839 1.1875" stroke="#A17FF1" stroke-width="0.10183" stroke-miterlimit="10"/>
<path d="M16.7584 3.55664L23.0362 5.98884" stroke="#A17FF1" stroke-width="0.10183" stroke-miterlimit="10"/>
<path opacity="0.3" d="M15.2574 5.65283L9.05518 8.12181L10.5282 8.71122L16.6867 6.26014L15.2574 5.65283Z" fill="#A17FF1" stroke="#A17FF1" stroke-width="0.0888979" stroke-miterlimit="10"/>
<path opacity="0.3" d="M15.5279 0.902344L9.32568 3.37132L10.7987 3.96073L16.9563 1.50965L15.5279 0.902344Z" fill="#A17FF1" stroke="#A17FF1" stroke-width="0.0888979" stroke-miterlimit="10"/>
<path opacity="0.3" d="M3.29529 13.8359L4.76733 14.4243L7.09517 13.4979L7.06932 12.333L3.29529 13.8359Z" fill="#A17FF1" stroke="#A17FF1" stroke-width="0.0888979" stroke-miterlimit="10"/>
<path opacity="0.3" d="M17.4383 3.30127L16.1074 3.82309L22.2968 6.2215L23.6306 5.70067L17.4383 3.30127Z" fill="#A17FF1" stroke="#A17FF1" stroke-width="0.0784911" stroke-miterlimit="10"/>
<path opacity="0.3" d="M4.7395 14.3995L3.29529 13.8379V15.4729L3.49507 15.3378L3.67398 15.621L3.77735 15.6618L3.91452 15.5405L4.05069 15.7672L4.17891 15.8178L4.36677 15.6528L4.60333 15.9828L4.7395 16.0355V14.3995Z" fill="#A17FF1" stroke="#A17FF1" stroke-width="0.124903" stroke-miterlimit="10"/>
<path opacity="0.3" d="M10.7857 3.92731L9.34045 3.36572V5.00077L9.54123 4.8656L9.71915 5.14887L9.82252 5.18962L9.95969 5.06836L10.0959 5.29498L10.2251 5.34568L10.4119 5.18068L10.6495 5.51067L10.7857 5.56335V3.92731Z" fill="#A17FF1" stroke="#A17FF1" stroke-width="0.124903" stroke-miterlimit="10"/>
<path opacity="0.3" d="M10.5472 8.70904L9.10303 8.14746V9.78251L9.30281 9.64733L9.48172 9.93061L9.58509 9.97037L9.72226 9.8501L9.85843 10.0767L9.98665 10.1264L10.1745 9.96142L10.4111 10.2914L10.5472 10.3441V8.70904Z" fill="#A17FF1" stroke="#A17FF1" stroke-width="0.124903" stroke-miterlimit="10"/>
<path opacity="0.3" d="M9.13285 16.2391L10.585 16.7808L10.5621 15.1457L10.3634 15.2839L10.1805 15.0036L10.0771 14.9648L9.94192 15.0871L9.80277 14.8624L9.67256 14.8137L9.48769 14.9817L9.24616 14.6547L9.10999 14.604L9.13285 16.2391Z" fill="#A17FF1" stroke="#A17FF1" stroke-width="0.124903" stroke-miterlimit="10"/>
<path opacity="0.3" d="M3.35587 21.368L4.73945 22.0031L4.78617 20.2736L4.58738 20.4118L4.40449 20.1315L4.30112 20.0927L4.16495 20.215L4.02579 19.9904L3.89658 19.9427L3.7117 20.1096L3.47017 19.7836L3.33301 19.7319L3.35587 21.368Z" fill="#A17FF1" stroke="#A17FF1" stroke-width="0.124903" stroke-miterlimit="10"/>
<path opacity="0.3" d="M23.6852 13.616L22.241 14.1776V12.5426L22.4408 12.6777L22.6197 12.3945L22.723 12.3547L22.8602 12.475L22.9964 12.2483L23.1246 12.1977L23.3124 12.3627L23.549 12.0327L23.6852 11.98V13.616Z" fill="#A17FF1" stroke="#A17FF1" stroke-width="0.124903" stroke-miterlimit="10"/>
<path opacity="0.3" d="M22.2698 6.24678L23.722 5.70508L23.6991 7.34013L23.5013 7.20296L23.3184 7.48326L23.2151 7.52202L23.0789 7.39877L22.9397 7.6244L22.8105 7.67211L22.6256 7.50512L22.3841 7.83114L22.2469 7.88283L22.2698 6.24678Z" fill="#A17FF1" stroke="#A17FF1" stroke-width="0.124903" stroke-miterlimit="10"/>
<path opacity="0.3" d="M17.3904 24.0169L15.9452 24.6868V22.9434L16.146 23.0786L16.3249 22.7953L16.4273 22.7556L16.5654 22.8758L16.7006 22.6492L16.8298 22.5995L17.0177 22.7645L17.2542 22.4345L17.3904 22.3818V24.0169Z" fill="#A17FF1" stroke="#A17FF1" stroke-width="0.124903" stroke-miterlimit="10"/>
<path opacity="0.3" d="M15.9751 16.8098L17.4273 16.269L17.4044 17.9041L17.2066 17.7659L17.0237 18.0462L16.9194 18.085L16.7842 17.9627L16.6451 18.1874L16.5158 18.2361L16.33 18.0681L16.0894 18.3951L15.9523 18.4458L15.9751 16.8098Z" fill="#A17FF1" stroke="#A17FF1" stroke-width="0.124903" stroke-miterlimit="10"/>
<path opacity="0.55" d="M18.3636 11.7111L18.1927 11.6723V11.6216L18.3398 11.4149C18.3469 11.4059 18.3522 11.3955 18.3552 11.3844C18.3583 11.3733 18.3591 11.3617 18.3577 11.3503C18.3564 11.3416 18.352 11.3337 18.3451 11.3282C18.3383 11.3226 18.3297 11.3199 18.3209 11.3205L18.133 11.3264L18.1181 11.2817L18.2354 11.0611C18.2412 11.0518 18.2448 11.0414 18.246 11.0305C18.2473 11.0197 18.246 11.0087 18.2424 10.9984C18.2383 10.9906 18.2316 10.9844 18.2233 10.9811C18.2151 10.9779 18.206 10.9776 18.1976 10.9805L17.9989 11.0312L17.975 10.9945L18.0585 10.7668C18.0636 10.7581 18.0662 10.7481 18.0662 10.738C18.0662 10.7279 18.0636 10.718 18.0585 10.7092C18.0519 10.7027 18.0433 10.6986 18.0342 10.6976C18.025 10.6965 18.0157 10.6985 18.0078 10.7032L17.809 10.7967L17.7772 10.7698L17.8239 10.5442C17.827 10.535 17.8271 10.5251 17.8242 10.5158C17.8214 10.5066 17.8157 10.4984 17.808 10.4925C17.7991 10.4882 17.789 10.4865 17.7792 10.4878C17.7693 10.489 17.76 10.4931 17.7524 10.4995L17.5536 10.6317L17.5148 10.6148L17.5218 10.4011C17.5232 10.392 17.5214 10.3828 17.5166 10.375C17.5119 10.3672 17.5046 10.3613 17.4959 10.3583C17.4854 10.3566 17.4747 10.3576 17.4646 10.361C17.4545 10.3645 17.4455 10.3704 17.4383 10.3782L17.2554 10.5432L17.2107 10.5372L17.1779 10.3384C17.1769 10.3297 17.1727 10.3216 17.1661 10.3157C17.1595 10.3098 17.1509 10.3066 17.1421 10.3066C17.131 10.3075 17.1202 10.3107 17.1105 10.316C17.1007 10.3214 17.0922 10.3286 17.0854 10.3375L16.9224 10.5303L16.8737 10.5353L16.8031 10.3683C16.7998 10.3599 16.7934 10.3532 16.7853 10.3493C16.7772 10.3454 16.768 10.3448 16.7594 10.3474C16.7365 10.3539 16.717 10.3688 16.7047 10.3891L16.5676 10.6018L16.5179 10.6177L16.4115 10.4836C16.4053 10.4769 16.3971 10.4724 16.388 10.471C16.379 10.4696 16.3698 10.4712 16.3618 10.4756C16.3396 10.4858 16.3219 10.5039 16.3121 10.5263L16.2058 10.7509L16.1561 10.7768L16.0189 10.6774C16.0108 10.672 16.0013 10.6692 15.9916 10.6692C15.9819 10.6692 15.9723 10.672 15.9642 10.6774C15.9435 10.691 15.928 10.7114 15.9205 10.735L15.8499 10.9617L15.8012 10.9974L15.6382 10.9438C15.6281 10.9416 15.6176 10.942 15.6077 10.945C15.5978 10.9479 15.5888 10.9533 15.5816 10.9607C15.5627 10.9767 15.5501 10.9989 15.5458 11.0233L15.513 11.2449L15.4683 11.2887L15.2854 11.2787C15.2742 11.279 15.2633 11.2818 15.2534 11.2868C15.2434 11.2918 15.2347 11.2988 15.2277 11.3076C15.2116 11.3253 15.2024 11.3482 15.2019 11.3722L15.2088 11.5799L15.1701 11.6296L14.9713 11.6644C14.9483 11.6699 14.9283 11.6842 14.9156 11.7041C14.9087 11.7133 14.9038 11.7237 14.901 11.7348C14.8983 11.7459 14.8979 11.7575 14.8997 11.7687L14.9454 11.9546L14.9136 12.0083L14.7148 12.0868C14.6926 12.0963 14.6745 12.1136 14.6641 12.1355C14.6594 12.1451 14.657 12.1556 14.657 12.1663C14.657 12.177 14.6594 12.1876 14.6641 12.1971L14.7476 12.3532L14.7238 12.4098L14.525 12.5281C14.504 12.5413 14.4883 12.5613 14.4803 12.5848C14.4762 12.594 14.4747 12.6041 14.4759 12.6141C14.4772 12.624 14.4811 12.6335 14.4872 12.6414L14.6045 12.7627L14.5896 12.8203L14.4017 12.9744C14.3827 12.9901 14.3697 13.0119 14.365 13.036C14.3623 13.0451 14.3626 13.0549 14.3658 13.0638C14.369 13.0727 14.375 13.0804 14.3829 13.0857L14.53 13.1672V13.2219L14.359 13.4058C14.3422 13.4232 14.3323 13.4462 14.3312 13.4704C14.3302 13.4794 14.3324 13.4885 14.3375 13.4959C14.3426 13.5034 14.3502 13.5088 14.359 13.5111L14.53 13.5499V13.6006L14.3829 13.8073C14.3758 13.8164 14.3705 13.8268 14.3675 13.8379C14.3644 13.8489 14.3636 13.8605 14.365 13.8719C14.3662 13.8806 14.3707 13.8885 14.3775 13.8941C14.3843 13.8996 14.393 13.9024 14.4017 13.9018L14.5896 13.8958L14.6045 13.9405L14.4872 14.1612C14.4814 14.1704 14.4778 14.1809 14.4766 14.1917C14.4754 14.2025 14.4766 14.2135 14.4803 14.2238C14.4843 14.2317 14.4911 14.2378 14.4993 14.2411C14.5075 14.2444 14.5166 14.2446 14.525 14.2417L14.7238 14.191L14.7476 14.2278L14.6641 14.4554C14.6591 14.4642 14.6564 14.4741 14.6564 14.4842C14.6564 14.4943 14.6591 14.5043 14.6641 14.513C14.6707 14.5195 14.6793 14.5236 14.6885 14.5247C14.6976 14.5258 14.7069 14.5238 14.7148 14.519L14.9136 14.4256L14.9454 14.4524L14.8997 14.678C14.8969 14.6871 14.8969 14.6968 14.8998 14.7059C14.9026 14.7149 14.9081 14.7229 14.9156 14.7287C14.9246 14.7331 14.9346 14.7347 14.9445 14.7335C14.9543 14.7322 14.9637 14.7282 14.9713 14.7218L15.1701 14.5896L15.2088 14.6065L15.2019 14.8202C15.2005 14.8292 15.2023 14.8384 15.207 14.8463C15.2117 14.8541 15.2191 14.86 15.2277 14.8629C15.2382 14.8646 15.249 14.8637 15.259 14.8602C15.2691 14.8567 15.2781 14.8508 15.2854 14.843L15.4683 14.678L15.513 14.684L15.5458 14.8828C15.5465 14.8917 15.5507 14.8999 15.5573 14.9058C15.564 14.9118 15.5727 14.9149 15.5816 14.9146C15.5926 14.9137 15.6034 14.9105 15.6132 14.9052C15.6229 14.8999 15.6315 14.8926 15.6382 14.8838L15.8012 14.691L15.8499 14.686L15.9205 14.853C15.924 14.8611 15.9305 14.8677 15.9385 14.8713C15.9466 14.875 15.9558 14.8756 15.9642 14.8729C15.9871 14.8665 16.0067 14.8515 16.0189 14.8311L16.1561 14.6184L16.2058 14.6025L16.3121 14.7367C16.3183 14.7434 16.3266 14.7478 16.3356 14.7492C16.3446 14.7507 16.3538 14.7491 16.3618 14.7446C16.3841 14.7344 16.4018 14.7164 16.4115 14.6939L16.5179 14.4693L16.5676 14.4425L16.7047 14.5419C16.7128 14.5472 16.7223 14.5501 16.7321 14.5501C16.7418 14.5501 16.7513 14.5472 16.7594 14.5419C16.7802 14.5282 16.7956 14.5079 16.8031 14.4842L16.8737 14.2576L16.9224 14.2218L17.0854 14.2755C17.0955 14.2776 17.106 14.2771 17.1159 14.2742C17.1257 14.2712 17.1347 14.2659 17.1421 14.2586C17.1609 14.2425 17.1736 14.2204 17.1779 14.196L17.2107 13.9743L17.2554 13.9306L17.4383 13.9405C17.4494 13.9402 17.4603 13.9375 17.4703 13.9325C17.4802 13.9275 17.489 13.9204 17.4959 13.9117C17.512 13.894 17.5212 13.871 17.5218 13.8471L17.5148 13.6394L17.5536 13.5897L17.7524 13.5549C17.7754 13.5494 17.7954 13.5351 17.808 13.5151C17.8149 13.506 17.8199 13.4956 17.8226 13.4844C17.8253 13.4733 17.8258 13.4618 17.8239 13.4505L17.7782 13.2646L17.7951 13.212L17.9939 13.1334C18.0162 13.1239 18.0342 13.1066 18.0446 13.0847C18.0493 13.0752 18.0518 13.0646 18.0518 13.0539C18.0518 13.0432 18.0493 13.0327 18.0446 13.0231L17.9611 12.8671L17.9849 12.8104L18.1837 12.6921C18.2047 12.679 18.2205 12.659 18.2285 12.6355C18.2325 12.6263 18.234 12.6162 18.2328 12.6062C18.2316 12.5962 18.2277 12.5868 18.2215 12.5788L18.1042 12.4576L18.1191 12.3999L18.307 12.2458C18.326 12.2302 18.339 12.2084 18.3438 12.1842C18.3464 12.1751 18.3461 12.1654 18.3429 12.1564C18.3397 12.1475 18.3337 12.1398 18.3259 12.1345L18.1788 12.053V11.9983L18.3497 11.8145C18.3666 11.797 18.3765 11.7741 18.3776 11.7499C18.3792 11.7427 18.3788 11.7353 18.3763 11.7284C18.3739 11.7215 18.3695 11.7155 18.3636 11.7111ZM17.2176 13.6871C17.152 13.7 17.1103 13.6503 17.1242 13.5758C17.1313 13.5386 17.1486 13.5041 17.174 13.4761C17.1994 13.448 17.232 13.4275 17.2683 13.4167C17.3339 13.4038 17.3756 13.4535 17.3617 13.528C17.3545 13.5652 17.3372 13.5996 17.3118 13.6276C17.2864 13.6556 17.2538 13.6762 17.2176 13.6871ZM17.159 13.2994C17.1259 13.3093 17.0962 13.3281 17.0731 13.3537C17.05 13.3793 17.0343 13.4107 17.0278 13.4445L16.9671 13.7676C16.7853 13.933 16.5774 14.0673 16.3519 14.1652C16.1548 14.2542 15.9397 14.296 15.7237 14.2874L15.6631 14.0161C15.6501 13.9594 15.5915 13.9445 15.5319 13.9833L15.2814 14.1463C15.2349 14.1156 15.1916 14.0803 15.1522 14.0409L16.3708 13.5231C16.3847 13.5171 16.3936 13.5111 16.3936 13.4972V13.045C16.3936 13.0321 16.3847 13.0331 16.3708 13.039L16.0139 13.1901V12.9038L16.3996 12.7398C16.4221 12.727 16.4474 12.7198 16.4733 12.7188C16.4993 12.7179 16.525 12.7233 16.5484 12.7346C16.5718 12.7458 16.5921 12.7626 16.6075 12.7834C16.623 12.8042 16.6332 12.8285 16.6371 12.8541C16.6521 12.9108 16.6858 13.1016 16.7087 13.1523C16.7316 13.203 16.825 13.3233 16.9244 13.2815L17.5317 13.0231L17.5536 13.0112C17.5118 13.0887 17.4651 13.1652 17.4154 13.2398L17.159 13.2994ZM15.4692 14.4226C15.4036 14.4653 15.339 14.4484 15.3251 14.3858C15.321 14.3484 15.3277 14.3107 15.3442 14.2769C15.3607 14.2431 15.3865 14.2147 15.4186 14.195C15.4842 14.1522 15.5488 14.1691 15.5627 14.2318C15.5672 14.2688 15.5611 14.3063 15.5453 14.34C15.5295 14.3738 15.5045 14.4024 15.4732 14.4226H15.4692ZM15.0071 12.6544C15.0188 12.6898 15.0192 12.728 15.0081 12.7636C14.9971 12.7993 14.9752 12.8306 14.9454 12.8531C14.8838 12.9078 14.8122 12.9088 14.7854 12.8531C14.7737 12.8177 14.7733 12.7795 14.7843 12.7439C14.7954 12.7082 14.8173 12.6769 14.847 12.6544C14.9126 12.6037 14.9842 12.6017 15.011 12.6544H15.0071ZM14.8649 13.0678L15.1263 12.8353C15.1527 12.815 15.1722 12.7873 15.1823 12.7557C15.1925 12.724 15.1927 12.6901 15.183 12.6583L15.1293 12.554L15.341 12.4645V13.4585L14.9146 13.6394C14.8757 13.5081 14.8566 13.3717 14.858 13.2348C14.859 13.1831 14.859 13.1255 14.8689 13.0678H14.8649ZM16.01 12.4844V12.1862L16.5129 11.9725C16.5387 11.9616 16.6968 11.9258 16.6968 12.049C16.6968 12.1484 16.5755 12.2399 16.4761 12.2816L16.009 12.4804L16.01 12.4844ZM17.8388 11.9715C17.8388 12.0106 17.8388 12.0497 17.8388 12.0888L17.6858 12.1534C17.6788 12.1563 17.673 12.1613 17.669 12.1678C17.6651 12.1742 17.6633 12.1817 17.6639 12.1892V12.2627C17.6679 12.3242 17.6534 12.3855 17.6222 12.4387C17.591 12.4918 17.5446 12.5344 17.489 12.5609C17.4114 12.6037 17.325 12.5967 17.314 12.551C17.2683 12.2995 17.1918 12.2747 17.0705 12.226C17.2352 12.075 17.3432 11.8723 17.3766 11.6515C17.3819 11.5799 17.3612 11.5088 17.3183 11.4513C17.2754 11.3938 17.2132 11.3537 17.1431 11.3384C17.0361 11.3158 16.9249 11.3248 16.823 11.3642L15.2406 12.0371C15.452 11.6956 15.7373 11.4058 16.0756 11.1893L16.2624 11.3155C16.3042 11.3443 16.3747 11.3155 16.4185 11.2529L16.6272 10.9547C16.8104 10.8977 17.0068 10.8986 17.1895 10.9573C17.3722 11.016 17.5323 11.1296 17.648 11.2827L17.5049 11.6803C17.48 11.7489 17.5049 11.8075 17.5615 11.8095L17.8368 11.8204C17.8395 11.8688 17.8408 11.9192 17.8408 11.9715H17.8388ZM16.2575 10.9338C16.3062 10.8652 16.3827 10.8344 16.4284 10.8652C16.4741 10.8961 16.4731 10.9776 16.4284 11.0471C16.3837 11.1167 16.3032 11.1465 16.2575 11.1157C16.2117 11.0849 16.2137 11.0024 16.2624 10.9328L16.2575 10.9338ZM17.6758 11.5302C17.6868 11.495 17.7078 11.4638 17.7362 11.4403C17.7646 11.4168 17.7992 11.4021 17.8358 11.398C17.8975 11.398 17.9243 11.4636 17.8975 11.5391C17.8865 11.5743 17.8655 11.6056 17.8371 11.629C17.8087 11.6525 17.7741 11.6672 17.7374 11.6713C17.6808 11.6654 17.653 11.6018 17.6798 11.5222L17.6758 11.5302Z" fill="black"/>
<path opacity="0.56" d="M12.2885 21.5817L12.0997 21.3878L12.0947 21.3312L12.2567 21.2467C12.2652 21.2414 12.2718 21.2335 12.2754 21.2242C12.279 21.2149 12.2794 21.2046 12.2766 21.195C12.2711 21.1693 12.2566 21.1465 12.2359 21.1304L12.0291 20.9684L12.0132 20.9088L12.1424 20.7825C12.1491 20.7742 12.1532 20.7642 12.1545 20.7537C12.1557 20.7432 12.1539 20.7325 12.1494 20.7229C12.1402 20.6979 12.1226 20.6768 12.0997 20.6633L11.881 20.538L11.8552 20.4784L11.9466 20.3144C11.9511 20.304 11.953 20.2927 11.9521 20.2815C11.9512 20.2702 11.9477 20.2593 11.9416 20.2498C11.9295 20.2263 11.9094 20.208 11.885 20.1981L11.6633 20.1156L11.6285 20.0589L11.6792 19.8601C11.6813 19.8483 11.6809 19.8362 11.678 19.8245C11.6751 19.8129 11.6697 19.802 11.6623 19.7925C11.6482 19.7714 11.6265 19.7564 11.6017 19.7508L11.386 19.713L11.3433 19.6604L11.3512 19.4417C11.3506 19.4163 11.3403 19.3921 11.3224 19.3741C11.3147 19.3649 11.3051 19.3574 11.2943 19.3521C11.2836 19.3468 11.2718 19.3438 11.2598 19.3433L11.061 19.3532L11.0123 19.3065L10.9765 19.0739C10.9718 19.0481 10.9581 19.0249 10.9378 19.0083C10.9295 19.0005 10.9195 18.9948 10.9086 18.9917C10.8977 18.9886 10.8862 18.9882 10.8751 18.9904L10.6952 19.0461L10.6416 19.0083L10.564 18.7698C10.5556 18.7446 10.5388 18.7232 10.5163 18.7091C10.5078 18.7028 10.4977 18.699 10.4872 18.6981C10.4767 18.6973 10.4661 18.6994 10.4567 18.7042L10.3056 18.8036L10.247 18.7777L10.1307 18.5412C10.1193 18.5174 10.0999 18.4984 10.076 18.4875C10.0673 18.4827 10.0572 18.4808 10.0473 18.4823C10.0375 18.4837 10.0283 18.4883 10.0213 18.4954L9.90504 18.6366L9.85037 18.6197L9.69929 18.396C9.68577 18.3743 9.66442 18.3587 9.63965 18.3523C9.63052 18.3495 9.62067 18.35 9.6119 18.3539C9.60314 18.3577 9.59605 18.3646 9.59194 18.3732L9.51441 18.5481L9.46074 18.5422L9.28084 18.3434C9.27321 18.3339 9.26372 18.3261 9.25294 18.3204C9.24217 18.3148 9.23035 18.3114 9.21822 18.3106C9.20868 18.3103 9.19939 18.3136 9.19219 18.3198C9.185 18.3261 9.18045 18.3349 9.17945 18.3444L9.14367 18.5481L9.09497 18.5541L8.89618 18.3801C8.88809 18.372 8.87821 18.3659 8.86734 18.3623C8.85647 18.3587 8.8449 18.3576 8.83356 18.3593C8.82419 18.362 8.81613 18.3681 8.81084 18.3763C8.80555 18.3845 8.80338 18.3943 8.80473 18.404L8.81268 18.6286L8.76994 18.6465L8.55426 18.5074C8.54581 18.5007 8.53571 18.4964 8.52504 18.495C8.51436 18.4936 8.50351 18.4951 8.49363 18.4994C8.48548 18.5054 8.47946 18.5139 8.47642 18.5235C8.47338 18.5331 8.47349 18.5435 8.47673 18.5531L8.52742 18.7897L8.49263 18.8175L8.27098 18.7181C8.26215 18.7129 8.25187 18.7106 8.24166 18.7117C8.23146 18.7128 8.22187 18.7171 8.21433 18.7241C8.20803 18.7327 8.20424 18.743 8.20336 18.7537C8.20249 18.7644 8.20456 18.7751 8.20936 18.7847L8.3008 19.0232L8.27496 19.062L8.05629 19.0083C8.04711 19.005 8.03705 19.0051 8.02793 19.0085C8.01881 19.012 8.01124 19.0186 8.00659 19.0272C8.00256 19.0379 8.00109 19.0494 8.0023 19.0608C8.00351 19.0722 8.00736 19.0832 8.01355 19.0928L8.14276 19.3254L8.12686 19.3721L7.92011 19.3651C7.91055 19.3643 7.90102 19.3671 7.89345 19.373C7.88588 19.3789 7.88084 19.3875 7.87936 19.397C7.87787 19.409 7.87886 19.4212 7.88228 19.4328C7.8857 19.4444 7.89148 19.4552 7.89924 19.4645L8.06126 19.6822L8.05629 19.7349L7.86744 19.7747C7.85797 19.7768 7.84961 19.7823 7.84393 19.7902C7.83826 19.7981 7.83566 19.8077 7.83662 19.8174C7.83777 19.8431 7.84882 19.8673 7.86744 19.885L8.05629 20.0788L8.06126 20.1355L7.89924 20.2199C7.89073 20.2252 7.88418 20.2331 7.88059 20.2424C7.877 20.2518 7.87657 20.262 7.87936 20.2716C7.88498 20.2973 7.8994 20.3201 7.92011 20.3362L8.12686 20.4983L8.14276 20.5579L8.01355 20.6841C8.00692 20.6924 8.00275 20.7024 8.00152 20.7129C8.00029 20.7235 8.00204 20.7342 8.00659 20.7438C8.01576 20.7688 8.03332 20.7899 8.05629 20.8034L8.27496 20.9286L8.3008 20.9883L8.20936 21.1523C8.20496 21.1627 8.20312 21.1739 8.20399 21.1852C8.20485 21.1964 8.2084 21.2073 8.21433 21.2169C8.22642 21.2403 8.24652 21.2587 8.27098 21.2686L8.49263 21.3511L8.52742 21.4077L8.47673 21.6065C8.47464 21.6183 8.47507 21.6305 8.47798 21.6421C8.48089 21.6537 8.48622 21.6647 8.49363 21.6741C8.50775 21.6953 8.52945 21.7102 8.55426 21.7158L8.76994 21.7536L8.81268 21.8063L8.80473 22.025C8.80535 22.0504 8.81567 22.0745 8.83356 22.0926C8.84128 22.1018 8.85084 22.1093 8.86162 22.1146C8.8724 22.1199 8.88417 22.1229 8.89618 22.1234L9.09497 22.1144L9.14367 22.1611L9.17945 22.3937C9.18417 22.4195 9.19791 22.4428 9.21822 22.4593C9.22636 22.4673 9.2363 22.4732 9.24721 22.4765C9.25811 22.4797 9.26965 22.4803 9.28084 22.4782L9.45975 22.4225L9.51342 22.4603L9.59095 22.6989C9.59934 22.724 9.61621 22.7454 9.63866 22.7595C9.64714 22.7658 9.65723 22.7696 9.66777 22.7705C9.67831 22.7714 9.68888 22.7693 9.6983 22.7645L9.84938 22.6651L9.90404 22.6929L10.0203 22.9295C10.0317 22.9532 10.0511 22.9722 10.075 22.9831C10.0838 22.9878 10.0938 22.9895 10.1036 22.9881C10.1135 22.9867 10.1226 22.9821 10.1297 22.9752L10.246 22.834L10.3006 22.8509L10.4517 23.0746C10.4652 23.0963 10.4866 23.1119 10.5113 23.1183C10.5205 23.1212 10.5303 23.1206 10.5391 23.1168C10.5479 23.1129 10.5549 23.1061 10.5591 23.0974L10.6366 22.9225L10.6903 22.9285L10.8702 23.1273C10.8778 23.1367 10.8873 23.1445 10.8981 23.1501C10.9089 23.1557 10.9207 23.1591 10.9328 23.1601C10.9423 23.1604 10.9516 23.157 10.9588 23.1508C10.966 23.1445 10.9705 23.1358 10.9715 23.1263L11.0073 22.9275L11.056 22.9215L11.2548 23.0955C11.2629 23.1036 11.2728 23.1097 11.2837 23.1133C11.2945 23.1169 11.3061 23.118 11.3174 23.1163C11.3268 23.1136 11.3349 23.1075 11.3402 23.0993C11.3455 23.0911 11.3476 23.0813 11.3463 23.0716L11.3383 22.847L11.3811 22.8291L11.5967 22.9682C11.6051 22.975 11.6152 22.9793 11.6259 22.9807C11.6366 22.9821 11.6475 22.9806 11.6574 22.9762C11.6655 22.9702 11.6715 22.9617 11.6746 22.9521C11.6776 22.9424 11.6775 22.9321 11.6743 22.9225L11.6236 22.6859L11.6584 22.6581L11.88 22.7575C11.8888 22.7627 11.8991 22.765 11.9093 22.7639C11.9195 22.7628 11.9291 22.7585 11.9367 22.7515C11.943 22.7429 11.9468 22.7326 11.9476 22.7219C11.9485 22.7112 11.9464 22.7005 11.9416 22.6909L11.8502 22.4524L11.876 22.4136L12.0947 22.4673C12.1039 22.4706 12.1139 22.4705 12.1231 22.4671C12.1322 22.4636 12.1398 22.457 12.1444 22.4484C12.1485 22.4377 12.15 22.4262 12.1488 22.4148C12.1476 22.4033 12.1437 22.3924 12.1375 22.3828L12.0082 22.1502L12.0241 22.1035L12.2309 22.1104C12.2404 22.1113 12.25 22.1085 12.2576 22.1026C12.2651 22.0967 12.2702 22.0881 12.2716 22.0786C12.2731 22.0666 12.2721 22.0544 12.2687 22.0428C12.2653 22.0312 12.2595 22.0204 12.2518 22.0111L12.0897 21.7934L12.0947 21.7407L12.2836 21.7009C12.293 21.6988 12.3014 21.6933 12.3071 21.6854C12.3127 21.6775 12.3153 21.6679 12.3144 21.6582C12.3157 21.6443 12.314 21.6304 12.3096 21.6172C12.3051 21.604 12.298 21.5919 12.2885 21.5817ZM11.0272 22.6293C10.9936 22.6089 10.9664 22.5794 10.9489 22.5442C10.9313 22.5091 10.924 22.4696 10.9278 22.4305C10.9427 22.3649 11.0143 22.348 11.0859 22.3927C11.1195 22.4131 11.1466 22.4426 11.1642 22.4778C11.1818 22.513 11.1891 22.5524 11.1852 22.5915C11.1703 22.6541 11.0998 22.674 11.0272 22.6293ZM10.9636 22.1701C10.898 22.1293 10.8334 22.1442 10.8195 22.2049L10.7529 22.4901C10.5204 22.4958 10.2895 22.4511 10.076 22.3589C9.82168 22.2531 9.58659 22.106 9.38023 21.9236L9.31364 21.5837C9.30615 21.5474 9.2887 21.514 9.26324 21.4871C9.23777 21.4602 9.20531 21.441 9.16951 21.4316L8.89419 21.3779C8.84317 21.3043 8.79579 21.2288 8.75205 21.1513L10.0939 21.6999C10.1088 21.7059 10.1187 21.7079 10.1187 21.694V21.2199C10.1187 21.2059 10.1088 21.199 10.0939 21.193L9.70128 21.033V20.7348L10.1257 20.9088C10.1929 20.939 10.2518 20.9851 10.2974 21.0431C10.3429 21.1011 10.3737 21.1692 10.3871 21.2417C10.404 21.3153 10.4408 21.5449 10.4666 21.6244C10.5055 21.7582 10.5894 21.8744 10.7042 21.9534L11.3721 22.2267L11.396 22.2347C11.3496 22.2788 11.2986 22.3178 11.2439 22.351L10.9636 22.1701ZM9.10789 21.8381C9.06885 21.8273 9.0335 21.806 9.00565 21.7766C8.9778 21.7472 8.95851 21.7107 8.94985 21.6711C8.93494 21.5926 8.98066 21.5399 9.04924 21.5538C9.08824 21.5648 9.12353 21.5861 9.15136 21.6155C9.1792 21.6449 9.19852 21.6813 9.20728 21.7208C9.22617 21.7993 9.18045 21.852 9.10789 21.8381ZM8.597 19.5659C8.62682 19.6454 8.597 19.712 8.52941 19.714C8.48972 19.71 8.45203 19.6947 8.42083 19.6698C8.38964 19.645 8.36625 19.6117 8.35348 19.5739C8.32366 19.4944 8.35348 19.4278 8.42107 19.4258C8.46075 19.4298 8.49844 19.4451 8.52964 19.47C8.56084 19.4948 8.58422 19.5281 8.597 19.5659ZM8.44095 19.8731L8.7282 19.8631C8.78982 19.8631 8.81765 19.8005 8.78982 19.7279L8.73019 19.5699L8.96277 19.6693V20.7179L8.49363 20.5261C8.45304 20.3706 8.432 20.2107 8.43101 20.05C8.43154 19.9902 8.43552 19.9304 8.44293 19.8711L8.44095 19.8731ZM9.70128 20.2865V19.9774L10.2549 20.204C10.2837 20.216 10.4537 20.3193 10.4537 20.4496C10.4537 20.5569 10.3205 20.541 10.2112 20.4963L9.6973 20.2865H9.70128ZM11.714 21.3878C11.714 21.4289 11.714 21.469 11.714 21.5081L11.5461 21.4395C11.5292 21.4326 11.5222 21.4395 11.5222 21.4574V21.5349C11.5222 21.7168 11.4228 21.7149 11.3294 21.688C11.2872 21.6755 11.2482 21.6541 11.2149 21.6253C11.1817 21.5965 11.155 21.561 11.1365 21.521C11.1127 21.3098 11.0186 21.1127 10.8692 20.9614C11.0342 20.9237 11.2061 20.8402 11.2061 20.6324C11.1877 20.4278 11.0963 20.2366 10.9487 20.0937C10.8484 19.9856 10.7287 19.8972 10.5958 19.8333L8.85443 19.1206C8.9888 19.0334 9.14007 18.9756 9.29834 18.9509C9.45661 18.9263 9.61831 18.9353 9.77284 18.9775L9.97859 19.2757C10.0253 19.3433 10.1018 19.3751 10.1505 19.3502L10.3801 19.224C10.8698 19.5247 11.2604 19.9626 11.5033 20.4833L11.3463 20.7746C11.3358 20.8081 11.3361 20.8441 11.3472 20.8774C11.3582 20.9108 11.3795 20.9398 11.4079 20.9604L11.7061 21.2189C11.7127 21.2765 11.716 21.3328 11.716 21.3878H11.714ZM9.97561 18.8771C10.0293 18.8483 10.1128 18.8841 10.1645 18.9586C10.2161 19.0332 10.2132 19.1167 10.1645 19.1455C10.1158 19.1743 10.0273 19.1385 9.97561 19.064C9.92392 18.9894 9.92293 18.9089 9.97561 18.8771ZM11.5361 20.7706C11.5659 20.7149 11.6445 20.7169 11.712 20.7706C11.7432 20.7932 11.7665 20.825 11.7787 20.8616C11.7908 20.8982 11.7911 20.9376 11.7796 20.9744C11.7498 21.03 11.6713 21.028 11.6037 20.9744C11.5731 20.9519 11.5502 20.9206 11.5381 20.8847C11.526 20.8487 11.5253 20.8099 11.5361 20.7736V20.7706Z" fill="black"/>
<path opacity="0.55" d="M24.7369 16.9133L24.566 16.8745V16.8238L24.7131 16.6171C24.7202 16.6081 24.7254 16.5977 24.7285 16.5866C24.7316 16.5755 24.7324 16.5639 24.7309 16.5525C24.7297 16.5438 24.7252 16.5359 24.7184 16.5304C24.7116 16.5248 24.7029 16.5221 24.6942 16.5227L24.5063 16.5286L24.4914 16.4839L24.6087 16.2633C24.6145 16.254 24.6181 16.2436 24.6193 16.2327C24.6205 16.2219 24.6193 16.2109 24.6156 16.2006C24.6116 16.1928 24.6048 16.1866 24.5966 16.1833C24.5884 16.1801 24.5793 16.1798 24.5709 16.1827L24.3721 16.2334L24.3423 16.1937L24.4258 15.9661C24.4309 15.9573 24.4335 15.9474 24.4335 15.9372C24.4335 15.9271 24.4309 15.9172 24.4258 15.9084C24.4192 15.9019 24.4106 15.8979 24.4015 15.8968C24.3923 15.8957 24.383 15.8977 24.3751 15.9024L24.1763 15.9959L24.1445 15.969L24.1912 15.7434C24.1943 15.7342 24.1944 15.7243 24.1915 15.715C24.1887 15.7058 24.183 15.6976 24.1753 15.6917C24.1664 15.6874 24.1563 15.6858 24.1465 15.687C24.1366 15.6882 24.1273 15.6923 24.1197 15.6987L23.9209 15.8309L23.8821 15.814L23.8891 15.6003C23.8905 15.5913 23.8887 15.582 23.8839 15.5742C23.8792 15.5664 23.8719 15.5605 23.8632 15.5575C23.8527 15.5559 23.842 15.5568 23.8319 15.5603C23.8219 15.5637 23.8128 15.5696 23.8056 15.5774L23.6227 15.7424L23.578 15.7365L23.5452 15.5377C23.5442 15.5289 23.54 15.5208 23.5334 15.5149C23.5268 15.509 23.5182 15.5058 23.5094 15.5059C23.4983 15.5068 23.4875 15.51 23.4778 15.5153C23.468 15.5206 23.4595 15.5279 23.4527 15.5367L23.2897 15.7295L23.241 15.7345L23.1704 15.5675C23.1671 15.5592 23.1607 15.5524 23.1526 15.5485C23.1445 15.5447 23.1353 15.544 23.1267 15.5466C23.1038 15.5531 23.0843 15.568 23.072 15.5884L22.9349 15.8011L22.8852 15.817L22.7788 15.6828C22.7726 15.6761 22.7644 15.6717 22.7554 15.6702C22.7463 15.6688 22.7371 15.6704 22.7291 15.6748C22.7069 15.685 22.6892 15.7031 22.6794 15.7255L22.5731 15.9502L22.5234 15.976L22.3862 15.8766C22.3781 15.8713 22.3686 15.8684 22.3589 15.8684C22.3492 15.8684 22.3397 15.8713 22.3315 15.8766C22.3108 15.8902 22.2954 15.9106 22.2878 15.9343L22.2172 16.1609L22.1685 16.1967L22.0055 16.143C21.9954 16.1408 21.9849 16.1412 21.975 16.1442C21.9651 16.1471 21.9561 16.1525 21.9489 16.1599C21.93 16.1759 21.9174 16.1981 21.9131 16.2225L21.8803 16.4442L21.8356 16.4879L21.6527 16.4779C21.6415 16.4783 21.6306 16.481 21.6207 16.486C21.6107 16.491 21.602 16.4981 21.595 16.5068C21.5789 16.5245 21.5697 16.5474 21.5692 16.5714L21.5761 16.7791L21.5374 16.8288L21.3386 16.8636C21.3156 16.8692 21.2956 16.8834 21.2829 16.9034C21.276 16.9125 21.2711 16.9229 21.2683 16.934C21.2656 16.9451 21.2652 16.9567 21.267 16.968L21.3127 17.1538L21.2809 17.2075L21.0821 17.286C21.0599 17.2955 21.0419 17.3129 21.0315 17.3347C21.0267 17.3443 21.0243 17.3549 21.0243 17.3655C21.0243 17.3762 21.0267 17.3868 21.0315 17.3964L21.1149 17.5524L21.0911 17.6091L20.8923 17.7273C20.8714 17.7406 20.8556 17.7606 20.8476 17.784C20.8435 17.7932 20.842 17.8033 20.8432 17.8133C20.8445 17.8233 20.8484 17.8327 20.8545 17.8407L20.9718 17.9619L20.9569 18.0196L20.7691 18.1736C20.75 18.1893 20.737 18.2111 20.7323 18.2353C20.7296 18.2444 20.7299 18.2541 20.7331 18.263C20.7363 18.272 20.7423 18.2796 20.7502 18.2849L20.8973 18.3665V18.4211L20.7263 18.605C20.7095 18.6224 20.6996 18.6454 20.6985 18.6696C20.6975 18.6786 20.6997 18.6877 20.7048 18.6952C20.7099 18.7026 20.7176 18.708 20.7263 18.7104L20.8973 18.7491V18.7998L20.7502 19.0066C20.7431 19.0156 20.7379 19.026 20.7348 19.0371C20.7317 19.0482 20.7309 19.0597 20.7323 19.0712C20.7335 19.0799 20.738 19.0878 20.7448 19.0933C20.7516 19.0988 20.7603 19.1016 20.7691 19.101L20.9569 19.095L20.9718 19.1397L20.8545 19.3604C20.8487 19.3696 20.8451 19.3801 20.8439 19.3909C20.8427 19.4018 20.844 19.4127 20.8476 19.423C20.8516 19.4309 20.8584 19.437 20.8666 19.4403C20.8748 19.4436 20.8839 19.4438 20.8923 19.4409L21.0911 19.3902L21.1149 19.427L21.0215 19.6725C21.0165 19.6813 21.0138 19.6912 21.0138 19.7013C21.0138 19.7114 21.0165 19.7214 21.0215 19.7302C21.0281 19.7366 21.0367 19.7407 21.0458 19.7418C21.055 19.7429 21.0643 19.7409 21.0722 19.7361L21.271 19.6427L21.3028 19.6695L21.2571 19.8952C21.2543 19.9042 21.2543 19.9139 21.2571 19.923C21.26 19.932 21.2655 19.94 21.273 19.9458C21.282 19.9502 21.292 19.9518 21.3018 19.9506C21.3117 19.9493 21.321 19.9453 21.3286 19.9389L21.5274 19.8067L21.5662 19.8236L21.5592 20.0373C21.5578 20.0463 21.5596 20.0556 21.5644 20.0634C21.5691 20.0712 21.5764 20.0771 21.5851 20.08C21.5956 20.0817 21.6063 20.0808 21.6164 20.0773C21.6265 20.0738 21.6355 20.068 21.6427 20.0601L21.8256 19.8952L21.8704 19.9011L21.9032 20.0999C21.9039 20.1088 21.908 20.117 21.9147 20.1229C21.9214 20.1289 21.93 20.132 21.9389 20.1317C21.95 20.1308 21.9608 20.1276 21.9705 20.1223C21.9803 20.117 21.9888 20.1097 21.9956 20.1009L22.1586 19.9081L22.2073 19.9031L22.2779 20.0701C22.2814 20.0782 22.2878 20.0848 22.2959 20.0885C22.304 20.0921 22.3132 20.0927 22.3216 20.09C22.3445 20.0836 22.3641 20.0686 22.3763 20.0482L22.5134 19.8355L22.5631 19.8196L22.6695 19.9538C22.6757 19.9605 22.684 19.9649 22.693 19.9664C22.702 19.9678 22.7112 19.9662 22.7192 19.9617C22.7414 19.9515 22.7591 19.9335 22.7689 19.9111L22.8752 19.6864L22.9249 19.6596L23.0621 19.759C23.0702 19.7643 23.0797 19.7672 23.0894 19.7672C23.0992 19.7672 23.1087 19.7643 23.1168 19.759C23.1375 19.7453 23.153 19.725 23.1605 19.7013L23.2311 19.4747L23.2798 19.4389L23.4428 19.4926C23.4529 19.4947 23.4633 19.4942 23.4732 19.4913C23.4831 19.4883 23.4921 19.483 23.4994 19.4757C23.5183 19.4596 23.531 19.4375 23.5352 19.4131L23.573 19.1755L23.6177 19.1318L23.8006 19.1417C23.8117 19.1414 23.8227 19.1387 23.8326 19.1337C23.8426 19.1287 23.8513 19.1216 23.8583 19.1129C23.8744 19.0952 23.8835 19.0723 23.8841 19.0483L23.8771 18.8406L23.9159 18.7909L24.1147 18.7561C24.1377 18.7506 24.1577 18.7364 24.1704 18.7163C24.1772 18.7072 24.1822 18.6968 24.1849 18.6857C24.1877 18.6745 24.1881 18.663 24.1863 18.6517L24.1405 18.4658L24.1723 18.4122L24.3711 18.3337C24.3934 18.3241 24.4114 18.3068 24.4218 18.2849C24.4266 18.2754 24.429 18.2648 24.429 18.2541C24.429 18.2434 24.4266 18.2329 24.4218 18.2233L24.3383 18.0673L24.3622 18.0106L24.561 17.8923C24.582 17.8792 24.5978 17.8592 24.6057 17.8357C24.609 17.8272 24.6102 17.8181 24.6091 17.8091C24.6081 17.8001 24.6049 17.7915 24.5997 17.784L24.4825 17.6627L24.4974 17.6051L24.6852 17.451C24.7043 17.4354 24.7173 17.4136 24.722 17.3894C24.7247 17.3803 24.7244 17.3706 24.7212 17.3616C24.718 17.3527 24.712 17.345 24.7041 17.3397L24.557 17.2582V17.2035L24.728 17.0196C24.7448 17.0022 24.7547 16.9793 24.7558 16.955C24.7577 16.947 24.7568 16.9385 24.7534 16.931C24.75 16.9234 24.7442 16.9172 24.7369 16.9133ZM23.5909 18.8893C23.5253 18.9022 23.4835 18.8525 23.4975 18.7779C23.5046 18.7408 23.5218 18.7063 23.5473 18.6783C23.5727 18.6502 23.6053 18.6297 23.6416 18.6189C23.7072 18.606 23.7489 18.6557 23.735 18.7302C23.7278 18.7677 23.7105 18.8024 23.6849 18.8306C23.6593 18.8588 23.6264 18.8795 23.5899 18.8903L23.5909 18.8893ZM23.5322 18.5016C23.4992 18.5115 23.4695 18.5303 23.4464 18.5559C23.4233 18.5815 23.4076 18.6129 23.401 18.6467L23.3404 18.9698C23.1585 19.1352 22.9507 19.2695 22.7251 19.3674C22.5281 19.4564 22.313 19.4982 22.097 19.4896L22.0363 19.2183C22.0234 19.1616 21.9648 19.1467 21.9051 19.1855L21.6547 19.3485C21.6081 19.3178 21.5648 19.2825 21.5255 19.2431L22.744 18.7253C22.758 18.7193 22.7669 18.7133 22.7669 18.6994V18.2472C22.7669 18.2343 22.758 18.2353 22.744 18.2412L22.3872 18.3923V18.106L22.7729 17.942C22.7954 17.9292 22.8207 17.922 22.8466 17.921C22.8725 17.9201 22.8983 17.9255 22.9217 17.9368C22.9451 17.948 22.9653 17.9648 22.9808 17.9856C22.9963 18.0064 23.0064 18.0307 23.0104 18.0563C23.0253 18.113 23.0591 18.3038 23.082 18.3545C23.1048 18.4052 23.1983 18.5255 23.2977 18.4837L23.905 18.2253L23.9268 18.2134C23.8851 18.2909 23.8384 18.3674 23.7887 18.442L23.5322 18.5016ZM21.8425 19.6248C21.7769 19.6675 21.7123 19.6506 21.6984 19.588C21.6943 19.5506 21.7009 19.5129 21.7175 19.4791C21.734 19.4453 21.7598 19.4169 21.7918 19.3972C21.8574 19.3544 21.922 19.3713 21.936 19.434C21.9404 19.471 21.9344 19.5085 21.9186 19.5422C21.9028 19.576 21.8778 19.6046 21.8465 19.6248H21.8425ZM21.3803 17.8566C21.3921 17.892 21.3925 17.9302 21.3814 17.9658C21.3704 18.0015 21.3484 18.0328 21.3187 18.0553C21.2571 18.11 21.1855 18.111 21.1587 18.0553C21.1469 18.0199 21.1466 17.9817 21.1576 17.9461C21.1687 17.9104 21.1906 17.8791 21.2203 17.8566C21.2849 17.8059 21.3565 17.8039 21.3843 17.8566H21.3803ZM21.2382 18.27L21.4996 18.0375C21.5259 18.0172 21.5455 17.9895 21.5556 17.9579C21.5657 17.9262 21.566 17.8923 21.5563 17.8605L21.5026 17.7562L21.7143 17.6667V18.6607L21.2879 18.8416C21.249 18.7103 21.2299 18.5739 21.2312 18.437C21.2332 18.3804 21.2362 18.3277 21.2422 18.27H21.2382ZM22.3832 17.6866V17.3884L22.8862 17.1747C22.912 17.1638 23.0701 17.128 23.0701 17.2512C23.0701 17.3506 22.9488 17.4421 22.8494 17.4838L22.3822 17.6826L22.3832 17.6866ZM24.2121 17.1737C24.2121 17.2128 24.2121 17.2519 24.2121 17.291L24.059 17.3556C24.0521 17.3585 24.0462 17.3635 24.0423 17.37C24.0384 17.3764 24.0366 17.3839 24.0372 17.3914V17.4649C24.0412 17.5264 24.0266 17.5877 23.9955 17.6409C23.9643 17.694 23.9179 17.7366 23.8622 17.7631C23.7847 17.8059 23.6982 17.7989 23.6873 17.7532C23.6416 17.5017 23.565 17.4769 23.4438 17.4282C23.6084 17.2772 23.7165 17.0745 23.7499 16.8537C23.7552 16.7821 23.7344 16.711 23.6915 16.6535C23.6486 16.596 23.5864 16.5559 23.5163 16.5406C23.4094 16.518 23.2982 16.527 23.1963 16.5664L21.6179 17.2373C21.8292 16.8958 22.1146 16.6061 22.4528 16.3895L22.6397 16.5157C22.6814 16.5445 22.752 16.5157 22.7957 16.4531L23.0045 16.1549C23.1877 16.0979 23.384 16.0988 23.5667 16.1575C23.7494 16.2162 23.9095 16.3298 24.0252 16.4829L23.8821 16.8805C23.8573 16.9491 23.8821 17.0077 23.9388 17.0097L24.2141 17.0206C24.2154 17.0703 24.2161 17.1214 24.2161 17.1737H24.2121ZM22.6307 16.136C22.6794 16.0674 22.756 16.0366 22.8017 16.0674C22.8474 16.0983 22.8464 16.1798 22.8017 16.2493C22.757 16.3189 22.6764 16.3487 22.6307 16.3179C22.585 16.2871 22.586 16.2046 22.6347 16.135L22.6307 16.136ZM24.0491 16.7324C24.0601 16.6972 24.081 16.666 24.1094 16.6425C24.1379 16.619 24.1725 16.6043 24.2091 16.6002C24.2707 16.6002 24.2976 16.6658 24.2707 16.7413C24.2598 16.7765 24.2388 16.8078 24.2104 16.8312C24.182 16.8547 24.1473 16.8694 24.1107 16.8735C24.0531 16.8676 24.0252 16.804 24.0531 16.7284L24.0491 16.7324Z" fill="black"/>
<g clip-path="url(#clip2_86_877)">
<path d="M1.71173 15.1976V14.5367L1.92977 14.6656L1.64241 13.8387L1.3551 14.326L1.57312 14.4548V15.1156L1.71173 15.1976Z" fill="#A17FF1"/>
</g>
<g clip-path="url(#clip3_86_877)">
<path d="M6.24603 17.0325V16.3717L6.46407 16.5005L6.17671 15.6737L5.8894 16.1609L6.10742 16.2898V16.9506L6.24603 17.0325Z" fill="#A17FF1"/>
</g>
<g clip-path="url(#clip4_86_877)">
<path d="M7.81171 9.58378V8.92295L8.02974 9.05179L7.74239 8.22496L7.45508 8.71221L7.67309 8.84104V9.50187L7.81171 9.58378Z" fill="#A17FF1"/>
</g>
<g clip-path="url(#clip5_86_877)">
<path d="M12.3461 11.4183V10.7574L12.5642 10.8863L12.2768 10.0594L11.9895 10.5467L12.2075 10.6755V11.3363L12.3461 11.4183Z" fill="#A17FF1"/>
</g>
<g clip-path="url(#clip6_86_877)">
<path d="M14.063 19.5179V18.857L14.2612 18.7381L14 18.2378L13.7388 19.0516L13.937 18.9327V19.5935L14.063 19.5179Z" fill="#A17FF1"/>
</g>
<g clip-path="url(#clip7_86_877)">
<path d="M18.651 17.6829V17.0221L18.8492 16.9032L18.588 16.4029L18.3268 17.2166L18.525 17.0977V17.7585L18.651 17.6829Z" fill="#A17FF1"/>
</g>
<g clip-path="url(#clip8_86_877)">
<path d="M20.3238 9.20733V8.5465L20.5221 8.42757L20.2608 7.92728L19.9996 8.74102L20.1978 8.62211V9.28294L20.3238 9.20733Z" fill="#A17FF1"/>
</g>
<g clip-path="url(#clip9_86_877)">
<path d="M24.913 7.37237V6.71154L25.1112 6.59261L24.8499 6.09232L24.5887 6.90606L24.7869 6.78715V7.44798L24.913 7.37237Z" fill="#A17FF1"/>
</g>
</g>
<defs>
<clipPath id="clip0_86_877">
<rect width="26" height="26" fill="white" transform="translate(0.350098)"/>
</clipPath>
<clipPath id="clip1_86_877">
<rect width="1.31786" height="0.667494" fill="white" transform="matrix(0 -1 0.860927 0.508729 7.56335 4.51465)"/>
</clipPath>
<clipPath id="clip2_86_877">
<rect width="1.31786" height="0.667494" fill="white" transform="matrix(0 -1 0.860927 0.508729 1.3551 14.9868)"/>
</clipPath>
<clipPath id="clip3_86_877">
<rect width="1.31786" height="0.667494" fill="white" transform="matrix(0 -1 0.860927 0.508729 5.8894 16.8218)"/>
</clipPath>
<clipPath id="clip4_86_877">
<rect width="1.31786" height="0.667494" fill="white" transform="matrix(0 -1 0.860927 0.508729 7.45508 9.37305)"/>
</clipPath>
<clipPath id="clip5_86_877">
<rect width="1.31786" height="0.667494" fill="white" transform="matrix(0 -1 0.860927 0.508729 11.9895 11.2075)"/>
</clipPath>
<clipPath id="clip6_86_877">
<rect width="1.31786" height="0.609243" fill="white" transform="matrix(0 -1 0.857493 -0.514496 13.7388 19.7124)"/>
</clipPath>
<clipPath id="clip7_86_877">
<rect width="1.31786" height="0.609243" fill="white" transform="matrix(0 -1 0.857493 -0.514496 18.3268 17.8774)"/>
</clipPath>
<clipPath id="clip8_86_877">
<rect width="1.31786" height="0.609243" fill="white" transform="matrix(0 -1 0.857493 -0.514496 19.9996 9.40186)"/>
</clipPath>
<clipPath id="clip9_86_877">
<rect width="1.31786" height="0.609243" fill="white" transform="matrix(0 -1 0.857493 -0.514496 24.5887 7.56689)"/>
</clipPath>
</defs>
</svg>
