<svg width="37" height="36" viewBox="0 0 37 36" fill="none" xmlns="http://www.w3.org/2000/svg">
<path fill-rule="evenodd" clip-rule="evenodd" d="M15.0931 10.1788L14.9419 10.7506L20.6621 16.4767L20.6619 16.4769L26.0372 21.8468L26.6089 21.6956C29.0812 21.0367 31.7387 21.7486 33.5431 23.553C35.3818 25.3903 36.4136 27.8757 35.3779 30.4723C35.1442 31.0582 34.583 31.8784 34.583 31.8784L33.6642 30.9248L30.9095 28.1702L29.4596 26.7202L26.5597 29.6201L28.0096 31.07L30.7651 33.8253L31.7006 34.7608C31.7006 34.7608 30.8884 35.3095 30.3098 35.5388C27.7115 36.5682 25.2387 35.5496 23.3926 33.7036C21.5917 31.904 20.8257 29.4089 21.6873 26.1987L15.9613 20.478L15.9619 20.4774L10.59 15.1004C7.37976 15.9621 4.88472 15.1961 3.08509 13.3951C1.23904 11.5491 0.220513 9.07628 1.24991 6.478C1.47914 5.89941 2.02784 5.08715 2.02784 5.08715L2.96341 6.02273L5.71863 8.77816L7.16857 10.2281L10.0684 7.32822L8.6185 5.87828L5.86383 3.1236L4.91026 2.20473C4.91026 2.20473 5.73048 1.64361 6.31637 1.4099C8.91293 0.374137 11.3984 1.40601 13.2356 3.24467C15.04 5.04908 15.752 7.70655 15.0931 10.1788Z" fill="#908E92"/>
<path d="M11.9756 19.2241L2.20073 29.0002C0.601057 30.5999 0.601057 33.2012 2.20073 34.8008C3.80041 36.4005 6.40176 36.4005 8.00137 34.8008L17.776 25.025L11.9756 19.2241ZM7.03805 31.6186C6.63746 32.0192 5.98873 32.0192 5.58815 31.6186C5.18763 31.2181 5.18763 30.5692 5.58815 30.1687L11.8075 23.9482L12.4423 23.3137L14.0216 24.5971L13.2574 25.3981L7.03805 31.6186Z" fill="#908E92"/>
<path d="M35.6989 3.06792L33.9312 1.30022L33.3849 0.74257L32.6787 1.14586L27.2409 4.40817L26.1889 5.10083L27.0433 6.0125L27.4762 6.44522L20.5732 13.3199L23.4741 16.2207L30.377 9.34605L30.9867 9.95588L31.9017 10.8483L32.591 9.75825L35.8533 4.32047L36.2247 3.63568L35.6989 3.06792Z" fill="#908E92"/>
</svg>
