<svg width="26" height="25" viewBox="0 0 26 25" fill="none" xmlns="http://www.w3.org/2000/svg">
<path d="M23.3006 0H2.69944C2.17645 0.000419227 1.66482 0.155353 1.22665 0.445998C0.788478 0.736643 0.442604 1.1505 0.231002 1.63735C0.0194004 2.12419 -0.0488304 2.6631 0.0345906 3.18865C0.118012 3.7142 0.349498 4.2038 0.700954 4.59804L9.62911 14.5931V24.0196C9.62919 24.2039 9.68028 24.3844 9.77653 24.5405C9.87277 24.6965 10.0103 24.8218 10.1733 24.902C10.3035 24.9673 10.447 25.0009 10.5922 25C10.8111 24.9998 11.0234 24.9238 11.1942 24.7843L13 23.3137L16.0098 20.8627C16.1224 20.771 16.2134 20.6546 16.2759 20.5222C16.3384 20.3899 16.3709 20.2449 16.371 20.098V14.5931L25.2991 4.59804C25.6506 4.2038 25.8821 3.7142 25.9655 3.18865C26.0489 2.6631 25.9807 2.12419 25.7691 1.63735C25.5575 1.1505 25.2116 0.736643 24.7734 0.445998C24.3353 0.155353 23.8236 0.000419227 23.3006 0Z" fill="white"/>
</svg>
