<svg width="27" height="26" viewBox="0 0 27 26" fill="none" xmlns="http://www.w3.org/2000/svg">
<g clip-path="url(#clip0_86_960)">
<path d="M26.1702 16.4893L26.1671 18.2916L13.7277 25.4801L13.7308 23.6783L26.1702 16.4893Z" fill="#B255FF"/>
<path d="M13.7308 23.6782L13.7276 25.48L1.21021 18.2915L1.21333 16.4897L13.7308 23.6782Z" fill="#B255FF"/>
<path d="M26.1701 16.4892L13.7307 23.6788L1.21326 16.4898L13.6527 9.30127L26.1701 16.4892Z" fill="#D29CFF"/>
<path d="M22.8791 15.2082C22.8762 15.0294 22.8272 14.8543 22.7369 14.6999C22.6465 14.5455 22.5178 14.417 22.3633 14.3268L21.0815 13.5791C20.9263 13.4886 20.7504 13.4399 20.5709 13.4376L7.13302 13.2608C6.9449 13.2583 6.75962 13.3068 6.5969 13.4012L5.27246 14.1708C5.03887 14.3066 4.86729 14.528 4.79406 14.7881L4.55434 15.6383C4.48073 15.8992 4.51189 16.1785 4.64118 16.4167L5.34734 17.7178C5.43664 17.8823 5.56872 18.0197 5.72961 18.1154C5.89051 18.2112 6.07427 18.2617 6.2615 18.2617H7.17202C7.31473 18.2617 7.45592 18.291 7.5868 18.3479C7.71768 18.4048 7.83545 18.488 7.93278 18.5924L8.59006 19.2975C8.71947 19.4363 8.88436 19.537 9.0669 19.5887L12.1827 20.4727C12.3777 20.5284 12.5847 20.5258 12.7781 20.4649L13.7053 20.1737C13.8114 20.1404 13.9201 20.1245 14.0313 20.1259L17.9896 20.1794C18.1843 20.1821 18.3758 20.13 18.5423 20.0292L22.4039 17.6923C22.5594 17.5981 22.6875 17.4648 22.7755 17.3057C22.8634 17.1466 22.9081 16.9672 22.9051 16.7854L22.8791 15.2082Z" fill="#B76ADB"/>
<path d="M13.7578 3.76904L10.9197 5.8974L9.36798 8.51352L6.88498 10.3756L5.24438 15.9625L6.08678 17.5142H7.9489L9.19067 18.8444L12.4719 19.7752L13.7573 19.3763L18.0837 19.4309L22.1241 16.9885L21.8641 14.3833L19.5657 11.7058L18.9422 9.57536L16.844 7.45168L16.0682 5.67068L13.7578 3.76904Z" fill="#7D00E6"/>
<path d="M16.703 18.8918L16.339 18.6807C16.3869 18.7389 16.4363 18.7935 16.4909 18.8403L16.8549 19.0525C16.8008 19.0057 16.7509 18.9501 16.703 18.8918ZM16.5387 18.3786L16.1742 18.1669C16.1898 18.2595 16.2075 18.3484 16.2324 18.429L16.5964 18.6407C16.5716 18.5546 16.5523 18.4671 16.5387 18.3786ZM18.3494 15.6018L17.9848 15.3901C17.8968 15.4181 17.8104 15.4507 17.7259 15.4879L18.0899 15.7001C18.1783 15.6595 18.2641 15.6299 18.3494 15.6018ZM16.5881 17.7166L16.2241 17.5045C16.2051 17.612 16.1904 17.7202 16.1799 17.8289L16.5439 18.0406C16.5533 17.9335 16.5699 17.8248 16.5881 17.7166ZM17.7976 15.8602L17.4336 15.6486C17.3452 15.7188 17.2589 15.7879 17.1773 15.8633L17.5413 16.075C17.6234 15.9996 17.7092 15.9304 17.7976 15.8602ZM17.2693 16.3537L16.9053 16.1421C16.8315 16.2398 16.7582 16.3386 16.6911 16.44L17.0551 16.6522C17.1227 16.5503 17.1955 16.452 17.2693 16.3537ZM16.8445 17.0053L16.4805 16.7936C16.4311 16.9054 16.3817 17.0172 16.3401 17.1306L16.7046 17.3422C16.7462 17.2294 16.7951 17.1176 16.8445 17.0053Z" fill="#B76ADB"/>
<path d="M18.8548 15.6691C18.8454 15.6751 18.8367 15.6821 18.8288 15.6899L19.1938 15.9016C19.2013 15.8933 19.2101 15.8863 19.2198 15.8808C19.2379 15.8704 19.2535 15.8686 19.2666 15.8756L18.9026 15.6639C18.8888 15.657 18.8728 15.6587 18.8548 15.6691ZM16.9162 18.9992C16.9038 19.0418 16.91 19.073 16.9287 19.084L17.2932 19.2951C17.275 19.2847 17.2672 19.2535 17.2802 19.2103L16.9162 18.9992ZM16.4909 18.8401C16.4597 18.8931 16.4612 18.9415 16.4872 18.9571L16.8512 19.1692C16.8252 19.1536 16.8252 19.1048 16.8549 19.0522L16.4909 18.8401ZM16.7051 17.342L16.3401 17.1303C16.3289 17.1306 16.318 17.1336 16.3084 17.1392C16.2784 17.1585 16.2566 17.1881 16.247 17.2224L16.1872 17.4252C16.1768 17.461 16.183 17.4891 16.2018 17.5L16.5658 17.7122C16.547 17.7008 16.5408 17.6716 16.5522 17.6368L16.611 17.434C16.6214 17.4004 16.6428 17.3712 16.6718 17.3513C16.682 17.3456 16.6934 17.3424 16.7051 17.342ZM17.3057 16.2318L17.4508 16.0784C17.4584 16.0699 17.4674 16.0626 17.4773 16.057C17.4946 16.0473 17.5102 16.046 17.5241 16.0529L17.1591 15.8418C17.1459 15.8338 17.1303 15.8352 17.1123 15.8459C17.1025 15.8514 17.0938 15.8584 17.0863 15.8667L16.9407 16.0196C16.9079 16.055 16.8913 16.1106 16.9043 16.1418L17.2698 16.3534C17.2553 16.3217 17.2719 16.2666 17.3062 16.2318H17.3057ZM18.3494 15.602C18.359 15.5675 18.381 15.5377 18.4112 15.5183C18.4189 15.5129 18.4279 15.5097 18.4372 15.509L18.4825 15.5048L18.6172 15.5823C18.6936 15.5864 18.7659 15.601 18.8392 15.6166C18.8503 15.5958 18.8666 15.5782 18.8865 15.5656C18.9 15.5584 18.9136 15.5542 18.925 15.5573L18.9333 15.5615L19.0451 15.6249L18.6811 15.4138L18.5693 15.3498H18.5683C18.5551 15.3429 18.5395 15.3443 18.5215 15.354C18.5023 15.3671 18.4863 15.3844 18.4747 15.4044L18.4237 15.394L18.2396 15.2864C18.2327 15.2835 18.2253 15.282 18.2178 15.2822L18.0722 15.2978C18.0629 15.2983 18.054 15.3011 18.0462 15.3062C18.0164 15.3261 17.9944 15.3556 17.9838 15.3899L18.3494 15.602ZM16.233 18.4288C16.1924 18.4719 16.1758 18.526 16.1903 18.5556L16.2512 18.6893C16.2538 18.6964 16.259 18.7023 16.2657 18.7059L16.6297 18.9176C16.6238 18.9133 16.6188 18.9078 16.6152 18.9014L16.5554 18.7678C16.5398 18.7376 16.5564 18.683 16.597 18.6404L16.233 18.4288ZM16.1066 17.9478V18.1287C16.1066 18.1495 16.1139 18.1651 16.1264 18.1714L16.4904 18.383C16.4786 18.3757 16.472 18.3617 16.4706 18.3409V18.1599C16.4722 18.1356 16.4796 18.112 16.4923 18.0912C16.505 18.0703 16.5225 18.0529 16.5434 18.0403L16.1799 17.8282C16.1362 17.8542 16.1056 17.9056 16.1066 17.9478ZM17.7982 15.86C17.7992 15.8369 17.8057 15.8143 17.8172 15.7943C17.8287 15.7742 17.8448 15.7571 17.8642 15.7445L18.0223 15.6535C18.0403 15.6435 18.0559 15.6417 18.0691 15.6483L17.704 15.4377C17.6926 15.4304 17.676 15.4315 17.6583 15.4419L17.5002 15.5329C17.4805 15.5453 17.4641 15.5623 17.4523 15.5824C17.4406 15.6025 17.4338 15.6251 17.4326 15.6483L17.7982 15.86ZM17.0546 16.6514L16.6895 16.4392C16.6718 16.4288 16.6557 16.4309 16.6391 16.4413C16.6189 16.4533 16.6024 16.4706 16.5912 16.4912L16.48 16.6847C16.454 16.7289 16.455 16.7772 16.481 16.7928L16.845 17.005C16.819 16.9894 16.819 16.941 16.845 16.8958L16.9552 16.7034C16.9666 16.6829 16.9831 16.6657 17.0031 16.6535C17.0197 16.6431 17.0369 16.641 17.0551 16.6514H17.0546Z" fill="#C177FF"/>
<path d="M18.3873 18.0372C18.5407 17.7538 18.7601 17.3628 18.8995 16.9946C18.7933 16.8374 18.7103 16.6658 18.653 16.485C18.5215 16.0976 19.0675 15.9208 19.2687 16.2162C19.2827 16.2125 19.2973 16.212 19.3119 16.2099C19.3072 16.1922 19.3046 16.1709 19.2994 16.1538C19.3405 16.1106 19.3561 16.0565 19.342 16.0253L19.2807 15.8927C19.2703 15.8693 19.2453 15.8657 19.2193 15.8808C19.2096 15.8862 19.2008 15.8933 19.1933 15.9016C19.1471 15.8443 19.0961 15.7911 19.0409 15.7424C19.0721 15.6889 19.0721 15.64 19.0451 15.6249L18.9333 15.5615C18.9198 15.5545 18.9042 15.5559 18.8865 15.5656C18.8666 15.5781 18.8503 15.5954 18.8392 15.6161C18.7659 15.5995 18.6915 15.5882 18.6166 15.5823C18.6322 15.5272 18.6166 15.4908 18.5823 15.4944L18.4367 15.5095C18.4274 15.51 18.4184 15.5131 18.4107 15.5183C18.3812 15.5382 18.3594 15.5675 18.3488 15.6015C18.2608 15.6296 18.1744 15.6625 18.0899 15.6998C18.0899 15.6494 18.0592 15.6322 18.0223 15.6535L17.8647 15.7445C17.845 15.7569 17.8286 15.7739 17.8169 15.794C17.8051 15.8141 17.7983 15.8367 17.7971 15.86C17.7087 15.9302 17.6234 15.9993 17.5418 16.0747C17.5283 16.0456 17.5033 16.042 17.4768 16.057C17.4671 16.0625 17.4583 16.0695 17.4508 16.0778L17.3052 16.2312C17.2719 16.2671 17.2553 16.3217 17.2693 16.3534C17.1947 16.4506 17.1233 16.5501 17.0551 16.6519C17.0374 16.641 17.0202 16.6431 17.0031 16.653C16.9832 16.6654 16.9669 16.6828 16.9557 16.7034L16.8445 16.8958C16.8185 16.941 16.8185 16.9894 16.8445 17.005C16.7956 17.1173 16.7462 17.2286 16.7046 17.3419C16.6933 17.3425 16.6822 17.3457 16.6723 17.3513C16.6425 17.3705 16.6207 17.3999 16.611 17.434L16.5517 17.6363C16.5371 17.6841 16.5538 17.7195 16.5881 17.7164C16.5691 17.8237 16.5544 17.9318 16.5439 18.0403C16.5229 18.0528 16.5053 18.0702 16.4925 18.0911C16.4797 18.1119 16.4722 18.1355 16.4706 18.1599V18.3409C16.4711 18.3835 16.5018 18.3996 16.5382 18.3788C16.5548 18.4709 16.572 18.5598 16.5969 18.6404C16.5564 18.6836 16.5397 18.7376 16.5548 18.7683L16.6151 18.9009C16.6266 18.9243 16.6515 18.9279 16.6775 18.9129C16.6873 18.9074 16.696 18.9004 16.7035 18.8921C16.7507 18.951 16.8013 19.0044 16.8554 19.0522C16.8247 19.1042 16.8252 19.1536 16.8507 19.1692L16.963 19.2322C16.976 19.24 16.9932 19.2374 17.0103 19.2275C17.0302 19.2152 17.0465 19.198 17.0577 19.1776C17.1307 19.1953 17.2052 19.2065 17.2802 19.2108C17.2636 19.2665 17.2802 19.3024 17.314 19.2998L17.4544 19.2852C17.8257 18.9179 18.1401 18.4973 18.3873 18.0372Z" fill="#B76ADB"/>
<path d="M17.9324 18.7417C18.1015 18.5202 18.2532 18.2853 18.3874 18.0371C18.5408 17.7537 18.7602 17.3627 18.8996 16.9945C18.7934 16.8374 18.7104 16.6657 18.6531 16.4849C18.5787 16.2665 18.7217 16.1188 18.8954 16.0814C18.6838 15.8604 18.3375 15.8344 17.9449 16.0606C17.3027 16.4324 16.7837 17.3304 16.7858 18.0678C16.7879 18.7984 17.2995 19.0948 17.9324 18.7417Z" fill="#B76ADB"/>
<path d="M18.1976 10.0725L16.844 7.45166L17.4129 10.113L18.4336 15.5637L16.9568 19.4169L18.0837 19.4309L19.4398 18.6109L19.3629 15.274L18.1976 10.0725Z" fill="#C177FF"/>
<path d="M15.7405 11.6705L15.3765 11.8816L15.3755 11.8811L15.7395 11.6694L15.7405 11.6705Z" fill="#C177FF"/>
<path d="M17.7244 12.9954L18.0889 12.7837C18.0429 12.8413 17.9921 12.8949 17.9371 12.9439L17.5731 13.1555C17.6271 13.1087 17.6771 13.0536 17.7244 12.9954ZM17.8892 12.4821L18.2537 12.27C18.24 12.3585 18.2205 12.446 18.1955 12.532L17.8315 12.7437C17.8563 12.6578 17.8756 12.5705 17.8892 12.4821ZM16.0791 9.70532L16.4431 9.49316C16.5284 9.52124 16.6147 9.55088 16.7021 9.59144L16.3381 9.80308C16.2535 9.76592 16.1671 9.73329 16.0791 9.70532ZM17.8398 11.8196L18.2038 11.608C18.222 11.7162 18.2392 11.8248 18.248 11.932L17.884 12.1436C17.8735 12.0351 17.8588 11.927 17.8398 11.8196ZM16.6303 9.96324L16.9943 9.7516C17.0827 9.8218 17.169 9.89096 17.2507 9.96636L16.8867 10.178C16.8038 10.1034 16.7183 10.0318 16.6303 9.96324ZM17.1586 10.4572L17.5226 10.2451C17.5965 10.3434 17.6698 10.4416 17.7369 10.5436L17.3729 10.7552C17.3053 10.6533 17.2325 10.555 17.1586 10.4567V10.4572ZM17.5829 11.1083L17.9475 10.8966C17.9969 11.009 18.0463 11.1208 18.0879 11.2336L17.7228 11.4452C17.6812 11.3324 17.6323 11.2206 17.5829 11.1083Z" fill="#B76ADB"/>
<path d="M15.4338 10.3067L15.0698 10.5188C15.0503 10.5077 15.034 10.506 15.0209 10.5136L15.3859 10.3015C15.3987 10.2949 15.4147 10.2966 15.4338 10.3067ZM15.4613 10.9738C15.4678 10.9698 15.4756 10.9683 15.4832 10.9697L15.1192 11.1803C15.1116 11.1804 15.1041 11.1822 15.0973 11.1855L15.4613 10.9738ZM15.5731 9.77212C15.5818 9.77767 15.5904 9.7846 15.5991 9.79292L15.2341 10.0051C15.2266 9.9968 15.2178 9.98977 15.2081 9.98428C15.19 9.97388 15.1744 9.97215 15.1613 9.97908L15.5253 9.76692C15.5378 9.75964 15.5554 9.76172 15.5731 9.77212ZM16.0723 12.8224L16.4374 12.6103C16.4334 12.6191 16.4271 12.6267 16.4192 12.6321L16.0552 12.8443C16.0627 12.8387 16.0687 12.8311 16.0723 12.8224ZM17.5122 13.1027C17.5242 13.1448 17.5179 13.1755 17.4992 13.1875L17.1342 13.3981C17.1529 13.3877 17.1602 13.3565 17.1477 13.3133L17.5122 13.1027ZM17.9365 12.9431C17.9677 12.9961 17.9667 13.0445 17.9407 13.0601L17.5767 13.2722C17.6027 13.2566 17.6027 13.2078 17.573 13.1552L17.9365 12.9431ZM17.7228 11.445L18.0878 11.2333C18.099 11.2338 18.1099 11.237 18.1196 11.2427C18.1456 11.2583 18.1705 11.2895 18.1809 11.3254L18.2407 11.5282C18.2511 11.564 18.2449 11.5921 18.2262 11.6036L17.8622 11.8152C17.8809 11.8038 17.8871 11.7752 17.8757 11.7398L17.8169 11.537C17.8064 11.5033 17.7848 11.4741 17.7556 11.4543C17.7455 11.4487 17.7343 11.4454 17.7228 11.445ZM17.1222 10.3348L16.9771 10.1819C16.9695 10.1732 16.9606 10.1658 16.9506 10.16C16.9333 10.1503 16.9177 10.1489 16.9038 10.1559L17.2688 9.94476C17.282 9.93679 17.2976 9.93817 17.3156 9.94892C17.3254 9.95441 17.3341 9.96144 17.3416 9.96972L17.4872 10.1226C17.52 10.158 17.5366 10.2136 17.5236 10.2448L17.1581 10.457C17.1726 10.4247 17.1565 10.3696 17.1222 10.3348ZM16.0786 9.70504C16.069 9.67046 16.0469 9.64065 16.0167 9.62132C16.009 9.61591 16 9.61268 15.9907 9.61196L15.9454 9.6078L15.8108 9.6858C15.736 9.69172 15.6618 9.70301 15.5887 9.7196C15.5775 9.69872 15.561 9.68114 15.5409 9.66864C15.5279 9.66136 15.5144 9.6572 15.5029 9.66032L15.4946 9.66448L15.3828 9.72792L15.7468 9.5168L15.8586 9.45284H15.8596C15.8728 9.44591 15.8884 9.4473 15.9064 9.457C15.9226 9.4674 15.9402 9.48456 15.9532 9.50744L16.0042 9.49704L16.1883 9.38992C16.1952 9.38698 16.2026 9.38556 16.2101 9.38576L16.3557 9.40136C16.3637 9.40136 16.3724 9.40396 16.3817 9.40916C16.4077 9.42476 16.4337 9.457 16.4441 9.49288L16.0786 9.70504ZM18.1955 12.5318C18.2355 12.5754 18.2522 12.629 18.2376 12.6592L18.1768 12.7923C18.1741 12.7994 18.1689 12.8053 18.1622 12.8089L17.7982 13.0211C17.8042 13.0166 17.8092 13.011 17.8128 13.0044L17.8726 12.8708C17.8882 12.8412 17.8715 12.786 17.831 12.7439L18.1955 12.5318ZM18.3213 12.0513V12.2322C18.321 12.2534 18.3144 12.2674 18.3016 12.2744L17.9376 12.4865C17.9493 12.4789 17.9559 12.4647 17.9573 12.4439V12.2629C17.9553 12.2386 17.9476 12.2152 17.9349 12.1944C17.9221 12.1736 17.9047 12.1561 17.884 12.1433L18.248 11.9312C18.2912 11.9572 18.3224 12.0086 18.3213 12.0508V12.0513ZM16.6214 13.1974L16.9854 12.9857C16.9847 13.0121 16.9775 13.0289 16.9636 13.0362L16.5996 13.2483C16.6131 13.2407 16.6204 13.2239 16.6214 13.1979V13.1974ZM16.6298 9.96348C16.6288 9.94029 16.6223 9.91766 16.6108 9.89749C16.5993 9.87732 16.5832 9.86019 16.5637 9.84752L16.4056 9.75652C16.3873 9.74647 16.3717 9.74474 16.3588 9.75132L16.7239 9.54072C16.736 9.53344 16.7513 9.53483 16.7696 9.54488L16.9277 9.63588C16.9646 9.6572 16.9948 9.70868 16.9948 9.75132L16.6298 9.96348ZM17.3734 10.7544L17.7384 10.5428C17.7556 10.5324 17.7722 10.5344 17.7888 10.5443C17.809 10.5563 17.8255 10.5736 17.8367 10.5942L17.948 10.7877C17.974 10.8319 17.9729 10.8808 17.9469 10.8964L17.5829 11.108C17.6089 11.0924 17.6089 11.044 17.5829 10.9988L17.4727 10.8064C17.4613 10.7859 17.4448 10.7687 17.4248 10.7565C17.4082 10.7461 17.3916 10.744 17.3734 10.7544Z" fill="#C177FF"/>
<path d="M16.5631 9.84754C16.6001 9.86886 16.6307 9.92138 16.6302 9.96298C16.7186 10.0332 16.8044 10.1023 16.8861 10.1777C16.8996 10.1486 16.9245 10.145 16.9511 10.1606C16.9594 10.1658 16.9681 10.1727 16.9771 10.1814L17.1227 10.3348C17.1559 10.3701 17.1726 10.4253 17.1585 10.4565C17.2324 10.5547 17.3052 10.653 17.3723 10.7549C17.3905 10.744 17.4076 10.7461 17.4243 10.756C17.4426 10.7664 17.4586 10.7832 17.4721 10.8064L17.5834 10.9988C17.6094 11.0441 17.6094 11.0924 17.5834 11.108C17.6323 11.2203 17.6817 11.3321 17.7227 11.445C17.7343 11.4455 17.7455 11.4487 17.7555 11.4543C17.7815 11.4699 17.8059 11.5011 17.8163 11.5375L17.8761 11.7393C17.8907 11.7871 17.8741 11.8225 17.8397 11.8194C17.8579 11.9281 17.8746 12.0362 17.8834 12.1433C17.9045 12.1558 17.9223 12.1732 17.9351 12.194C17.948 12.2148 17.9556 12.2385 17.9573 12.2629V12.4439C17.9567 12.4865 17.9261 12.5032 17.8897 12.4819C17.8757 12.5702 17.8561 12.6576 17.8309 12.7434C17.8715 12.7866 17.8881 12.8407 17.8725 12.8713L17.8122 13.0039C17.8018 13.0273 17.7768 13.0315 17.7503 13.0159C17.7406 13.0104 17.7318 13.0034 17.7243 12.9951C17.6783 13.0527 17.6275 13.1063 17.5725 13.1553C17.6031 13.2073 17.6026 13.2567 17.5771 13.2723L17.4648 13.3352C17.451 13.3425 17.4352 13.3409 17.4175 13.3305C17.3977 13.3182 17.3814 13.301 17.3702 13.2806C17.2974 13.2972 17.2246 13.3102 17.1476 13.3139C17.1643 13.37 17.1476 13.4059 17.1138 13.4028L16.9677 13.3877C16.9584 13.3871 16.9494 13.3841 16.9417 13.3789C16.9116 13.3597 16.8895 13.33 16.8798 13.2957C16.7918 13.2675 16.7054 13.2347 16.6209 13.1974C16.6209 13.2478 16.5902 13.265 16.5533 13.2437L16.3957 13.1527C16.3762 13.1398 16.3599 13.1226 16.3482 13.1024C16.3364 13.0822 16.3296 13.0595 16.3281 13.0362C16.2402 12.9684 16.155 12.8971 16.0728 12.8225C16.0593 12.8516 16.0343 12.8552 16.0078 12.8396C15.9981 12.8341 15.9893 12.8271 15.9818 12.8188L15.8372 12.6659C15.8029 12.6295 15.7868 12.5749 15.8008 12.5427C15.7261 12.4463 15.6548 12.3472 15.5871 12.2458C15.5684 12.2557 15.5512 12.2531 15.5341 12.2432C15.5144 12.2308 15.4983 12.2136 15.4873 12.1933L15.376 12.0019C15.35 11.9561 15.35 11.9067 15.376 11.8927C15.326 11.7819 15.2795 11.6695 15.2366 11.5557C15.2253 11.5552 15.2143 11.552 15.2044 11.5464C15.1744 11.5271 15.1526 11.4975 15.143 11.4632L15.0827 11.2604C15.0687 11.2136 15.0848 11.1777 15.1191 11.1808C15.1001 11.0735 15.0854 10.9654 15.0749 10.8569C15.0539 10.8444 15.0363 10.8269 15.0235 10.8061C15.0107 10.7853 15.0032 10.7616 15.0016 10.7373V10.5563C15.0016 10.5137 15.0328 10.497 15.0692 10.5183C15.0833 10.4301 15.1031 10.3429 15.1285 10.2573C15.0874 10.2136 15.0718 10.1595 15.0858 10.1283L15.1472 9.99574C15.1576 9.97234 15.1825 9.96922 15.208 9.98378C15.217 9.98898 15.2257 9.99608 15.234 10.0051C15.2804 9.94764 15.3315 9.89423 15.3869 9.84546C15.3557 9.7919 15.3557 9.74354 15.3827 9.72846L15.4945 9.6645C15.5081 9.65756 15.5237 9.65895 15.5413 9.66866C15.5612 9.68108 15.5775 9.69847 15.5887 9.7191C15.6615 9.70402 15.7343 9.68998 15.8112 9.6853C15.7956 9.63018 15.8112 9.59378 15.8455 9.59742L15.9911 9.6125C16.0004 9.61306 16.0094 9.61611 16.0171 9.62134C16.0431 9.63694 16.0686 9.66918 16.079 9.70454C16.1643 9.73262 16.2501 9.76278 16.338 9.80282C16.338 9.75238 16.3681 9.73522 16.4056 9.75654L16.5631 9.84754Z" fill="#B76ADB"/>
<path d="M17.6422 12.1713C17.6401 12.9097 17.1181 13.2071 16.4759 12.8363C15.8337 12.4661 15.3147 11.5665 15.3168 10.8291C15.3189 10.0918 15.8409 9.79434 16.4831 10.1646C17.1253 10.5359 17.6443 11.4334 17.6422 12.1713Z" fill="#B76ADB"/>
<path d="M16.5445 12.6846C15.9023 12.3148 15.3833 11.4152 15.3854 10.6779C15.3854 10.5375 15.4052 10.4137 15.4405 10.3071C15.3625 10.4413 15.3173 10.616 15.3168 10.8292C15.3147 11.5666 15.8337 12.4662 16.4759 12.8364C16.9959 13.137 17.4368 12.9986 17.5871 12.5431C17.3952 12.8733 17.0005 12.9487 16.5445 12.6846Z" fill="#C177FF"/>
<path d="M13.7577 3.76904L15.4285 7.10536L15.6927 10.7636L14.6163 15.3468L12.4713 19.7752L9.19006 18.8444L12.6085 16.7285L13.7577 12.6938L14.8211 10.6414L14.9179 7.28892L13.7577 3.76904Z" fill="#B255FF"/>
<path d="M9.88382 9.04652L11.3086 6.40908L13.7578 3.76904L10.9197 5.89792L9.36798 8.51352L6.88498 10.3762L5.24438 15.962L7.23234 10.8634L9.88382 9.04652Z" fill="#C177FF"/>
<path d="M11.9092 16.0479L11.5452 16.2596L11.5447 16.2585L11.9087 16.0469L11.9092 16.0479Z" fill="#C177FF"/>
<path d="M13.8904 17.3733L14.2544 17.1611C14.2086 17.2187 14.158 17.2723 14.1031 17.3213L13.7386 17.5329C13.7927 17.4861 13.8426 17.4315 13.8904 17.3733ZM14.0553 16.8595L14.4193 16.6479C14.4055 16.7364 14.3861 16.824 14.361 16.91L13.997 17.1216C14.0221 17.0356 14.0415 16.9481 14.0553 16.8595ZM12.2446 14.0827L12.6086 13.8711C12.6944 13.8987 12.7802 13.9283 12.8681 13.9689L12.5041 14.1805C12.4194 14.1433 12.3328 14.1107 12.2446 14.0827ZM14.0053 16.1971L14.3699 15.9854C14.3881 16.0941 14.4047 16.2023 14.4141 16.3094L14.0495 16.521C14.0391 16.4125 14.0243 16.3044 14.0053 16.1971ZM12.7958 14.3412L13.1603 14.1295C13.2487 14.1992 13.3345 14.2684 13.4162 14.3438L13.0522 14.5554C12.9695 14.481 12.8836 14.4095 12.7958 14.3412ZM13.3241 14.8347L13.6887 14.6225C13.7625 14.7208 13.8358 14.8191 13.9029 14.921L13.5384 15.1326C13.4708 15.0307 13.398 14.9324 13.3241 14.8347ZM13.749 15.4857L14.113 15.2746C14.1624 15.3864 14.2118 15.4982 14.2534 15.611L13.8889 15.8227C13.8455 15.7092 13.7989 15.5965 13.749 15.4857Z" fill="#B76ADB"/>
<path d="M11.5998 14.6846L11.2358 14.8963C11.2164 14.8852 11.2001 14.8834 11.1869 14.8911L11.5519 14.6794C11.5648 14.6728 11.581 14.6746 11.5998 14.6846ZM11.6273 15.3513C11.6339 15.3472 11.6416 15.3458 11.6492 15.3471L11.2852 15.5582C11.2776 15.5584 11.2701 15.5601 11.2633 15.5634L11.6273 15.3513ZM11.7391 14.1501C11.7474 14.1553 11.7561 14.1622 11.7651 14.1709L11.3996 14.3825C11.3921 14.3742 11.3833 14.3672 11.3736 14.3617C11.3559 14.3513 11.3405 14.3496 11.3273 14.3565L11.6913 14.1449C11.7038 14.1376 11.7214 14.1397 11.7391 14.1501ZM12.2383 17.1999L12.6034 16.9882C12.5992 16.9969 12.5927 17.0043 12.5846 17.0096L12.2206 17.2217C12.2284 17.2162 12.2346 17.2086 12.2383 17.1999ZM13.6777 17.4802C13.6902 17.5228 13.6839 17.5535 13.6652 17.5649L13.3002 17.776C13.3189 17.7656 13.3262 17.7344 13.3137 17.6913L13.6777 17.4802ZM14.1025 17.321C14.1337 17.3736 14.1327 17.4224 14.1067 17.4375L13.7427 17.6497C13.7687 17.6341 13.7687 17.5857 13.7385 17.5327L14.1025 17.321ZM13.8883 15.8229L14.2533 15.6108C14.2647 15.6111 14.2758 15.6143 14.2856 15.6201C14.3116 15.6357 14.336 15.6669 14.3464 15.7033L14.4067 15.9056C14.4171 15.942 14.4104 15.9696 14.3922 15.981L14.0282 16.1932C14.0469 16.1817 14.0531 16.1526 14.0417 16.1172L13.9824 15.9144C13.9719 15.881 13.9505 15.852 13.9216 15.8323C13.9114 15.8265 13.9 15.8233 13.8883 15.8229ZM13.2877 14.7122L13.1431 14.5598C13.1354 14.5511 13.1263 14.5437 13.1161 14.538C13.0988 14.5283 13.0832 14.5269 13.0693 14.5338L13.4343 14.3232C13.4475 14.3153 13.4631 14.3166 13.4811 14.3274C13.4909 14.3329 13.4996 14.3399 13.5071 14.3482L13.6527 14.5011C13.686 14.5359 13.7021 14.5921 13.6891 14.6228L13.3241 14.8349C13.3386 14.8027 13.322 14.7481 13.2877 14.7127V14.7122ZM12.2446 14.0825C12.2347 14.048 12.2125 14.0184 12.1822 13.9993C12.1746 13.9937 12.1656 13.9903 12.1562 13.9894L12.1109 13.9852L11.9768 14.0632C11.9019 14.0691 11.8275 14.0804 11.7542 14.097C11.7431 14.0764 11.7268 14.059 11.7069 14.0466C11.693 14.0386 11.6802 14.0358 11.6684 14.0383L11.6606 14.0424L11.5488 14.1054L11.9128 13.8942L12.0241 13.8303H12.0251C12.0383 13.8233 12.0539 13.8247 12.0719 13.8344C12.0913 13.8476 12.1075 13.8651 12.1192 13.8854L12.1702 13.875L12.3543 13.7674C12.361 13.7645 12.3683 13.7631 12.3756 13.7632L12.5212 13.7788C12.5299 13.7788 12.5385 13.7816 12.5472 13.7871C12.5732 13.8027 12.5992 13.8344 12.6096 13.8703L12.2446 14.0825ZM14.361 16.9092C14.4015 16.9529 14.4182 17.0064 14.4036 17.0366L14.3422 17.1702C14.3395 17.1772 14.3343 17.1829 14.3277 17.1864L13.9637 17.3985C13.9697 17.3941 13.9746 17.3884 13.9782 17.3819L14.0386 17.2488C14.0542 17.2186 14.0375 17.164 13.997 17.1214L14.361 16.9092ZM14.4873 16.4287V16.6097C14.4873 16.6305 14.48 16.6461 14.4676 16.6518L14.1036 16.864C14.1154 16.8563 14.1219 16.8421 14.1233 16.8213V16.6404C14.1213 16.6161 14.1136 16.5926 14.1009 16.5718C14.0881 16.5511 14.0707 16.5336 14.05 16.5208L14.414 16.3086C14.4572 16.3346 14.4884 16.3866 14.4868 16.4282L14.4873 16.4287ZM12.7874 17.5753L13.1514 17.3632C13.1508 17.3895 13.1435 17.4065 13.1296 17.4141L12.7656 17.6258C12.7791 17.6185 12.7864 17.6017 12.7874 17.5753ZM12.7958 14.3414C12.7947 14.3182 12.7882 14.2955 12.7766 14.2754C12.765 14.2552 12.7488 14.2381 12.7292 14.2255L12.5711 14.1345C12.5531 14.1244 12.5375 14.1227 12.5243 14.1293L12.8899 13.9182C12.9017 13.9109 12.9168 13.9123 12.9351 13.9223L13.0932 14.0133C13.1306 14.0352 13.1608 14.0866 13.1608 14.1293L12.7958 14.3414ZM13.5394 15.1318L13.9039 14.9202C13.9212 14.9105 13.9382 14.9112 13.9548 14.9223C13.9748 14.9342 13.9911 14.9513 14.0022 14.9717L14.114 15.1651C14.14 15.2098 14.1389 15.2582 14.1129 15.2738L13.7489 15.486C13.7749 15.4704 13.7749 15.4215 13.7489 15.3762L13.6382 15.1838C13.627 15.1634 13.6107 15.1462 13.5908 15.1339C13.5833 15.1285 13.5743 15.1255 13.5651 15.1252C13.5558 15.125 13.5467 15.1274 13.5388 15.1324L13.5394 15.1318Z" fill="#C177FF"/>
<path d="M12.7287 14.2255C12.7661 14.2463 12.7963 14.2988 12.7963 14.3409C12.8847 14.4106 12.97 14.4803 13.0521 14.5552C13.0651 14.5266 13.0901 14.5229 13.1166 14.538C13.1256 14.5432 13.1343 14.5502 13.1426 14.5588L13.2882 14.7122C13.322 14.7476 13.3381 14.8027 13.3246 14.8344C13.3979 14.9322 13.4712 15.0305 13.5383 15.1324C13.556 15.122 13.5732 15.1241 13.5903 15.1339C13.6075 15.1438 13.6246 15.161 13.6382 15.1839L13.7494 15.3763C13.7749 15.422 13.7749 15.4704 13.7489 15.4855C13.7983 15.5978 13.8477 15.7101 13.8888 15.8224C13.9002 15.8231 13.9112 15.8265 13.921 15.8323C13.947 15.8469 13.9715 15.8791 13.9824 15.9145L14.0422 16.1173C14.0562 16.1646 14.0396 16.2005 14.0058 16.1968C14.0235 16.3055 14.0406 16.4142 14.0495 16.5208C14.0706 16.5332 14.0883 16.5506 14.1012 16.5715C14.114 16.5923 14.1216 16.6159 14.1233 16.6404L14.1228 16.8213C14.1228 16.864 14.0916 16.8806 14.0552 16.8593C14.0414 16.9478 14.022 17.0354 13.997 17.1214C14.037 17.164 14.0536 17.2186 14.0386 17.2488L13.9782 17.3819C13.9673 17.4053 13.9424 17.4089 13.9158 17.3939C13.9063 17.3883 13.8977 17.3813 13.8904 17.3731C13.8443 17.4305 13.7936 17.4839 13.7385 17.5327C13.7687 17.5847 13.7687 17.6346 13.7427 17.6502L13.6309 17.7126C13.617 17.7196 13.6011 17.7182 13.583 17.7085C13.5633 17.696 13.5472 17.6786 13.5362 17.658C13.4634 17.6752 13.3906 17.6882 13.3137 17.6918C13.3298 17.7475 13.3137 17.7833 13.2794 17.7802L13.1338 17.7657C13.1244 17.7649 13.1154 17.7617 13.1078 17.7563C13.0774 17.7372 13.0552 17.7076 13.0454 17.6731C12.9575 17.6451 12.8713 17.6125 12.7869 17.5753C12.7869 17.6253 12.7562 17.6429 12.7193 17.6211L12.5618 17.5301C12.5423 17.5173 12.5261 17.5002 12.5143 17.4801C12.5026 17.4599 12.4957 17.4374 12.4942 17.4141C12.406 17.3462 12.3207 17.2747 12.2383 17.1999C12.2253 17.229 12.2004 17.2327 12.1738 17.2176C12.1641 17.2121 12.1553 17.2051 12.1478 17.1968L12.0028 17.0434C11.9684 17.007 11.9528 16.9524 11.9664 16.9207C11.8918 16.824 11.8207 16.7248 11.7532 16.6232C11.7344 16.6336 11.7168 16.631 11.7001 16.6211C11.6805 16.6088 11.6644 16.5916 11.6533 16.5712L11.542 16.3788C11.516 16.3336 11.516 16.2842 11.542 16.2696C11.4918 16.159 11.4452 16.0468 11.4022 15.9332C11.3908 15.9326 11.3798 15.9294 11.3699 15.9238C11.34 15.9045 11.3181 15.8749 11.3086 15.8406L11.2482 15.6378C11.2347 15.591 11.2508 15.5557 11.2846 15.5588C11.2658 15.4512 11.2513 15.343 11.241 15.2343C11.2199 15.2219 11.2022 15.2046 11.1894 15.1839C11.1765 15.1631 11.1689 15.1396 11.1671 15.1152L11.1676 14.9337C11.1676 14.8916 11.1988 14.875 11.2352 14.8963C11.2492 14.8079 11.2688 14.7206 11.294 14.6347C11.2534 14.5916 11.2378 14.5375 11.2519 14.5058L11.3127 14.3732C11.3231 14.3498 11.3481 14.3467 11.3741 14.3617C11.3831 14.3669 11.3918 14.3739 11.4001 14.3825C11.4462 14.3251 11.4972 14.2717 11.5524 14.2229C11.5212 14.1693 11.5218 14.121 11.5483 14.1059L11.6601 14.0419C11.6731 14.0341 11.6902 14.0367 11.7069 14.0466C11.7269 14.0588 11.7434 14.076 11.7547 14.0965C11.8275 14.0815 11.9003 14.0674 11.9768 14.0633C11.9612 14.0076 11.9768 13.9712 12.0116 13.9749L12.1572 13.9905C12.1664 13.9909 12.1754 13.9937 12.1832 13.9988C12.2126 14.0189 12.2343 14.0484 12.2446 14.0825C12.3325 14.1105 12.419 14.1431 12.5035 14.1803C12.5035 14.1303 12.5342 14.1127 12.5711 14.134L12.7287 14.2255Z" fill="#B76ADB"/>
<path d="M13.8077 16.5491C13.8056 17.2875 13.2836 17.585 12.6414 17.2137C11.9997 16.8435 11.4807 15.9439 11.4828 15.2065C11.4844 14.4697 12.007 14.1717 12.6486 14.5419C13.2908 14.9132 13.8093 15.8118 13.8077 16.5491Z" fill="#B76ADB"/>
<path d="M12.7105 17.062C12.0683 16.6918 11.5494 15.7922 11.5509 15.0548C11.5497 14.9291 11.5683 14.804 11.606 14.6841C11.528 14.8182 11.4833 14.9935 11.4828 15.2067C11.4807 15.9435 11.9997 16.8431 12.6414 17.2134C13.1614 17.5139 13.6023 17.3756 13.7526 16.9206C13.5612 17.2503 13.1666 17.3257 12.7105 17.062Z" fill="#C177FF"/>
<path d="M6.27969 15.842L5.91569 15.6299C5.96284 15.6892 6.01328 15.7426 6.06701 15.79L6.43153 16.0017C6.37693 15.9549 6.32753 15.9003 6.27969 15.842ZM6.11485 15.3283L5.75085 15.1166C5.76645 15.2092 5.78413 15.2981 5.80857 15.3787L6.17309 15.5904C6.14806 15.5043 6.1286 15.4168 6.11485 15.3283ZM7.92549 12.5515L7.56149 12.3398C7.47332 12.3678 7.38671 12.4004 7.30201 12.4376L7.66601 12.6492C7.75441 12.6092 7.84021 12.5796 7.92549 12.5515ZM6.16477 14.6663L5.80025 14.4542C5.78128 14.5615 5.76654 14.6696 5.75605 14.7781L6.12057 14.9903C6.12941 14.8832 6.14657 14.7745 6.16477 14.6663ZM7.37377 12.8099L7.00977 12.5983C6.92197 12.6668 6.83663 12.7384 6.75393 12.813L7.11793 13.0247C7.20063 12.9501 7.28597 12.8784 7.37377 12.8099ZM6.84597 13.3034L6.48145 13.0918C6.40761 13.1895 6.33429 13.2883 6.26721 13.3897L6.63121 13.6019C6.69951 13.5003 6.77109 13.4008 6.84597 13.3034ZM6.42113 13.955L6.05713 13.7433C6.00773 13.8551 5.95833 13.9669 5.91673 14.0803L6.28073 14.2919C6.32233 14.1791 6.37173 14.0673 6.42113 13.955Z" fill="#B76ADB"/>
<path d="M8.57082 13.1534L8.93482 13.365C8.95302 13.3541 8.97122 13.3531 8.98318 13.3598L8.61814 13.1482C8.60531 13.1416 8.58954 13.1433 8.57082 13.1534ZM8.54274 13.82C8.53622 13.816 8.52844 13.8145 8.5209 13.8159L8.8849 14.027C8.89322 14.0266 8.9005 14.0284 8.90674 14.0322L8.54274 13.82ZM8.43094 12.6188C8.42156 12.6248 8.41284 12.6318 8.40494 12.6396L8.76998 12.8513C8.77747 12.843 8.78625 12.836 8.79598 12.8305C8.81435 12.8201 8.82995 12.8183 8.84278 12.8253L8.47878 12.6136C8.4663 12.6064 8.44862 12.6084 8.43094 12.6188ZM7.93174 15.6692L7.5667 15.457C7.5719 15.4674 7.57814 15.4747 7.58542 15.4788L7.94942 15.6905C7.94171 15.6851 7.9356 15.6777 7.93174 15.6692ZM6.49238 15.9489C6.4799 15.9916 6.48614 16.0222 6.50486 16.0337L6.8699 16.2448C6.85118 16.2344 6.8439 16.2032 6.85638 16.16L6.49238 15.9489ZM6.06754 15.7898C6.03634 15.8423 6.03738 15.8912 6.06338 15.9068L6.42738 16.1184C6.40138 16.1028 6.40138 16.0545 6.43154 16.002L6.06754 15.7898ZM6.28178 14.2917L5.91674 14.0795C5.90538 14.0799 5.89429 14.0831 5.8845 14.0889C5.85475 14.1083 5.83312 14.1378 5.82366 14.1721L5.76334 14.3749C5.75294 14.4108 5.75918 14.4383 5.7779 14.4498L6.1419 14.6619C6.12318 14.6505 6.11694 14.6214 6.12838 14.5865L6.18766 14.3837C6.19793 14.3499 6.21938 14.3206 6.2485 14.3005C6.25873 14.2949 6.27014 14.2919 6.28178 14.2917ZM6.88238 13.1815L7.02694 13.0281C7.03471 13.0195 7.04384 13.0123 7.05398 13.0068C7.07097 12.997 7.08657 12.9957 7.10078 13.0026L6.73522 12.7915C6.72274 12.7835 6.70714 12.7849 6.68842 12.7956C6.67888 12.8012 6.67028 12.8082 6.66294 12.8164L6.51734 12.9693C6.48406 13.0047 6.46742 13.0603 6.48094 13.0915L6.84598 13.3032C6.83142 13.2714 6.84806 13.2163 6.88238 13.1815ZM7.9255 12.5518C7.93523 12.5171 7.95746 12.4873 7.9879 12.468C7.99541 12.4627 8.00421 12.4595 8.01338 12.4587L8.05862 12.4545L8.1933 12.532C8.26974 12.5362 8.34202 12.5507 8.41534 12.5658C8.42662 12.5451 8.44311 12.5277 8.46318 12.5154C8.4767 12.5081 8.49022 12.5039 8.50166 12.507C8.50443 12.5077 8.50703 12.5091 8.50946 12.5112L8.62126 12.5741L8.25726 12.3635L8.14598 12.2996H8.14494C8.13211 12.2926 8.11651 12.2938 8.09814 12.3032C8.07873 12.3164 8.06256 12.3338 8.05082 12.3542L7.99986 12.3438L7.81578 12.2361C7.80888 12.2332 7.80143 12.2317 7.79394 12.232L7.64834 12.2476C7.63909 12.248 7.63011 12.2508 7.62234 12.2559C7.59273 12.2759 7.57089 12.3054 7.56046 12.3396L7.9255 12.5518ZM5.8091 15.3785C5.76854 15.4216 5.7519 15.4757 5.76646 15.5054L5.82782 15.639C5.83035 15.646 5.83533 15.652 5.84186 15.6556L6.20586 15.8673C6.20006 15.8628 6.19527 15.8571 6.19182 15.8506L6.1315 15.7175C6.1159 15.6874 6.13254 15.6328 6.1731 15.5901L5.8091 15.3785ZM5.68274 14.898V15.0784C5.68274 15.0992 5.69002 15.1148 5.7025 15.1211L6.0665 15.3327C6.05471 15.3254 6.04813 15.3114 6.04674 15.2906V15.1096C6.04674 15.067 6.0769 15.0155 6.12006 14.99L5.75606 14.7779C5.7129 14.8039 5.6817 14.8554 5.68326 14.8975L5.68274 14.898ZM7.38262 16.0441L7.01862 15.8324C7.01897 15.8584 7.02625 15.8752 7.04046 15.8829L7.40446 16.095C7.39094 16.0874 7.38366 16.0704 7.38262 16.0441ZM7.3743 12.8102C7.37527 12.787 7.38176 12.7644 7.39325 12.7442C7.40474 12.724 7.42088 12.7069 7.44034 12.6942L7.59894 12.6032C7.61662 12.5932 7.63222 12.5914 7.64574 12.598L7.28018 12.3869C7.26839 12.38 7.25331 12.3814 7.23494 12.3911L7.07686 12.4821C7.05711 12.4946 7.04067 12.5116 7.0289 12.5318C7.01713 12.552 7.0104 12.5747 7.00926 12.598L7.3743 12.8102ZM6.63122 13.6011L6.26618 13.389C6.2485 13.3786 6.23186 13.3806 6.21522 13.391C6.19525 13.4031 6.1789 13.4204 6.1679 13.441L6.0561 13.6339C6.0301 13.6786 6.03114 13.7275 6.05714 13.7431L6.42114 13.9547C6.39514 13.9391 6.39514 13.8908 6.42114 13.845L6.5319 13.6526C6.54318 13.6323 6.55947 13.6153 6.57922 13.6032C6.59586 13.5928 6.61354 13.5907 6.63122 13.6011Z" fill="#C177FF"/>
<path d="M7.44087 12.6942C7.42158 12.707 7.40549 12.7241 7.39386 12.7441C7.38223 12.7641 7.37536 12.7866 7.37379 12.8097C7.28598 12.8782 7.20065 12.9498 7.11795 13.0244C7.10495 12.9953 7.07999 12.9917 7.05347 13.0067C7.04375 13.0122 7.03497 13.0193 7.02747 13.0275L6.88187 13.1815C6.84807 13.2168 6.83195 13.2714 6.84547 13.3031C6.77215 13.4009 6.69883 13.4997 6.63175 13.6016C6.61407 13.5907 6.59639 13.5928 6.57975 13.6027C6.55968 13.615 6.54319 13.6324 6.53191 13.6531L6.42063 13.8455C6.39515 13.8907 6.39515 13.9391 6.42115 13.9547C6.37175 14.067 6.32235 14.1783 6.28075 14.2917C6.2696 14.2923 6.25875 14.2955 6.24903 14.301C6.21919 14.3202 6.19737 14.3496 6.18767 14.3837L6.12787 14.586C6.11383 14.6338 6.13047 14.6692 6.16427 14.6661C6.14547 14.7734 6.1309 14.8815 6.12059 14.99C6.0995 15.0025 6.08175 15.0199 6.06889 15.0407C6.05602 15.0615 6.04842 15.0852 6.04675 15.1096L6.04727 15.2906C6.04727 15.3327 6.07795 15.3493 6.11487 15.328C6.13099 15.4206 6.14867 15.5095 6.17311 15.5901C6.13307 15.6333 6.11643 15.6873 6.13151 15.7175L6.19183 15.8506C6.20275 15.874 6.22771 15.8777 6.25423 15.8626C6.26378 15.857 6.27238 15.85 6.27971 15.8418C6.32686 15.9007 6.37747 15.9539 6.43155 16.0014C6.40139 16.0539 6.40139 16.1033 6.42739 16.1189L6.53919 16.1819C6.55219 16.1897 6.56987 16.1871 6.58703 16.1772C6.60672 16.1647 6.62284 16.1473 6.63383 16.1267C6.70663 16.1439 6.77943 16.1569 6.85639 16.1605C6.84027 16.2162 6.85639 16.2521 6.89071 16.2495L7.03631 16.2339C7.04557 16.2335 7.05454 16.2306 7.06231 16.2255C7.09265 16.2064 7.11486 16.1768 7.12471 16.1423C7.20895 16.1143 7.29475 16.0846 7.38315 16.0441C7.38315 16.094 7.41383 16.1117 7.45075 16.0903L7.60831 15.9993C7.62784 15.9865 7.64411 15.9693 7.65584 15.9491C7.66757 15.9289 7.67444 15.9062 7.67591 15.8829C7.76401 15.8151 7.84936 15.7438 7.93175 15.6691C7.94475 15.6977 7.96971 15.7014 7.99623 15.6863C8.00596 15.6808 8.01474 15.6738 8.02223 15.6655L8.16731 15.5126C8.20163 15.4762 8.21723 15.4211 8.20371 15.3894C8.27755 15.2921 8.35035 15.1949 8.41691 15.0925C8.42517 15.0968 8.43446 15.0989 8.44379 15.0984C8.45312 15.098 8.46216 15.095 8.46995 15.0899C8.48958 15.0775 8.50569 15.0603 8.51675 15.0399L8.62803 14.8481C8.65403 14.8028 8.65403 14.7534 8.62803 14.7389C8.67795 14.6265 8.72683 14.5153 8.76791 14.4019C8.77924 14.4013 8.79028 14.3981 8.80015 14.3925C8.83009 14.3732 8.85192 14.3436 8.86151 14.3093L8.92183 14.1065C8.93535 14.0597 8.91923 14.0244 8.88543 14.0275C8.90423 13.9201 8.9188 13.8121 8.92911 13.7035C8.95021 13.6911 8.96795 13.6737 8.98082 13.6529C8.99368 13.632 9.00128 13.6084 9.00295 13.5839L9.00243 13.403C9.00243 13.3603 8.97123 13.3437 8.93483 13.365C8.92072 13.2766 8.90092 13.1893 8.87555 13.1035C8.91663 13.0603 8.93275 13.0062 8.91819 12.975L8.85735 12.8424C8.84695 12.819 8.82199 12.8154 8.79599 12.8305C8.78627 12.836 8.77749 12.843 8.76999 12.8513C8.7238 12.794 8.67283 12.7408 8.61763 12.6921C8.64831 12.6386 8.64831 12.5897 8.62179 12.5746L8.50999 12.5112C8.49699 12.5034 8.47983 12.506 8.46319 12.5153C8.44312 12.5277 8.42663 12.5451 8.41535 12.5658C8.34225 12.5492 8.26804 12.5379 8.19331 12.532C8.20891 12.4763 8.19331 12.4405 8.15847 12.4441L8.01287 12.4592C8.00357 12.4597 7.99459 12.4628 7.98687 12.468C7.95693 12.4873 7.9351 12.5169 7.92551 12.5512C7.83752 12.5792 7.75108 12.6118 7.66655 12.649C7.66655 12.5991 7.63587 12.5814 7.59895 12.6032L7.44087 12.6942Z" fill="#B76ADB"/>
<path d="M6.36234 15.0174C6.36442 15.7558 6.8865 16.0532 7.52818 15.682C8.17038 15.3117 8.68934 14.4126 8.68778 13.6748C8.68518 12.9379 8.1631 12.64 7.52142 13.0102C6.87922 13.3815 6.36026 14.28 6.36182 15.0174H6.36234Z" fill="#B76ADB"/>
<path d="M7.45956 15.5308C8.10176 15.1606 8.62072 14.261 8.61916 13.5236C8.62039 13.3979 8.60179 13.2728 8.56404 13.1528C8.64204 13.2875 8.68676 13.4622 8.68728 13.6754C8.68936 14.4128 8.1704 15.3119 7.5282 15.6826C7.0082 15.9827 6.56776 15.8444 6.41748 15.3894C6.60884 15.719 7.00352 15.795 7.45956 15.5308Z" fill="#C177FF"/>
<path d="M10.5857 8.14429L10.2217 7.93265C10.269 7.99089 10.319 8.04549 10.3736 8.09229L10.7376 8.30393C10.6838 8.25644 10.6332 8.20322 10.5857 8.14429ZM10.4209 7.63053L10.0569 7.41889C10.0725 7.51145 10.0902 7.60037 10.1151 7.68097L10.4791 7.89261C10.4541 7.8066 10.4346 7.71905 10.4209 7.63053ZM12.2315 4.85373L11.8675 4.64209C11.7794 4.67004 11.6927 4.70267 11.608 4.73985L11.9726 4.95201C12.0604 4.91145 12.1462 4.88181 12.2315 4.85373ZM10.4708 6.96805L10.1068 6.75641C10.0876 6.86394 10.0727 6.97218 10.0621 7.08089L10.4266 7.29253C10.4354 7.18541 10.4526 7.07673 10.4708 6.96857V6.96805ZM11.6803 5.11217L11.3158 4.90053C11.228 4.96905 11.1427 5.04068 11.06 5.11529L11.424 5.32693C11.5061 5.25153 11.5919 5.18237 11.6803 5.11217ZM11.152 5.60565L10.788 5.39401C10.7131 5.49142 10.6415 5.59074 10.5732 5.69197L10.9378 5.90413C11.0054 5.80221 11.0782 5.70393 11.152 5.60565ZM10.7272 6.25721L10.3632 6.04557C10.3138 6.15737 10.2644 6.26917 10.2228 6.38253L10.5873 6.59417C10.6289 6.48133 10.6772 6.36953 10.7272 6.25721Z" fill="#B76ADB"/>
<path d="M12.9622 5.01883L12.7848 4.91587C12.7724 4.90859 12.7547 4.91067 12.737 4.92107C12.7276 4.92705 12.7189 4.93403 12.711 4.94187L12.9263 5.06667L12.9622 5.01883ZM10.3736 8.09203C10.3424 8.14507 10.3434 8.19343 10.3694 8.20903L10.7334 8.42119C10.7074 8.40559 10.7074 8.35671 10.7376 8.30419L10.3736 8.09203ZM10.5878 6.59391L10.2228 6.38175C10.2114 6.38211 10.2003 6.38533 10.1906 6.39111C10.1608 6.4105 10.1392 6.44008 10.1297 6.47431L10.0699 6.67711C10.0595 6.71299 10.0658 6.74055 10.084 6.75199L10.448 6.96415C10.4298 6.95271 10.4235 6.92359 10.4344 6.88875L10.4937 6.68595C10.5041 6.65231 10.5255 6.62318 10.5546 6.60327C10.5647 6.59752 10.5762 6.59431 10.5878 6.59391ZM11.1884 5.48371L11.333 5.33031C11.3408 5.32175 11.3499 5.31454 11.36 5.30899C11.3774 5.29928 11.393 5.29789 11.4068 5.30483L11.0418 5.09371C11.0286 5.08573 11.013 5.08712 10.995 5.09787C10.9853 5.10336 10.9765 5.11038 10.969 5.11867L10.8234 5.27155C10.7901 5.30691 10.774 5.36255 10.787 5.39375L11.152 5.60539C11.138 5.57367 11.1541 5.51855 11.1884 5.48371ZM12.2316 4.85399C12.2413 4.81933 12.2635 4.7895 12.294 4.77027C12.3016 4.76486 12.3106 4.76163 12.32 4.76091L12.3652 4.75675L12.4994 4.83423C12.5758 4.83839 12.6481 4.85295 12.7219 4.86855C12.733 4.84773 12.7493 4.83016 12.7692 4.81759C12.7828 4.81031 12.7963 4.80615 12.8077 4.80927L12.816 4.81343L12.9273 4.87635L12.5633 4.66575L12.452 4.60179H12.451C12.4378 4.59485 12.4222 4.59624 12.4042 4.60595C12.3848 4.61901 12.3687 4.63625 12.3569 4.65639L12.3059 4.64599L12.1218 4.53835C12.1151 4.53548 12.1078 4.53406 12.1005 4.53419L11.9549 4.54979C11.9457 4.5502 11.9367 4.55307 11.9289 4.55811C11.8991 4.57802 11.8771 4.60758 11.8665 4.64183L12.2316 4.85399ZM10.1152 7.68019C10.0751 7.72387 10.058 7.77795 10.073 7.80759L10.1339 7.94123C10.1365 7.94837 10.1417 7.95428 10.1484 7.95787L10.5124 8.16951C10.5064 8.16507 10.5015 8.15939 10.4979 8.15287L10.4376 8.01975C10.422 7.98959 10.4386 7.93499 10.4792 7.89235L10.1152 7.68019ZM9.98879 7.19971V7.38067C9.98879 7.40147 9.99607 7.41707 10.0086 7.42331L10.3726 7.63495C10.3608 7.62767 10.3542 7.61363 10.3528 7.59283V7.41187C10.3545 7.38743 10.3621 7.36378 10.3749 7.34294C10.3878 7.3221 10.4055 7.30471 10.4266 7.29227L10.0626 7.08011C10.019 7.10611 9.98775 7.15759 9.98879 7.19971ZM11.6804 5.11243C11.6814 5.08919 11.688 5.06653 11.6995 5.04636C11.7111 5.02618 11.7274 5.00907 11.7469 4.99647L11.905 4.90547C11.923 4.89541 11.9386 4.89368 11.9518 4.90027L11.5862 4.68967C11.5753 4.68239 11.5587 4.68343 11.541 4.69383L11.3829 4.78431C11.3632 4.7968 11.3467 4.81385 11.335 4.83403C11.3232 4.85422 11.3165 4.87693 11.3153 4.90027L11.6804 5.11243ZM10.9373 5.90335L10.5722 5.69119C10.5549 5.68148 10.5379 5.68217 10.5213 5.69327C10.5013 5.70536 10.485 5.7226 10.474 5.74319L10.3622 5.93663C10.3362 5.98083 10.3377 6.02919 10.3632 6.04479L10.7272 6.25695C10.7012 6.24135 10.7012 6.19299 10.7272 6.14775L10.838 5.95535C10.8492 5.93491 10.8655 5.91771 10.8853 5.90543C10.9019 5.89433 10.9192 5.89364 10.9373 5.90335Z" fill="#C177FF"/>
<path d="M10.7376 8.30418C10.7074 8.35618 10.7074 8.40558 10.7334 8.42118L10.8452 8.4841C10.8591 8.49138 10.875 8.48982 10.8931 8.47942C10.9011 8.47455 10.9085 8.4686 10.9149 8.46174C11.1593 7.9563 11.3548 7.42538 11.6439 6.94438C11.8681 6.46338 12.1431 6.00942 12.4666 5.58822C12.5487 5.48162 12.6413 5.39998 12.7385 5.34122C12.8077 5.2341 12.8789 5.12802 12.9569 5.0261C12.9458 5.01536 12.9348 5.00478 12.9237 4.99438C12.9549 4.94082 12.9543 4.89194 12.9278 4.87686L12.816 4.81342C12.803 4.80562 12.7859 4.80822 12.7692 4.81758C12.7492 4.82994 12.7327 4.84733 12.7214 4.86802C12.6483 4.85144 12.5741 4.84014 12.4993 4.83422C12.5149 4.7791 12.4993 4.7427 12.4645 4.74634L12.3189 4.76142C12.3096 4.76199 12.3006 4.76504 12.2929 4.77026C12.263 4.78956 12.2411 4.81916 12.2315 4.85346C12.1435 4.8816 12.0571 4.91441 11.9726 4.95174C11.9726 4.9013 11.9419 4.88414 11.905 4.90494L11.7474 4.99646C11.728 5.00921 11.7118 5.02626 11.7001 5.04628C11.6884 5.0663 11.6815 5.08876 11.6798 5.1119C11.592 5.18042 11.5067 5.25206 11.424 5.32666C11.411 5.29754 11.386 5.2939 11.3595 5.30898C11.3498 5.31448 11.341 5.3215 11.3335 5.32978L11.1879 5.4837C11.1541 5.51906 11.138 5.57366 11.1515 5.60538C11.0782 5.70366 11.0049 5.80194 10.9383 5.90386C10.9201 5.89294 10.9029 5.89502 10.8858 5.9049C10.8657 5.91726 10.8492 5.93465 10.8379 5.95534L10.7272 6.14774C10.7012 6.19298 10.7012 6.24134 10.7272 6.25694C10.6778 6.36926 10.6284 6.48106 10.5873 6.5939C10.576 6.59447 10.5649 6.59767 10.5551 6.60326C10.5252 6.62243 10.5034 6.65183 10.4937 6.68594L10.4339 6.88822C10.4199 6.93606 10.4365 6.97142 10.4703 6.9683C10.4515 7.07568 10.4369 7.18375 10.4266 7.29226C10.4055 7.3047 10.3878 7.3221 10.3749 7.34293C10.3621 7.36377 10.3545 7.38743 10.3528 7.41186L10.3533 7.59282C10.3533 7.63546 10.3845 7.65158 10.4209 7.63026C10.437 7.72282 10.4547 7.81174 10.4791 7.89234C10.4391 7.9355 10.4225 7.98958 10.4375 8.01974L10.4979 8.15286C10.5088 8.17626 10.5337 8.1799 10.5603 8.16482C10.57 8.15933 10.5788 8.15231 10.5863 8.14402C10.6334 8.20296 10.6838 8.25617 10.7376 8.30366V8.30418Z" fill="#B76ADB"/>
<path d="M11.0814 8.10095C11.2561 7.70887 11.423 7.31263 11.643 6.94551C11.8676 6.46399 12.1427 6.00951 12.4667 5.58831C12.5408 5.48999 12.6327 5.40639 12.7376 5.34183L12.7568 5.31115C12.5436 5.11043 12.2072 5.09431 11.8276 5.31323C11.1854 5.68399 10.6664 6.58255 10.668 7.31991C10.6695 7.72811 10.8302 8.00059 11.0814 8.10095Z" fill="#B76ADB"/>
<path d="M13.7577 3.76904L9.36166 9.69808L8.47246 12.3657L6.08618 17.5137H7.9483L11.0293 15.7259L10.0798 13.6074L10.294 11.9939L10.2467 10.1089L13.7577 3.76904Z" fill="#B255FF"/>
<path d="M13.7578 3.76904L11.6611 8.57176L12.4469 12.3137L9.93993 15.9807L7.94885 17.5142L9.19061 18.8444L11.0626 17.1778L13.5321 13.0245L12.4469 8.87128L13.7578 3.76904Z" fill="#C177FF"/>
<path d="M21.8641 14.3833L19.5657 11.7053L20.9281 14.3427L20.8449 17.7617L22.1241 16.988L21.8641 14.3833ZM16.1821 7.9202L18.6755 9.96484L19.5657 11.7053L18.9422 9.57536L16.844 7.45168L16.0682 5.67068L13.7573 3.76904L15.5992 6.02688L16.1821 7.9202Z" fill="#B255FF"/>
<path d="M1.77858 6.23388C1.71618 6.2682 1.63194 6.26196 1.53938 6.20632C1.35478 6.09556 1.20918 5.83296 1.21334 5.61872C1.21542 5.51316 1.2539 5.4388 1.31526 5.405L7.25054 2.0874C7.18918 2.1212 7.1507 2.19504 7.14862 2.30164C7.14446 2.51484 7.29006 2.77796 7.47466 2.8882C7.56722 2.94384 7.65146 2.9506 7.71386 2.91576L1.77858 6.23388Z" fill="#B255FF"/>
<path d="M8.29254 3.75702L7.7767 5.81934L7.5063 5.9769L7.54062 4.19278C7.54322 4.06382 7.49902 3.91198 7.41894 3.7721L6.31758 1.8637C6.2453 1.73373 6.14047 1.62478 6.01338 1.54754L4.44714 0.67758L4.71754 0.52002L6.76426 1.11074C6.88386 1.17938 6.99046 1.2917 7.06846 1.42794L8.1693 3.3353C8.2499 3.47518 8.29514 3.62702 8.29254 3.75702Z" fill="#C177FF"/>
<path d="M6.0129 1.54769C6.1325 1.61633 6.23962 1.72865 6.3171 1.86437L7.41898 3.77225C7.49958 3.91161 7.54378 4.06345 7.54118 4.19345L7.50634 5.97705L7.02274 4.25897C7.00009 4.1823 6.96869 4.10849 6.92914 4.03901L5.83818 2.15037C5.79776 2.08089 5.74942 2.01633 5.69414 1.95797L4.44666 0.677734L6.0129 1.54769Z" fill="#7D00E6"/>
<path d="M7.49953 3.03596C7.43765 3.07028 7.35289 3.06404 7.26033 3.0084C7.07573 2.89764 6.93013 2.63504 6.93429 2.4208C6.93637 2.31524 6.97485 2.24088 7.03621 2.20708L7.45221 1.97412C7.39137 2.00844 7.35237 2.08228 7.35029 2.18888C7.34613 2.40208 7.49225 2.6652 7.67633 2.77544C7.76889 2.83108 7.85365 2.83784 7.91553 2.803L7.49953 3.03596Z" fill="#B255FF"/>
<path d="M7.67635 2.7752C7.86043 2.88596 8.01331 2.80224 8.01747 2.58852C8.02163 2.3748 7.87551 2.1122 7.69143 2.00144C7.50735 1.89068 7.35447 1.97492 7.35031 2.18864C7.34615 2.40184 7.49227 2.66496 7.67635 2.7752Z" fill="#7D00E6"/>
<path d="M6.85534 7.24463L6.67334 7.82807L8.22554 8.35847L6.85534 7.24463Z" fill="#C177FF"/>
<path d="M6.85535 7.24473L7.37327 7.00293L8.22607 8.35909L6.85535 7.24473Z" fill="#7D00E6"/>
<path d="M6.85534 7.24473L6.67334 7.82817L7.2287 7.55881L7.37326 7.00293L6.85534 7.24473Z" fill="#C177FF"/>
<path d="M6.06079 9.50244L6.31247 9.89088L6.99679 9.60956L6.06079 9.50244Z" fill="#C177FF"/>
<path d="M6.06079 9.5027L6.07379 9.17822L6.99679 9.60982L6.06079 9.5027Z" fill="#7D00E6"/>
<path d="M6.06079 9.50267L6.31247 9.89111L6.32131 9.53751L6.07379 9.17871L6.06079 9.50267Z" fill="#C177FF"/>
<path d="M11.0329 1.72363L10.5088 2.03823L11.3163 3.46667L11.0329 1.72363Z" fill="#C177FF"/>
<path d="M11.033 1.72363L11.5805 1.88743L11.3164 3.46667L11.033 1.72363Z" fill="#7D00E6"/>
<path d="M11.0329 1.72363L10.5088 2.03823L11.1031 2.20619L11.5805 1.88743L11.0329 1.72363Z" fill="#C177FF"/>
<path d="M10.0278 4.27637L9.55566 4.55197L10.5078 5.05637L10.0278 4.27637Z" fill="#C177FF"/>
<path d="M10.0278 4.27642L10.5796 4.22754L10.5078 5.05694L10.0278 4.27642Z" fill="#7D00E6"/>
<path d="M10.0278 4.27642L9.55566 4.55202L10.1526 4.4943L10.5795 4.22754L10.0278 4.27642Z" fill="#C177FF"/>
</g>
<defs>
<clipPath id="clip0_86_960">
<rect width="26" height="26" fill="white" transform="translate(0.690186)"/>
</clipPath>
</defs>
</svg>
