<svg width="45" height="45" viewBox="0 0 45 45" fill="none" xmlns="http://www.w3.org/2000/svg">
<g clip-path="url(#clip0_216_612)">
<path d="M44.0999 28.5391L44.0945 31.6585L22.5647 44.1001L22.5701 40.9816L44.0999 28.5391Z" fill="#B255FF"/>
<path d="M22.5701 40.9816L22.5647 44.1001L0.899902 31.6585L0.905302 28.54L22.5701 40.9816Z" fill="#B255FF"/>
<path d="M44.1001 28.5388L22.5703 40.9822L0.905518 28.5397L22.4353 16.0981L44.1001 28.5388Z" fill="#D29CFF"/>
<path d="M38.404 26.3223C38.399 26.0127 38.3141 25.7097 38.1577 25.4424C38.0013 25.1752 37.7787 24.9528 37.5112 24.7968L35.2927 23.5026C35.0242 23.3461 34.7197 23.2617 34.4089 23.2578L11.1511 22.9518C10.8255 22.9474 10.5048 23.0314 10.2232 23.1948L7.9309 24.5268C7.5266 24.7618 7.22965 25.145 7.1029 25.5951L6.688 27.0666C6.5606 27.5182 6.61453 28.0016 6.8383 28.4139L8.0605 30.6657C8.21507 30.9505 8.44365 31.1883 8.72213 31.354C9.00061 31.5197 9.31865 31.6072 9.6427 31.6071H11.2186C11.4656 31.6071 11.71 31.6579 11.9365 31.7564C12.163 31.8548 12.3668 31.9989 12.5353 32.1795L13.6729 33.3999C13.8969 33.6401 14.1823 33.8144 14.4982 33.9039L19.891 35.4339C20.2285 35.5302 20.5867 35.5257 20.9215 35.4204L22.5262 34.9164C22.7098 34.8588 22.8979 34.8312 23.0905 34.8336L29.9413 34.9263C30.2783 34.9309 30.6097 34.8408 30.898 34.6662L37.5814 30.6216C37.8506 30.4587 38.0724 30.228 38.2246 29.9526C38.3768 29.6772 38.4542 29.3667 38.449 29.052L38.404 26.3223Z" fill="#B76ADB"/>
<path d="M22.6169 6.52344L17.7047 10.2071L15.0191 14.735L10.7216 17.9579L7.88208 27.6275L9.34008 30.3131H12.563L14.7122 32.6153L20.3912 34.2263L22.616 33.536L30.104 33.6305L37.097 29.4032L36.647 24.8942L32.669 20.2601L31.5899 16.5728L27.9584 12.8972L26.6156 9.81474L22.6169 6.52344Z" fill="#7D00E6"/>
<path d="M27.7146 32.6968L27.0846 32.3314C27.1674 32.4322 27.2529 32.5267 27.3474 32.6077L27.9774 32.9749C27.8838 32.8939 27.7974 32.7976 27.7146 32.6968ZM27.4302 31.8085L26.7993 31.4422C26.8263 31.6024 26.8569 31.7563 26.9001 31.8958L27.5301 32.2621C27.4871 32.1132 27.4537 31.9617 27.4302 31.8085ZM30.564 27.0025L29.9331 26.6362C29.7808 26.6846 29.6312 26.7411 29.4849 26.8054L30.1149 27.1726C30.2679 27.1024 30.4164 27.0511 30.564 27.0025ZM27.5157 30.6628L26.8857 30.2956C26.8529 30.4818 26.8273 30.6691 26.8092 30.8572L27.4392 31.2235C27.4554 31.0381 27.4842 30.85 27.5157 30.6628ZM29.6091 27.4498L28.9791 27.0835C28.8261 27.205 28.6767 27.3247 28.5354 27.4552L29.1654 27.8215C29.3076 27.691 29.4561 27.5713 29.6091 27.4498ZM28.6947 28.3039L28.0647 27.9376C27.9369 28.1068 27.81 28.2778 27.6939 28.4533L28.3239 28.8205C28.4409 28.6441 28.5669 28.474 28.6947 28.3039ZM27.9594 29.4316L27.3294 29.0653C27.2439 29.2588 27.1584 29.4523 27.0864 29.6485L27.7173 30.0148C27.7893 29.8195 27.8739 29.626 27.9594 29.4316Z" fill="#B76ADB"/>
<path d="M31.4389 27.1198C31.4227 27.1302 31.4076 27.1423 31.3939 27.1558L32.0257 27.5221C32.0387 27.5078 32.0539 27.4956 32.0707 27.4861C32.1019 27.4681 32.1289 27.4651 32.1517 27.4771L31.5217 27.1108C31.4977 27.0988 31.4701 27.1018 31.4389 27.1198ZM28.0837 32.8834C28.0621 32.9572 28.0729 33.0112 28.1053 33.0301L28.7362 33.3955C28.7047 33.3775 28.6912 33.3235 28.7137 33.2488L28.0837 32.8834ZM27.3475 32.608C27.2935 32.6998 27.2962 32.7835 27.3412 32.8105L27.9712 33.1777C27.9262 33.1507 27.9262 33.0661 27.9775 32.9752L27.3475 32.608ZM27.7183 30.0151L27.0865 29.6488C27.0672 29.6493 27.0484 29.6546 27.0316 29.6641C26.9798 29.6975 26.942 29.7488 26.9254 29.8081L26.8219 30.1591C26.8039 30.2212 26.8147 30.2698 26.8471 30.2887L27.4771 30.6559C27.4447 30.6361 27.4339 30.5857 27.4537 30.5254L27.5554 30.1744C27.5734 30.1162 27.6105 30.0658 27.6607 30.0313C27.6783 30.0214 27.6981 30.0158 27.7183 30.0151ZM28.7578 28.0936L29.0089 27.8281C29.0221 27.8134 29.0376 27.8009 29.0548 27.7912C29.0848 27.7744 29.1118 27.772 29.1358 27.784L28.504 27.4186C28.4812 27.4048 28.4542 27.4072 28.423 27.4258C28.4062 27.4353 28.391 27.4475 28.378 27.4618L28.126 27.7264C28.0693 27.7876 28.0405 27.8839 28.063 27.9379L28.6957 28.3042C28.6705 28.2493 28.6993 28.1539 28.7587 28.0936H28.7578ZM30.5641 27.0037C30.5807 26.9439 30.6189 26.8923 30.6712 26.8588C30.6845 26.8495 30.7 26.8439 30.7162 26.8426L30.7945 26.8354L31.0276 26.9695C31.1599 26.9767 31.285 27.0019 31.4119 27.0289C31.4311 26.9929 31.4593 26.9625 31.4938 26.9407C31.5172 26.9281 31.5406 26.9209 31.5604 26.9263L31.5748 26.9335L31.7683 27.0433L31.1383 26.6779L30.9448 26.5672H30.943C30.9202 26.5552 30.8932 26.5576 30.862 26.5744C30.8289 26.5971 30.8012 26.627 30.781 26.6617L30.6928 26.6437L30.3742 26.4574C30.3623 26.4523 30.3494 26.4499 30.3364 26.4502L30.0844 26.4772C30.0684 26.4779 30.0529 26.4829 30.0394 26.4916C29.9878 26.5261 29.9497 26.5773 29.9314 26.6365L30.5641 27.0037ZM26.9011 31.8961C26.8309 31.9708 26.8021 32.0644 26.8273 32.1157L26.9326 32.347C26.9372 32.3594 26.9462 32.3696 26.9578 32.3758L27.5878 32.7421C27.5775 32.7347 27.569 32.7252 27.5626 32.7142L27.4591 32.4829C27.4321 32.4307 27.4609 32.3362 27.5311 32.2624L26.9011 31.8961ZM26.6824 31.0636V31.3768C26.6824 31.4128 26.695 31.4398 26.7166 31.4506L27.3466 31.8169C27.3262 31.8043 27.3148 31.78 27.3124 31.744V31.4308C27.3151 31.3887 27.328 31.3479 27.3499 31.3118C27.3719 31.2758 27.4022 31.2456 27.4384 31.2238L26.8093 30.8566C26.7337 30.9016 26.6806 30.9907 26.6824 31.0636ZM29.6101 27.4501C29.6119 27.4101 29.6232 27.3712 29.6431 27.3364C29.663 27.3017 29.6909 27.2722 29.7244 27.2503L29.998 27.0928C30.0292 27.0754 30.0562 27.0724 30.079 27.0838L29.4472 26.7193C29.4274 26.7067 29.3986 26.7085 29.368 26.7265L29.0944 26.884C29.0604 26.9056 29.032 26.9349 29.0116 26.9697C28.9913 27.0045 28.9795 27.0436 28.9774 27.0838L29.6101 27.4501ZM28.3231 28.8199L27.6913 28.4527C27.6607 28.4347 27.6328 28.4383 27.604 28.4563C27.5691 28.4771 27.5405 28.507 27.5212 28.5427L27.3286 28.8775C27.2836 28.954 27.2854 29.0377 27.3304 29.0647L27.9604 29.4319C27.9154 29.4049 27.9154 29.3212 27.9604 29.2429L28.1512 28.9099C28.1709 28.8744 28.1994 28.8447 28.234 28.8235C28.2628 28.8055 28.2925 28.8019 28.324 28.8199H28.3231Z" fill="#C177FF"/>
<path d="M30.6297 31.2183C30.8952 30.7278 31.275 30.051 31.5162 29.4138C31.3324 29.1418 31.1887 28.8448 31.0896 28.5318C30.8619 27.8613 31.8069 27.5553 32.1552 28.0665C32.1795 28.0602 32.2047 28.0593 32.2299 28.0557C32.2218 28.0251 32.2173 27.9882 32.2083 27.9585C32.2794 27.8838 32.3064 27.7902 32.2821 27.7362L32.1759 27.5067C32.1579 27.4662 32.1147 27.4599 32.0697 27.486C32.0528 27.4955 32.0376 27.5077 32.0247 27.522C31.9447 27.4229 31.8565 27.3308 31.761 27.2466C31.815 27.1539 31.815 27.0693 31.7682 27.0432L31.5747 26.9334C31.5513 26.9214 31.5243 26.9238 31.4937 26.9406C31.4592 26.9621 31.431 26.9922 31.4118 27.0279C31.2849 26.9992 31.1562 26.9796 31.0266 26.9694C31.0536 26.874 31.0266 26.811 30.9672 26.8173L30.7152 26.8434C30.6991 26.8444 30.6835 26.8497 30.6702 26.8587C30.6191 26.8931 30.5813 26.9439 30.5631 27.0027C30.4107 27.0514 30.2611 27.1082 30.1149 27.1728C30.1149 27.0855 30.0618 27.0558 29.9979 27.0927L29.7252 27.2502C29.6911 27.2718 29.6627 27.3011 29.6423 27.3359C29.622 27.3707 29.6103 27.4098 29.6082 27.45C29.4552 27.5715 29.3076 27.6912 29.1663 27.8217C29.1429 27.7713 29.0997 27.765 29.0538 27.7911C29.0369 27.8006 29.0217 27.8128 29.0088 27.8271L28.7568 28.0926C28.6992 28.1547 28.6704 28.2492 28.6947 28.3041C28.5656 28.4723 28.4419 28.6446 28.3239 28.8207C28.2933 28.8018 28.2636 28.8054 28.2339 28.8225C28.1994 28.844 28.1712 28.8741 28.152 28.9098L27.9594 29.2428C27.9144 29.3211 27.9144 29.4048 27.9594 29.4318C27.8748 29.6262 27.7893 29.8188 27.7173 30.015C27.6976 30.016 27.6785 30.0216 27.6615 30.0312C27.6098 30.0644 27.572 30.1153 27.5553 30.1743L27.4527 30.5244C27.4275 30.6072 27.4563 30.6684 27.5157 30.663C27.4828 30.8489 27.4573 31.0359 27.4392 31.2237C27.4028 31.2454 27.3723 31.2755 27.3502 31.3116C27.3281 31.3476 27.3151 31.3885 27.3123 31.4307V31.7439C27.3132 31.8177 27.3663 31.8456 27.4293 31.8096C27.4581 31.9689 27.4878 32.1228 27.531 32.2623C27.4608 32.337 27.432 32.4306 27.4581 32.4837L27.5625 32.7132C27.5823 32.7537 27.6255 32.76 27.6705 32.7339C27.6873 32.7244 27.7025 32.7123 27.7155 32.6979C27.7971 32.7999 27.8847 32.8923 27.9783 32.9751C27.9252 33.0651 27.9261 33.1506 27.9702 33.1776L28.1646 33.2865C28.1871 33.3 28.2168 33.2955 28.2465 33.2784C28.2807 33.2572 28.309 33.2274 28.3284 33.192C28.4548 33.2228 28.5837 33.2421 28.7136 33.2496C28.6848 33.3459 28.7136 33.408 28.7721 33.4035L29.0151 33.3783C29.6577 32.7426 30.2018 32.0146 30.6297 31.2183Z" fill="#B76ADB"/>
<path d="M29.8422 32.4379C30.135 32.0545 30.3975 31.648 30.6297 31.2184C30.8952 30.7279 31.275 30.0511 31.5162 29.4139C31.3324 29.1419 31.1887 28.8448 31.0896 28.5319C30.9609 28.1539 31.2084 27.8983 31.509 27.8335C31.1427 27.451 30.5433 27.406 29.8638 27.7975C28.7523 28.441 27.8541 29.9953 27.8577 31.2715C27.8613 32.536 28.7469 33.049 29.8422 32.4379Z" fill="#B76ADB"/>
<path d="M30.3012 17.433L27.9585 12.897L28.9431 17.5032L30.7098 26.937L28.1538 33.606L30.1041 33.6303L32.4513 32.211L32.3181 26.4357L30.3012 17.433Z" fill="#C177FF"/>
<path d="M26.0488 20.1986L25.4188 20.564L25.417 20.5631L26.047 20.1968L26.0488 20.1986Z" fill="#C177FF"/>
<path d="M29.4821 22.4917L30.113 22.1254C30.0334 22.2251 29.9455 22.3178 29.8502 22.4026L29.2202 22.7689C29.3138 22.6879 29.4002 22.5925 29.4821 22.4917ZM29.7674 21.6034L30.3983 21.2362C30.3745 21.3894 30.3409 21.5409 30.2975 21.6898L29.6675 22.0561C29.7105 21.9075 29.7439 21.7563 29.7674 21.6034ZM26.6345 16.7974L27.2645 16.4302C27.4121 16.4788 27.5615 16.5301 27.7127 16.6003L27.0827 16.9666C26.9364 16.9023 26.7868 16.8458 26.6345 16.7974ZM29.6819 20.4568L30.3119 20.0905C30.3434 20.2777 30.3731 20.4658 30.3884 20.6512L29.7584 21.0175C29.7403 20.8296 29.7148 20.6426 29.6819 20.4568ZM27.5885 17.2438L28.2185 16.8775C28.3715 16.999 28.5209 17.1187 28.6622 17.2492L28.0322 17.6155C27.8888 17.4863 27.7408 17.3623 27.5885 17.2438ZM28.5029 18.0988L29.1329 17.7316C29.2607 17.9017 29.3876 18.0718 29.5037 18.2482L28.8737 18.6145C28.7567 18.4381 28.6307 18.268 28.5029 18.0979V18.0988ZM29.2373 19.2256L29.8682 18.8593C29.9537 19.0537 30.0392 19.2472 30.1112 19.4425L29.4794 19.8088C29.4074 19.6135 29.3228 19.42 29.2373 19.2256Z" fill="#B76ADB"/>
<path d="M25.5176 17.8391L24.8876 18.2063C24.854 18.1871 24.8258 18.1841 24.803 18.1973L25.4348 17.8301C25.457 17.8187 25.4846 17.8217 25.5176 17.8391ZM25.5653 18.9938C25.5766 18.9868 25.59 18.9842 25.6031 18.9866L24.9731 19.3511C24.96 19.3513 24.9471 19.3543 24.9353 19.3601L25.5653 18.9938ZM25.7588 16.9139C25.7738 16.9235 25.7888 16.9355 25.8038 16.9499L25.172 17.3171C25.159 17.3027 25.1438 17.2906 25.127 17.2811C25.0958 17.2631 25.0688 17.2601 25.046 17.2721L25.676 16.9049C25.6976 16.8923 25.7282 16.8959 25.7588 16.9139ZM26.6228 22.1933L27.2546 21.8261C27.2478 21.8413 27.2369 21.8544 27.2231 21.8639L26.5931 22.2311C26.6062 22.2214 26.6165 22.2083 26.6228 22.1933ZM29.1149 22.6784C29.1356 22.7513 29.1248 22.8044 29.0924 22.8251L28.4606 23.1896C28.493 23.1716 28.5056 23.1176 28.484 23.0429L29.1149 22.6784ZM29.8493 22.4021C29.9033 22.4939 29.9015 22.5776 29.8565 22.6046L29.2265 22.9718C29.2715 22.9448 29.2715 22.8602 29.2202 22.7693L29.8493 22.4021ZM29.4794 19.8092L30.1112 19.4429C30.1305 19.4436 30.1494 19.4492 30.1661 19.4591C30.2111 19.4861 30.2543 19.5401 30.2723 19.6022L30.3758 19.9532C30.3938 20.0153 30.383 20.0639 30.3506 20.0837L29.7206 20.45C29.753 20.4302 29.7638 20.3807 29.744 20.3195L29.6423 19.9685C29.6241 19.9101 29.5867 19.8597 29.5361 19.8254C29.5187 19.8155 29.4993 19.81 29.4794 19.8092ZM28.4399 17.8877L28.1888 17.6231C28.1757 17.608 28.1602 17.5952 28.1429 17.5853C28.1129 17.5685 28.0859 17.5661 28.0619 17.5781L28.6937 17.2127C28.7165 17.1989 28.7435 17.2013 28.7747 17.2199C28.7915 17.2294 28.8067 17.2415 28.8197 17.2559L29.0717 17.5205C29.1284 17.5817 29.1572 17.678 29.1347 17.732L28.502 18.0992C28.5272 18.0434 28.4993 17.948 28.4399 17.8877ZM26.6336 16.7978C26.617 16.7379 26.5788 16.6863 26.5265 16.6529C26.5132 16.6435 26.4977 16.6379 26.4815 16.6367L26.4032 16.6295L26.1701 16.7645C26.0407 16.7747 25.9123 16.7942 25.7858 16.823C25.7664 16.7868 25.7378 16.7564 25.703 16.7348C25.6805 16.7222 25.6571 16.715 25.6373 16.7204L25.6229 16.7276L25.4294 16.8374L26.0594 16.472L26.2529 16.3613H26.2547C26.2775 16.3493 26.3045 16.3517 26.3357 16.3685C26.3636 16.3865 26.3942 16.4162 26.4167 16.4558L26.5049 16.4378L26.8235 16.2524C26.8354 16.2473 26.8483 16.2448 26.8613 16.2452L27.1133 16.2722C27.1271 16.2722 27.1421 16.2767 27.1583 16.2857C27.2033 16.3127 27.2483 16.3685 27.2663 16.4306L26.6336 16.7978ZM30.2975 21.6902C30.3668 21.7658 30.3956 21.8585 30.3704 21.9107L30.2651 22.1411C30.2605 22.1534 30.2515 22.1636 30.2399 22.1699L29.6099 22.5371C29.6202 22.5294 29.6288 22.5195 29.6351 22.5083L29.7386 22.277C29.7656 22.2257 29.7368 22.1303 29.6666 22.0574L30.2975 21.6902ZM30.5153 20.8586V21.1718C30.5147 21.2084 30.5033 21.2327 30.4811 21.2447L29.8511 21.6119C29.8715 21.5987 29.8829 21.5741 29.8853 21.5381V21.2249C29.8818 21.1828 29.8684 21.1422 29.8464 21.1063C29.8244 21.0703 29.7942 21.0401 29.7584 21.0179L30.3884 20.6507C30.4631 20.6957 30.5171 20.7848 30.5153 20.8577V20.8586ZM27.5732 22.8422L28.2032 22.4759C28.202 22.5215 28.1894 22.5506 28.1654 22.5632L27.5354 22.9304C27.5588 22.9172 27.5714 22.8881 27.5732 22.8431V22.8422ZM27.5876 17.2451C27.5859 17.2049 27.5747 17.1657 27.5548 17.1308C27.5349 17.0959 27.5069 17.0663 27.4733 17.0444L27.1997 16.8869C27.1679 16.8695 27.1409 16.8665 27.1187 16.8779L27.7505 16.5134C27.7715 16.5008 27.7979 16.5032 27.8297 16.5206L28.1033 16.6781C28.1672 16.715 28.2194 16.8041 28.2194 16.8779L27.5876 17.2451ZM28.8746 18.614L29.5064 18.2477C29.5361 18.2297 29.5649 18.2333 29.5937 18.2504C29.6286 18.2711 29.6572 18.301 29.6765 18.3368L29.8691 18.6716C29.9141 18.7481 29.9123 18.8327 29.8673 18.8597L29.2373 19.226C29.2823 19.199 29.2823 19.1153 29.2373 19.037L29.0465 18.704C29.0268 18.6685 28.9983 18.6387 28.9637 18.6176C28.9349 18.5996 28.9061 18.596 28.8746 18.614Z" fill="#C177FF"/>
<path d="M27.4725 17.0442C27.5364 17.0811 27.5895 17.172 27.5886 17.244C27.7416 17.3655 27.8901 17.4852 28.0314 17.6157C28.0548 17.5653 28.098 17.559 28.1439 17.586C28.1583 17.595 28.1733 17.607 28.1889 17.622L28.4409 17.8875C28.4985 17.9487 28.5273 18.0441 28.503 18.0981C28.6308 18.2682 28.7568 18.4383 28.8729 18.6147C28.9044 18.5958 28.9341 18.5994 28.9629 18.6165C28.9947 18.6345 29.0223 18.6636 29.0457 18.7038L29.2383 19.0368C29.2833 19.1151 29.2833 19.1988 29.2383 19.2258C29.3229 19.4202 29.4084 19.6137 29.4795 19.809C29.4994 19.8098 29.5188 19.8154 29.5362 19.8252C29.5812 19.8522 29.6235 19.9062 29.6415 19.9692L29.745 20.3184C29.7702 20.4012 29.7414 20.4624 29.682 20.457C29.7135 20.6451 29.7423 20.8323 29.7576 21.0177C29.7941 21.0392 29.8248 21.0693 29.8471 21.1054C29.8693 21.1414 29.8825 21.1824 29.8854 21.2247V21.5379C29.8845 21.6117 29.8314 21.6405 29.7684 21.6036C29.7442 21.7565 29.7103 21.9077 29.6667 22.0563C29.7369 22.131 29.7657 22.2246 29.7387 22.2777L29.6343 22.5072C29.6163 22.5477 29.5731 22.5549 29.5272 22.5279C29.5103 22.5184 29.4951 22.5062 29.4822 22.4919C29.4026 22.5916 29.3147 22.6843 29.2194 22.7691C29.2725 22.8591 29.2716 22.9446 29.2275 22.9716L29.0331 23.0805C29.0091 23.0931 28.9818 23.0904 28.9512 23.0724C28.9169 23.0511 28.8887 23.0214 28.8693 22.986C28.7433 23.0148 28.6173 23.0373 28.4841 23.0436C28.5129 23.1408 28.4841 23.2029 28.4256 23.1975L28.1727 23.1714C28.1566 23.1704 28.141 23.1651 28.1277 23.1561C28.0755 23.1228 28.0374 23.0716 28.0206 23.0121C27.8683 22.9634 27.7186 22.9066 27.5724 22.842C27.5724 22.9293 27.5193 22.959 27.4554 22.9221L27.1827 22.7646C27.1489 22.7423 27.1207 22.7125 27.1004 22.6776C27.0801 22.6426 27.0682 22.6033 27.0657 22.563C26.9135 22.4456 26.7661 22.3222 26.6238 22.1931C26.6004 22.2435 26.5572 22.2498 26.5113 22.2228C26.4944 22.2133 26.4792 22.2011 26.4663 22.1868L26.2161 21.9222C26.1567 21.8592 26.1288 21.7647 26.1531 21.7089C26.0238 21.542 25.9004 21.3706 25.7832 21.195C25.7508 21.2121 25.7211 21.2076 25.6914 21.1905C25.6574 21.1691 25.6295 21.1393 25.6104 21.1041L25.4178 20.7729C25.3728 20.6937 25.3728 20.6082 25.4178 20.5839C25.3312 20.3921 25.2508 20.1976 25.1766 20.0007C25.157 19.9997 25.1379 19.9941 25.1208 19.9845C25.069 19.9511 25.0312 19.8998 25.0146 19.8405L24.9102 19.4895C24.8859 19.4085 24.9138 19.3464 24.9732 19.3518C24.9403 19.1659 24.9148 18.9789 24.8967 18.7911C24.8603 18.7694 24.8298 18.7393 24.8077 18.7032C24.7856 18.6672 24.7726 18.6263 24.7698 18.5841V18.2709C24.7698 18.1971 24.8238 18.1683 24.8868 18.2052C24.9112 18.0525 24.9455 17.9016 24.9894 17.7534C24.9183 17.6778 24.8913 17.5842 24.9156 17.5302L25.0218 17.3007C25.0398 17.2602 25.083 17.2548 25.1271 17.28C25.1427 17.289 25.1577 17.3013 25.1721 17.3169C25.2523 17.2174 25.3408 17.125 25.4367 17.0406C25.3827 16.9479 25.3827 16.8642 25.4295 16.8381L25.623 16.7274C25.6464 16.7154 25.6734 16.7178 25.704 16.7346C25.7384 16.7561 25.7666 16.7862 25.7859 16.8219C25.9119 16.7958 26.0379 16.7715 26.1711 16.7634C26.1441 16.668 26.1711 16.605 26.2305 16.6113L26.4825 16.6374C26.4986 16.6383 26.5141 16.6436 26.5275 16.6527C26.5725 16.6797 26.6166 16.7355 26.6346 16.7967C26.7822 16.8453 26.9307 16.8975 27.0828 16.9668C27.0828 16.8795 27.135 16.8498 27.1998 16.8867L27.4725 17.0442Z" fill="#B76ADB"/>
<path d="M29.34 21.0656C29.3364 22.3436 28.4328 22.8584 27.3213 22.2167C26.2098 21.5759 25.3116 20.0189 25.3152 18.7427C25.3188 17.4665 26.2224 16.9517 27.3339 17.5925C28.4454 18.2351 29.3436 19.7885 29.34 21.0656Z" fill="#B76ADB"/>
<path d="M27.4401 21.9537C26.3286 21.3138 25.4304 19.7568 25.434 18.4806C25.434 18.2376 25.4682 18.0234 25.5294 17.8389C25.3944 18.0711 25.3161 18.3735 25.3152 18.7425C25.3116 20.0187 26.2098 21.5757 27.3213 22.2165C28.2213 22.7367 28.9845 22.4973 29.2446 21.7089C28.9125 22.2804 28.2294 22.4109 27.4401 21.9537Z" fill="#C177FF"/>
<path d="M22.617 6.52344L25.5087 12.2978L25.9659 18.6293L24.1029 26.5619L20.3904 34.2263L14.7114 32.6153L20.628 28.9532L22.617 21.9701L24.4575 18.4178L24.6249 12.6155L22.617 6.52344Z" fill="#B255FF"/>
<path d="M15.9119 15.6575L18.3779 11.0927L22.6169 6.52344L17.7047 10.208L15.0191 14.735L10.7216 17.9588L7.88208 27.6266L11.3228 18.8021L15.9119 15.6575Z" fill="#C177FF"/>
<path d="M19.4175 27.7747L18.7875 28.141L18.7866 28.1393L19.4166 27.7729L19.4175 27.7747Z" fill="#C177FF"/>
<path d="M22.8465 30.0688L23.4765 29.7016C23.3972 29.8013 23.3096 29.894 23.2146 29.9788L22.5837 30.3451C22.6773 30.2641 22.7637 30.1696 22.8465 30.0688ZM23.1318 29.1796L23.7618 28.8133C23.7381 28.9665 23.7044 29.1181 23.661 29.2669L23.031 29.6332C23.0744 29.4844 23.1081 29.3328 23.1318 29.1796ZM19.998 24.3736L20.628 24.0073C20.7765 24.055 20.925 24.1063 21.0771 24.1765L20.4471 24.5428C20.3006 24.4785 20.1506 24.422 19.998 24.3736ZM23.0454 28.033L23.6763 27.6667C23.7078 27.8548 23.7366 28.042 23.7528 28.2274L23.1219 28.5937C23.1038 28.4059 23.0783 28.2189 23.0454 28.033ZM20.952 24.8209L21.5829 24.4546C21.7359 24.5752 21.8844 24.6949 22.0257 24.8254L21.3957 25.1917C21.2526 25.0629 21.104 24.9392 20.952 24.8209ZM21.8664 25.675L22.4973 25.3078C22.6251 25.4779 22.752 25.648 22.8681 25.8244L22.2372 26.1907C22.1202 26.0143 21.9942 25.8442 21.8664 25.675ZM22.6017 26.8018L23.2317 26.4364C23.3172 26.6299 23.4027 26.8234 23.4747 27.0187L22.8438 27.385C22.7688 27.1886 22.6881 26.9935 22.6017 26.8018Z" fill="#B76ADB"/>
<path d="M18.8821 25.4161L18.2521 25.7824C18.2185 25.7632 18.1903 25.7602 18.1675 25.7734L18.7993 25.4071C18.8215 25.3957 18.8497 25.3987 18.8821 25.4161ZM18.9298 26.5699C18.9411 26.5629 18.9545 26.5604 18.9676 26.5627L18.3376 26.9281C18.3245 26.9283 18.3116 26.9314 18.2998 26.9371L18.9298 26.5699ZM19.1233 24.4909C19.1377 24.4999 19.1527 24.5119 19.1683 24.5269L18.5356 24.8932C18.5226 24.8789 18.5074 24.8667 18.4906 24.8572C18.46 24.8392 18.4333 24.8362 18.4105 24.8482L19.0405 24.4819C19.0621 24.4693 19.0927 24.4729 19.1233 24.4909ZM19.9873 29.7694L20.6191 29.4031C20.6119 29.4182 20.6007 29.4309 20.5867 29.44L19.9567 29.8072C19.9702 29.7976 19.9807 29.7846 19.9873 29.7694ZM22.4785 30.2545C22.5001 30.3283 22.4893 30.3814 22.4569 30.4012L21.8251 30.7666C21.8575 30.7486 21.8701 30.6946 21.8485 30.6199L22.4785 30.2545ZM23.2138 29.9791C23.2678 30.07 23.266 30.1546 23.221 30.1807L22.591 30.5479C22.636 30.5209 22.636 30.4372 22.5838 30.3454L23.2138 29.9791ZM22.843 27.3862L23.4748 27.019C23.4944 27.0196 23.5136 27.0252 23.5306 27.0352C23.5756 27.0622 23.6179 27.1162 23.6359 27.1792L23.7403 27.5293C23.7583 27.5923 23.7466 27.64 23.7151 27.6598L23.0851 28.027C23.1175 28.0072 23.1283 27.9568 23.1085 27.8956L23.0059 27.5446C22.9877 27.4867 22.9507 27.4366 22.9006 27.4024C22.883 27.3925 22.8632 27.3869 22.843 27.3862ZM21.8035 25.4638L21.5533 25.2001C21.5399 25.185 21.5241 25.1722 21.5065 25.1623C21.4765 25.1455 21.4495 25.1431 21.4255 25.1551L22.0573 24.7906C22.0801 24.7768 22.1071 24.7792 22.1383 24.7978C22.1551 24.8073 22.1703 24.8195 22.1833 24.8338L22.4353 25.0984C22.4929 25.1587 22.5208 25.2559 22.4983 25.309L21.8665 25.6762C21.8917 25.6204 21.8629 25.5259 21.8035 25.4647V25.4638ZM19.9981 24.3739C19.981 24.3142 19.9426 24.263 19.8901 24.2299C19.8769 24.2202 19.8614 24.2143 19.8451 24.2128L19.7668 24.2056L19.5346 24.3406C19.4049 24.3508 19.2762 24.3704 19.1494 24.3991C19.1301 24.3634 19.1019 24.3333 19.0675 24.3118C19.0435 24.298 19.0213 24.2932 19.0009 24.2974L18.9874 24.3046L18.7939 24.4135L19.4239 24.0481L19.6165 23.9374H19.6183C19.6411 23.9254 19.6681 23.9278 19.6993 23.9446C19.7329 23.9675 19.7609 23.9976 19.7812 24.0328L19.8694 24.0148L20.188 23.8285C20.1996 23.8235 20.2122 23.8211 20.2249 23.8213L20.4769 23.8483C20.4919 23.8483 20.5069 23.8531 20.5219 23.8627C20.5669 23.8897 20.6119 23.9446 20.6299 24.0067L19.9981 24.3739ZM23.6611 29.2663C23.7313 29.3419 23.7601 29.4346 23.7349 29.4868L23.6287 29.7181C23.6239 29.7301 23.615 29.74 23.6035 29.746L22.9735 30.1132C22.9838 30.1055 22.9924 30.0957 22.9987 30.0844L23.1031 29.854C23.1301 29.8018 23.1013 29.7073 23.0311 29.6335L23.6611 29.2663ZM23.8798 28.4347V28.7479C23.8798 28.7839 23.8672 28.8109 23.8456 28.8208L23.2156 29.188C23.236 29.1748 23.2474 29.1502 23.2498 29.1142V28.801C23.2463 28.759 23.2329 28.7184 23.2109 28.6824C23.1889 28.6465 23.1587 28.6162 23.1229 28.594L23.7529 28.2268C23.8276 28.2718 23.8816 28.3618 23.8789 28.4338L23.8798 28.4347ZM20.9377 30.4192L21.5677 30.052C21.5665 30.0976 21.5539 30.127 21.5299 30.1402L20.8999 30.5065C20.9233 30.4939 20.9359 30.4648 20.9377 30.4192ZM20.9521 24.8221C20.9503 24.7819 20.9389 24.7427 20.9189 24.7077C20.8988 24.6728 20.8707 24.6432 20.8369 24.6214L20.5633 24.4639C20.5321 24.4465 20.5051 24.4435 20.4823 24.4549L21.115 24.0895C21.1354 24.0769 21.1615 24.0793 21.1933 24.0967L21.4669 24.2542C21.5317 24.292 21.5839 24.3811 21.5839 24.4549L20.9521 24.8221ZM22.2391 26.1901L22.87 25.8238C22.9 25.807 22.9294 25.8082 22.9582 25.8274C22.9926 25.8481 23.0209 25.8776 23.0401 25.9129L23.2336 26.2477C23.2786 26.3251 23.2768 26.4088 23.2318 26.4358L22.6018 26.803C22.6468 26.776 22.6468 26.6914 22.6018 26.6131L22.4101 26.2801C22.3907 26.2447 22.3625 26.215 22.3282 26.1937C22.3151 26.1844 22.2996 26.1792 22.2836 26.1787C22.2676 26.1782 22.2518 26.1825 22.2382 26.191L22.2391 26.1901Z" fill="#C177FF"/>
<path d="M20.836 24.6212C20.9008 24.6572 20.953 24.7481 20.953 24.821C21.106 24.9416 21.2536 25.0622 21.3958 25.1918C21.4183 25.1423 21.4615 25.136 21.5074 25.1621C21.523 25.1711 21.538 25.1831 21.5524 25.1981L21.8044 25.4636C21.8629 25.5248 21.8908 25.6202 21.8674 25.6751C21.9943 25.8443 22.1212 26.0144 22.2373 26.1908C22.2679 26.1728 22.2976 26.1764 22.3273 26.1935C22.357 26.2106 22.3867 26.2403 22.4101 26.2799L22.6027 26.6129C22.6468 26.6921 22.6468 26.7758 22.6018 26.8019C22.6873 26.9963 22.7728 27.1907 22.8439 27.3851C22.8636 27.3864 22.8827 27.3923 22.8997 27.4022C22.9447 27.4274 22.987 27.4832 23.0059 27.5444L23.1094 27.8954C23.1337 27.9773 23.1049 28.0394 23.0464 28.0331C23.077 28.2212 23.1067 28.4093 23.122 28.5938C23.1585 28.6154 23.1892 28.6455 23.2115 28.6815C23.2338 28.7176 23.2469 28.7586 23.2498 28.8008L23.2489 29.114C23.2489 29.1878 23.1949 29.2166 23.1319 29.1797C23.1081 29.333 23.0744 29.4845 23.0311 29.6333C23.1004 29.7071 23.1292 29.8016 23.1031 29.8538L22.9987 30.0842C22.9798 30.1247 22.9366 30.131 22.8907 30.1049C22.8742 30.0954 22.8593 30.0832 22.8466 30.0689C22.767 30.1683 22.6791 30.2607 22.5838 30.3452C22.636 30.4352 22.636 30.5216 22.591 30.5486L22.3975 30.6566C22.3735 30.6686 22.3459 30.6662 22.3147 30.6494C22.2806 30.6278 22.2527 30.5977 22.2337 30.5621C22.1077 30.5918 21.9817 30.6143 21.8485 30.6206C21.8764 30.7169 21.8485 30.779 21.7891 30.7736L21.5371 30.7484C21.5209 30.7472 21.5054 30.7416 21.4921 30.7322C21.4396 30.6992 21.4011 30.6479 21.3841 30.5882C21.2321 30.5398 21.0828 30.4833 20.9368 30.419C20.9368 30.5054 20.8837 30.536 20.8198 30.4982L20.5471 30.3407C20.5134 30.3186 20.4853 30.2889 20.465 30.2541C20.4447 30.2193 20.4328 30.1803 20.4301 30.14C20.2776 30.0224 20.1299 29.8987 19.9873 29.7692C19.9648 29.8196 19.9216 29.8259 19.8757 29.7998C19.8589 29.7903 19.8437 29.7782 19.8307 29.7638L19.5796 29.4983C19.5202 29.4353 19.4932 29.3408 19.5166 29.2859C19.3876 29.1187 19.2645 28.947 19.1476 28.7711C19.1152 28.7891 19.0846 28.7846 19.0558 28.7675C19.0218 28.7462 18.9939 28.7164 18.9748 28.6811L18.7822 28.3481C18.7372 28.2698 18.7372 28.1843 18.7822 28.1591C18.6953 27.9677 18.6146 27.7735 18.5401 27.5768C18.5205 27.5759 18.5014 27.5703 18.4843 27.5606C18.4325 27.5272 18.3947 27.476 18.3781 27.4166L18.2737 27.0656C18.2503 26.9846 18.2782 26.9234 18.3367 26.9288C18.3041 26.7427 18.2789 26.5554 18.2611 26.3672C18.2247 26.3458 18.1941 26.3158 18.1718 26.2799C18.1495 26.244 18.1363 26.2033 18.1333 26.1611L18.1342 25.847C18.1342 25.7741 18.1882 25.7453 18.2512 25.7822C18.2753 25.6293 18.3093 25.4781 18.3529 25.3295C18.2827 25.2548 18.2557 25.1612 18.28 25.1063L18.3853 24.8768C18.4033 24.8363 18.4465 24.8309 18.4915 24.857C18.5071 24.866 18.5221 24.878 18.5365 24.893C18.6164 24.7936 18.7046 24.7012 18.8002 24.6167C18.7462 24.524 18.7471 24.4403 18.793 24.4142L18.9865 24.3035C19.009 24.29 19.0387 24.2945 19.0675 24.3116C19.1021 24.3328 19.1307 24.3626 19.1503 24.398C19.2763 24.3719 19.4023 24.3476 19.5346 24.3404C19.5076 24.2441 19.5346 24.1811 19.5949 24.1874L19.8469 24.2144C19.8629 24.2152 19.8784 24.2201 19.8919 24.2288C19.9428 24.2636 19.9803 24.3147 19.9981 24.3737C20.1504 24.4221 20.3 24.4786 20.4463 24.5429C20.4463 24.4565 20.4994 24.4259 20.5633 24.4628L20.836 24.6212Z" fill="#B76ADB"/>
<path d="M22.7034 28.6425C22.6998 29.9205 21.7962 30.4353 20.6847 29.7927C19.5741 29.1519 18.6759 27.5949 18.6795 26.3187C18.6822 25.0434 19.5867 24.5277 20.6973 25.1685C21.8088 25.8111 22.7061 27.3663 22.7034 28.6425Z" fill="#B76ADB"/>
<path d="M20.8044 29.5307C19.6929 28.8899 18.7947 27.3329 18.7974 26.0567C18.7952 25.8392 18.8274 25.6226 18.8928 25.415C18.7578 25.6472 18.6804 25.9505 18.6795 26.3195C18.6759 27.5948 19.5741 29.1518 20.6847 29.7926C21.5847 30.3128 22.3479 30.0734 22.608 29.2859C22.2768 29.8565 21.5937 29.987 20.8044 29.5307Z" fill="#C177FF"/>
<path d="M9.67409 27.4189L9.04409 27.0517C9.12569 27.1543 9.21299 27.2467 9.30599 27.3289L9.93689 27.6952C9.84239 27.6142 9.75689 27.5197 9.67409 27.4189ZM9.38879 26.5297L8.75879 26.1634C8.78579 26.3236 8.81639 26.4775 8.85869 26.617L9.48959 26.9833C9.44626 26.8345 9.41259 26.6829 9.38879 26.5297ZM12.5226 21.7237L11.8926 21.3574C11.74 21.4058 11.5901 21.4623 11.4435 21.5266L12.0735 21.8929C12.2265 21.8236 12.375 21.7723 12.5226 21.7237ZM9.47519 25.384L8.84429 25.0168C8.81145 25.2026 8.78593 25.3897 8.76779 25.5775L9.39869 25.9447C9.41399 25.7593 9.44369 25.5712 9.47519 25.384ZM11.5677 22.171L10.9377 21.8047C10.7857 21.9233 10.638 22.0473 10.4949 22.1764L11.1249 22.5427C11.268 22.4136 11.4157 22.2896 11.5677 22.171ZM10.6542 23.0251L10.0233 22.6588C9.89549 22.828 9.76859 22.999 9.65249 23.1745L10.2825 23.5417C10.4007 23.3659 10.5246 23.1937 10.6542 23.0251ZM9.91889 24.1528L9.28889 23.7865C9.20339 23.98 9.11789 24.1735 9.04589 24.3697L9.67589 24.736C9.74789 24.5407 9.83339 24.3472 9.91889 24.1528Z" fill="#B76ADB"/>
<path d="M13.6395 22.7657L14.2695 23.132C14.301 23.1131 14.3325 23.1113 14.3532 23.123L13.7214 22.7567C13.6992 22.7453 13.6719 22.7483 13.6395 22.7657ZM13.5909 23.9195C13.5796 23.9126 13.5661 23.91 13.5531 23.9123L14.1831 24.2777C14.1975 24.2771 14.2101 24.2801 14.2209 24.2867L13.5909 23.9195ZM13.3974 21.8405C13.3811 21.8509 13.366 21.863 13.3524 21.8765L13.9842 22.2428C13.9971 22.2285 14.0123 22.2163 14.0292 22.2068C14.061 22.1888 14.088 22.1858 14.1102 22.1978L13.4802 21.8315C13.4586 21.8189 13.428 21.8225 13.3974 21.8405ZM12.5334 27.1199L11.9016 26.7527C11.9106 26.7707 11.9214 26.7833 11.934 26.7905L12.564 27.1568C12.5506 27.1475 12.54 27.1348 12.5334 27.1199ZM10.0422 27.6041C10.0206 27.6779 10.0314 27.731 10.0638 27.7508L10.6956 28.1162C10.6632 28.0982 10.6506 28.0442 10.6722 27.9695L10.0422 27.6041ZM9.30687 27.3287C9.25287 27.4196 9.25467 27.5042 9.29967 27.5312L9.92967 27.8975C9.88467 27.8705 9.88467 27.7868 9.93687 27.6959L9.30687 27.3287ZM9.67767 24.7358L9.04587 24.3686C9.0262 24.3693 9.00701 24.3748 8.99007 24.3848C8.93859 24.4184 8.90114 24.4696 8.88477 24.5288L8.78037 24.8798C8.76237 24.9419 8.77317 24.9896 8.80557 25.0094L9.43557 25.3766C9.40317 25.3568 9.39237 25.3064 9.41217 25.2461L9.51477 24.8951C9.53254 24.8366 9.56967 24.7858 9.62007 24.7511C9.63777 24.7415 9.65752 24.7363 9.67767 24.7358ZM10.7172 22.8143L10.9674 22.5488C10.9808 22.534 10.9966 22.5215 11.0142 22.5119C11.0436 22.4951 11.0706 22.4927 11.0952 22.5047L10.4625 22.1393C10.4409 22.1255 10.4139 22.1279 10.3815 22.1465C10.365 22.1561 10.3501 22.1683 10.3374 22.1825L10.0854 22.4471C10.0278 22.5083 9.99897 22.6046 10.0224 22.6586L10.6542 23.0249C10.629 22.97 10.6578 22.8746 10.7172 22.8143ZM12.5226 21.7244C12.5394 21.6644 12.5779 21.6128 12.6306 21.5795C12.6436 21.5703 12.6588 21.5647 12.6747 21.5633L12.753 21.5561L12.9861 21.6902C13.1184 21.6974 13.2435 21.7226 13.3704 21.7487C13.3899 21.7129 13.4184 21.6828 13.4532 21.6614C13.4766 21.6488 13.5 21.6416 13.5198 21.647C13.5246 21.6482 13.5291 21.6506 13.5333 21.6542L13.7268 21.7631L13.0968 21.3986L12.9042 21.2879H12.9024C12.8802 21.2759 12.8532 21.278 12.8214 21.2942C12.7878 21.3171 12.7598 21.3472 12.7395 21.3824L12.6513 21.3644L12.3327 21.1781C12.3207 21.173 12.3078 21.1706 12.2949 21.1709L12.0429 21.1979C12.0269 21.1986 12.0113 21.2036 11.9979 21.2123C11.9466 21.2469 11.9088 21.2981 11.8908 21.3572L12.5226 21.7244ZM8.85957 26.6168C8.78937 26.6915 8.76057 26.7851 8.78577 26.8364L8.89197 27.0677C8.89635 27.0799 8.90497 27.0902 8.91627 27.0965L9.54627 27.4628C9.53623 27.4551 9.52795 27.4452 9.52197 27.434L9.41757 27.2036C9.39057 27.1514 9.41937 27.0569 9.48957 26.9831L8.85957 26.6168ZM8.64087 25.7852V26.0975C8.64087 26.1335 8.65347 26.1605 8.67507 26.1713L9.30507 26.5376C9.28467 26.525 9.27327 26.5007 9.27087 26.4647V26.1515C9.27087 26.0777 9.32307 25.9886 9.39777 25.9445L8.76777 25.5773C8.69307 25.6223 8.63907 25.7114 8.64177 25.7843L8.64087 25.7852ZM11.583 27.7688L10.953 27.4025C10.9536 27.4475 10.9662 27.4766 10.9908 27.4898L11.6208 27.857C11.5974 27.8438 11.5848 27.8144 11.583 27.7688ZM11.5686 22.1717C11.5702 22.1316 11.5815 22.0924 11.6014 22.0575C11.6213 22.0226 11.6492 21.993 11.6829 21.971L11.9574 21.8135C11.988 21.7961 12.015 21.7931 12.0384 21.8045L11.4057 21.4391C11.3853 21.4271 11.3592 21.4295 11.3274 21.4463L11.0538 21.6038C11.0196 21.6254 10.9911 21.655 10.9708 21.6899C10.9504 21.7248 10.9387 21.7641 10.9368 21.8045L11.5686 22.1717ZM10.2825 23.5406L9.65067 23.1734C9.62007 23.1554 9.59127 23.159 9.56247 23.177C9.52791 23.198 9.49962 23.2278 9.48057 23.2634L9.28707 23.5973C9.24207 23.6747 9.24387 23.7593 9.28887 23.7863L9.91887 24.1526C9.87387 24.1256 9.87387 24.0419 9.91887 23.9627L10.1106 23.6297C10.1301 23.5947 10.1583 23.5652 10.1925 23.5442C10.2213 23.5262 10.2519 23.5226 10.2825 23.5406Z" fill="#C177FF"/>
<path d="M11.6839 21.9709C11.6505 21.9931 11.6227 22.0226 11.6025 22.0573C11.5824 22.0919 11.5705 22.1308 11.5678 22.1707C11.4158 22.2893 11.2681 22.4133 11.125 22.5424C11.1025 22.492 11.0593 22.4857 11.0134 22.5118C10.9966 22.5213 10.9814 22.5335 10.9684 22.5478L10.7164 22.8142C10.6579 22.8754 10.63 22.9699 10.6534 23.0248C10.5265 23.194 10.3996 23.365 10.2835 23.5414C10.2529 23.5225 10.2223 23.5261 10.1935 23.5432C10.1588 23.5646 10.1302 23.5947 10.1107 23.6305L9.9181 23.9635C9.874 24.0418 9.874 24.1255 9.919 24.1525C9.8335 24.3469 9.748 24.5395 9.676 24.7357C9.6567 24.7369 9.63791 24.7424 9.6211 24.7519C9.56945 24.7851 9.53169 24.836 9.5149 24.895L9.4114 25.2451C9.3871 25.3279 9.4159 25.3891 9.4744 25.3837C9.44186 25.5696 9.41664 25.7566 9.3988 25.9444C9.36229 25.966 9.33157 25.9961 9.3093 26.0321C9.28704 26.0682 9.27389 26.1091 9.271 26.1514L9.2719 26.4646C9.2719 26.5375 9.325 26.5663 9.3889 26.5294C9.4168 26.6896 9.4474 26.8435 9.4897 26.983C9.4204 27.0577 9.3916 27.1513 9.4177 27.2035L9.5221 27.4339C9.541 27.4744 9.5842 27.4807 9.6301 27.4546C9.64661 27.4451 9.6615 27.4329 9.6742 27.4186C9.7558 27.5206 9.8434 27.6127 9.937 27.6949C9.8848 27.7858 9.8848 27.8713 9.9298 27.8983L10.1233 28.0072C10.1458 28.0207 10.1764 28.0162 10.2061 27.9991C10.2402 27.9775 10.2681 27.9474 10.2871 27.9118C10.4131 27.9415 10.5391 27.964 10.6723 27.9703C10.6444 28.0666 10.6723 28.1287 10.7317 28.1242L10.9837 28.0972C10.9997 28.0965 11.0152 28.0916 11.0287 28.0828C11.0812 28.0498 11.1197 27.9985 11.1367 27.9388C11.2825 27.8902 11.431 27.8389 11.584 27.7687C11.584 27.8551 11.6371 27.8857 11.701 27.8488L11.9737 27.6913C12.0075 27.6691 12.0356 27.6393 12.056 27.6043C12.0763 27.5693 12.0882 27.5301 12.0907 27.4897C12.2432 27.3724 12.3909 27.249 12.5335 27.1198C12.556 27.1693 12.5992 27.1756 12.6451 27.1495C12.6619 27.14 12.6771 27.1279 12.6901 27.1135L12.9412 26.8489C13.0006 26.7859 13.0276 26.6905 13.0042 26.6356C13.132 26.4673 13.258 26.299 13.3732 26.1217C13.3875 26.1293 13.4036 26.1329 13.4197 26.1321C13.4359 26.1313 13.4515 26.1262 13.465 26.1172C13.499 26.0959 13.5269 26.0661 13.546 26.0308L13.7386 25.6987C13.7836 25.6204 13.7836 25.5349 13.7386 25.5097C13.825 25.3153 13.9096 25.1227 13.9807 24.9265C14.0003 24.9256 14.0194 24.92 14.0365 24.9103C14.0883 24.8769 14.1261 24.8257 14.1427 24.7663L14.2471 24.4153C14.2705 24.3343 14.2426 24.2731 14.1841 24.2785C14.2166 24.0927 14.2419 23.9057 14.2597 23.7178C14.2962 23.6963 14.3269 23.6662 14.3492 23.6301C14.3715 23.5941 14.3846 23.5531 14.3875 23.5108L14.3866 23.1976C14.3866 23.1238 14.3326 23.095 14.2696 23.1319C14.2452 22.979 14.2109 22.8278 14.167 22.6792C14.2381 22.6045 14.266 22.5109 14.2408 22.4569L14.1355 22.2274C14.1175 22.1869 14.0743 22.1806 14.0293 22.2067C14.0125 22.2162 13.9973 22.2284 13.9843 22.2427C13.9043 22.1436 13.8161 22.0515 13.7206 21.9673C13.7737 21.8746 13.7737 21.79 13.7278 21.7639L13.5343 21.6541C13.5118 21.6406 13.4821 21.6451 13.4533 21.6613C13.4186 21.6827 13.39 21.7128 13.3705 21.7486C13.244 21.7199 13.1155 21.7004 12.9862 21.6901C13.0132 21.5938 12.9862 21.5317 12.9259 21.538L12.6739 21.5641C12.6578 21.5651 12.6423 21.5704 12.6289 21.5794C12.5771 21.6128 12.5393 21.6641 12.5227 21.7234C12.3704 21.7718 12.2208 21.8283 12.0745 21.8926C12.0745 21.8062 12.0214 21.7756 11.9575 21.8134L11.6839 21.9709Z" fill="#B76ADB"/>
<path d="M9.81731 25.9921C9.82091 27.2701 10.7245 27.7849 11.8351 27.1423C12.9466 26.5015 13.8448 24.9454 13.8421 23.6683C13.8376 22.393 12.934 21.8773 11.8234 22.5181C10.7119 23.1607 9.81371 24.7159 9.81641 25.9921H9.81731Z" fill="#B76ADB"/>
<path d="M11.7162 26.8803C12.8277 26.2395 13.7259 24.6825 13.7232 23.4063C13.7253 23.1888 13.6931 22.9722 13.6278 22.7646C13.7628 22.9977 13.8402 23.3001 13.8411 23.6691C13.8447 24.9453 12.9465 26.5014 11.835 27.1431C10.935 27.6624 10.1727 27.423 9.9126 26.6355C10.2438 27.2061 10.9269 27.3375 11.7162 26.8803Z" fill="#C177FF"/>
<path d="M17.127 14.0957L16.497 13.7294C16.5789 13.8302 16.6653 13.9247 16.7598 14.0057L17.3898 14.372C17.2968 14.2898 17.2092 14.1977 17.127 14.0957ZM16.8417 13.2065L16.2117 12.8402C16.2387 13.0004 16.2693 13.1543 16.3125 13.2938L16.9425 13.6601C16.8991 13.5112 16.8655 13.3597 16.8417 13.2065ZM19.9755 8.40048L19.3455 8.03418C19.1929 8.08255 19.043 8.13903 18.8964 8.20338L19.5273 8.57058C19.6794 8.50038 19.8279 8.44908 19.9755 8.40048ZM16.9281 12.0599L16.2981 11.6936C16.2649 11.8797 16.2391 12.067 16.2207 12.2552L16.8516 12.6215C16.8669 12.4361 16.8966 12.248 16.9281 12.0608V12.0599ZM19.0215 8.84778L18.3906 8.48148C18.2386 8.60007 18.0909 8.72405 17.9478 8.85318L18.5778 9.21948C18.72 9.08898 18.8685 8.96928 19.0215 8.84778ZM18.1071 9.70188L17.4771 9.33558C17.3475 9.50418 17.2236 9.67608 17.1054 9.85128L17.7363 10.2185C17.8533 10.0421 17.9793 9.87198 18.1071 9.70188ZM17.3718 10.8296L16.7418 10.4633C16.6563 10.6568 16.5708 10.8503 16.4988 11.0465L17.1297 11.4128C17.2017 11.2175 17.2854 11.024 17.3718 10.8296Z" fill="#B76ADB"/>
<path d="M21.24 8.68696L20.9331 8.50876C20.9115 8.49616 20.8809 8.49976 20.8503 8.51776C20.8341 8.52812 20.819 8.54019 20.8053 8.55376L21.1779 8.76976L21.24 8.68696ZM16.7598 14.006C16.7058 14.0978 16.7076 14.1815 16.7526 14.2085L17.3826 14.5757C17.3376 14.5487 17.3376 14.4641 17.3898 14.3732L16.7598 14.006ZM17.1306 11.4131L16.4988 11.0459C16.4791 11.0465 16.4599 11.0521 16.443 11.0621C16.3915 11.0956 16.3541 11.1468 16.3377 11.2061L16.2342 11.5571C16.2162 11.6192 16.227 11.6669 16.2585 11.6867L16.8885 12.0539C16.857 12.0341 16.8462 11.9837 16.8651 11.9234L16.9677 11.5724C16.9856 11.5141 17.0228 11.4637 17.073 11.4293C17.0906 11.4193 17.1104 11.4138 17.1306 11.4131ZM18.1701 9.49156L18.4203 9.22606C18.4337 9.21124 18.4496 9.19877 18.4671 9.18916C18.4971 9.17236 18.5241 9.16996 18.5481 9.18196L17.9163 8.81656C17.8935 8.80276 17.8665 8.80516 17.8353 8.82376C17.8185 8.83326 17.8033 8.84542 17.7903 8.85976L17.5383 9.12436C17.4807 9.18556 17.4528 9.28186 17.4753 9.33586L18.1071 9.70216C18.0828 9.64726 18.1107 9.55186 18.1701 9.49156ZM19.9755 8.40166C19.9923 8.34167 20.0308 8.29004 20.0835 8.25676C20.0968 8.2474 20.1123 8.2418 20.1285 8.24056L20.2068 8.23336L20.439 8.36746C20.5713 8.37466 20.6964 8.39986 20.8242 8.42686C20.8433 8.39082 20.8716 8.36041 20.9061 8.33866C20.9295 8.32606 20.9529 8.31886 20.9727 8.32426L20.9871 8.33146L21.1797 8.44036L20.5497 8.07586L20.3571 7.96516H20.3553C20.3325 7.95316 20.3055 7.95556 20.2743 7.97236C20.2408 7.99496 20.2128 8.0248 20.1924 8.05966L20.1042 8.04166L19.7856 7.85536C19.7739 7.85039 19.7614 7.84793 19.7487 7.84816L19.4967 7.87516C19.4807 7.87587 19.4651 7.88084 19.4517 7.88956C19.4001 7.92402 19.362 7.97519 19.3437 8.03446L19.9755 8.40166ZM16.3125 13.2932C16.2432 13.3688 16.2135 13.4624 16.2396 13.5137L16.3449 13.745C16.3495 13.7573 16.3585 13.7676 16.3701 13.7738L17.0001 14.1401C16.9897 14.1324 16.9811 14.1226 16.9749 14.1113L16.8705 13.8809C16.8435 13.8287 16.8723 13.7342 16.9425 13.6604L16.3125 13.2932ZM16.0938 12.4616V12.7748C16.0938 12.8108 16.1064 12.8378 16.128 12.8486L16.758 13.2149C16.7376 13.2023 16.7262 13.178 16.7238 13.142V12.8288C16.7267 12.7865 16.7398 12.7455 16.7621 12.7095C16.7844 12.6734 16.8151 12.6433 16.8516 12.6218L16.2216 12.2546C16.146 12.2996 16.092 12.3887 16.0938 12.4616ZM19.0215 8.84896C19.0233 8.80873 19.0347 8.76952 19.0547 8.7346C19.0747 8.69968 19.1029 8.67008 19.1367 8.64826L19.4103 8.49076C19.4415 8.47336 19.4685 8.47036 19.4913 8.48176L18.8586 8.11726C18.8397 8.10466 18.8109 8.10646 18.7803 8.12446L18.5067 8.28106C18.4725 8.30267 18.4441 8.33219 18.4237 8.36712C18.4033 8.40205 18.3917 8.44137 18.3897 8.48176L19.0215 8.84896ZM17.7354 10.2179L17.1036 9.85066C17.0736 9.83386 17.0442 9.83506 17.0154 9.85426C16.9808 9.87518 16.9525 9.90503 16.9335 9.94066L16.74 10.2755C16.695 10.352 16.6977 10.4357 16.7418 10.4627L17.3718 10.8299C17.3268 10.8029 17.3268 10.7192 17.3718 10.6409L17.5635 10.3079C17.5829 10.2725 17.6111 10.2427 17.6454 10.2215C17.6742 10.2023 17.7042 10.2011 17.7354 10.2179Z" fill="#C177FF"/>
<path d="M17.3899 14.3731C17.3377 14.4631 17.3377 14.5486 17.3827 14.5756L17.5762 14.6845C17.6002 14.6971 17.6278 14.6944 17.659 14.6764C17.6729 14.6679 17.6856 14.6576 17.6968 14.6458C18.1198 13.771 18.4582 12.8521 18.9586 12.0196C19.3465 11.1871 19.8226 10.4014 20.3824 9.67238C20.5246 9.48788 20.6848 9.34658 20.8531 9.24488C20.9728 9.05948 21.0961 8.87588 21.2311 8.69948C21.2119 8.68088 21.1927 8.66258 21.1735 8.64458C21.2275 8.55188 21.2266 8.46728 21.1807 8.44118L20.9872 8.33138C20.9647 8.31788 20.935 8.32238 20.9062 8.33858C20.8714 8.35996 20.8429 8.39006 20.8234 8.42588C20.6968 8.39717 20.5684 8.37762 20.4391 8.36738C20.4661 8.27198 20.4391 8.20898 20.3788 8.21528L20.1268 8.24138C20.1107 8.24235 20.0951 8.24764 20.0818 8.25668C20.03 8.29007 19.9922 8.3413 19.9756 8.40068C19.8233 8.44937 19.6736 8.50615 19.5274 8.57078C19.5274 8.48348 19.4743 8.45378 19.4104 8.48978L19.1377 8.64818C19.1041 8.67023 19.0761 8.69974 19.0558 8.73439C19.0355 8.76905 19.0235 8.80792 19.0207 8.84798C18.8687 8.96657 18.721 9.09055 18.5779 9.21968C18.5554 9.16928 18.5122 9.16298 18.4663 9.18908C18.4494 9.19858 18.4342 9.21074 18.4213 9.22508L18.1693 9.49148C18.1108 9.55268 18.0829 9.64718 18.1063 9.70208C17.9794 9.87218 17.8525 10.0423 17.7373 10.2187C17.7058 10.1998 17.6761 10.2034 17.6464 10.2205C17.6116 10.2419 17.5831 10.272 17.5636 10.3078L17.3719 10.6408C17.3269 10.7191 17.3269 10.8028 17.3719 10.8298C17.2864 11.0242 17.2009 11.2177 17.1298 11.413C17.1102 11.414 17.0911 11.4195 17.074 11.4292C17.0223 11.4624 16.9846 11.5132 16.9678 11.5723L16.8643 11.9224C16.84 12.0052 16.8688 12.0664 16.9273 12.061C16.8947 12.2468 16.8695 12.4339 16.8517 12.6217C16.8152 12.6432 16.7845 12.6733 16.7622 12.7094C16.7399 12.7454 16.7268 12.7864 16.7239 12.8287L16.7248 13.1419C16.7248 13.2157 16.7788 13.2436 16.8418 13.2067C16.8697 13.3669 16.9003 13.5208 16.9426 13.6603C16.8733 13.735 16.8445 13.8286 16.8706 13.8808L16.975 14.1112C16.9939 14.1517 17.0371 14.158 17.083 14.1319C17.0998 14.1224 17.115 14.1102 17.128 14.0959C17.2096 14.1979 17.2969 14.29 17.3899 14.3722V14.3731Z" fill="#B76ADB"/>
<path d="M17.9848 14.021C18.2872 13.3424 18.5761 12.6566 18.9568 12.0212C19.3456 11.1878 19.8217 10.4012 20.3824 9.67221C20.5107 9.50203 20.6698 9.35735 20.8513 9.24561L20.8846 9.19251C20.5156 8.84511 19.9333 8.81721 19.2763 9.19611C18.1648 9.83781 17.2666 11.393 17.2693 12.6692C17.272 13.3757 17.5501 13.8473 17.9848 14.021Z" fill="#B76ADB"/>
<path d="M22.6171 6.52344L15.0085 16.7852L13.4695 21.4022L9.33936 30.3122H12.5623L17.8948 27.218L16.2514 23.5514L16.6222 20.7587L16.5403 17.4962L22.6171 6.52344Z" fill="#B255FF"/>
<path d="M22.6169 6.52344L18.9881 14.8358L20.348 21.3122L16.0091 27.659L12.563 30.3131L14.7122 32.6153L17.9522 29.7308L22.2263 22.5425L20.348 15.3542L22.6169 6.52344Z" fill="#C177FF"/>
<path d="M36.6472 24.8942L32.6692 20.2592L35.0272 24.824L34.8832 30.7415L37.0972 29.4023L36.6472 24.8942ZM26.8129 13.7081L31.1284 17.2469L32.6692 20.2592L31.5901 16.5728L27.9586 12.8972L26.6158 9.81474L22.6162 6.52344L25.804 10.4312L26.8129 13.7081Z" fill="#B255FF"/>
<path d="M1.88372 10.7894C1.77572 10.8488 1.62992 10.838 1.46972 10.7417C1.15022 10.55 0.898224 10.0955 0.905424 9.72469C0.909024 9.54199 0.975624 9.41329 1.08182 9.35479L11.3544 3.61279C11.2482 3.67129 11.1816 3.79909 11.178 3.98359C11.1708 4.35259 11.4228 4.80799 11.7423 4.99879C11.9025 5.09509 12.0483 5.10679 12.1563 5.04649L1.88372 10.7894Z" fill="#B255FF"/>
<path d="M13.1579 6.5024L12.2651 10.0718L11.7971 10.3445L11.8565 7.2566C11.861 7.0334 11.7845 6.7706 11.6459 6.5285L9.73974 3.2255C9.61463 3.00056 9.4332 2.81199 9.21324 2.6783L6.50244 1.1726L6.97044 0.899902L10.5128 1.9223C10.7198 2.0411 10.9043 2.2355 11.0393 2.4713L12.9446 5.7725C13.0841 6.0146 13.1624 6.2774 13.1579 6.5024Z" fill="#C177FF"/>
<path d="M9.21251 2.67855C9.41951 2.79735 9.60491 2.99175 9.73901 3.22665L11.6461 6.52875C11.7856 6.76995 11.8621 7.03275 11.8576 7.25775L11.7973 10.3448L10.9603 7.37115C10.9211 7.23845 10.8668 7.1107 10.7983 6.99045L8.91011 3.72165C8.84016 3.60139 8.7565 3.48964 8.66081 3.38865L6.50171 1.17285L9.21251 2.67855Z" fill="#7D00E6"/>
<path d="M11.7856 5.2543C11.6785 5.3137 11.5318 5.3029 11.3716 5.2066C11.0521 5.0149 10.8001 4.5604 10.8073 4.1896C10.8109 4.0069 10.8775 3.8782 10.9837 3.8197L11.7037 3.4165C11.5984 3.4759 11.5309 3.6037 11.5273 3.7882C11.5201 4.1572 11.773 4.6126 12.0916 4.8034C12.2518 4.8997 12.3985 4.9114 12.5056 4.8511L11.7856 5.2543Z" fill="#B255FF"/>
<path d="M12.0916 4.80306C12.4102 4.99476 12.6747 4.84986 12.6819 4.47996C12.6891 4.11006 12.4362 3.65556 12.1176 3.46386C11.799 3.27216 11.5344 3.41796 11.5272 3.78786C11.52 4.15686 11.773 4.61226 12.0916 4.80306Z" fill="#7D00E6"/>
<path d="M10.6705 12.5386L10.3555 13.5484L13.042 14.4664L10.6705 12.5386Z" fill="#C177FF"/>
<path d="M10.6704 12.5386L11.5668 12.1201L13.0428 14.4673L10.6704 12.5386Z" fill="#7D00E6"/>
<path d="M10.6705 12.5386L10.3555 13.5484L11.3167 13.0822L11.5669 12.1201L10.6705 12.5386Z" fill="#C177FF"/>
<path d="M9.29517 16.4468L9.73077 17.1191L10.9152 16.6322L9.29517 16.4468Z" fill="#C177FF"/>
<path d="M9.29517 16.4464L9.31767 15.8848L10.9152 16.6318L9.29517 16.4464Z" fill="#7D00E6"/>
<path d="M9.29517 16.4464L9.73077 17.1187L9.74607 16.5067L9.31767 15.8857L9.29517 16.4464Z" fill="#C177FF"/>
<path d="M17.9011 2.9834L16.9939 3.5279L18.3916 6.0002L17.9011 2.9834Z" fill="#C177FF"/>
<path d="M17.9011 2.9834L18.8488 3.2669L18.3916 6.0002L17.9011 2.9834Z" fill="#7D00E6"/>
<path d="M17.9011 2.9834L16.9939 3.5279L18.0226 3.8186L18.8488 3.2669L17.9011 2.9834Z" fill="#C177FF"/>
<path d="M16.1612 7.40137L15.344 7.87837L16.9919 8.75137L16.1612 7.40137Z" fill="#C177FF"/>
<path d="M16.1614 7.40149L17.1163 7.31689L16.9921 8.75239L16.1614 7.40149Z" fill="#7D00E6"/>
<path d="M16.1612 7.40149L15.344 7.87849L16.3772 7.77859L17.1161 7.31689L16.1612 7.40149Z" fill="#C177FF"/>
</g>
<defs>
<clipPath id="clip0_216_612">
<rect width="45" height="45" fill="white"/>
</clipPath>
</defs>
</svg>
