<svg width="36" height="41" viewBox="0 0 36 41" fill="none" xmlns="http://www.w3.org/2000/svg">
<path fill-rule="evenodd" clip-rule="evenodd" d="M2.10822 29.3518C2.10822 28.2789 2.1641 27.206 2.09806 26.1383C1.96088 23.8836 2.72803 21.9399 3.92193 20.1206C5.44606 17.7934 7.26993 15.7098 9.05316 13.595C9.71361 12.8124 10.3131 11.9623 11.1971 11.4078C11.4918 11.2212 11.7813 11.0035 12.1268 10.9672C12.5078 10.9257 12.5485 10.708 12.5536 10.3919C12.5637 9.16345 12.4215 7.92986 12.6349 6.71182C13.1683 3.67449 14.662 1.38872 17.5375 0.165501C18.0862 -0.0677409 18.5942 -0.0625577 19.1124 0.232882C22.0743 1.92259 23.7762 4.42087 23.8728 7.94541C23.8982 8.78508 23.8778 9.62993 23.8677 10.4748C23.8677 10.7288 23.8982 10.905 24.2182 10.9205C24.5383 10.9361 24.7822 11.1641 25.0362 11.3404C26.2504 12.18 27.1649 13.3307 28.0895 14.4606C29.8169 16.5805 31.5696 18.6797 32.9718 21.0484C33.7694 22.396 34.1962 23.8577 34.2013 25.4489C34.2114 28.2944 34.2622 31.14 34.1809 33.9804C34.1708 34.3017 34.308 34.4935 34.5112 34.706C35.7813 36.0381 35.8676 38.0543 34.7296 39.5678C33.6729 40.9776 31.7931 41.3819 30.2335 40.537C28.4705 39.5833 27.8101 37.1887 28.9176 35.3902C29.3596 34.6697 29.4917 33.9804 29.4511 33.1718C29.3901 32.0159 29.3901 30.8549 29.385 29.6939C29.385 29.3985 29.3088 29.3155 29.0091 29.3207C27.4087 29.3259 25.8084 29.3207 24.2081 29.2896C23.8067 29.2792 23.6797 29.4244 23.7102 29.7976C23.7203 29.9531 23.7356 30.1137 23.7203 30.2692C23.6797 30.658 23.8321 30.7668 24.2182 30.772C25.0971 30.7772 25.4731 31.1296 25.4172 31.9641C25.3258 33.3014 25.3969 34.6334 25.3867 35.9655C25.3766 37.8055 24.4418 39.1946 23.3393 40.4956C22.877 41.0398 21.9524 41.0087 21.4951 40.423C20.4486 39.0754 19.5544 37.6397 19.5798 35.8204C19.595 34.8563 19.5646 33.8871 19.6001 32.923C19.6204 32.4099 19.4172 32.1974 18.9803 31.9382C18.3097 31.5443 17.7712 31.7205 17.1869 32.0159C16.8973 32.1611 16.7602 32.3684 16.7652 32.7209C16.7805 33.8249 16.7805 34.9341 16.7551 36.0381C16.7144 37.8314 15.7695 39.2205 14.7178 40.537C14.3317 41.0191 13.5747 41.0243 13.1327 40.5837C11.9084 39.3605 11.0345 37.9403 10.9837 36.121C10.9431 34.7164 11.0244 33.3117 10.8618 31.9123C10.7856 31.2488 11.1869 30.886 11.9795 30.7357C12.2081 30.6942 12.5485 30.829 12.645 30.5958C12.7873 30.264 12.7263 29.8701 12.6907 29.5021C12.6704 29.2792 12.5028 29.3 12.3453 29.3C10.6738 29.3052 9.00743 29.3103 7.33597 29.3052C7.06671 29.3052 6.98034 29.3881 6.98034 29.668C6.98034 31.1763 6.9651 32.6898 6.9397 34.1981C6.93462 34.4468 7.04639 34.6283 7.16832 34.82C8.01675 36.1366 8.3165 37.5049 7.59508 38.9925C6.75173 40.734 4.68907 41.4856 2.94141 40.6718C1.19374 39.8632 0.340228 37.6967 1.08705 35.9344C1.22422 35.6131 1.36139 35.2606 1.59509 35.0222C2.08789 34.5246 2.1387 33.9544 2.1133 33.2962C2.06757 31.9797 2.09806 30.6631 2.09806 29.3466C2.10314 29.3518 2.10314 29.3518 2.10822 29.3518Z" fill="#000023"/>
<path fill-rule="evenodd" clip-rule="evenodd" d="M21.226 5.9707C21.5664 6.62896 21.5918 7.35979 21.5816 8.06988C21.475 15.0464 21.5613 22.0229 21.5054 28.9994C21.5004 29.4815 21.3733 29.6473 20.8907 29.6214C19.0363 29.5177 17.182 29.6059 15.3276 29.5955C15.4445 29.2482 15.7442 29.3519 15.9728 29.3519C17.2582 29.3363 18.5435 29.3467 19.8289 29.3415C20.0118 29.3415 20.1998 29.3674 20.4233 29.2327C19.3513 28.9891 18.8077 28.2427 18.4775 27.2786C18.4369 27.0817 18.5385 26.9417 18.6604 26.8121C19.0211 26.4182 19.1075 26.0036 18.7722 25.5423C18.7112 25.4593 18.6807 25.3557 18.701 25.2416C19.0922 24.6767 18.9347 24.1895 18.5639 23.6712C18.005 22.8937 17.751 21.9814 17.6799 21.0226C17.6646 20.7945 17.6494 20.5716 17.624 20.3436C17.5783 19.9393 17.4259 19.6438 17.0956 19.3795C16.425 18.8456 16.5368 17.6535 17.2582 17.2492C17.4716 17.4203 17.2887 17.5965 17.2582 17.7675C17.1668 18.2548 17.4259 18.7212 17.8933 18.8767C18.2743 19.0063 18.7468 18.7679 18.9398 18.3273C19.0821 18.0008 19.0008 17.7209 18.7823 17.4566C18.6452 17.2907 18.4013 17.1974 18.4064 16.9279C18.6909 15.8083 18.3708 15.2693 17.2582 14.9686C17.1363 14.9375 16.9076 14.9635 17.0143 14.6939C17.4208 14.497 17.8577 14.6162 18.2794 14.5903C18.635 14.5695 19.0008 14.6162 19.3564 14.5436C19.8492 14.4452 20.0575 14.1912 20.027 13.7195C20.0016 13.2893 19.7628 13.025 19.2954 13.0094C18.3759 12.9835 17.4462 12.885 16.5673 13.2945C16.2828 13.1545 16.4555 12.9783 16.5622 12.8487C16.7908 12.5637 17.055 12.3149 17.3395 12.0868C17.8323 11.6825 17.8323 11.6514 17.3649 11.216C17.2684 11.1279 17.248 11.045 17.375 10.9673C17.7408 10.8377 18.1219 10.9102 18.4927 10.8947C18.7976 10.8843 19.1075 10.8999 19.4123 10.8169C19.9051 10.6874 20.0677 10.4593 20.0321 9.95654C19.9965 9.49006 19.8187 9.37085 19.2853 9.29828C18.7214 9.22054 18.127 9.32938 17.5935 9.03394C17.9136 8.59856 18.3607 8.84217 18.7518 8.80588C19.3818 9.05986 19.8797 8.8318 20.3166 8.35495C20.8348 7.78999 21.4038 7.25094 21.1193 6.34907C21.0685 6.21949 21.0939 6.064 21.226 5.9707Z" fill="white"/>
<path fill-rule="evenodd" clip-rule="evenodd" d="M31.6662 23.4585C31.9964 24.1116 31.9914 24.1064 31.3207 24.1116C28.999 24.122 26.6823 24.1323 24.3606 24.1531C24.0405 24.1582 23.8119 24.1634 23.8119 23.7073C23.822 20.4834 23.8017 17.2543 23.7966 14.0304C23.7966 13.7608 23.7611 13.4706 23.8982 13.2114C24.0608 13.2425 24.1421 13.3462 24.2031 13.4758C24.1726 13.6675 24.1065 13.849 24.0761 14.0407C23.944 14.9685 23.9897 15.7719 24.7822 16.4975C26.3165 17.897 27.6476 19.509 28.9685 21.1209C29.4308 21.6807 29.9592 22.1886 30.4367 22.7381C30.7619 23.1061 31.1683 23.3808 31.6662 23.4585Z" fill="white"/>
<path fill-rule="evenodd" clip-rule="evenodd" d="M12.5435 15.7925C12.5639 18.4359 12.5842 21.0793 12.6096 23.7175C12.6096 23.9663 12.5893 24.1477 12.254 24.1477C9.97285 24.1425 7.68666 24.1529 5.40555 24.1581C5.37506 24.1581 5.3395 24.1373 5.30902 24.127C5.2887 24.0959 5.27345 24.0544 5.29378 24.0337C6.69089 22.344 8.09817 20.6646 9.55117 19.0216C10.2065 18.2804 10.801 17.4926 11.4309 16.7358C11.7459 16.3574 12.0406 15.948 12.5435 15.7925Z" fill="white"/>
<path fill-rule="evenodd" clip-rule="evenodd" d="M17.314 17.2802C16.7297 17.8452 16.5265 18.944 17.1412 19.2498C17.7814 19.5712 17.7712 20.1413 17.7864 20.6648C17.8322 21.8362 18.1471 22.8884 18.8178 23.8421C19.2852 24.5107 19.2598 24.6507 18.7009 25.2934C18.6755 25.3141 18.6399 25.3504 18.6145 25.34C17.7864 25.1483 17.314 25.5836 17.0142 26.3041C16.6129 26.7654 16.181 27.1904 15.7035 27.5636C15.5358 27.6932 15.3732 27.8331 15.1497 27.7035C14.9516 27.5895 14.8601 27.4081 14.8652 27.1801C14.8804 26.812 14.8195 26.444 14.9007 26.0812C14.9007 24.7595 14.9058 23.4378 14.9058 22.1161C15.1548 22.1472 15.1649 21.9814 15.1853 21.7948C15.2919 20.9136 15.3986 20.0377 15.4037 19.141C15.4037 18.2132 15.988 17.6171 16.7145 17.1558C16.9075 17.0366 17.1311 16.9952 17.3546 17.1092C17.4359 17.1869 17.4206 17.244 17.314 17.2802Z" fill="white"/>
<path fill-rule="evenodd" clip-rule="evenodd" d="M17.4155 17.1712C16.5264 17.1609 15.5154 18.1249 15.5459 19.0372C15.5764 20.0427 15.4036 21.0223 15.3224 22.0123C15.3071 22.1626 15.2411 22.3077 15.2004 22.4581C14.9718 22.4425 15.0683 22.173 14.9108 22.116C14.8702 21.2504 14.855 20.39 14.9058 19.5244C14.8295 17.8295 14.8448 16.1294 14.8956 14.4345C14.9261 13.4757 14.9718 12.5116 14.9718 11.5527C14.9667 10.3865 15.3986 10.1222 16.4451 10.6405C16.7093 10.8167 17.0345 10.8634 17.2986 11.0448C17.3596 11.1484 17.4714 11.1329 17.5628 11.1692C17.954 11.3143 18.0302 11.6097 17.7305 11.9155C17.3952 12.2576 17.0294 12.5634 16.6839 12.89C16.5721 12.9936 16.4553 13.1025 16.4807 13.2839C16.5772 13.372 16.6128 13.4964 16.5975 13.6104C16.5467 14.051 16.7245 14.4034 16.9887 14.73C17.3952 14.9062 17.8676 14.8492 18.2334 15.2068C18.65 15.6163 18.7974 16.6063 18.4265 16.9536C18.1064 17.1401 17.761 17.1609 17.4155 17.1712Z" fill="white"/>
<path fill-rule="evenodd" clip-rule="evenodd" d="M12.5432 15.7928C10.5466 17.8039 8.90564 20.1311 6.96492 22.1888C6.60421 22.5724 6.22318 22.9663 6.03012 23.4898C5.90311 23.8267 5.53224 23.8941 5.3087 24.1325C5.03944 24.1636 4.65841 24.3243 4.52632 24.1325C4.3739 23.9044 4.62793 23.5779 4.74986 23.3188C5.52208 21.6757 6.59405 20.24 7.71682 18.8405C9.13934 17.0834 10.5111 15.2797 12.0403 13.6107C12.1571 13.4863 12.2282 13.3153 12.4213 13.2168C12.5534 14.1135 12.6245 14.948 12.5432 15.7928Z" fill="white"/>
<path fill-rule="evenodd" clip-rule="evenodd" d="M31.6662 23.4583C31.5239 23.6657 31.3664 23.5464 31.214 23.4739C30.7822 23.2717 30.4418 22.9556 30.1268 22.6031C28.1607 20.3795 26.2911 18.0679 24.1624 15.9998C24.0252 15.865 23.9033 15.7251 23.9084 15.5074C23.9185 14.9113 23.8728 14.3153 23.9998 13.7244C24.0303 13.5896 24.0658 13.4963 24.2081 13.4756C24.9752 14.2064 25.6357 15.0357 26.3063 15.8547C27.6577 17.5133 28.9786 19.1926 30.2386 20.9186C30.8127 21.7064 31.3258 22.5357 31.6662 23.4583Z" fill="white"/>
<path fill-rule="evenodd" clip-rule="evenodd" d="M16.4807 10.8325C16.3944 10.7807 16.308 10.7133 16.2166 10.677C15.3986 10.3246 15.1395 10.5164 15.1141 11.413C15.0379 14.1186 14.8296 16.8139 14.9007 19.5247C14.8804 19.3536 14.8499 19.1774 14.8499 19.0063C14.8296 15.2382 14.8144 11.4649 14.8042 7.69672C14.8042 7.43756 14.7636 7.16804 14.9058 6.92443C15.1497 7.13694 14.982 7.46348 15.1293 7.7641C15.7085 7.29762 16.2877 6.85187 16.7703 6.29727C16.9583 6.07958 16.938 5.77377 16.9431 5.49388C16.9634 4.67495 16.8973 3.85601 16.9888 3.03707C17.3698 2.85048 17.2022 3.20293 17.2022 3.29623C17.2072 4.20846 17.2276 5.1207 17.1666 6.02775C17.0955 7.01773 17.4054 7.16804 18.2741 7.26134C18.5282 7.28725 18.7873 7.23542 19.0413 7.21987C19.0565 7.56196 18.7771 7.44793 18.6145 7.49976C18.4519 7.54641 18.2386 7.55678 18.2182 7.75892C18.1928 7.97661 18.4113 8.01289 18.5637 8.07509C18.9143 8.22022 19.275 8.30315 19.6611 8.2565C19.8084 8.24095 19.9659 8.18912 20.1031 8.30315C20.0574 8.76445 19.7068 8.85256 19.3512 8.93031C19.1835 8.96659 19.0159 8.89403 18.8482 8.94068C18.4367 8.99769 18.0049 8.81628 17.6086 9.05471C17.5781 9.14282 17.5121 9.19983 17.4308 9.23093C16.6027 9.57302 16.5315 9.68187 16.5468 10.6252C16.5366 10.7081 16.5214 10.7703 16.4807 10.8325Z" fill="white"/>
<path fill-rule="evenodd" clip-rule="evenodd" d="M14.9005 26.0811C14.9056 26.4128 14.9208 26.7497 14.9107 27.0814C14.9056 27.3457 15.0428 27.522 15.2409 27.636C15.4492 27.7552 15.5356 27.522 15.6524 27.4183C16.1046 27.0244 16.5466 26.6253 16.9886 26.2314C17.2781 26.4335 17.3899 26.8171 17.7405 26.9622C17.9945 27.071 18.2841 26.9726 18.5127 27.1436C18.5838 27.2628 18.6854 27.3717 18.7261 27.5012C18.9902 28.2839 19.4576 28.8333 20.2959 28.9784C20.3772 28.994 20.4534 29.051 20.5245 29.0976C20.6261 29.165 20.7633 29.2428 20.743 29.3672C20.7074 29.5641 20.5245 29.4916 20.4026 29.4916C18.8886 29.4967 17.3797 29.4916 15.8658 29.4967C15.6829 29.4967 15.4847 29.4294 15.3273 29.5952C15.0783 29.6626 14.8294 29.7248 14.8345 29.3205C14.8345 28.2424 14.7887 27.1591 14.9005 26.0811Z" fill="white"/>
<path fill-rule="evenodd" clip-rule="evenodd" d="M8.43836 27.1696C7.21906 27.1696 5.99976 27.1541 4.78046 27.18C4.42991 27.1852 4.29274 27.0919 4.28257 26.7239C4.27241 26.3248 4.48579 26.3144 4.7703 26.3196C7.24446 26.3248 9.71355 26.3248 12.1877 26.3196C12.4367 26.3196 12.6754 26.2937 12.6805 26.6721C12.6856 27.0401 12.5027 27.1074 12.1979 27.1023C10.943 27.0919 9.69323 27.0971 8.43836 27.0971V27.1696Z" fill="white"/>
<path fill-rule="evenodd" clip-rule="evenodd" d="M16.9837 3.04199C17.1869 3.29078 17.0802 3.58104 17.0853 3.85056C17.0954 6.31256 17.0903 6.31256 15.2665 7.8986C15.1903 7.96598 15.1242 8.08001 15.0125 8.04373C14.8905 8.00226 14.9261 7.8675 14.921 7.76902C14.9108 7.48913 14.9108 7.20924 14.9058 6.92935C15.0887 5.74241 15.4951 4.66432 16.3283 3.78318C16.5569 3.54476 16.7652 3.29078 16.9837 3.04199Z" fill="white"/>
<path fill-rule="evenodd" clip-rule="evenodd" d="M27.871 27.1074C26.6669 27.1074 25.4628 27.1022 24.2588 27.1126C23.9692 27.1126 23.7761 27.0866 23.7609 26.7083C23.7457 26.2833 23.9997 26.3144 24.2639 26.3247C26.672 26.3921 29.075 26.3506 31.4832 26.3506C31.6762 26.3506 31.9709 26.2366 32.0268 26.5787C32.0826 26.9156 32.0217 27.1385 31.5848 27.1281C30.3451 27.1022 29.1106 27.1177 27.871 27.1177V27.1074Z" fill="white"/>
<path fill-rule="evenodd" clip-rule="evenodd" d="M14.5503 34.3794C14.5503 35.2502 14.6621 36.1313 14.2353 36.9606C14.0372 37.3493 13.8645 37.3545 13.5901 37.0643C13.3158 36.7792 13.2193 36.4319 13.2142 36.0587C13.1939 35.0739 13.1989 34.0943 13.1735 33.1095C13.1684 32.8193 13.265 32.726 13.5546 32.7052C14.5198 32.6379 14.5198 32.6223 14.5554 33.5916C14.5605 33.8507 14.5503 34.1151 14.5503 34.3794Z" fill="white"/>
<path fill-rule="evenodd" clip-rule="evenodd" d="M23.1668 34.4519C23.1668 34.9598 23.1718 35.4678 23.1668 35.9809C23.1668 36.266 23.0855 36.5303 22.928 36.7739C22.5774 37.313 22.298 37.313 21.9881 36.7584C21.9068 36.6081 21.8509 36.4318 21.8357 36.2608C21.729 35.1568 21.7341 34.0528 21.8052 32.9488C21.8204 32.7259 21.8865 32.6585 22.1151 32.6585C23.1871 32.6533 23.1871 32.643 23.1922 33.7159V34.4519H23.1668Z" fill="white"/>
<path fill-rule="evenodd" clip-rule="evenodd" d="M18.8379 8.94561C19.2545 8.74347 19.8337 8.87305 20.0775 8.31327C20.0216 8.01265 20.2807 7.89862 20.4281 7.72757C20.6313 7.49433 20.8701 7.29219 20.9869 6.99157C21.0428 6.84125 21.0784 6.67539 20.9259 6.56655C20.7786 6.46289 20.6719 6.59246 20.5703 6.68058C20.3468 6.87235 20.1232 7.05895 19.8235 7.10041C19.732 7.11596 19.6558 7.08486 19.6254 6.9812C19.7371 6.46289 19.7422 5.95494 19.5796 5.44181C19.4577 5.05825 19.5746 4.67988 19.7727 4.34298C19.9505 4.04754 20.1639 3.95424 20.3976 4.30151C20.7685 4.80946 21.0733 5.34851 21.2257 5.97049C21.2206 6.0586 21.1952 6.1519 21.2155 6.22964C21.5864 7.46323 20.7786 8.10076 20.0115 8.77975C19.6406 9.11147 19.2596 9.11666 18.8379 8.94561Z" fill="white"/>
<path fill-rule="evenodd" clip-rule="evenodd" d="M19.6613 7.04365C20.0067 6.97627 20.2862 6.79486 20.53 6.5357C20.657 6.40094 20.7993 6.20916 20.9974 6.39057C21.1651 6.54089 21.2464 6.73785 21.1397 6.997C20.9517 7.45312 20.5707 7.72264 20.2658 8.06991C20.1998 8.14766 20.1388 8.23059 20.0779 8.31352C19.4784 8.5364 18.9043 8.39645 18.3404 8.15803C18.1575 8.08028 17.8882 7.98698 17.9695 7.74338C18.0305 7.5516 18.2337 7.3961 18.4775 7.37019C18.6655 7.34946 18.8992 7.46349 19.0364 7.23024C19.0669 7.14213 19.1431 7.13695 19.2193 7.14213C19.3717 7.1214 19.4784 6.89852 19.6613 7.04365Z" fill="white"/>
<path fill-rule="evenodd" clip-rule="evenodd" d="M4.27753 31.653V29.7611C4.27753 29.5331 4.30802 29.3258 4.59252 29.3258C4.91767 29.3206 4.81098 29.5849 4.81606 29.7508C4.88211 30.9792 4.86686 32.2024 4.81606 33.4308C4.8059 33.6381 4.87194 33.9232 4.5214 33.9336C4.14036 33.9439 4.24705 33.6485 4.24197 33.4464C4.22673 32.8503 4.23689 32.2542 4.23689 31.6582C4.25213 31.653 4.26737 31.653 4.27753 31.653Z" fill="white"/>
<path fill-rule="evenodd" clip-rule="evenodd" d="M32.0778 31.6635V33.5554C32.0778 33.7161 32.0727 33.8716 31.839 33.8767C31.6053 33.8819 31.5494 33.7472 31.5494 33.545L31.5342 29.7043C31.5342 29.5074 31.5748 29.3622 31.8187 29.3726C32.0575 29.3778 32.093 29.5229 32.093 29.7199C32.0879 30.3678 32.093 31.0156 32.093 31.6687C32.0829 31.6635 32.0829 31.6635 32.0778 31.6635Z" fill="white"/>
<path fill-rule="evenodd" clip-rule="evenodd" d="M19.661 7.04372L19.219 7.13701C19.4222 6.91932 19.3816 6.66017 19.3562 6.39582C19.2444 5.28145 19.1682 4.17225 19.2546 2.94385C19.727 3.3896 20.169 3.74724 20.3976 4.30702C20.1589 4.11524 19.9811 4.15152 19.854 4.44696C19.6965 4.82015 19.5899 5.18815 19.7524 5.6028C19.9455 6.08484 19.9506 6.57723 19.661 7.04372Z" fill="white"/>
<path fill-rule="evenodd" clip-rule="evenodd" d="M31.8543 36.6547C31.5799 36.6547 31.3056 36.6496 31.0262 36.6547C30.6654 36.6651 30.6451 36.4992 30.8128 36.2401C31.2395 35.5818 32.5858 35.6077 32.9872 36.2712C33.1396 36.5303 33.1599 36.6962 32.784 36.6807C32.4741 36.6651 32.1642 36.6755 31.8543 36.6755V36.6547Z" fill="white"/>
<path fill-rule="evenodd" clip-rule="evenodd" d="M5.71044 36.6551H3.49538C3.37853 36.6551 3.22611 36.6758 3.18039 36.5411C3.13467 36.4115 3.2566 36.3234 3.3328 36.2353C3.99326 35.4941 5.26336 35.6755 5.71044 36.6551Z" fill="white"/>
<path fill-rule="evenodd" clip-rule="evenodd" d="M32.0422 38.9564C31.7527 38.889 31.4377 38.8994 31.1684 38.7283C31.082 38.6765 30.9804 38.6039 30.9957 38.4899C31.016 38.3655 31.1379 38.3603 31.2395 38.3603C31.7019 38.3551 32.1591 38.3551 32.6214 38.3603C32.7027 38.3603 32.8043 38.35 32.8399 38.4484C32.8805 38.5677 32.784 38.635 32.7129 38.7076C32.5249 38.889 32.2912 38.9253 32.0422 38.9564Z" fill="white"/>
<path fill-rule="evenodd" clip-rule="evenodd" d="M5.4763 38.4795C4.98858 38.8942 4.15031 39.0186 3.70323 38.7801C3.5813 38.7128 3.42889 38.6454 3.47461 38.4795C3.51018 38.3292 3.66767 38.3707 3.78452 38.3655C4.32813 38.3499 4.87173 38.3603 5.4763 38.4795Z" fill="white"/>
<path fill-rule="evenodd" clip-rule="evenodd" d="M16.4805 10.8322C16.2011 9.80076 16.5212 9.28763 17.5982 9.05957C18.213 9.08549 18.8328 9.12695 19.4475 9.13732C19.9403 9.14768 20.1588 9.42239 20.2045 9.88369C20.2604 10.4849 20.0673 10.8167 19.5999 10.9411C18.8379 11.138 18.0606 11.0188 17.2934 11.0447C16.9987 11.0603 16.7142 11.0447 16.4805 10.8322Z" fill="#000122"/>
<path fill-rule="evenodd" clip-rule="evenodd" d="M16.9788 14.7354C16.2015 14.471 16.4403 13.8439 16.4708 13.2893C16.6791 13.0612 16.9433 12.9576 17.243 12.9109C17.939 12.8072 18.6452 12.7865 19.3463 12.8383C19.9204 12.8798 20.1643 13.1753 20.1694 13.7609C20.1795 14.4088 20.0169 14.6473 19.392 14.6887C18.5893 14.7457 17.7816 14.725 16.9788 14.7354Z" fill="#00012A"/>
<path fill-rule="evenodd" clip-rule="evenodd" d="M17.4156 17.1712C17.7051 16.8965 18.0659 16.9587 18.4164 16.9587C18.5485 17.0675 18.6958 17.1608 18.8127 17.2852C19.2039 17.6895 19.2598 18.2234 18.9498 18.6017C18.579 19.063 18.1014 19.1978 17.695 18.9542C17.1158 18.6069 16.9228 18.099 17.1615 17.5547C17.2022 17.4614 17.2631 17.3733 17.3139 17.2852C17.3495 17.2438 17.38 17.2075 17.4156 17.1712Z" fill="#000236"/>
<path fill-rule="evenodd" clip-rule="evenodd" d="M18.5178 27.1439C17.6948 27.2735 17.2528 27.0092 16.9937 26.2265C17.3188 25.2313 17.6389 25.0551 18.7058 25.2935C19.3306 26.014 19.2849 26.4494 18.5178 27.1439Z" fill="#00022D"/>
</svg>
