<svg width="33" height="32" viewBox="0 0 33 32" fill="none" xmlns="http://www.w3.org/2000/svg">
<path d="M16.5188 0C17.0547 0.124377 17.0547 0.124377 17.2464 0.344204C17.7614 1.21626 18.1491 2.11849 18.5214 3.06159C18.6526 3.38834 18.7841 3.71502 18.9157 4.04165C19.0142 4.28729 19.0142 4.28729 19.1148 4.53789C19.4684 5.41153 19.8364 6.27886 20.2057 7.14573C20.4429 7.70384 20.6774 8.26121 20.89 8.82957C20.9523 8.99414 21.0145 9.15871 21.0786 9.32827C21.1275 9.46443 21.1764 9.60058 21.2267 9.74087C21.4785 10.1821 21.7218 10.3057 22.1692 10.5338C22.6419 10.633 22.6419 10.633 23.1582 10.6683C23.353 10.686 23.5479 10.7037 23.7487 10.7219C23.9587 10.739 24.1686 10.756 24.3786 10.773C24.5944 10.7918 24.8102 10.8108 25.0259 10.83C25.678 10.8872 26.3304 10.9406 26.9829 10.993C27.1765 11.0086 27.3701 11.0242 27.5696 11.0403C28.2558 11.0951 28.942 11.1495 29.6284 11.2002C30.0504 11.2315 30.4722 11.2647 30.894 11.2992C31.0234 11.3092 31.1527 11.3193 31.286 11.3297C31.4062 11.3407 31.5264 11.3518 31.6503 11.3631C31.7548 11.3723 31.8593 11.3814 31.967 11.3908C32.4882 11.5048 32.7142 11.7813 33 12.2176C32.9851 12.8049 32.9059 13.0698 32.5258 13.5176C32.3184 13.6982 32.3184 13.6982 32.1068 13.8824C32.0323 13.9482 31.9577 14.014 31.8808 14.0818C31.2965 14.5933 30.6946 15.083 30.089 15.568C29.3791 16.1445 28.69 16.7464 27.9992 17.3462C27.7227 17.5861 27.4456 17.8254 27.1686 18.0646C26.9813 18.2268 26.7941 18.389 26.6068 18.5513C26.5203 18.6259 26.4338 18.7006 26.3446 18.7775C26.181 18.9198 26.0184 19.0633 25.8571 19.2083C25.6388 19.4036 25.4154 19.5929 25.1919 19.7819C24.8347 20.1598 24.8347 20.1598 24.8135 20.6854C24.8817 21.2919 24.9928 21.8739 25.1402 22.4644C25.1675 22.5784 25.1949 22.6923 25.2231 22.8098C25.3069 23.1574 25.3925 23.5046 25.4786 23.8517C25.5256 24.0411 25.5725 24.2305 25.6208 24.4257C25.667 24.612 25.7131 24.7983 25.7607 24.9902C26.038 26.1141 26.3063 27.2401 26.5692 28.3675C26.6099 28.5375 26.6506 28.7075 26.6926 28.8826C27.2013 31.0872 27.2013 31.0872 26.8231 31.8118C26.3638 32.053 25.9891 32.0042 25.4786 31.9649C25.0062 31.7347 25.0062 31.7347 24.5385 31.4195C24.4542 31.3639 24.37 31.3082 24.2831 31.2509C24.0286 31.0825 23.7758 30.9114 23.5231 30.7402C23.2477 30.561 22.9719 30.3824 22.6957 30.2045C22.5613 30.117 22.427 30.0296 22.2885 29.9396C21.6789 29.5465 21.0633 29.1635 20.4481 28.7795C19.8354 28.3963 19.2253 28.009 18.6154 27.6212C18.512 27.5556 18.4086 27.4899 18.3021 27.4222C17.8828 27.1554 17.4662 26.8863 17.0547 26.6071C16.0173 26.4855 15.4987 26.7384 14.6667 27.3438C14.4409 27.5002 14.2148 27.6563 13.9886 27.812C13.8735 27.8921 13.7585 27.9722 13.64 28.0547C12.9892 28.4991 12.3162 28.9063 11.6451 29.3178C11.0071 29.7102 10.376 30.1109 9.75016 30.5232C9.53877 30.6609 9.53877 30.6609 9.32312 30.8013C9.04934 30.9799 8.77672 31.1604 8.50546 31.3429C7.75711 31.8278 7.26726 32.1016 6.37436 31.9649C6.0735 31.7448 6.0735 31.7448 5.92308 31.3526C6.00143 30.1875 6.24679 29.0653 6.49658 27.9274C6.53391 27.7506 6.57124 27.5738 6.6097 27.3916C7.36595 23.9217 7.36595 23.9217 8.79119 22.9129C8.96552 22.8095 9.14089 22.7079 9.31709 22.6079C9.5185 22.4892 9.71985 22.3704 9.92115 22.2515C10.0285 22.1889 10.1358 22.1262 10.2464 22.0617C10.9844 21.6274 11.713 21.1769 12.4428 20.7287C13.0867 20.3336 13.7323 19.9427 14.3834 19.5601C14.6314 19.412 14.8794 19.2639 15.1274 19.1158C15.3017 19.0156 15.3017 19.0156 15.4795 18.9134C16.1048 18.5505 16.1048 18.5505 16.4606 17.9384C16.4701 17.5522 16.4701 17.5522 16.3026 17.1162C14.732 17.1822 13.188 17.2873 11.6299 17.5031C10.8032 17.6041 9.97749 17.6492 9.1461 17.6908C8.70717 17.7229 8.30794 17.7909 7.87863 17.8816C6.55417 18.0061 5.55408 17.837 4.50988 16.9703C4.25612 16.7377 4.00529 16.5017 3.75716 16.2629C3.36393 15.8898 2.95736 15.5455 2.53846 15.2027C2.26261 14.9732 1.98683 14.7435 1.71111 14.5138C1.49645 14.338 1.49645 14.338 1.27746 14.1586C0.131098 13.1782 0.131097 13.1782 0 12.5525C0.0564103 12.0646 0.0564103 12.0646 0.300455 11.7372C0.755814 11.3744 1.04937 11.35 1.62348 11.3033C1.8193 11.2859 2.01511 11.2686 2.21685 11.2507C2.43021 11.2345 2.64358 11.2184 2.85694 11.2023C3.07654 11.1836 3.29611 11.1646 3.51566 11.1453C4.09332 11.0953 4.67118 11.0484 5.24917 11.0023C6.17317 10.9282 7.09682 10.8498 8.02041 10.7706C8.34212 10.7435 8.66393 10.718 8.98579 10.6928C9.18255 10.6764 9.37931 10.66 9.58203 10.6431C9.75459 10.6293 9.92714 10.6155 10.1049 10.6013C10.6033 10.5314 11.0255 10.4271 11.4889 10.2276C11.704 9.86816 11.8446 9.57271 11.9872 9.18476C12.0764 8.96049 12.1657 8.73625 12.2551 8.51205C12.3015 8.39254 12.3478 8.27303 12.3956 8.1499C12.6475 7.51011 12.921 6.87978 13.1906 6.24755C13.5672 5.35796 13.9364 4.46581 14.2953 3.56866C14.3619 3.40291 14.4286 3.23715 14.4973 3.06637C14.6263 2.74471 14.7542 2.42262 14.881 2.10006C15.6398 0.211419 15.6398 0.211419 16.5188 0Z" fill="#FFD800"/>
</svg>
