<svg width="37" height="37" viewBox="0 0 37 37" fill="none" xmlns="http://www.w3.org/2000/svg">
<g clip-path="url(#clip0_471_1942)">
<path d="M9.79199 17.416H27.208C27.8067 17.416 28.292 16.9307 28.292 16.332V1.08398C28.292 0.485336 27.8067 0 27.208 0H21.9326V5.41992C21.9326 6.01857 21.4473 6.50391 20.8486 6.50391H16.1514C15.5527 6.50391 15.0674 6.01857 15.0674 5.41992V0H9.79199C9.19334 0 8.70801 0.485336 8.70801 1.08398V16.332C8.70801 16.9307 9.19334 17.416 9.79199 17.416ZM21.4268 12.3574H23.5947C24.1934 12.3574 24.6787 12.8428 24.6787 13.4414C24.6787 14.0401 24.1934 14.5254 23.5947 14.5254H21.4268C20.8281 14.5254 20.3428 14.0401 20.3428 13.4414C20.3428 12.8428 20.8281 12.3574 21.4268 12.3574Z" fill="white"/>
<path d="M17.2354 0H19.7646V4.33594H17.2354V0ZM7.44336 19.584H9.97266V23.9199H7.44336V19.584ZM27.0273 19.584H29.5566V23.9199H27.0273V19.584Z" fill="white"/>
<path d="M12.1406 25.0039C12.1406 25.6026 11.6553 26.0879 11.0566 26.0879H6.35938C5.76073 26.0879 5.27539 25.6026 5.27539 25.0039V19.584H1.08398C0.485336 19.584 0 20.0693 0 20.668V35.916C0 36.5147 0.485336 37 1.08398 37H17.416V19.584H12.1406V25.0039ZM14.8867 33.0254C14.8867 33.624 14.4014 34.1094 13.8027 34.1094H11.6348C11.0361 34.1094 10.5508 33.624 10.5508 33.0254C10.5508 32.4267 11.0361 31.9414 11.6348 31.9414H13.8027C14.4014 31.9414 14.8867 32.4267 14.8867 33.0254ZM35.916 19.584H31.7246V25.0039C31.7246 25.6026 31.2393 26.0879 30.6406 26.0879H25.9434C25.3447 26.0879 24.8594 25.6026 24.8594 25.0039V19.584H19.584V37H35.916C36.5147 37 37 36.5147 37 35.916V20.668C37 20.0693 36.5147 19.584 35.916 19.584ZM33.3867 34.1094H31.2188C30.6201 34.1094 30.1348 33.624 30.1348 33.0254C30.1348 32.4267 30.6201 31.9414 31.2188 31.9414H33.3867C33.9854 31.9414 34.4707 32.4267 34.4707 33.0254C34.4707 33.624 33.9854 34.1094 33.3867 34.1094Z" fill="white"/>
</g>
<defs>
<clipPath id="clip0_471_1942">
<rect width="37" height="37" fill="white"/>
</clipPath>
</defs>
</svg>
