<svg width="306" height="61" viewBox="0 0 306 61" fill="none" xmlns="http://www.w3.org/2000/svg">
<path d="M20.5266 60.6686C13.7001 60.6686 6.87371 60.6686 0.027832 60.6686C0.027832 52.73 0.027832 8.05727 0.027832 0.118652C6.85426 0.118652 13.7001 0.118652 20.5266 0.118652C20.5266 0.190822 20.5266 0.262991 20.5266 0.33516C20.5266 8.12944 20.5266 52.6939 20.5266 60.4521C20.5266 60.5243 20.5266 60.5965 20.5266 60.6686Z" fill="#A792BC"/>
<path d="M277.694 60.6686C271.763 60.6686 265.85 60.6686 259.918 60.6686C259.918 60.5965 259.918 60.4882 259.918 60.4161C259.918 52.6579 259.918 8.12944 259.918 0.371245C259.918 0.299075 259.918 0.190822 259.918 0.118652C265.85 0.118652 271.763 0.118652 277.694 0.118652C277.753 0.190822 277.733 0.299075 277.733 0.371245C277.733 8.12944 277.733 52.6579 277.733 60.38C277.733 60.4161 277.733 60.4882 277.733 60.5243C277.733 60.5965 277.714 60.6326 277.694 60.6686Z" fill="#A792BC"/>
<path d="M247.199 60.6688C242.959 60.6688 238.719 60.6688 234.479 60.6688C234.479 60.5966 234.46 60.5245 234.46 60.4523C234.46 59.8388 234.46 22.4552 234.46 21.8417C234.46 21.2644 234.46 20.687 234.46 20.1097C234.46 20.0736 234.46 20.0014 234.441 19.9653C234.441 19.9293 234.363 19.9293 234.304 19.9293C234.246 19.9293 234.168 19.9293 234.11 19.9293C233.643 19.9293 233.176 19.9293 232.69 19.9293C232.496 19.9293 232.321 19.9293 232.126 19.9293C231.951 19.9293 231.912 19.8932 231.893 19.8571C231.893 19.7849 231.893 19.7488 231.893 19.6767C231.893 18.522 231.893 17.3672 231.893 16.2125C231.893 16.1404 231.893 16.1043 231.893 16.0321C231.893 15.996 231.854 15.996 231.854 15.9599C231.815 15.9599 231.776 15.9599 231.737 15.9599C230.94 15.9599 230.123 15.9599 229.326 15.9599C229.326 15.8878 229.345 15.8156 229.345 15.7795C229.345 14.5887 229.345 13.3979 229.345 12.2071C229.345 12.135 229.345 12.0989 229.326 12.0267H229.306C229.501 11.9906 229.715 12.0267 229.909 12.0267C232.904 12.0267 235.899 12.0267 238.894 12.0267C239.05 12.0267 239.205 12.0267 239.342 12.0267C239.38 12.0267 239.439 12.0267 239.478 12.0628C239.556 12.135 239.517 12.2071 239.517 12.2793C239.517 14.7331 239.517 17.2229 239.517 19.6767C239.517 19.7488 239.517 19.7849 239.517 19.8571C239.517 19.8571 239.517 19.8932 239.536 19.8932C239.536 19.9293 239.614 19.9293 239.672 19.9293C239.808 19.9293 239.944 19.9293 240.081 19.9293C241.403 19.9293 242.745 19.9293 244.068 19.9293C244.165 19.9293 244.262 19.9293 244.379 19.9293C244.554 19.9293 244.632 19.8932 244.632 19.8571C244.632 19.7849 244.632 19.7127 244.632 19.6767C244.632 17.2229 244.632 14.7692 244.632 12.3154C244.632 12.2793 244.632 12.2432 244.632 12.2071C244.632 12.0628 244.632 12.0267 244.145 12.0267C242.745 12.0267 241.345 12.0267 239.964 12.0267C239.867 12.0267 239.769 12.0267 239.653 12.0267C239.594 12.0267 239.536 12.0267 239.458 12.0628C239.478 12.0267 239.497 11.9906 239.517 11.9546C239.517 11.9185 239.517 11.8463 239.517 11.8102C239.517 9.64514 239.517 7.48006 239.517 5.31498C239.517 4.91805 239.517 4.52112 239.517 4.16027H239.497C239.633 4.16027 239.769 4.16027 239.886 4.16027C240.45 4.16027 241.034 4.16027 241.598 4.16027C241.675 4.16027 241.773 4.16027 241.85 4.16027C241.889 4.16027 241.948 4.16027 241.987 4.19636C242.006 4.19636 242.045 4.23244 242.045 4.23244C242.045 4.30461 242.045 4.3407 242.045 4.41287C242.045 5.56757 242.045 6.72228 242.045 7.87699C242.045 7.91308 242.045 7.98525 242.045 8.02133C242.045 8.02133 242.045 8.05741 242.064 8.05741C242.064 8.0935 242.123 8.0935 242.181 8.0935C242.239 8.0935 242.278 8.0935 242.337 8.0935C243.017 8.0935 243.679 8.0935 244.359 8.0935C244.398 8.0935 244.418 8.0935 244.457 8.0935C244.515 8.0935 244.593 8.05741 244.593 8.05741C244.593 7.98525 244.612 7.91308 244.612 7.87699C244.612 6.72228 244.612 5.56757 244.612 4.41287C244.612 4.37678 244.612 4.30461 244.612 4.26853C244.612 4.26853 244.612 4.23244 244.593 4.23244C244.573 4.23244 244.534 4.19636 244.495 4.19636C244.476 4.19636 244.437 4.19636 244.398 4.19636C243.698 4.19636 242.978 4.19636 242.278 4.19636C242.181 4.19636 242.084 4.19636 241.987 4.23244C242.006 4.19636 242.045 4.16027 242.064 4.12419C242.084 4.08811 242.064 4.01594 242.064 3.97985C242.064 3.33033 242.064 2.68081 242.064 2.03128C242.064 1.49001 242.064 0.948743 242.064 0.407474C242.064 0.335305 242.084 0.29922 242.025 0.227051C246.265 0.227051 250.505 0.227051 254.745 0.227051C254.823 0.29922 254.784 0.371389 254.784 0.443559C254.784 1.63435 254.784 2.78906 254.784 3.97985C254.784 4.01594 254.784 4.05202 254.784 4.08811C254.784 4.08811 254.784 4.12419 254.764 4.12419C254.764 4.16027 254.686 4.19636 254.609 4.19636C254.511 4.19636 254.414 4.19636 254.297 4.19636C253.831 4.19636 253.364 4.19636 252.878 4.19636C252.139 4.19636 252.216 4.16027 252.216 4.44895C252.216 5.60366 252.216 6.75837 252.216 7.91308C252.216 7.94916 252.216 8.02133 252.216 8.05741C252.216 8.12958 252.178 8.12958 251.944 8.16567C251.828 8.16567 251.711 8.16567 251.594 8.16567C251.127 8.16567 250.661 8.16567 250.174 8.16567C250.058 8.16567 249.941 8.16567 249.824 8.16567C249.747 8.16567 249.669 8.20175 249.669 8.23784C249.669 8.27392 249.669 8.34609 249.669 8.38218C249.669 8.70694 249.669 9.0317 249.669 9.35646C249.669 10.2225 249.669 11.0524 249.669 11.9185C249.669 11.9906 249.669 12.0267 249.688 12.0989C249.688 12.135 249.766 12.135 249.824 12.135C249.999 12.135 250.155 12.135 250.33 12.135C252.43 12.135 254.531 12.135 256.631 12.135C256.787 12.135 256.942 12.135 257.079 12.135C257.234 12.135 257.293 12.1711 257.312 12.2071C257.312 12.2432 257.312 12.3154 257.312 12.3515C257.312 12.8206 257.312 13.2536 257.312 13.7227C257.312 14.4083 257.312 15.13 257.312 15.8156C257.312 15.8517 257.312 15.8878 257.312 15.9239C257.312 16.0682 257.312 16.0682 256.904 16.0682C256.787 16.0682 256.67 16.0682 256.554 16.0682C254.473 16.0682 252.372 16.0682 250.291 16.0682C250.136 16.0682 249.98 16.0682 249.844 16.0682C249.747 16.0682 249.688 16.1043 249.669 16.1043C249.669 16.1765 249.649 16.2125 249.649 16.2847C249.649 17.4755 249.649 18.6302 249.649 19.821C249.649 19.8932 249.649 19.9653 249.649 20.0375H249.669C249.61 20.0375 249.533 20.0375 249.474 20.0375C248.794 20.0375 248.132 20.0375 247.452 20.0375C247.432 20.0375 247.413 20.0375 247.393 20.0375C247.16 20.0375 247.121 20.0375 247.121 20.1097C247.121 20.1458 247.121 20.1818 247.121 20.2179C247.121 21.4448 247.121 59.4058 247.121 60.6327C247.199 60.5966 247.199 60.6327 247.199 60.6688Z" fill="#A792BC"/>
<path d="M216.606 60.6687C216.606 60.6326 216.625 60.5604 216.625 60.5243C216.625 52.6939 216.625 8.09335 216.625 0.262991C216.625 0.226906 216.625 0.154737 216.606 0.118652C220.846 0.118652 225.086 0.118652 229.325 0.118652C229.325 0.190822 229.345 0.262991 229.345 0.33516C229.345 1.48987 229.345 2.64458 229.345 3.83537C229.345 3.87145 229.345 3.94362 229.345 3.97971C229.345 3.97971 229.345 4.01579 229.364 4.01579C229.384 4.01579 229.423 4.05188 229.461 4.05188C229.559 4.05188 229.656 4.05188 229.753 4.05188C230.278 4.05188 230.803 4.05188 231.309 4.05188C231.912 4.05188 231.873 4.05188 231.892 4.26838C231.892 4.66532 231.892 5.09833 231.892 5.49526C231.892 6.25304 231.892 7.01082 231.892 7.80468C231.892 7.87685 231.892 7.91293 231.892 7.9851C231.892 8.02118 231.815 8.05727 231.737 8.05727C231.62 8.05727 231.504 8.05727 231.387 8.05727C230.901 8.05727 230.414 8.05727 229.928 8.05727C229.792 8.05727 229.656 8.05727 229.52 8.05727C229.423 8.05727 229.364 8.09335 229.364 8.09335C229.364 8.16552 229.345 8.20161 229.345 8.27378C229.345 9.46457 229.345 10.6193 229.345 11.8101C229.345 11.8822 229.325 11.9544 229.325 12.0266H229.345C229.286 12.0266 229.248 12.0266 229.189 12.0266C228.47 12.0266 227.75 12.0266 227.05 12.0266C226.972 12.0266 226.894 12.0266 226.797 12.0266C226.797 11.9544 226.816 11.8822 226.816 11.8462C226.816 10.6554 226.816 9.46457 226.816 8.30986C226.816 8.27378 226.816 8.20161 226.816 8.16552C226.816 8.16552 226.816 8.12944 226.797 8.12944C226.778 8.12944 226.739 8.09335 226.7 8.09335C226.602 8.09335 226.505 8.09335 226.408 8.09335C225.883 8.09335 225.358 8.09335 224.852 8.09335C224.23 8.09335 224.288 8.09335 224.288 8.30986C224.288 9.50066 224.288 10.7275 224.288 11.9183C224.288 11.9905 224.308 12.0266 224.308 12.0987C224.21 12.0987 224.113 12.0987 224.016 12.0987C223.355 12.0987 222.693 12.0987 222.013 12.0987C221.935 12.0987 221.857 12.0987 221.76 12.0987C221.701 12.0266 221.721 11.9544 221.721 11.8822C221.721 10.7275 221.721 9.53674 221.721 8.38203C221.721 8.34595 221.721 8.27378 221.721 8.23769C221.721 8.23769 221.721 8.20161 221.701 8.20161C221.682 8.20161 221.663 8.16552 221.604 8.16552C221.507 8.16552 221.41 8.16552 221.313 8.16552C220.787 8.16552 220.262 8.16552 219.757 8.16552C219.154 8.16552 219.193 8.12944 219.193 8.34595V8.38203C219.193 9.53674 219.193 10.7275 219.193 11.8822C219.193 11.9183 219.193 11.9544 219.193 11.9905V12.0266C219.193 12.0627 219.27 12.0987 219.368 12.0987C219.465 12.0987 219.562 12.0987 219.679 12.0987C220.223 12.0987 220.748 12.0987 221.293 12.0987C221.468 12.0987 221.624 12.0987 221.799 12.0987C221.74 12.1348 221.76 12.207 221.76 12.2431C221.76 13.4339 221.76 14.6608 221.76 15.8515C221.76 15.8876 221.76 15.9237 221.779 15.9598C221.779 15.9959 221.838 15.9959 221.915 15.9959C221.974 15.9959 222.013 15.9959 222.071 15.9959C222.616 15.9959 223.141 15.9959 223.685 15.9959C223.899 15.9959 224.113 15.9959 224.346 15.9959C224.346 16.0681 224.327 16.1402 224.327 16.1763C224.327 17.3671 224.327 18.5579 224.327 19.7487C224.327 19.7848 224.327 19.8209 224.327 19.8569L224.346 19.893C224.366 19.9291 224.405 19.9291 224.444 19.9291C224.541 19.9291 224.638 19.9291 224.735 19.9291C225.28 19.9291 225.805 19.9291 226.35 19.9291C226.525 19.9291 226.68 19.9291 226.855 19.9291C226.855 20.0013 226.855 20.0735 226.855 20.1456C226.855 21.3364 226.855 59.2614 226.855 60.4521C226.855 60.5243 226.855 60.5965 226.855 60.7047C223.413 60.6687 220.009 60.6687 216.606 60.6687Z" fill="#A792BC"/>
<path d="M198.85 8.02123C198.831 8.05732 198.811 8.05732 198.811 8.0934C198.811 8.16557 198.811 8.20166 198.811 8.27383C198.811 9.42853 198.811 10.5832 198.811 11.774C198.811 11.8462 198.811 11.8823 198.811 11.9545C198.811 11.9905 198.733 12.0266 198.617 12.0266C198.481 12.0266 198.344 12.0266 198.208 12.0266C197.761 12.0266 197.294 12.0266 196.847 12.0266C196.73 12.0266 196.613 12.0266 196.497 12.0266C196.341 12.0266 196.283 12.0627 196.263 12.0988V12.1349C196.263 12.171 196.263 12.2071 196.263 12.2431C196.263 13.3978 196.263 14.5526 196.263 15.7073C196.263 15.7433 196.263 15.8155 196.263 15.8516C196.263 15.9238 196.322 15.9238 196.516 15.9238C196.594 15.9238 196.691 15.9238 196.769 15.9238C198.986 15.9238 201.203 15.9238 203.44 15.9238C203.596 15.9238 203.732 15.9238 203.887 15.9238H203.868C203.887 15.9599 203.907 15.9959 203.907 15.9959C203.907 16.032 203.907 16.1042 203.907 16.1403C203.907 17.295 203.907 18.4497 203.907 19.6405C203.907 19.7127 203.907 19.7487 203.907 19.8209C203.907 19.857 203.868 19.8931 203.693 19.8931C203.129 19.8931 202.584 19.8931 202.02 19.8931C201.845 19.8931 201.69 19.8931 201.515 19.8931C201.456 19.8931 201.378 19.9292 201.378 19.9292C201.378 20.0013 201.359 20.0374 201.359 20.1096C201.359 20.7591 201.359 21.3725 201.359 22.0221C201.359 22.5994 201.359 59.9109 201.359 60.4883C201.359 60.5244 201.359 60.5965 201.378 60.6326C200.542 60.6326 199.686 60.6326 198.85 60.6326C198.831 60.5604 198.811 60.4883 198.811 60.4161C198.811 59.6944 198.811 22.1664 198.811 21.4447C198.811 20.9756 198.811 20.5426 198.811 20.0735C198.811 20.0374 198.811 19.9652 198.792 19.9292C198.792 19.9292 198.714 19.8931 198.656 19.8931C198.481 19.8931 198.325 19.8931 198.15 19.8931C196.03 19.8931 193.91 19.8931 191.79 19.8931C191.615 19.8931 191.46 19.8931 191.285 19.8931C191.226 19.8931 191.168 19.857 191.168 19.857C191.168 19.7848 191.148 19.7487 191.148 19.6766C191.148 18.4858 191.148 17.3311 191.148 16.1403C191.148 16.0681 191.148 15.9959 191.129 15.9238C191.168 15.9238 191.187 15.9238 191.226 15.9238C191.985 15.9238 192.743 15.9238 193.502 15.9238C193.541 15.9238 193.58 15.9238 193.599 15.9238C193.618 15.9238 193.657 15.9238 193.657 15.8877C193.677 15.8155 193.677 15.7794 193.677 15.7073C193.677 14.5165 193.677 13.3618 193.677 12.171C193.677 12.1349 193.677 12.0988 193.677 12.0627C193.677 12.0627 193.677 12.0266 193.657 12.0266C193.638 12.0266 193.618 11.9905 193.56 11.9905C193.502 11.9905 193.424 11.9905 193.366 11.9905C192.743 11.9905 192.121 11.9905 191.499 11.9905C191.44 11.9905 191.362 11.9905 191.304 11.9905C191.246 11.9905 191.168 12.0266 191.168 12.0266C191.168 12.0627 191.148 12.1349 191.148 12.171C191.148 13.4339 191.148 14.6608 191.148 15.9238C190.973 15.9238 190.818 15.9238 190.643 15.9238C190.079 15.9238 189.534 15.9238 188.97 15.9238C188.62 15.9238 188.601 15.9238 188.601 16.0681C188.601 16.1042 188.601 16.1764 188.601 16.2124C188.601 17.3672 188.601 18.4858 188.601 19.6405C188.601 19.6766 188.601 19.7487 188.601 19.7848C188.601 19.7848 188.601 19.8209 188.581 19.8209C188.581 19.857 188.523 19.857 188.445 19.857C188.348 19.857 188.251 19.857 188.153 19.857C187.628 19.857 187.103 19.857 186.597 19.857C186.461 19.857 186.325 19.857 186.189 19.857C186.131 19.857 186.053 19.8931 186.053 19.8931C186.053 19.9652 186.034 20.0374 186.034 20.0735C186.034 21.2282 186.034 59.1531 186.034 60.3439C186.034 60.4161 186.034 60.4522 186.034 60.5244C186.034 60.5604 185.995 60.5965 185.995 60.5965C184.303 60.5965 182.63 60.5965 180.938 60.5965V60.5605C180.938 57.9984 180.938 18.6662 180.938 16.1403C180.938 16.1042 180.938 16.0681 180.938 16.032C180.938 16.032 180.938 15.9959 180.957 15.9959C180.957 15.9599 181.016 15.9599 181.074 15.9599C181.23 15.9599 181.385 15.9599 181.521 15.9599C182.766 15.9599 184.011 15.9599 185.256 15.9599C185.489 15.9599 185.722 15.9599 185.956 15.9599C186.092 15.8877 186.014 15.7794 186.014 15.7073C186.014 11.9545 186.014 8.20166 186.014 4.44886C186.014 4.37669 186.014 4.30452 186.014 4.26843C186.014 4.23235 186.014 4.19626 186.014 4.19626C186.014 4.16018 185.956 4.12409 185.858 4.12409C185.8 4.12409 185.761 4.12409 185.703 4.12409C185.022 4.12409 184.322 4.12409 183.641 4.12409C183.583 4.12409 183.505 4.12409 183.447 4.12409H183.466C183.466 4.08801 183.486 4.01584 183.486 3.97976C183.486 2.75288 183.486 1.526 183.486 0.263039C183.486 0.226954 183.466 0.19087 183.466 0.154785C185.178 0.154785 186.909 0.154785 188.62 0.154785C188.62 0.226954 188.601 0.263039 188.601 0.335208C188.601 2.82505 188.601 5.35097 188.601 7.84081C188.601 7.8769 188.601 7.94906 188.601 7.98515C188.601 7.98515 188.601 8.02123 188.62 8.02123C188.62 8.02123 188.659 8.05732 188.698 8.05732C188.815 8.05732 188.931 8.05732 189.048 8.05732C190.448 8.05732 191.829 8.05732 193.229 8.05732C193.327 8.05732 193.424 8.05732 193.541 8.05732C193.599 8.05732 193.677 8.02123 193.677 8.02123C193.677 7.98515 193.696 7.91298 193.696 7.8769C193.696 6.6861 193.696 5.49531 193.696 4.30452C193.696 4.23235 193.677 4.19626 193.677 4.12409C193.755 4.12409 193.852 4.12409 193.93 4.12409C194.591 4.12409 195.233 4.12409 195.894 4.12409C195.952 4.12409 196.03 4.12409 196.088 4.12409C196.147 4.12409 196.205 4.16018 196.225 4.16018C196.225 4.23235 196.244 4.30452 196.244 4.3406C196.244 5.49531 196.244 6.65002 196.244 7.80473C196.244 7.84081 196.244 7.91298 196.244 7.94906C196.244 7.94906 196.244 7.98515 196.263 7.98515C196.263 8.02123 196.322 8.02123 196.38 8.02123C196.477 8.02123 196.575 8.02123 196.672 8.02123C197.236 8.02123 197.78 8.02123 198.344 8.02123C198.519 8.02123 198.675 8.02123 198.85 8.02123Z" fill="#A792BC"/>
<path d="M63.8385 0.118604C63.8385 0.154689 63.8385 0.190773 63.8385 0.226858C63.8385 2.75278 63.8385 5.24262 63.8385 7.76855C63.8385 8.09331 63.7023 8.02114 64.597 8.02114C66.678 8.02114 68.7784 8.02114 70.8594 8.02114C71.015 8.02114 71.1706 8.02114 71.3067 8.02114C71.3651 8.02114 71.4428 8.05722 71.4428 8.05722C71.4428 8.09331 71.4623 8.09331 71.4623 8.12939C71.4623 8.16548 71.4623 8.23765 71.4623 8.27373C71.4623 9.42844 71.4623 10.5831 71.4623 11.7379C71.4623 11.81 71.4623 11.8461 71.4817 11.9183C71.4817 11.9544 71.5595 11.9904 71.6762 11.9904C71.8513 11.9904 72.0069 11.9904 72.1819 11.9904C74.2434 11.9904 76.3244 11.9904 78.386 11.9904C78.561 11.9904 78.7166 11.9904 78.8916 11.9904C79.0083 11.9904 79.0861 12.0265 79.0861 12.0626C79.0861 12.0987 79.0861 12.0987 79.0861 12.1348C79.0861 12.1709 79.0861 12.243 79.0861 12.2791C79.0861 14.7329 79.0861 17.1866 79.0861 19.6404C79.0861 19.7126 79.0861 19.7847 79.0861 19.8208C79.0861 19.8569 79.1639 19.893 79.2417 19.893C79.3778 19.893 79.514 19.893 79.6501 19.893C80.1947 19.893 80.7198 19.893 81.2643 19.893C81.3227 19.893 81.4005 19.893 81.4588 19.893C81.5172 19.893 81.595 19.9291 81.595 19.9291C81.595 20.0012 81.6144 20.0373 81.6144 20.1095C81.6144 20.9394 81.6144 21.7694 81.6144 22.5993C81.6144 22.9602 81.6144 60.0913 81.6144 60.4521C81.6144 60.5243 81.6339 60.5964 81.5755 60.6325C79.8835 60.6325 78.2109 60.6325 76.5189 60.6325C76.5189 60.5604 76.5189 60.4882 76.5189 60.416C76.5189 58.5396 76.5189 19.893 76.5189 18.0166C76.5189 17.4031 76.5189 16.7897 76.5189 16.1402C76.5189 16.068 76.5189 16.0319 76.4995 15.9598C76.4995 15.9237 76.4411 15.9237 76.3633 15.9237C76.1883 15.9237 76.0327 15.9237 75.8577 15.9237C73.7378 15.9237 71.6179 15.9237 69.498 15.9237C69.323 15.9237 69.1674 15.9237 68.9923 15.9237C68.934 15.9237 68.8756 15.8876 68.8562 15.8876C68.8562 15.8154 68.8367 15.7793 68.8367 15.7072C68.8367 14.5525 68.8367 13.3977 68.8367 12.243C68.8367 12.1709 68.8367 12.1348 68.8367 12.0626C68.8367 12.0626 68.8367 12.0265 68.8173 12.0265C68.7978 12.0265 68.7784 11.9904 68.7589 11.9904C68.6423 11.9904 68.5256 11.9904 68.4089 11.9904C67.0086 11.9904 65.6083 11.9904 64.2274 11.9904C64.1302 11.9904 64.033 11.9904 63.9163 11.9904C63.8579 11.9904 63.7801 12.0265 63.7801 12.0265C63.7801 12.0987 63.7607 12.1709 63.7607 12.207C63.7607 14.7329 63.7607 17.2227 63.7607 19.7486C63.7607 19.7847 63.7607 19.8569 63.7607 19.893H63.7801C63.7607 19.893 63.7412 19.893 63.7218 19.893C62.9438 19.893 62.1854 19.893 61.4074 19.893C61.3685 19.893 61.3296 19.893 61.3102 19.893C61.2907 19.893 61.2518 19.893 61.2518 19.9291C61.2324 19.9651 61.2324 20.0373 61.2324 20.0734C61.2324 21.3003 61.2324 59.2974 61.2324 60.5604C61.2324 60.5964 61.2518 60.6325 61.2518 60.6686C60.4155 60.6686 59.5598 60.6686 58.7235 60.6686C58.7041 60.6325 58.6652 60.5964 58.6652 60.5964C58.6652 60.5604 58.6652 60.4882 58.6652 60.4521C58.6652 59.3696 58.6652 21.5529 58.6652 20.4703C58.6652 20.3621 58.6652 20.2538 58.6652 20.1095C58.6652 20.0734 58.6652 20.0373 58.6652 20.0012C58.6652 19.9291 58.6068 19.9291 58.4707 19.9291C58.4318 19.9291 58.4123 19.9291 58.3734 19.9291C57.6927 19.9291 56.9926 19.9291 56.3119 19.9291C56.2536 19.9291 56.1758 19.9291 56.1174 19.9291H56.1369C56.1369 19.893 56.1563 19.8569 56.1563 19.8208C56.1563 18.5939 56.1563 17.3671 56.1563 16.1402C56.1563 16.1041 56.1563 16.068 56.1369 16.0319C56.1369 15.9958 56.0591 15.9958 55.9618 15.9958C55.7868 15.9958 55.6312 15.9958 55.4562 15.9958C54.8338 15.9958 54.2115 15.9958 53.5891 15.9958H53.6086C53.6086 15.9237 53.6086 15.8876 53.6086 15.8154C53.6086 13.2895 53.6086 10.7636 53.6086 8.23765C53.6086 8.16548 53.6086 8.12939 53.6086 8.05722H53.5891C54.4254 8.05722 55.2811 8.05722 56.1174 8.05722H56.098C56.1174 8.12939 56.1174 8.20156 56.1174 8.23765C56.1174 8.85108 56.1174 9.42844 56.1174 10.0419C56.1174 10.6192 56.1174 11.1966 56.1174 11.7739C56.1174 11.81 56.1174 11.8822 56.1174 11.9183C56.1174 11.9544 56.1952 11.9904 56.3119 11.9904C56.4675 11.9904 56.6231 11.9904 56.7592 11.9904C57.79 11.9904 58.8208 11.9904 59.8321 11.9904C60.1822 11.9904 60.5322 11.9904 60.8823 11.9904C61.1546 11.9904 61.1935 11.9544 61.1935 11.8822C61.1935 11.81 61.1935 11.7739 61.1935 11.7018C61.1935 9.71711 61.1935 7.73246 61.1935 5.74781C61.1935 3.94357 61.1935 2.13934 61.1935 0.299027C61.1935 0.226858 61.2129 0.154689 61.2129 0.0825195C62.1465 0.118604 63.0022 0.118604 63.8385 0.118604Z" fill="#A792BC"/>
<path d="M109.678 60.6688C109.678 60.5966 109.678 60.5245 109.678 60.4884C109.678 59.2976 109.678 21.3366 109.678 20.1458C109.678 20.0736 109.678 20.0375 109.698 19.9653C109.698 19.9293 109.756 19.9293 109.834 19.9293C109.97 19.9293 110.106 19.9293 110.242 19.9293C110.768 19.9293 111.293 19.9293 111.798 19.9293C111.896 19.9293 111.993 19.9293 112.09 19.9293C112.129 19.9293 112.187 19.9293 112.187 19.8932L112.207 19.8571C112.207 19.821 112.207 19.7849 112.207 19.7488C112.207 15.8878 112.207 12.0267 112.207 8.20175C112.207 8.16567 112.207 8.12958 112.207 8.0935H112.187C112.907 8.0935 113.627 8.0935 114.346 8.0935C114.443 8.0935 114.541 8.0935 114.638 8.0935C114.657 8.0935 114.696 8.0935 114.696 8.05742C114.716 8.05742 114.716 8.02133 114.716 8.02133C114.716 7.98525 114.716 7.91308 114.716 7.87699C114.716 5.38715 114.716 2.89731 114.716 0.407474C114.716 0.335305 114.696 0.263135 114.696 0.227051C116.408 0.227051 118.139 0.227051 119.85 0.227051C119.85 0.29922 119.831 0.335305 119.831 0.407474C119.831 1.59827 119.831 2.75297 119.831 3.94377C119.831 4.23244 119.928 4.19636 119.111 4.19636C118.703 4.19636 118.294 4.19636 117.905 4.19636C117.769 4.19636 117.633 4.19636 117.497 4.19636C117.38 4.19636 117.302 4.23244 117.302 4.26853C117.302 4.30461 117.302 4.30461 117.302 4.3407C117.302 4.37678 117.302 4.41287 117.302 4.44895C117.302 5.60366 117.302 6.75837 117.302 7.91308C117.302 7.98525 117.302 8.02133 117.302 8.0935C117.302 8.12958 117.361 8.16567 117.516 8.16567C117.691 8.16567 117.847 8.16567 118.022 8.16567C120.939 8.16567 123.837 8.16567 126.754 8.16567C126.929 8.16567 127.085 8.16567 127.26 8.16567C127.396 8.16567 127.454 8.20175 127.474 8.23784V8.27392C127.474 8.31001 127.474 8.34609 127.474 8.34609C127.474 9.53689 127.474 10.6916 127.474 11.8824C127.474 11.9546 127.454 11.9906 127.454 12.0628C127.454 12.0989 127.377 12.0989 127.318 12.0989C127.202 12.0989 127.085 12.0989 126.968 12.0989C126.443 12.0989 125.918 12.0989 125.412 12.0989C125.296 12.0989 125.179 12.0989 125.062 12.0989C125.004 12.0989 124.965 12.135 124.965 12.135C124.946 12.135 124.946 12.1711 124.946 12.1711C124.946 12.2432 124.946 12.3154 124.946 12.3515C124.946 14.8052 124.946 17.259 124.946 19.7488C124.946 19.821 124.946 19.8932 124.926 19.9293C124.926 19.9653 124.848 19.9653 124.79 19.9653C124.732 19.9653 124.654 19.9653 124.595 19.9653C123.993 19.9653 123.39 19.9653 122.787 19.9653C122.709 19.9653 122.612 19.9653 122.534 19.9653C122.495 19.9653 122.437 19.9653 122.437 19.9293L122.417 19.8932C122.417 19.821 122.417 19.7849 122.417 19.7127C122.417 17.259 122.417 14.8052 122.417 12.3515C122.417 12.2793 122.417 12.2071 122.417 12.1711C122.417 12.0989 122.359 12.0989 122.164 12.0989C122.067 12.0989 121.97 12.0989 121.853 12.0989C120.531 12.0989 119.189 12.0989 117.866 12.0989C117.73 12.0989 117.594 12.0989 117.458 12.0989C117.4 12.0989 117.341 12.135 117.341 12.135L117.322 12.1711C117.322 12.2071 117.322 12.2432 117.322 12.2793C117.322 13.434 117.322 14.6248 117.322 15.7795C117.322 15.8517 117.322 15.8878 117.341 15.9599C117.341 15.996 117.4 15.996 117.458 15.996C117.575 15.996 117.691 15.996 117.808 15.996C118.333 15.996 118.858 15.996 119.364 15.996C119.481 15.996 119.597 15.996 119.714 15.996C119.772 15.996 119.831 16.0321 119.831 16.0321C119.831 16.0682 119.85 16.0682 119.85 16.1043C119.85 16.1765 119.85 16.2125 119.85 16.2847C119.85 18.7745 119.85 58.0346 119.85 60.5245C119.85 60.5966 119.869 60.6688 119.869 60.7049C116.485 60.6688 113.082 60.6688 109.678 60.6688Z" fill="#A792BC"/>
<path d="M43.4367 0.118652C46.8402 0.118652 50.2437 0.118652 53.6277 0.118652C53.6277 0.190822 53.6277 0.262991 53.6277 0.33516C53.6277 2.86108 53.6277 5.35092 53.6277 7.87685C53.6277 7.94902 53.6277 7.9851 53.6277 8.05727H53.6472C53.0248 8.05727 52.4024 8.05727 51.7801 8.05727C51.6051 8.05727 51.4495 8.05727 51.2744 8.05727C51.1772 8.05727 51.1188 8.09335 51.0994 8.09335C51.0994 8.16552 51.0799 8.23769 51.0799 8.27378C51.0799 10.7636 51.0799 13.2535 51.0799 15.7072C51.0799 15.7433 51.0799 15.8155 51.0799 15.8515C51.0799 15.8876 51.0994 15.8876 51.1188 15.9237C50.9438 15.9237 50.7882 15.9237 50.6132 15.9237C50.0492 15.9237 49.4657 15.9237 48.9017 15.9237C48.8045 15.9237 48.7072 15.9237 48.61 15.9237C48.5905 15.9237 48.5516 15.8876 48.5516 15.8876C48.5322 15.8155 48.5322 15.7433 48.5322 15.6711C48.5322 13.2174 48.5322 10.7636 48.5322 8.30986C48.5322 8.23769 48.5322 8.16552 48.5322 8.12944C48.5322 8.12944 48.5127 8.09335 48.4933 8.09335C48.4738 8.09335 48.4544 8.05727 48.4349 8.05727C48.3766 8.05727 48.2988 8.05727 48.2405 8.05727C47.5792 8.05727 46.9374 8.05727 46.2762 8.05727C46.2373 8.05727 46.2178 8.05727 46.1789 8.05727C46.0622 8.05727 46.0039 8.09335 46.0039 8.12944C46.0039 8.20161 46.0039 8.23769 46.0039 8.30986C46.0039 10.7997 46.0039 13.2535 46.0039 15.7433C46.0039 15.7794 46.0039 15.8515 46.0039 15.8876C46.0039 15.8876 46.0039 15.9237 46.0233 15.9237C46.0428 15.9237 46.0817 15.9598 46.14 15.9598C46.1984 15.9598 46.2373 15.9598 46.2956 15.9598C46.9763 15.9598 47.6376 15.9598 48.3183 15.9598C48.4349 15.9598 48.5516 15.9598 48.6683 15.9598C48.6489 15.9959 48.5905 15.9959 48.5905 16.032C48.5711 16.1041 48.5711 16.1402 48.5711 16.2124C48.5711 17.3671 48.5711 18.5579 48.5711 19.7126C48.5711 19.7487 48.5711 19.8209 48.5711 19.8569L48.5905 19.893C48.5905 19.9291 48.6683 19.9291 48.7267 19.9291C48.785 19.9291 48.8628 19.9291 48.9212 19.9291C49.5241 19.9291 50.127 19.9291 50.7299 19.9291C50.7882 19.9291 50.866 19.9291 50.9244 19.9291C51.0022 19.9291 51.0799 19.893 51.0799 19.8569C51.0799 19.7848 51.0799 19.7487 51.0799 19.6765C51.0799 18.4857 51.0799 17.331 51.0799 16.1402C51.0799 16.0681 51.0994 15.9959 51.0994 15.9598C51.9357 15.9598 52.772 15.9598 53.6083 15.9598H53.5888C53.5888 16.032 53.5888 16.1041 53.5888 16.1763C53.5888 17.3671 53.5888 18.5218 53.5888 19.7126C53.5888 19.7848 53.5888 19.8209 53.5888 19.893C53.5888 19.9291 53.6666 19.9652 53.7444 19.9652C53.8611 19.9652 53.9778 19.9652 54.0945 19.9652C54.6196 19.9652 55.1447 19.9652 55.6503 19.9652C55.8059 19.9652 55.9615 19.9652 56.0977 19.9652H56.0782C56.0782 20.0374 56.0977 20.0735 56.0977 20.1456C56.0977 21.3364 56.0977 59.3335 56.0977 60.5243C56.0977 60.5965 56.0782 60.6687 56.0782 60.7047C51.8384 60.7047 47.5987 60.7047 43.3589 60.7047C43.3589 60.6687 43.3589 60.6326 43.3589 60.5965C43.3589 52.7661 43.3589 8.12944 43.3589 0.299075C43.4561 0.190822 43.4367 0.154737 43.4367 0.118652Z" fill="#A792BC"/>
<path d="M130.079 60.6687C130.06 60.6326 130.06 60.5965 130.04 60.5604C130.04 60.5244 130.04 60.4522 130.04 60.4161C130.04 52.6579 130.04 8.12949 130.04 0.407378C130.04 0.335208 130.021 0.226954 130.079 0.154785C130.915 0.154785 131.771 0.154785 132.607 0.154785C132.607 0.19087 132.607 0.226954 132.607 0.263039C132.607 2.78896 132.607 5.31489 132.607 7.84081C132.607 7.91298 132.607 7.94906 132.627 8.02123C132.627 8.05732 132.685 8.05732 132.763 8.05732C132.802 8.05732 132.821 8.05732 132.86 8.05732C133.56 8.05732 134.28 8.05732 134.98 8.05732C135.038 8.05732 135.077 8.05732 135.136 8.05732H135.116C135.136 8.0934 135.155 8.12949 135.155 8.12949C135.155 8.20166 135.155 8.23774 135.155 8.30991C135.155 10.7637 135.155 13.2535 135.155 15.7073C135.155 15.7794 135.155 15.8155 135.155 15.8877C135.155 15.9599 135.194 15.9599 135.427 15.9959C135.583 15.9959 135.739 15.9959 135.875 15.9959C137.995 15.9959 140.115 15.9959 142.234 15.9959C142.837 15.9959 142.798 15.9959 142.798 16.1764C142.798 17.3672 142.798 18.5579 142.798 19.7487C142.798 19.8209 142.818 19.8931 142.837 19.9652C142.76 19.9652 142.682 19.9652 142.585 19.9652C141.904 19.9652 141.204 19.9652 140.523 19.9652C140.309 19.9652 140.251 19.9652 140.251 20.0735C140.251 20.1457 140.251 20.2178 140.251 20.2539C140.251 21.4086 140.251 59.3336 140.251 60.4522C140.251 60.5244 140.251 60.5604 140.251 60.6326C140.251 60.6687 140.212 60.7048 140.212 60.7048C136.808 60.6687 133.444 60.6687 130.079 60.6687Z" fill="#A792BC"/>
<path d="M160.575 60.6687C160.575 60.6326 160.595 60.6326 160.595 60.5965C160.595 60.5243 160.595 60.4882 160.595 60.4161C160.595 55.292 160.595 13.3978 160.595 8.30986C160.595 8.23769 160.595 8.16552 160.614 8.09335C160.614 8.05727 160.692 8.05727 160.77 8.02118C160.906 8.02118 161.042 8.02118 161.178 8.02118C161.703 8.02118 162.228 8.02118 162.734 8.02118C162.851 8.02118 162.967 8.02118 163.084 8.02118C163.104 7.9851 163.123 7.9851 163.123 7.94902C163.123 7.87685 163.123 7.80468 163.123 7.76859C163.123 5.31484 163.123 2.86108 163.123 0.407329C163.123 0.33516 163.123 0.299075 163.123 0.226906C163.123 0.190822 163.162 0.154737 163.162 0.118652C165.69 0.118652 168.218 0.118652 170.727 0.118652C170.727 0.190822 170.747 0.262991 170.747 0.33516C170.747 1.48987 170.747 2.64458 170.747 3.83537C170.747 3.87145 170.747 3.94362 170.747 3.97971L170.727 4.01579C170.727 4.05188 170.669 4.05188 170.63 4.05188C170.552 4.05188 170.455 4.05188 170.377 4.05188C169.872 4.05188 169.366 4.05188 168.86 4.05188C168.121 4.05188 168.199 4.01579 168.199 4.30447C168.199 5.45918 168.199 6.61388 168.199 7.80468C168.199 8.05727 168.102 8.02118 168.86 8.02118C169.424 8.02118 169.969 8.02118 170.533 8.02118C170.65 8.02118 170.727 8.05727 170.727 8.09335C170.727 8.12944 170.727 8.20161 170.727 8.23769C170.727 12.0627 170.727 15.8515 170.727 19.6765C170.727 19.7126 170.727 19.7848 170.727 19.8209L170.708 19.8569C170.688 19.8569 170.669 19.893 170.65 19.893C170.611 19.893 170.552 19.893 170.513 19.893C169.833 19.893 169.171 19.893 168.491 19.893C168.452 19.893 168.432 19.893 168.393 19.893C168.296 19.893 168.238 19.8569 168.218 19.8569C168.218 19.7848 168.218 19.7487 168.218 19.6765C168.218 18.5218 168.218 17.3671 168.218 16.2124C168.218 16.1763 168.218 16.1041 168.218 16.0681C168.218 16.0681 168.218 16.032 168.199 16.032C168.199 15.9959 168.121 15.9959 168.024 15.9959C167.966 15.9959 167.888 15.9959 167.829 15.9959C167.285 15.9959 166.76 15.9959 166.215 15.9959C166.079 15.9959 165.943 15.9959 165.807 15.9959C165.749 15.9959 165.69 15.9598 165.69 15.9598C165.69 15.8876 165.671 15.8515 165.671 15.7794C165.671 14.6247 165.671 13.47 165.671 12.3153C165.671 12.2431 165.671 12.207 165.671 12.1348C165.671 12.1348 165.671 12.0987 165.651 12.0987C165.632 12.0987 165.612 12.0627 165.593 12.0627C165.515 12.0627 165.437 12.0627 165.34 12.0627C164.718 12.0627 164.095 12.0627 163.473 12.0627C163.415 12.0627 163.337 12.0627 163.279 12.0627C163.22 12.0627 163.142 12.0987 163.142 12.0987C163.142 12.1709 163.123 12.2431 163.123 12.3513C163.123 16.1041 163.123 56.6633 163.123 60.4161C163.123 60.4882 163.123 60.5604 163.123 60.5965C163.123 60.6326 163.084 60.6687 163.084 60.7047C162.248 60.6687 161.411 60.6687 160.575 60.6687Z" fill="#A792BC"/>
<path d="M86.7681 60.6686C86.7681 60.5964 86.7681 60.5243 86.7681 60.4521C86.7681 52.6578 86.7681 8.09331 86.7681 0.335112C86.7681 0.262943 86.7681 0.190773 86.7681 0.118604C88.4601 0.118604 90.1327 0.118604 91.8247 0.118604C91.8247 0.190773 91.8441 0.262943 91.8441 0.335112C91.8441 1.48982 91.8441 2.64453 91.8441 3.83532C91.8441 3.87141 91.8441 3.94357 91.8441 3.97966C91.8441 3.97966 91.8441 4.01574 91.8636 4.01574C91.883 4.01574 91.9219 4.05183 91.9608 4.05183C92.0581 4.05183 92.1553 4.05183 92.2525 4.05183C92.7582 4.05183 93.2639 4.05183 93.7695 4.05183C94.4308 4.05183 94.3919 4.05183 94.3919 3.83532C94.3919 2.82495 94.3919 1.85067 94.3919 0.840297C94.3919 0.659873 94.3919 0.443366 94.3919 0.262943C94.3919 0.190773 94.3724 0.154689 94.4308 0.0825195C95.2671 0.0825195 96.1228 0.0825195 96.9591 0.0825195C96.9591 0.154689 96.9396 0.226858 96.9396 0.262943C96.9396 4.05183 96.9396 7.84071 96.9396 11.6296C96.9396 11.7018 96.9396 11.7379 96.9396 11.81C96.9396 11.8461 96.9396 11.8461 96.9396 11.8822C96.9396 11.9183 96.8618 11.9544 96.7451 11.9544C96.6285 11.9544 96.5118 11.9544 96.3951 11.9544C95.9672 11.9544 95.5588 11.9544 95.1309 11.9544C94.3335 11.9544 94.4113 11.9904 94.4113 11.7018C94.4113 10.5471 94.4113 9.39235 94.4113 8.23765C94.4113 8.20156 94.4113 8.12939 94.4113 8.09331C94.4113 8.09331 94.4113 8.05722 94.3919 8.05722C94.3919 8.02114 94.3141 8.02114 94.2557 8.02114C94.1002 8.02114 93.9446 8.02114 93.8084 8.02114C92.5248 8.02114 91.2607 8.02114 89.9771 8.02114C89.2186 8.02114 89.3158 7.98505 89.3158 8.23765C89.3158 10.7275 89.3158 13.2173 89.3158 15.7072C89.3158 15.7432 89.3158 15.8154 89.3158 15.8515C89.3158 15.8515 89.3158 15.8876 89.3353 15.8876C89.3547 15.8876 89.3742 15.9237 89.4131 15.9237C89.5492 15.9237 89.6853 15.9237 89.8215 15.9237C91.144 15.9237 92.4859 15.9237 93.8084 15.9237C94.4697 15.9237 94.4308 15.8876 94.4308 16.1402C94.4308 17.331 94.4308 18.4857 94.4308 19.6765C94.4308 19.7126 94.4308 19.7486 94.4308 19.7847L94.4113 19.8208C94.4113 19.8569 94.3335 19.8569 94.2752 19.8569C94.1196 19.8569 93.964 19.8569 93.8279 19.8569C92.5637 19.8569 91.2996 19.8569 90.0354 19.8569C89.8993 19.8569 89.7631 19.8569 89.627 19.8569C89.3742 19.8569 89.3353 19.8569 89.3158 19.9651C89.3158 20.0012 89.3158 20.0734 89.3158 20.1095C89.3158 21.2642 89.3158 59.2252 89.3158 60.3799C89.3158 60.4521 89.3158 60.5243 89.3158 60.5964C88.4406 60.6686 87.6044 60.6686 86.7681 60.6686Z" fill="#A792BC"/>
<path d="M173.294 0.118652C175.006 0.118652 176.737 0.118652 178.448 0.118652C178.448 0.154737 178.429 0.190822 178.429 0.226906C178.429 1.45378 178.429 2.68066 178.429 3.90754C178.429 3.94362 178.429 3.97971 178.429 4.01579C178.429 4.05188 178.487 4.08796 178.604 4.08796C178.759 4.08796 178.915 4.08796 179.051 4.08796C180.335 4.08796 181.638 4.08796 182.921 4.08796C183.096 4.08796 183.291 4.08796 183.466 4.08796H183.447C183.466 4.16013 183.485 4.19622 183.485 4.26838C183.485 5.45918 183.485 6.64997 183.485 7.84076C183.485 7.87685 183.485 7.94902 183.485 7.9851C183.485 8.02119 183.427 8.05727 183.33 8.05727C183.174 8.05727 183.019 8.05727 182.883 8.05727C181.599 8.05727 180.335 8.05727 179.051 8.05727C178.915 8.05727 178.779 8.05727 178.643 8.05727C178.468 8.05727 178.409 8.09336 178.409 8.12944C178.409 8.20161 178.409 8.27378 178.409 8.30986C178.409 12.0627 178.409 15.8516 178.409 19.6044C178.409 19.6765 178.409 19.7487 178.409 19.7848C178.409 19.7848 178.409 19.8209 178.39 19.8209C178.37 19.8209 178.332 19.8569 178.293 19.8569C178.195 19.8569 178.098 19.8569 178.001 19.8569C177.495 19.8569 176.99 19.8569 176.484 19.8569C176.328 19.8569 176.173 19.8569 176.037 19.8569C175.978 19.8569 175.901 19.893 175.901 19.893C175.901 19.9652 175.881 20.0013 175.881 20.0735C175.881 20.723 175.881 21.3725 175.881 22.022C175.881 22.5633 175.881 59.9109 175.881 60.4521C175.881 60.4882 175.862 60.5604 175.92 60.5965C175.045 60.5965 174.17 60.5965 173.294 60.5965C173.353 60.5243 173.333 60.4522 173.333 60.38C173.333 52.6218 173.333 8.05727 173.333 0.299075C173.333 0.262991 173.333 0.190822 173.333 0.154737C173.314 0.154737 173.294 0.154737 173.294 0.118652Z" fill="#A792BC"/>
<path d="M160.575 0.118652C160.575 0.190822 160.594 0.226906 160.594 0.299075C160.594 1.48987 160.594 2.68066 160.594 3.90754C160.594 4.12405 160.633 4.12405 160.03 4.12405C159.583 4.12405 159.116 4.12405 158.669 4.12405C158.552 4.12405 158.436 4.12405 158.319 4.12405C158.124 4.12405 158.066 4.16013 158.066 4.19622C158.066 4.2323 158.066 4.26838 158.066 4.30447C158.066 4.37664 158.066 4.44881 158.066 4.48489C158.066 5.60352 158.066 6.72214 158.066 7.84076C158.066 7.91293 158.066 7.94902 158.066 8.02119C158.066 8.05727 157.988 8.05727 157.891 8.05727C157.716 8.05727 157.56 8.05727 157.385 8.05727C154.449 8.05727 151.492 8.05727 148.556 8.05727C148.381 8.05727 148.225 8.05727 148.05 8.05727C147.953 8.05727 147.895 8.09336 147.895 8.12944C147.895 8.20161 147.895 8.27378 147.895 8.30986C147.895 10.7636 147.895 13.2535 147.895 15.7072C147.895 15.7794 147.895 15.8516 147.875 15.9237C147.875 15.9598 147.817 15.9598 147.739 15.9598C147.681 15.9598 147.603 15.9598 147.544 15.9598C146.942 15.9598 146.339 15.9598 145.736 15.9598C145.658 15.9598 145.561 15.9598 145.483 15.9598C145.444 15.9598 145.405 15.9237 145.386 15.9237C145.366 15.9237 145.366 15.8876 145.366 15.8876C145.366 15.8155 145.366 15.7794 145.366 15.7072C145.366 10.5832 145.366 5.49526 145.366 0.371245C145.366 0.299075 145.366 0.190822 145.366 0.118652C146.202 0.118652 147.058 0.118652 147.895 0.118652C147.895 0.190822 147.914 0.262991 147.914 0.33516C147.914 1.48987 147.914 2.64458 147.914 3.79928C147.914 3.87145 147.914 3.90754 147.914 3.97971C147.914 4.01579 147.953 4.05188 148.167 4.05188C148.264 4.05188 148.361 4.05188 148.478 4.05188C149.8 4.05188 151.142 4.05188 152.465 4.05188C152.562 4.05188 152.659 4.05188 152.776 4.05188C152.971 4.05188 153.029 4.01579 153.029 3.97971C153.029 3.90754 153.029 3.87145 153.029 3.79928C153.029 2.64458 153.029 1.48987 153.029 0.33516C153.029 0.262991 153.009 0.190822 153.068 0.118652C155.518 0.118652 158.047 0.118652 160.575 0.118652Z" fill="#A792BC"/>
<path d="M96.9589 60.6687C96.9589 60.5965 96.9395 60.5244 96.9395 60.4883C96.9395 57.9624 96.9395 18.7023 96.9395 16.1764C96.9395 16.1403 96.9395 16.0681 96.9589 16.032C96.9589 15.9959 97.0367 15.9959 97.1339 15.9959C97.2701 15.9959 97.4062 15.9959 97.5424 15.9959C98.0286 15.9959 98.5148 15.9959 99.001 15.9959C99.1177 15.9959 99.2344 15.9959 99.3511 15.9959C99.4094 15.9959 99.4872 15.9599 99.4872 15.9599C99.4872 15.9238 99.5067 15.9238 99.5067 15.8877C99.5067 15.8155 99.5067 15.7794 99.5067 15.7073C99.5067 10.6554 99.5067 5.56748 99.5067 0.515631C99.5067 0.407378 99.5067 0.299124 99.5067 0.154785C100.343 0.154785 101.199 0.154785 102.035 0.154785C102.035 0.226954 102.054 0.335208 102.054 0.407378C102.054 2.86113 102.054 5.35097 102.054 7.80473C102.054 7.87689 102.054 7.91298 102.054 7.98515C102.054 8.05732 102.093 8.05732 102.327 8.0934C102.463 8.0934 102.599 8.0934 102.735 8.0934C104.019 8.0934 105.283 8.0934 106.566 8.0934C106.722 8.0934 106.878 8.0934 107.014 8.0934C107.072 8.0934 107.13 8.12949 107.15 8.12949L107.169 8.16557C107.169 8.20166 107.169 8.23774 107.169 8.27383C107.169 9.46462 107.169 10.6193 107.169 11.8101C107.169 11.8462 107.169 11.9184 107.15 11.9545C107.15 11.9905 107.072 12.0266 106.975 12.0266C106.858 12.0266 106.742 12.0266 106.625 12.0266C106.119 12.0266 105.613 12.0266 105.108 12.0266C104.991 12.0266 104.874 12.0266 104.758 12.0266C104.699 12.0266 104.622 12.0627 104.622 12.0627C104.622 12.0988 104.602 12.0988 104.602 12.1349C104.602 12.171 104.602 12.2431 104.602 12.2792C104.602 13.4339 104.602 14.5526 104.602 15.7073C104.602 15.7794 104.602 15.8516 104.583 15.8877C104.583 15.9238 104.524 15.9238 104.408 15.9238C104.272 15.9238 104.135 15.9238 103.999 15.9238C103.513 15.9238 103.027 15.9238 102.541 15.9238C102.424 15.9238 102.307 15.9238 102.191 15.9238C102.132 15.9238 102.054 15.9599 102.054 15.9599C102.054 16.032 102.035 16.0681 102.035 16.1403C102.035 17.295 102.035 18.4497 102.035 19.6044C102.035 19.6405 102.035 19.7127 102.035 19.7487C102.035 19.7848 102.035 19.7848 102.035 19.8209C102.035 19.857 101.957 19.8931 101.879 19.8931C101.743 19.8931 101.607 19.8931 101.471 19.8931C100.985 19.8931 100.499 19.8931 100.012 19.8931C99.8956 19.8931 99.7789 19.8931 99.6622 19.8931C99.5845 19.8931 99.5067 19.9292 99.5067 19.9652C99.5067 20.0374 99.5067 20.0735 99.5067 20.1457C99.5067 21.2643 99.5067 59.1892 99.5067 60.3079C99.5067 60.4161 99.5067 60.5244 99.5067 60.6687C98.6315 60.6687 97.7952 60.6687 96.9589 60.6687Z" fill="#A792BC"/>
<path d="M25.5637 60.6687C24.7274 60.6687 23.8717 60.6687 23.0354 60.6687C23.0937 60.5965 23.0743 60.5244 23.0743 60.4522C23.0743 52.694 23.0743 8.12949 23.0743 0.371293C23.0743 0.335208 23.0743 0.263039 23.0743 0.226954C23.0743 0.19087 23.0548 0.19087 23.0354 0.154785C23.8717 0.154785 24.7274 0.154785 25.5637 0.154785C25.5832 0.19087 25.6221 0.19087 25.6221 0.226954C25.6221 0.263039 25.6221 0.335208 25.6221 0.371293C25.6221 8.16557 25.6221 52.694 25.6221 60.4883C25.6221 60.5244 25.6221 60.5965 25.6221 60.6326C25.6221 60.6326 25.5832 60.6326 25.5637 60.6687Z" fill="#A792BC"/>
<path d="M147.856 60.6683C147.856 60.5962 147.876 60.5601 147.876 60.4879C147.876 59.2971 147.876 21.3361 147.876 20.1453C147.876 19.8927 147.798 19.8927 148.537 19.8927C149.043 19.8927 149.548 19.8927 150.054 19.8927C150.132 19.8927 150.229 19.8927 150.307 19.8927C150.346 19.8927 150.385 19.8566 150.404 19.8566C150.424 19.8566 150.424 19.8205 150.424 19.8205C150.424 19.7484 150.424 19.7123 150.424 19.6401C150.424 18.4854 150.424 17.3307 150.424 16.176C150.424 16.1038 150.424 16.0316 150.443 15.9956C150.443 15.9595 150.521 15.9595 150.579 15.9595C150.657 15.9595 150.754 15.9595 150.832 15.9595C152.271 15.9595 153.691 15.9595 155.13 15.9595C155.189 15.9595 155.266 15.9595 155.325 15.9595C155.441 15.9595 155.519 15.9956 155.519 16.0316C155.519 16.1038 155.519 16.1399 155.519 16.2121C155.519 17.0059 155.519 17.7637 155.519 18.5576C155.519 18.9545 155.519 19.3514 155.519 19.7123C155.519 19.7484 155.519 19.8205 155.519 19.8566C155.519 19.8927 155.578 19.9288 155.733 19.9288C155.85 19.9288 155.966 19.9288 156.083 19.9288C156.569 19.9288 157.056 19.9288 157.542 19.9288C157.659 19.9288 157.775 19.9288 157.892 19.9288C157.989 19.9288 158.047 19.9649 158.047 20.0009C158.047 20.037 158.047 20.0731 158.047 20.1092C158.047 21.3361 158.047 59.3332 158.047 60.524C158.047 60.5601 158.047 60.6322 158.047 60.6683C154.644 60.6683 151.24 60.6683 147.856 60.6683Z" fill="#A792BC"/>
<path d="M28.1894 60.6686C28.1894 60.5965 28.1699 60.5243 28.1699 60.4521C28.1699 52.6579 28.1699 8.09335 28.1699 0.33516C28.1699 0.262991 28.1699 0.190822 28.1894 0.118652C29.0257 0.118652 29.8814 0.118652 30.7177 0.118652C30.7177 8.05727 30.7177 52.73 30.7177 60.6686C29.8814 60.6686 29.0451 60.6686 28.1894 60.6686Z" fill="#A792BC"/>
<path d="M33.2456 60.6687L33.2651 60.6326C33.2651 60.5965 33.2651 60.5244 33.2651 60.4883C33.2651 52.694 33.2651 8.12949 33.2651 0.335208C33.2651 0.263039 33.2456 0.19087 33.2456 0.154785C34.0819 0.154785 34.9376 0.154785 35.7739 0.154785C35.7934 0.19087 35.8128 0.226954 35.8128 0.263039C35.8128 0.299124 35.8128 0.371293 35.8128 0.407378C35.8128 8.16557 35.8128 52.694 35.8128 60.4161C35.8128 60.4883 35.8517 60.5965 35.7739 60.6687C34.9182 60.6687 34.0819 60.6687 33.2456 60.6687Z" fill="#A792BC"/>
<path d="M298.095 0.118652C298.095 0.190822 298.115 0.299075 298.115 0.371245C298.115 7.29949 298.115 14.1917 298.115 21.1199C298.115 21.9859 298.115 59.5861 298.115 60.4521C298.115 60.5243 298.095 60.5965 298.095 60.6686C297.259 60.6686 296.403 60.6686 295.567 60.6686C295.567 52.73 295.567 8.05727 295.567 0.118652C296.403 0.118652 297.259 0.118652 298.095 0.118652Z" fill="#A792BC"/>
<path d="M280.32 60.6687C280.32 60.6326 280.301 60.5965 280.301 60.5604C280.301 60.5244 280.301 60.4522 280.301 60.4161C280.301 52.6579 280.301 8.12949 280.301 0.407378C280.301 0.335208 280.32 0.226954 280.32 0.154785C281.157 0.154785 282.012 0.154785 282.849 0.154785C282.849 0.19087 282.849 0.226954 282.849 0.263039C282.849 8.0934 282.849 52.7301 282.849 60.5604C282.849 60.5965 282.849 60.6326 282.849 60.6687C282.012 60.6687 281.176 60.6687 280.32 60.6687Z" fill="#A792BC"/>
<path d="M290.53 60.6687C290.511 60.6326 290.491 60.5965 290.491 60.5604C290.491 60.5244 290.491 60.4522 290.491 60.4161C290.491 52.6579 290.491 8.12949 290.491 0.407378C290.491 0.335208 290.452 0.226954 290.53 0.154785C291.366 0.154785 292.222 0.154785 293.058 0.154785C293.058 0.19087 293.039 0.263039 293.039 0.299124C293.039 8.12949 293.039 52.7301 293.039 60.5604C293.039 60.5965 293.039 60.6687 293.058 60.7048C292.203 60.6687 291.366 60.6687 290.53 60.6687Z" fill="#A792BC"/>
<path d="M303.249 60.6687C303.249 60.6326 303.229 60.5965 303.229 60.5604C303.229 60.5244 303.229 60.4522 303.229 60.4161C303.229 52.6579 303.229 8.12949 303.229 0.407378C303.229 0.335208 303.249 0.226954 303.249 0.154785C304.066 0.154785 304.863 0.154785 305.68 0.154785C305.68 8.0934 305.68 52.7662 305.68 60.7048C304.863 60.6687 304.046 60.6687 303.249 60.6687Z" fill="#A792BC"/>
<path d="M76.5575 0.118604C76.5575 2.68061 76.5575 5.20654 76.5575 7.76855C76.5575 8.09331 76.6936 8.02114 75.799 8.02114C75.3322 8.02114 74.8654 8.02114 74.3792 8.02114C74.3014 8.02114 74.2042 8.02114 74.1264 8.02114C74.0875 8.02114 74.0292 8.02114 74.0292 7.98505C74.0292 7.91288 74.0097 7.8768 74.0097 7.80463C74.0097 7.19119 74.0097 6.61384 74.0097 6.0004C74.0097 5.45913 74.0097 4.88177 74.0097 4.34051C74.0097 4.30442 74.0097 4.23225 74.0097 4.19617C74.0097 4.08791 73.9708 4.05183 73.6402 4.05183C73.5041 4.05183 73.3679 4.05183 73.2318 4.05183C71.1702 4.05183 69.0892 4.05183 67.0277 4.05183C66.8721 4.05183 66.7165 4.05183 66.5804 4.05183C66.4443 4.05183 66.3665 4.01574 66.3665 3.97966C66.3665 3.90749 66.3665 3.87141 66.3665 3.79924C66.3665 2.60844 66.3665 1.41765 66.3665 0.226858C66.3665 0.190773 66.3665 0.118604 66.3665 0.0825195C69.7699 0.118604 73.154 0.118604 76.5575 0.118604Z" fill="#A792BC"/>
<path d="M206.416 60.6688C206.416 60.5966 206.435 60.5605 206.435 60.4883C206.435 59.2976 206.435 21.3365 206.435 20.1457C206.435 20.0736 206.435 20.0375 206.435 19.9653C206.435 19.9292 206.513 19.8931 206.629 19.8931C206.785 19.8931 206.941 19.8931 207.077 19.8931C208.341 19.8931 209.605 19.8931 210.869 19.8931C211.025 19.8931 211.18 19.8931 211.317 19.8931C211.453 19.8931 211.511 19.8571 211.53 19.821C211.53 19.7488 211.53 19.7127 211.53 19.6405C211.53 18.4858 211.53 17.3311 211.53 16.1403C211.53 16.0682 211.53 16.0321 211.55 15.9599C211.55 15.9238 211.628 15.9238 211.686 15.9238C211.725 15.9238 211.744 15.9238 211.783 15.9238C212.464 15.9238 213.125 15.9238 213.806 15.9238C213.864 15.9238 213.903 15.9238 213.962 15.9238C214 15.9238 214.039 15.9599 214.059 15.9599C214.078 15.9599 214.078 15.996 214.078 15.996C214.078 16.0321 214.078 16.1043 214.078 16.1403C214.078 18.7023 214.078 58.0346 214.078 60.5605V60.5966C211.53 60.6688 208.963 60.6688 206.416 60.6688Z" fill="#A792BC"/>
<path d="M63.8379 19.9291C63.974 19.893 64.1296 19.9291 64.2852 19.9291C64.9659 19.9291 65.666 19.9291 66.3467 19.9291C68.6611 19.9291 70.9949 19.9291 73.3093 19.9291C73.4649 19.9291 73.6205 19.9291 73.7566 19.9291C73.9511 19.9291 74.0095 19.9652 74.0095 20.0013C74.0095 20.0735 74.0095 20.1095 74.0095 20.1817C74.0095 21.3725 74.0095 59.3335 74.0095 60.4882C74.0095 60.5604 74.0095 60.5965 74.0289 60.6687C70.6254 60.6687 67.2219 60.6687 63.8379 60.6687C63.8379 60.5965 63.8379 60.5243 63.8379 60.4882C63.8379 59.2974 63.8379 21.3003 63.8379 20.1095C63.8379 20.0374 63.8379 19.9652 63.8379 19.9291Z" fill="#A792BC"/>
<path d="M249.727 19.9287C249.805 19.9287 249.883 19.9287 249.98 19.9287C251.497 19.9287 252.994 19.9287 254.511 19.9287C254.57 19.9287 254.648 19.9287 254.706 19.9287C254.745 19.9287 254.784 19.9648 254.803 19.9648C254.823 19.9648 254.823 20.0009 254.823 20.0009C254.823 20.037 254.823 20.1091 254.823 20.1452C254.823 21.2999 254.823 59.261 254.823 60.4157C254.823 60.4878 254.861 60.56 254.784 60.6322C253.092 60.6322 251.419 60.6322 249.727 60.6322C249.727 59.3692 249.727 21.336 249.727 20.1091C249.727 20.073 249.727 20.0009 249.727 19.9287Z" fill="#A792BC"/>
<path d="M58.6848 0.118652C58.7042 0.154737 58.7237 0.190822 58.7237 0.226906C58.7237 0.262991 58.7237 0.33516 58.7237 0.371245C58.7237 2.825 58.7237 5.27875 58.7237 7.76859C58.7237 7.84076 58.7237 7.91293 58.7237 7.9851C58.7237 8.02118 58.6654 8.05727 58.5681 8.05727C57.7707 8.05727 56.9539 8.05727 56.1565 8.05727H56.1759C56.1759 8.02119 56.1954 7.94902 56.1954 7.91293C56.1954 5.38701 56.1954 2.825 56.1954 0.299075C56.1954 0.262991 56.1759 0.190822 56.1759 0.154737C57.0122 0.118652 57.8485 0.118652 58.6848 0.118652Z" fill="#A792BC"/>
<path d="M104.622 60.6683C104.603 60.6322 104.564 60.6322 104.564 60.5961C104.564 60.56 104.564 60.4879 104.564 60.4518C104.564 59.2971 104.564 21.3361 104.564 20.1814C104.564 20.1092 104.564 20.037 104.583 20.0009C104.583 19.9648 104.661 19.9648 104.7 19.9648C104.758 19.9648 104.797 19.9648 104.855 19.9648C105.517 19.9648 106.158 19.9648 106.82 19.9648C106.878 19.9648 106.956 19.9648 107.014 19.9648C107.034 19.9648 107.073 19.9648 107.073 20.0009C107.092 20.0009 107.092 20.037 107.111 20.037C107.111 20.1092 107.111 20.1453 107.111 20.2174C107.111 21.4082 107.111 59.3332 107.111 60.524C107.111 60.5961 107.073 60.6683 107.15 60.7044C106.314 60.6683 105.478 60.6683 104.622 60.6683Z" fill="#A792BC"/>
<path d="M237.007 4.08791C237.007 2.89712 237.007 1.70633 237.007 0.47945C237.007 0.335112 237.007 0.226858 237.007 0.0825195C237.844 0.0825195 238.699 0.0825195 239.536 0.0825195C239.536 0.154689 239.536 0.226858 239.536 0.262943C239.536 1.45374 239.536 2.64453 239.536 3.87141C239.536 3.94357 239.516 4.01574 239.516 4.05183H239.536C239.458 4.05183 239.38 4.05183 239.283 4.05183C238.622 4.05183 237.96 4.05183 237.28 4.05183C237.202 4.08791 237.105 4.08791 237.007 4.08791Z" fill="#A792BC"/>
<path d="M193.696 4.08801C193.541 4.05192 193.405 4.08801 193.249 4.08801C192.724 4.08801 192.199 4.08801 191.693 4.08801C191.596 4.08801 191.499 4.08801 191.382 4.08801C191.246 4.08801 191.168 4.05192 191.168 4.01584C191.168 3.97975 191.168 3.94367 191.168 3.90759C191.168 2.68071 191.168 1.45383 191.168 0.263039C191.168 0.226954 191.168 0.19087 191.168 0.154785C192.004 0.154785 192.86 0.154785 193.696 0.154785C193.696 0.226954 193.716 0.263039 193.716 0.335208C193.716 1.56209 193.716 2.78896 193.716 4.01584C193.696 4.01584 193.696 4.05192 193.696 4.08801Z" fill="#A792BC"/>
<path d="M201.358 4.08796C201.358 4.01579 201.358 3.94362 201.358 3.90754C201.358 2.71675 201.358 1.52595 201.358 0.33516C201.358 0.262991 201.358 0.190822 201.378 0.118652C202.214 0.118652 203.07 0.118652 203.906 0.118652C203.906 0.226906 203.906 0.33516 203.906 0.443414C203.906 1.59812 203.906 2.71675 203.906 3.87145C203.906 4.08796 203.984 4.08796 203.284 4.08796C202.778 4.08796 202.272 4.08796 201.767 4.08796C201.631 4.08796 201.495 4.08796 201.358 4.08796Z" fill="#A792BC"/>
<path d="M234.479 0.118652C234.479 0.154737 234.46 0.226906 234.46 0.262991C234.46 1.48987 234.46 2.71675 234.46 3.94362C234.46 4.01579 234.479 4.05188 234.499 4.12405C234.343 4.08796 234.207 4.12405 234.052 4.12405C233.527 4.12405 233.001 4.12405 232.496 4.12405C232.36 4.12405 232.223 4.12405 232.087 4.12405C232.01 4.12405 231.932 4.08796 231.932 4.05188C231.932 4.01579 231.912 3.94362 231.912 3.90754C231.912 2.71675 231.912 1.52595 231.912 0.33516C231.912 0.262991 231.893 0.190822 231.951 0.154737C232.807 0.118652 233.643 0.118652 234.479 0.118652Z" fill="#A792BC"/>
<path d="M142.799 60.6687C142.799 60.5965 142.78 60.5604 142.78 60.4883C142.78 59.2614 142.78 21.2643 142.78 20.0374C142.78 20.0013 142.78 19.9292 142.799 19.8931C142.896 19.8931 142.994 19.8931 143.091 19.8931C143.694 19.8931 144.297 19.8931 144.9 19.8931C144.997 19.8931 145.094 19.8931 145.191 19.8931C145.23 19.8931 145.269 19.9292 145.289 19.9292C145.308 19.9292 145.308 19.9652 145.308 19.9652C145.308 20.0374 145.308 20.0735 145.308 20.1457C145.308 21.3725 145.308 59.4057 145.308 60.6326C144.491 60.6687 143.636 60.6687 142.799 60.6687Z" fill="#A792BC"/>
<path d="M229.326 60.6683C229.326 60.6322 229.345 60.5961 229.345 60.56C229.345 59.3332 229.345 21.3361 229.345 20.1092C229.345 20.0731 229.326 20.0009 229.326 19.9648C229.384 19.9648 229.462 19.9648 229.52 19.9648C230.201 19.9648 230.901 19.9648 231.582 19.9648C231.64 19.9648 231.718 19.9648 231.776 19.9648C231.815 19.9648 231.854 20.0009 231.873 20.0009C231.893 20.0009 231.893 20.037 231.893 20.037C231.893 20.0731 231.893 20.1092 231.893 20.1453C231.893 21.3361 231.893 59.2971 231.893 60.4879C231.893 60.56 231.912 60.6322 231.854 60.7044C231.018 60.6683 230.181 60.6683 229.326 60.6683Z" fill="#A792BC"/>
<path d="M137.606 8.05713C137.743 8.05713 137.879 8.05713 138.015 8.05713C139.473 8.05713 140.932 8.05713 142.41 8.05713C142.469 8.05713 142.546 8.05713 142.605 8.05713C142.721 8.05713 142.78 8.09321 142.78 8.1293V8.16538C142.78 8.20147 142.78 8.23755 142.78 8.27364C142.78 9.42834 142.78 10.6191 142.78 11.7738C142.78 11.846 142.78 11.8821 142.76 11.9543C142.76 11.9904 142.683 11.9904 142.585 12.0264C142.507 12.0264 142.41 12.0264 142.332 12.0264C140.913 12.0264 139.512 12.0264 138.093 12.0264C138.034 12.0264 137.957 12.0264 137.898 12.0264C137.743 12.0264 137.684 11.9904 137.665 11.9543C137.665 11.9182 137.665 11.9182 137.665 11.8821C137.665 11.846 137.665 11.7738 137.665 11.7378C137.665 10.5831 137.665 9.42834 137.665 8.27364C137.665 8.23755 137.665 8.16538 137.665 8.1293C137.665 8.09321 137.626 8.05713 137.606 8.05713Z" fill="#A792BC"/>
<path d="M135.097 8.02107C135.097 7.9489 135.117 7.87673 135.117 7.84064C135.117 6.64985 135.117 5.49514 135.117 4.30435C135.117 4.23218 135.117 4.1961 135.136 4.12393C135.136 4.08784 135.214 4.08784 135.292 4.05176C135.35 4.05176 135.428 4.05176 135.486 4.05176C136.089 4.05176 136.692 4.05176 137.295 4.05176C137.353 4.05176 137.431 4.05176 137.489 4.05176C137.548 4.05176 137.625 4.08784 137.625 4.08784C137.625 4.12393 137.645 4.16001 137.645 4.1961C137.645 5.42297 137.645 6.64985 137.645 7.84064C137.645 7.87673 137.645 7.91281 137.625 7.9489C137.625 7.9489 137.587 7.98498 137.567 7.98498H137.587C137.45 7.98498 137.314 7.98498 137.198 7.98498C136.634 7.98498 136.07 7.98498 135.506 7.98498C135.389 8.02107 135.233 8.05715 135.097 8.02107Z" fill="#A792BC"/>
<path d="M203.868 15.924C203.868 15.8518 203.887 15.7797 203.887 15.7436C203.887 14.0837 203.887 12.4238 203.887 10.7278C203.887 9.89788 203.887 9.06794 203.887 8.23799C203.887 8.16582 203.906 8.12974 203.906 8.05757C203.906 8.05757 203.945 8.02148 203.965 8.02148C203.984 8.02148 204.023 8.02148 204.062 8.02148C204.782 8.02148 205.501 8.02148 206.24 8.02148C206.357 8.02148 206.415 8.05757 206.415 8.09365C206.415 8.12974 206.415 8.20191 206.415 8.23799C206.415 8.9236 206.415 9.64529 206.415 10.3309C206.415 12.099 206.415 13.9033 206.415 15.6714C206.415 15.9601 206.532 15.924 205.696 15.924C205.209 15.924 204.723 15.924 204.237 15.924C204.12 15.9601 203.984 15.9601 203.868 15.924Z" fill="#A792BC"/>
<path d="M211.53 10.0057C211.53 9.42834 211.53 8.85099 211.53 8.27364C211.53 8.20147 211.53 8.16538 211.55 8.09321C211.55 8.05713 211.608 8.05713 211.666 8.05713C211.725 8.05713 211.764 8.05713 211.822 8.05713C212.483 8.05713 213.125 8.05713 213.786 8.05713C213.845 8.05713 213.922 8.05713 213.981 8.05713C214 8.05713 214.039 8.05713 214.039 8.09321C214.058 8.1293 214.058 8.16538 214.058 8.20147C214.058 9.42834 214.058 10.6191 214.058 11.846C214.058 11.9904 214.078 12.0264 213.592 12.0264C213.028 12.0264 212.483 12.0264 211.919 12.0264C211.841 12.0264 211.744 12.0264 211.666 12.0264C211.589 12.0264 211.511 11.9904 211.511 11.9543C211.511 11.9182 211.511 11.846 211.511 11.8099C211.511 11.3047 211.511 10.8356 211.511 10.3305C211.53 10.2222 211.53 10.114 211.53 10.0057Z" fill="#A792BC"/>
<path d="M198.83 8.02107C198.83 7.9489 198.811 7.91281 198.811 7.84064C198.811 6.64985 198.811 5.45906 198.811 4.26827C198.811 4.1961 198.83 4.16001 198.83 4.08784C198.83 4.08784 198.869 4.05176 198.889 4.05176C198.928 4.05176 198.986 4.05176 199.044 4.05176C199.783 4.05176 200.522 4.05176 201.262 4.05176C201.3 4.05176 201.32 4.05176 201.359 4.05176C201.359 4.12393 201.339 4.1961 201.339 4.26827C201.339 5.42297 201.339 6.61377 201.339 7.76847C201.339 7.84064 201.339 7.87673 201.32 7.9489C201.32 7.98498 201.262 7.98498 201.184 7.98498C201.067 7.98498 200.95 7.98498 200.834 7.98498C200.172 8.02107 199.511 8.02107 198.83 8.02107Z" fill="#A792BC"/>
<path d="M112.207 8.02111C111.681 8.02111 111.156 8.02111 110.651 8.02111C110.378 8.02111 110.106 8.02111 109.853 8.02111C109.756 8.02111 109.698 7.98503 109.698 7.98503C109.698 7.94894 109.698 7.91286 109.698 7.91286C109.698 6.68598 109.698 5.45911 109.698 4.23223C109.698 4.19614 109.717 4.16006 109.717 4.12398C109.717 4.12398 109.756 4.08789 109.776 4.08789C109.795 4.08789 109.834 4.08789 109.873 4.08789C110.592 4.08789 111.312 4.08789 112.032 4.08789C112.07 4.08789 112.109 4.08789 112.129 4.08789C112.148 4.08789 112.187 4.08789 112.187 4.12398C112.207 4.16006 112.207 4.23223 112.207 4.26831C112.207 5.49519 112.207 6.72207 112.207 7.91286C112.207 7.94895 112.207 7.98503 112.207 8.02111Z" fill="#A792BC"/>
<path d="M234.479 4.08789C234.538 4.08789 234.615 4.08789 234.674 4.08789C235.393 4.08789 236.094 4.08789 236.813 4.08789C236.871 4.08789 236.949 4.08789 237.008 4.08789C237.008 4.16006 236.988 4.23223 236.988 4.3044C236.988 5.49519 236.988 6.6499 236.988 7.84069C236.988 8.09328 237.066 8.0572 236.366 8.0572C235.86 8.0572 235.355 8.0572 234.849 8.0572C234.752 8.0572 234.654 8.0572 234.557 8.0572C234.518 8.0572 234.46 8.0572 234.46 8.02111C234.46 7.94895 234.44 7.91286 234.44 7.84069C234.44 7.26334 234.44 6.68598 234.44 6.10863C234.44 5.49519 234.44 4.91784 234.44 4.3044C234.46 4.23223 234.479 4.16006 234.479 4.08789Z" fill="#A792BC"/>
<path d="M226.797 19.9292C226.797 19.8571 226.817 19.821 226.817 19.7488C226.817 18.5219 226.817 17.3311 226.817 16.1043C226.817 16.0321 226.817 15.996 226.797 15.9238C226.934 15.9238 227.07 15.9238 227.186 15.9238C227.906 15.9238 228.606 15.9238 229.326 15.9238C229.326 15.996 229.345 16.0682 229.345 16.1043C229.345 17.295 229.345 18.4858 229.345 19.7127C229.345 19.7849 229.345 19.8571 229.326 19.8931C229.248 19.8931 229.17 19.8931 229.073 19.8931C228.392 19.8931 227.711 19.8931 227.031 19.8931C226.972 19.8931 226.875 19.9292 226.797 19.9292Z" fill="#A792BC"/>
<path d="M224.269 15.96C224.269 15.9239 224.269 15.8518 224.269 15.8157C224.269 14.5888 224.269 13.3619 224.269 12.1351C224.269 12.099 224.269 12.0268 224.269 11.9907C224.327 11.9907 224.405 11.9907 224.464 11.9907C225.183 11.9907 225.883 11.9907 226.603 11.9907C226.661 11.9907 226.739 11.9907 226.797 11.9907C226.797 12.4959 226.797 13.0011 226.797 13.4702C226.797 14.3001 226.797 15.094 226.797 15.9239C225.961 15.96 225.125 15.96 224.269 15.96Z" fill="#A792BC"/>
</svg>
