<svg width="26" height="28" viewBox="0 0 26 28" fill="none" xmlns="http://www.w3.org/2000/svg">
<path fill-rule="evenodd" clip-rule="evenodd" d="M20.8 19.1918H26V17.4584H20.8V19.1918ZM24.2667 8.79176H0V26.1251C0 27.0819 0.776533 27.8584 1.73333 27.8584H24.2667C25.2235 27.8584 26 27.0819 26 26.1251V20.9251H19.9333C19.4549 20.9251 19.0667 20.5377 19.0667 20.0584V16.5918C19.0667 16.1134 19.4549 15.7251 19.9333 15.7251H26V10.5251C26 9.5683 25.2235 8.79176 24.2667 8.79176ZM24.2667 0.991765C24.2667 0.512498 24.0621 0.247288 23.6167 0.071355C23.2735 -0.0647117 22.9398 0.0167651 22.5333 0.125098L0 7.05843H24.2667V0.991765Z" fill="white"/>
</svg>
