<svg width="20" height="20" viewBox="0 0 20 20" fill="none" xmlns="http://www.w3.org/2000/svg">
<g clip-path="url(#clip0_196_42)">
<path d="M8.09925 13.226C8.09925 13.0322 8.09925 12.8112 8.09925 12.546C8.29792 11.995 8.59655 11.9553 8.74593 11.1097C8.89846 11.0553 9.02249 10.9863 9.13432 10.8531C9.04753 10.6817 8.96292 10.4836 8.89362 10.248C8.3637 9.90084 8.10843 9.33209 7.86823 8.48998C7.7003 7.90236 7.73237 7.40748 7.96311 7.01877C8.01108 6.93791 8.06718 6.8635 8.13022 6.79584C8.06229 6.07803 8.01538 5.37127 8.00889 4.7001C7.98788 4.69553 7.97089 4.68744 7.9496 4.68365C7.42749 4.2774 7.0962 4.09334 5.97702 4.16123C5.26835 4.16123 4.72979 4.31756 3.97936 4.10303C2.978 4.94295 3.25319 7.70182 3.39335 9.03256C3.21706 9.07221 2.91327 9.23584 3.10761 9.91564C3.35612 10.7863 3.55507 10.9852 3.90303 11.1097C4.05264 11.9553 4.5071 12.2271 4.53999 12.546C4.53999 13.0101 4.53999 13.3484 4.53999 13.6193C4.53999 14.0285 3.87261 14.3735 3.37878 14.5476C2.42886 14.8824 -0.217746 15.8733 0.0142458 18.6499H4.15589C4.03253 16.927 4.65303 14.656 8.09925 13.226Z" fill="#BDBDBD"/>
<path d="M15.9818 13.7713C15.3362 13.5298 14.6006 13.1538 14.6006 12.6673C14.6006 12.3452 14.6006 11.9427 14.6006 11.3907C14.837 10.7354 15.1923 10.6885 15.3699 9.68279C15.7839 9.53482 16.0206 9.29814 16.3163 8.26279C16.5384 7.4835 16.2112 7.27432 15.9993 7.21853C16.0036 7.17701 16.008 7.13525 16.0114 7.08619C16.0915 5.91904 16.7691 2.45447 14.423 2.04045C13.8019 1.5574 13.4078 1.33854 12.0768 1.41939C11.2342 1.41912 10.5937 1.60514 9.70125 1.3501C8.51035 2.34908 8.83761 5.62979 9.00418 7.2126C8.79472 7.25951 8.43351 7.45412 8.66453 8.26279C8.95996 9.29814 9.19664 9.53482 9.61066 9.68279C9.78828 10.6885 10.3287 11.0114 10.3681 11.3907C10.3681 11.9427 10.3681 12.3451 10.3681 12.6673C10.3681 13.1538 9.57425 13.5644 8.98691 13.7713C7.85722 14.1695 4.70992 15.3479 4.98566 18.65H19.983C20.2587 15.3479 17.1036 14.191 15.9818 13.7713Z" fill="#BDBDBD"/>
</g>
<defs>
<clipPath id="clip0_196_42">
<rect width="20" height="20" fill="white"/>
</clipPath>
</defs>
</svg>
