<svg width="97" height="97" viewBox="0 0 97 97" fill="none" xmlns="http://www.w3.org/2000/svg">
<path opacity="0.0714286" d="M74.1711 31.4911C75.731 32.3082 76.6546 33.9756 76.521 35.732L73.9191 69.8696C73.7646 71.8992 72.2413 73.5593 70.2331 73.8875L38.8826 79.0094C37.046 79.3097 35.2191 78.4237 34.3172 76.7956L17.0001 45.5393C16.0981 43.9112 16.3153 41.8917 17.5429 40.4925L38.4978 16.6067C39.8401 15.0767 42.0545 14.6642 43.8568 15.6085L74.1711 31.4911Z" stroke="url(#paint0_linear_195_22)"/>
<path opacity="0.142857" d="M78.7733 42.8794C79.8899 44.241 80.089 46.1363 79.2801 47.7004L63.5531 78.1073C62.6179 79.9151 60.567 80.8484 58.5898 80.3653L27.732 72.8243C25.9242 72.3825 24.5886 70.8532 24.3941 69.0023L20.6603 33.4599C20.4659 31.6091 21.4545 29.8353 23.131 29.0271L51.7474 15.2324C53.5811 14.3485 55.781 14.8345 57.0713 16.4084L78.7733 42.8794Z" stroke="url(#paint1_linear_195_22)"/>
<path opacity="0.214286" d="M78.5621 55.161C79.0578 56.8509 78.5008 58.6734 77.1451 59.7971L50.7936 81.6388C49.2268 82.9374 46.9744 82.9945 45.3435 81.7766L19.8835 62.772C18.3919 61.6586 17.7597 59.7288 18.3036 57.949L28.7472 23.7727C29.2911 21.9928 30.8938 20.7464 32.7527 20.6579L64.4818 19.1466C66.5146 19.0498 68.3497 20.3571 68.9229 22.3103L78.5621 55.161Z" stroke="url(#paint2_linear_195_22)"/>
<path opacity="0.285714" d="M73.571 66.3824C73.3673 68.1321 72.1425 69.5931 70.4554 70.0976L37.6688 79.9011C35.7198 80.4836 33.6251 79.6565 32.5995 77.8985L16.5845 50.4507C15.6464 48.8425 15.8184 46.8185 17.0145 45.3925L39.9738 18.0171C41.1698 16.591 43.1322 16.07 44.8778 16.7151L74.6765 27.7283C76.5845 28.4336 77.7629 30.3538 77.5276 32.3755L73.571 66.3824Z" stroke="url(#paint3_linear_195_22)"/>
<path opacity="0.357143" d="M64.595 74.76C63.7239 76.292 62.0248 77.1581 60.2741 76.9632L26.266 73.1704C24.2446 72.9449 22.6401 71.365 22.3825 69.347L18.36 37.8186C18.1244 35.9718 19.0736 34.1758 20.732 33.3304L52.5554 17.1074C54.2137 16.262 56.2243 16.5494 57.579 17.8256L80.7086 39.6135C82.1892 41.0082 82.5238 43.2354 81.5176 45.0041L64.595 74.76Z" stroke="url(#paint4_linear_195_22)"/>
<path opacity="0.428571" d="M53.0604 78.9645C51.6602 80.0343 49.7573 80.1671 48.2215 79.3029L18.3983 62.5172C16.6258 61.5194 15.7659 59.4388 16.3169 57.4807L24.9274 26.8853C25.4317 25.0933 27.0071 23.8111 28.8641 23.6811L64.4925 21.1886C66.3494 21.0586 68.088 22.109 68.8366 23.8134L81.6192 52.9119C82.437 54.7744 81.875 56.9548 80.2584 58.1894L53.0604 78.9645Z" stroke="url(#paint5_linear_195_22)"/>
<path opacity="0.5" d="M40.8002 78.3255C39.0935 78.7627 37.2902 78.1417 36.2143 76.7457L15.3172 49.6358C14.0751 48.0244 14.0963 45.7725 15.3684 44.1854L35.2426 19.3885C36.4067 17.9361 38.3575 17.3716 40.1176 17.978L73.8875 29.6116C75.6475 30.218 76.8374 31.8645 76.8611 33.726L77.263 65.508C77.289 67.5423 75.9199 69.33 73.9497 69.8345L40.8002 78.3255Z" stroke="url(#paint6_linear_195_22)"/>
<path opacity="0.571429" d="M29.7633 72.9444C28.0221 72.6794 26.6054 71.4035 26.1603 69.6983L17.5118 36.5738C16.9977 34.6047 17.8971 32.5394 19.6885 31.5754L47.6655 16.5199C49.3043 15.638 51.3204 15.8807 52.7035 17.1266L79.2467 41.0382C80.6297 42.284 81.0818 44.2645 80.3763 45.9874L68.3349 75.3986C67.564 77.282 65.6049 78.3926 63.5939 78.0872L29.7633 72.9444Z" stroke="url(#paint7_linear_195_22)"/>
<path opacity="0.642857" d="M21.7052 63.6756C20.2064 62.7516 19.4012 61.0237 19.6572 59.2814L24.6327 25.4084C24.9285 23.3946 26.5638 21.8445 28.5901 21.6574L60.2212 18.7358C62.0744 18.5647 63.8348 19.5758 64.621 21.2627L79.7168 53.6517C80.503 55.3387 80.1457 57.3382 78.8234 58.6484L56.2544 81.0131C54.8087 82.4458 52.5707 82.703 50.8387 81.635L21.7052 63.6756Z" stroke="url(#paint8_linear_195_22)"/>
<path opacity="0.714286" d="M17.9083 51.9938C16.8897 50.5578 16.8232 48.6531 17.7392 47.1494L35.5479 17.9142C36.6067 16.176 38.7178 15.3883 40.6564 16.0083L70.9131 25.6842C72.686 26.251 73.9117 27.8699 73.9767 29.7298L75.2233 65.4462C75.2883 67.3063 74.1781 69.0069 72.4493 69.6961L42.9409 81.46C41.0503 82.2137 38.8894 81.5751 37.7119 79.9154L17.9083 51.9938Z" stroke="url(#paint9_linear_195_22)"/>
<path opacity="0.785714" d="M18.9758 39.7578C18.5989 38.0374 19.2817 36.2578 20.7123 35.2316L48.5228 15.2824C50.1759 14.0963 52.4264 14.1965 53.9687 15.5248L78.0418 36.2601C79.4523 37.4748 79.9484 39.4443 79.2815 41.1819L66.4808 74.5457C65.8143 76.2834 64.1281 77.4149 62.268 77.3736L30.5103 76.6667C28.4758 76.6213 26.7363 75.1895 26.3008 73.2007L18.9758 39.7578Z" stroke="url(#paint10_linear_195_22)"/>
<path opacity="0.857143" d="M24.7368 28.912C25.062 27.1803 26.386 25.8086 28.1044 25.423L61.4943 17.9315C63.4793 17.4861 65.5107 18.4576 66.4116 20.2826L80.4738 48.7816C81.2976 50.4511 80.9848 52.4584 79.6922 53.7973L54.8802 79.5037C53.5876 80.8427 51.5938 81.2256 49.8974 80.4603L20.939 67.394C19.0846 66.5572 18.0433 64.5597 18.4188 62.5598L24.7368 28.912Z" stroke="url(#paint11_linear_195_22)"/>
<path opacity="0.928571" d="M34.275 21.1805C35.2509 19.7131 37.0064 18.9675 38.7394 19.2845L72.4001 25.4414C74.4009 25.8074 75.8912 27.4951 76.0072 29.5262L77.8219 61.259C77.9281 63.1173 76.856 64.8429 75.1425 65.5706L42.266 79.5331C40.5526 80.2603 38.5672 79.8333 37.3046 78.4661L15.75 55.1169C14.3704 53.622 14.1922 51.3771 15.319 49.6831L34.275 21.1805Z" stroke="url(#paint12_linear_195_22)"/>
<path d="M46.0746 17.7917C47.5462 16.8223 49.4538 16.8223 50.9255 17.7917L79.5057 36.6179C81.2043 37.7368 81.9172 39.8726 81.2308 41.7874L70.5083 71.7072C69.8799 73.4597 68.2193 74.6288 66.3578 74.6288H30.6424C28.7809 74.6288 27.1199 73.4597 26.4918 71.7072L15.7692 41.7874C15.083 39.8726 15.7957 37.7368 17.4944 36.6179L46.0746 17.7917Z" stroke="url(#paint13_linear_195_22)"/>
<defs>
<linearGradient id="paint0_linear_195_22" x1="38.2745" y1="30.1826" x2="59.0155" y2="67.582" gradientUnits="userSpaceOnUse">
<stop offset="0.166667" stop-color="#876CF5" stop-opacity="0"/>
<stop offset="0.520833" stop-color="#1FDBFA" stop-opacity="0.6"/>
<stop offset="1" stop-color="#876CF5" stop-opacity="0.36"/>
</linearGradient>
<linearGradient id="paint1_linear_195_22" x1="46.2409" y1="27.6414" x2="50.7138" y2="70.1775" gradientUnits="userSpaceOnUse">
<stop offset="0.166667" stop-color="#876CF5" stop-opacity="0"/>
<stop offset="0.520833" stop-color="#1FDBFA" stop-opacity="0.6"/>
<stop offset="1" stop-color="#876CF5" stop-opacity="0.36"/>
</linearGradient>
<linearGradient id="paint2_linear_195_22" x1="54.5664" y1="28.4166" x2="42.0565" y2="69.3147" gradientUnits="userSpaceOnUse">
<stop offset="0.166667" stop-color="#876CF5" stop-opacity="0"/>
<stop offset="0.520833" stop-color="#1FDBFA" stop-opacity="0.6"/>
<stop offset="1" stop-color="#876CF5" stop-opacity="0.36"/>
</linearGradient>
<linearGradient id="paint3_linear_195_22" x1="61.9278" y1="32.3847" x2="34.4329" y2="65.1353" gradientUnits="userSpaceOnUse">
<stop offset="0.166667" stop-color="#876CF5" stop-opacity="0"/>
<stop offset="0.520833" stop-color="#1FDBFA" stop-opacity="0.6"/>
<stop offset="1" stop-color="#876CF5" stop-opacity="0.36"/>
</linearGradient>
<linearGradient id="paint4_linear_195_22" x1="67.1537" y1="38.9148" x2="29.0562" y2="58.3169" gradientUnits="userSpaceOnUse">
<stop offset="0.166667" stop-color="#876CF5" stop-opacity="0"/>
<stop offset="0.520833" stop-color="#1FDBFA" stop-opacity="0.6"/>
<stop offset="1" stop-color="#876CF5" stop-opacity="0.36"/>
</linearGradient>
<linearGradient id="paint5_linear_195_22" x1="69.4144" y1="46.9694" x2="26.7689" y2="49.9499" gradientUnits="userSpaceOnUse">
<stop offset="0.166667" stop-color="#876CF5" stop-opacity="0"/>
<stop offset="0.520833" stop-color="#1FDBFA" stop-opacity="0.6"/>
<stop offset="1" stop-color="#876CF5" stop-opacity="0.36"/>
</linearGradient>
<linearGradient id="paint6_linear_195_22" x1="68.3497" y1="55.2669" x2="27.925" y2="41.3546" gradientUnits="userSpaceOnUse">
<stop offset="0.166667" stop-color="#876CF5" stop-opacity="0"/>
<stop offset="0.520833" stop-color="#1FDBFA" stop-opacity="0.6"/>
<stop offset="1" stop-color="#876CF5" stop-opacity="0.36"/>
</linearGradient>
<linearGradient id="paint7_linear_195_22" x1="64.1291" y1="62.4883" x2="32.3459" y2="33.8851" gradientUnits="userSpaceOnUse">
<stop offset="0.166667" stop-color="#876CF5" stop-opacity="0"/>
<stop offset="0.520833" stop-color="#1FDBFA" stop-opacity="0.6"/>
<stop offset="1" stop-color="#876CF5" stop-opacity="0.36"/>
</linearGradient>
<linearGradient id="paint8_linear_195_22" x1="57.4235" y1="67.486" x2="39.342" y2="28.7297" gradientUnits="userSpaceOnUse">
<stop offset="0.166667" stop-color="#876CF5" stop-opacity="0"/>
<stop offset="0.520833" stop-color="#1FDBFA" stop-opacity="0.6"/>
<stop offset="1" stop-color="#876CF5" stop-opacity="0.36"/>
</linearGradient>
<linearGradient id="paint9_linear_195_22" x1="49.2992" y1="69.4654" x2="47.8057" y2="26.7209" gradientUnits="userSpaceOnUse">
<stop offset="0.166667" stop-color="#876CF5" stop-opacity="0"/>
<stop offset="0.520833" stop-color="#1FDBFA" stop-opacity="0.6"/>
<stop offset="1" stop-color="#876CF5" stop-opacity="0.36"/>
</linearGradient>
<linearGradient id="paint10_linear_195_22" x1="41.0479" y1="68.1113" x2="56.3811" y2="28.1867" gradientUnits="userSpaceOnUse">
<stop offset="0.166667" stop-color="#876CF5" stop-opacity="0"/>
<stop offset="0.520833" stop-color="#1FDBFA" stop-opacity="0.6"/>
<stop offset="1" stop-color="#876CF5" stop-opacity="0.36"/>
</linearGradient>
<linearGradient id="paint11_linear_195_22" x1="33.9815" y1="63.6389" x2="63.6928" y2="32.8872" gradientUnits="userSpaceOnUse">
<stop offset="0.166667" stop-color="#876CF5" stop-opacity="0"/>
<stop offset="0.520833" stop-color="#1FDBFA" stop-opacity="0.6"/>
<stop offset="1" stop-color="#876CF5" stop-opacity="0.36"/>
</linearGradient>
<linearGradient id="paint12_linear_195_22" x1="29.2233" y1="56.7599" x2="68.5804" y2="40.0621" gradientUnits="userSpaceOnUse">
<stop offset="0.166667" stop-color="#876CF5" stop-opacity="0"/>
<stop offset="0.520833" stop-color="#1FDBFA" stop-opacity="0.6"/>
<stop offset="1" stop-color="#876CF5" stop-opacity="0.36"/>
</linearGradient>
<linearGradient id="paint13_linear_195_22" x1="27.5299" y1="48.5674" x2="70.2791" y2="48.5674" gradientUnits="userSpaceOnUse">
<stop offset="0.166667" stop-color="#876CF5" stop-opacity="0"/>
<stop offset="0.520833" stop-color="#1FDBFA" stop-opacity="0.6"/>
<stop offset="1" stop-color="#876CF5" stop-opacity="0.36"/>
</linearGradient>
</defs>
</svg>
