<svg width="21" height="20" viewBox="0 0 21 20" xmlns="http://www.w3.org/2000/svg">
<mask id="mask0_8_456" style="mask-type:alpha" maskUnits="userSpaceOnUse" x="0" y="0" width="20" height="20">
<path d="M19.9238 0.476074H0.876221V19.5237H19.9238V0.476074Z" />
</mask>
<g mask="url(#mask0_8_456)">
<path d="M9.68584 14.9802C9.68584 15.2979 9.94347 15.5556 10.2613 15.5556H10.5344C10.8328 15.5556 11.0747 15.3137 11.0747 15.0152C11.0747 14.7538 11.2635 14.534 11.5142 14.46C11.9916 14.3191 12.4139 14.0957 12.7811 13.7897C13.2573 13.3928 13.4954 12.8042 13.4954 12.0238C13.4954 11.4682 13.3366 10.959 13.0192 10.4961C12.7017 10.033 12.0668 9.62958 11.1144 9.28571C10.3208 9.02115 9.77182 8.78967 9.46759 8.59126C9.16336 8.39285 9.01124 8.12168 9.01124 7.77776C9.01124 7.43385 9.13359 7.16269 9.37831 6.96428C9.62301 6.76586 9.97685 6.66666 10.4398 6.66666C10.8631 6.66666 11.1938 6.76916 11.4319 6.97419C11.4834 7.01859 11.5319 7.06531 11.5772 7.11436C11.847 7.4061 12.2565 7.61262 12.6247 7.46307C12.9597 7.32699 13.1423 6.9492 12.9521 6.6418C12.8106 6.41337 12.6313 6.2034 12.4141 6.0119C12.1549 5.78354 11.8769 5.62226 11.5799 5.52803C11.3238 5.44677 11.1144 5.22981 11.1144 4.9611C11.1144 4.67575 10.8831 4.44443 10.5978 4.44443H10.2755C9.97175 4.44443 9.72553 4.69065 9.72553 4.99438C9.72553 5.25258 9.54379 5.47085 9.30042 5.55709C8.83896 5.7206 8.46479 5.97141 8.17791 6.30951C7.80754 6.74602 7.62235 7.23544 7.62235 7.77776C7.62235 8.39946 7.80423 8.9021 8.16798 9.28571C8.53175 9.6693 9.10383 9.99996 9.88426 10.2778C10.7176 10.582 11.2963 10.8532 11.6203 11.0913C11.9444 11.3294 12.1064 11.6402 12.1064 12.0238C12.1064 12.4603 11.9511 12.7811 11.6402 12.9861C11.3294 13.1911 10.9557 13.2937 10.5192 13.2937C10.0827 13.2937 9.69577 13.1581 9.35846 12.8869C9.18771 12.7496 9.03984 12.5776 8.91485 12.3708C8.70158 12.0181 8.28372 11.7969 7.90015 11.9481C7.56295 12.0809 7.37525 12.4528 7.52672 12.7821C7.69536 13.1486 7.90911 13.4614 8.16798 13.7202C8.46232 14.0145 8.8225 14.2393 9.24853 14.3943C9.49968 14.4858 9.68584 14.7128 9.68584 14.9802ZM10.4001 17.9365C9.30224 17.9365 8.2705 17.7282 7.30489 17.3115C6.33928 16.8948 5.49934 16.3294 4.78505 15.6151C4.07077 14.9008 3.50529 14.0608 3.08862 13.0952C2.67196 12.1296 2.46362 11.0979 2.46362 9.99996C2.46362 8.90211 2.67196 7.87035 3.08862 6.90475C3.50529 5.93914 4.07077 5.09919 4.78505 4.3849C5.49934 3.67062 6.33928 3.10514 7.30489 2.68848C8.2705 2.27181 9.30224 2.06348 10.4001 2.06348C11.4981 2.06348 12.5298 2.27181 13.4954 2.68848C14.461 3.10514 15.3009 3.67062 16.0152 4.3849C16.7295 5.09919 17.295 5.93914 17.7117 6.90475C18.1283 7.87035 18.3366 8.90211 18.3366 9.99996C18.3366 11.0979 18.1283 12.1296 17.7117 13.0952C17.295 14.0608 16.7295 14.9008 16.0152 15.6151C15.3009 16.3294 14.461 16.8948 13.4954 17.3115C12.5298 17.7282 11.4981 17.9365 10.4001 17.9365Z"/>
</g>
</svg>
