<svg width="21" height="20" viewBox="0 0 21 20" xmlns="http://www.w3.org/2000/svg">
<mask id="mask0_8_476" style="mask-type:alpha" maskUnits="userSpaceOnUse" x="0" y="0" width="21" height="20">
<path d="M20.8 0H0.800049V20H20.8V0Z"/>
</mask>
<g mask="url(#mask0_8_476)">
<path d="M8.43248 18.289C7.13741 18.7207 5.80002 17.7568 5.80002 16.3917V12.879C5.80002 12.5085 5.69712 12.1453 5.50278 11.8299L3.73834 8.96606C3.34187 8.32256 3.34203 7.51053 3.73876 6.86719L6.35988 2.61672C6.72408 2.02613 7.36836 1.6665 8.06222 1.6665H13.5378C14.2316 1.6665 14.8759 2.02613 15.2401 2.61672L17.8613 6.86719C18.258 7.51053 18.2581 8.32256 17.8617 8.96606L16.0972 11.8299C15.9029 12.1453 15.8 12.5085 15.8 12.879V16.3917C15.8 17.7568 14.4626 18.7207 13.1675 18.289L11.4324 17.7107C11.0219 17.5738 10.5781 17.5738 10.1676 17.7107L8.43248 18.289ZM8.99829 3.33316C8.30521 3.33316 7.66153 3.69199 7.2971 4.28152L5.70013 6.86485C5.30171 7.50934 5.30171 8.32365 5.70013 8.96814L7.2971 11.5515C7.66153 12.141 8.30521 12.4999 8.99829 12.4999H12.6017C13.2948 12.4999 13.9385 12.141 14.3029 11.5515L15.8999 8.96814C16.2983 8.32365 16.2983 7.50935 15.8999 6.86485L14.3029 4.28152C13.9385 3.69199 13.2948 3.33316 12.6017 3.33316H8.99829ZM11.3342 9.89688C10.5557 10.6789 9.29077 10.6826 8.5077 9.90499L7.56358 8.96752C7.23427 8.64053 7.23333 8.10819 7.56149 7.78003C7.88883 7.45269 8.41955 7.45269 8.74689 7.78003L9.0383 8.07144C9.5276 8.56074 10.3213 8.55957 10.8091 8.06883L12.8627 6.00309C13.1853 5.67857 13.7094 5.67547 14.0359 5.99617C14.3652 6.31972 14.3681 6.84955 14.0424 7.17672L11.3342 9.89688Z"/>
</g>
</svg>
