<svg width="209" height="209" viewBox="0 0 209 209" fill="none" xmlns="http://www.w3.org/2000/svg">
<path opacity="0.0714286" d="M159.812 67.8522C163.173 69.6128 165.163 73.2054 164.875 76.9897L159.269 150.544C158.936 154.917 155.654 158.494 151.327 159.201L83.7779 170.237C79.8208 170.884 75.8845 168.975 73.9411 165.467L36.6291 98.1209C34.6856 94.6131 35.1536 90.2618 37.7986 87.2469L82.9488 35.7816C85.8409 32.485 90.6122 31.5962 94.4955 33.6308L159.812 67.8522Z" stroke="url(#paint0_linear_7_823)"/>
<path opacity="0.142857" d="M169.728 92.3895C172.134 95.3233 172.563 99.407 170.82 102.777L136.934 168.293C134.919 172.188 130.5 174.199 126.24 173.158L59.7525 156.91C55.8573 155.958 52.9795 152.663 52.5606 148.675L44.5155 72.0939C44.0966 68.106 46.2268 64.2841 49.839 62.5428L111.497 32.8201C115.448 30.9157 120.188 31.9629 122.968 35.3541L169.728 92.3895Z" stroke="url(#paint1_linear_7_823)"/>
<path opacity="0.214286" d="M169.273 118.852C170.341 122.493 169.141 126.42 166.22 128.841L109.442 175.902C106.066 178.7 101.213 178.823 97.699 176.199L42.8417 135.251C39.6279 132.852 38.2658 128.694 39.4377 124.859L61.9398 51.2214C63.1117 47.3864 66.5651 44.701 70.5702 44.5102L138.935 41.254C143.315 41.0454 147.269 43.8622 148.504 48.0706L169.273 118.852Z" stroke="url(#paint2_linear_7_823)"/>
<path opacity="0.285714" d="M158.519 143.03C158.08 146.8 155.441 149.948 151.806 151.035L81.1628 172.158C76.9632 173.413 72.4499 171.631 70.2401 167.843L35.7337 108.703C33.7123 105.238 34.083 100.877 36.6601 97.8045L86.1291 38.8203C88.7062 35.7475 92.9344 34.625 96.6955 36.015L160.901 59.7445C165.012 61.2641 167.551 65.4015 167.044 69.7574L158.519 143.03Z" stroke="url(#paint3_linear_7_823)"/>
<path opacity="0.357143" d="M139.179 161.081C137.302 164.382 133.641 166.248 129.869 165.828L56.5937 157.656C52.2383 157.17 48.7812 153.766 48.2263 149.418L39.5591 81.4856C39.0515 77.5065 41.0967 73.6366 44.67 71.8151L113.238 36.8605C116.811 35.0389 121.143 35.6582 124.062 38.4079L173.898 85.3529C177.088 88.358 177.809 93.1569 175.641 96.9678L139.179 161.081Z" stroke="url(#paint4_linear_7_823)"/>
<path opacity="0.428571" d="M114.326 170.14C111.309 172.445 107.209 172.731 103.9 170.869L39.6418 134.702C35.8226 132.552 33.9698 128.069 35.1571 123.85L53.7095 57.9281C54.7961 54.067 58.1906 51.3042 62.1918 51.0242L138.958 45.6536C142.959 45.3736 146.705 47.6369 148.318 51.3091L175.86 114.006C177.622 118.019 176.411 122.717 172.928 125.377L114.326 170.14Z" stroke="url(#paint5_linear_7_823)"/>
<path opacity="0.5" d="M87.9098 168.763C84.2324 169.705 80.3469 168.367 78.0287 165.359L33.0031 106.947C30.3269 103.475 30.3724 98.6231 33.1133 95.2033L75.9352 41.7751C78.4434 38.6457 82.6467 37.4294 86.4389 38.7358L159.201 63.8022C162.993 65.1086 165.557 68.6562 165.608 72.6672L166.474 141.146C166.53 145.529 163.58 149.381 159.335 150.468L87.9098 168.763Z" stroke="url(#paint6_linear_7_823)"/>
<path opacity="0.571429" d="M64.1291 157.169C60.3775 156.598 57.3251 153.849 56.3661 150.175L37.7317 78.8036C36.624 74.5609 38.5618 70.1109 42.4217 68.0338L102.702 35.5946C106.233 33.6944 110.577 34.2175 113.557 36.9018L170.748 88.4227C173.728 91.107 174.702 95.3743 173.182 99.0864L147.237 162.457C145.576 166.515 141.355 168.908 137.022 168.25L64.1291 157.169Z" stroke="url(#paint7_linear_7_823)"/>
<path opacity="0.642857" d="M46.767 137.198C43.5376 135.207 41.8027 131.484 42.3542 127.73L53.0746 54.746C53.712 50.4068 57.2354 47.067 61.6013 46.6638L129.755 40.3689C133.748 40.0001 137.541 42.1788 139.235 45.8135L171.761 115.6C173.455 119.235 172.685 123.543 169.836 126.366L121.208 174.554C118.093 177.641 113.271 178.195 109.539 175.894L46.767 137.198Z" stroke="url(#paint8_linear_7_823)"/>
<path opacity="0.714286" d="M38.5859 112.028C36.3911 108.934 36.2479 104.83 38.2216 101.59L76.5928 38.5988C78.8743 34.8535 83.4229 33.1564 87.5999 34.4922L152.792 55.3402C156.612 56.5616 159.253 60.0496 159.393 64.0571L162.079 141.013C162.219 145.021 159.827 148.685 156.102 150.17L92.5222 175.517C88.4485 177.141 83.7926 175.765 81.2556 172.189L38.5859 112.028Z" stroke="url(#paint9_linear_7_823)"/>
<path opacity="0.785714" d="M40.8859 85.6635C40.0739 81.9566 41.545 78.1224 44.6276 75.9112L104.549 32.9278C108.111 30.3722 112.96 30.5881 116.283 33.4502L168.152 78.1272C171.191 80.7445 172.26 84.988 170.823 88.732L143.242 160.619C141.806 164.363 138.173 166.801 134.165 166.712L65.7386 165.189C61.3551 165.091 57.6071 162.006 56.6687 157.721L40.8859 85.6635Z" stroke="url(#paint10_linear_7_823)"/>
<path opacity="0.857143" d="M53.2989 62.295C53.9995 58.564 56.8524 55.6083 60.5548 54.7776L132.498 38.6361C136.775 37.6765 141.152 39.7697 143.093 43.7018L173.392 105.107C175.167 108.704 174.493 113.029 171.708 115.914L118.247 171.302C115.462 174.187 111.166 175.012 107.511 173.363L45.116 145.21C41.1204 143.407 38.8768 139.103 39.686 134.794L53.2989 62.295Z" stroke="url(#paint11_linear_7_823)"/>
<path opacity="0.928571" d="M73.8502 45.6362C75.9529 42.4745 79.7354 40.8681 83.4693 41.5511L155.996 54.817C160.307 55.6055 163.518 59.2419 163.768 63.6183L167.678 131.991C167.907 135.995 165.597 139.713 161.905 141.281L91.0679 171.365C87.3761 172.932 83.0983 172.012 80.378 169.066L33.9356 118.757C30.9629 115.536 30.5791 110.699 33.0068 107.049L73.8502 45.6362Z" stroke="url(#paint12_linear_7_823)"/>
<path d="M99.2741 38.3346C102.445 36.2459 106.555 36.2459 109.726 38.3346L171.306 78.8982C174.966 81.3091 176.502 85.9109 175.023 90.0366L151.92 154.503C150.566 158.279 146.988 160.798 142.977 160.798H66.0234C62.0124 160.798 58.4335 158.279 57.0803 154.503L33.977 90.0366C32.4984 85.9109 34.0341 81.3091 37.6941 78.8982L99.2741 38.3346Z" stroke="url(#paint13_linear_7_823)"/>
<defs>
<linearGradient id="paint0_linear_7_823" x1="82.4678" y1="65.0329" x2="127.157" y2="145.615" gradientUnits="userSpaceOnUse">
<stop offset="0.166667" stop-color="#876CF5" stop-opacity="0"/>
<stop offset="0.520833" stop-color="#1FDBFA" stop-opacity="0.6"/>
<stop offset="1" stop-color="#876CF5" stop-opacity="0.36"/>
</linearGradient>
<linearGradient id="paint1_linear_7_823" x1="99.6325" y1="59.5572" x2="109.27" y2="151.207" gradientUnits="userSpaceOnUse">
<stop offset="0.166667" stop-color="#876CF5" stop-opacity="0"/>
<stop offset="0.520833" stop-color="#1FDBFA" stop-opacity="0.6"/>
<stop offset="1" stop-color="#876CF5" stop-opacity="0.36"/>
</linearGradient>
<linearGradient id="paint2_linear_7_823" x1="117.571" y1="61.2275" x2="90.6167" y2="149.348" gradientUnits="userSpaceOnUse">
<stop offset="0.166667" stop-color="#876CF5" stop-opacity="0"/>
<stop offset="0.520833" stop-color="#1FDBFA" stop-opacity="0.6"/>
<stop offset="1" stop-color="#876CF5" stop-opacity="0.36"/>
</linearGradient>
<linearGradient id="paint3_linear_7_823" x1="133.432" y1="69.7773" x2="74.1904" y2="140.343" gradientUnits="userSpaceOnUse">
<stop offset="0.166667" stop-color="#876CF5" stop-opacity="0"/>
<stop offset="0.520833" stop-color="#1FDBFA" stop-opacity="0.6"/>
<stop offset="1" stop-color="#876CF5" stop-opacity="0.36"/>
</linearGradient>
<linearGradient id="paint4_linear_7_823" x1="144.692" y1="83.8476" x2="62.6056" y2="125.652" gradientUnits="userSpaceOnUse">
<stop offset="0.166667" stop-color="#876CF5" stop-opacity="0"/>
<stop offset="0.520833" stop-color="#1FDBFA" stop-opacity="0.6"/>
<stop offset="1" stop-color="#876CF5" stop-opacity="0.36"/>
</linearGradient>
<linearGradient id="paint5_linear_7_823" x1="149.563" y1="101.202" x2="57.6773" y2="107.624" gradientUnits="userSpaceOnUse">
<stop offset="0.166667" stop-color="#876CF5" stop-opacity="0"/>
<stop offset="0.520833" stop-color="#1FDBFA" stop-opacity="0.6"/>
<stop offset="1" stop-color="#876CF5" stop-opacity="0.36"/>
</linearGradient>
<linearGradient id="paint6_linear_7_823" x1="147.269" y1="119.08" x2="60.1684" y2="89.1041" gradientUnits="userSpaceOnUse">
<stop offset="0.166667" stop-color="#876CF5" stop-opacity="0"/>
<stop offset="0.520833" stop-color="#1FDBFA" stop-opacity="0.6"/>
<stop offset="1" stop-color="#876CF5" stop-opacity="0.36"/>
</linearGradient>
<linearGradient id="paint7_linear_7_823" x1="138.175" y1="134.64" x2="69.6937" y2="73.0104" gradientUnits="userSpaceOnUse">
<stop offset="0.166667" stop-color="#876CF5" stop-opacity="0"/>
<stop offset="0.520833" stop-color="#1FDBFA" stop-opacity="0.6"/>
<stop offset="1" stop-color="#876CF5" stop-opacity="0.36"/>
</linearGradient>
<linearGradient id="paint8_linear_7_823" x1="123.727" y1="145.408" x2="84.7679" y2="61.902" gradientUnits="userSpaceOnUse">
<stop offset="0.166667" stop-color="#876CF5" stop-opacity="0"/>
<stop offset="0.520833" stop-color="#1FDBFA" stop-opacity="0.6"/>
<stop offset="1" stop-color="#876CF5" stop-opacity="0.36"/>
</linearGradient>
<linearGradient id="paint9_linear_7_823" x1="106.222" y1="149.673" x2="103.004" y2="57.574" gradientUnits="userSpaceOnUse">
<stop offset="0.166667" stop-color="#876CF5" stop-opacity="0"/>
<stop offset="0.520833" stop-color="#1FDBFA" stop-opacity="0.6"/>
<stop offset="1" stop-color="#876CF5" stop-opacity="0.36"/>
</linearGradient>
<linearGradient id="paint10_linear_7_823" x1="88.4435" y1="146.755" x2="121.481" y2="60.7319" gradientUnits="userSpaceOnUse">
<stop offset="0.166667" stop-color="#876CF5" stop-opacity="0"/>
<stop offset="0.520833" stop-color="#1FDBFA" stop-opacity="0.6"/>
<stop offset="1" stop-color="#876CF5" stop-opacity="0.36"/>
</linearGradient>
<linearGradient id="paint11_linear_7_823" x1="73.2179" y1="137.119" x2="137.235" y2="70.8602" gradientUnits="userSpaceOnUse">
<stop offset="0.166667" stop-color="#876CF5" stop-opacity="0"/>
<stop offset="0.520833" stop-color="#1FDBFA" stop-opacity="0.6"/>
<stop offset="1" stop-color="#876CF5" stop-opacity="0.36"/>
</linearGradient>
<linearGradient id="paint12_linear_7_823" x1="62.9656" y1="122.297" x2="147.766" y2="86.3193" gradientUnits="userSpaceOnUse">
<stop offset="0.166667" stop-color="#876CF5" stop-opacity="0"/>
<stop offset="0.520833" stop-color="#1FDBFA" stop-opacity="0.6"/>
<stop offset="1" stop-color="#876CF5" stop-opacity="0.36"/>
</linearGradient>
<linearGradient id="paint13_linear_7_823" x1="59.317" y1="104.645" x2="151.426" y2="104.645" gradientUnits="userSpaceOnUse">
<stop offset="0.166667" stop-color="#876CF5" stop-opacity="0"/>
<stop offset="0.520833" stop-color="#1FDBFA" stop-opacity="0.6"/>
<stop offset="1" stop-color="#876CF5" stop-opacity="0.36"/>
</linearGradient>
</defs>
</svg>
