<svg width="41" height="54" viewBox="0 0 41 54" fill="none" xmlns="http://www.w3.org/2000/svg">
<path d="M9.57733 18.7134L20.4998 38.4829L31.4223 18.7134L20.4998 9.71987L9.57733 18.7134Z" fill="#D29CFF"/>
<path d="M31.4225 18.7134L20.5 38.4829V9.71987L31.4225 18.7134Z" fill="#C177FF"/>
<path d="M40.9699 16.9096V16.8783C40.9067 16.5345 40.7175 16.2532 40.4338 16.0031L21.5089 0.375479C21.225 0.125542 20.8465 0.000415802 20.4996 0.000415802L17.3455 7.82974L20.4996 13.7841L27.4072 19.4725L33.585 21.4307L40.9699 16.9096Z" fill="#B255FF"/>
<path d="M20.5 53.3423L23.6541 40.833L20.5 31.9742L13.5924 19.4722L7.60824 15.2158L0.0295718 16.9092C-0.0336162 17.253 -0.00196959 17.5967 0.187279 17.9405L19.1121 52.5921C19.3961 53.0921 19.9322 53.3423 20.5 53.3423Z" fill="#B255FF"/>
<path d="M20.5001 13.7837V6.29425e-05C20.1532 6.29425e-05 19.7748 0.125189 19.4908 0.375126L0.565915 16.0027C0.282148 16.2529 0.0928986 16.5342 0.0298157 16.878V16.9092L13.5926 19.4722L20.5001 13.7837Z" fill="#C177FF"/>
<path d="M40.9704 16.9092L27.4076 19.4721L20.5 31.9742V53.3423C21.0677 53.3423 21.6038 53.0921 21.8878 52.592L40.8127 17.9404C41.0019 17.5967 41.0335 17.253 40.9704 16.9092Z" fill="#7D00E6"/>
</svg>
