<svg width="20" height="20" viewBox="0 0 20 20" xmlns="http://www.w3.org/2000/svg">
<g clip-path="url(#clip0_215_655)">
<path d="M8.09934 13.226C8.09934 13.0322 8.09934 12.8112 8.09934 12.546C8.29801 11.995 8.59664 11.9553 8.74602 11.1097C8.89855 11.0553 9.02258 10.9863 9.13441 10.8531C9.04762 10.6817 8.96301 10.4836 8.89371 10.248C8.36379 9.90084 8.10852 9.33209 7.86832 8.48998C7.70039 7.90236 7.73246 7.40748 7.9632 7.01877C8.01117 6.93791 8.06727 6.8635 8.13031 6.79584C8.06238 6.07803 8.01547 5.37127 8.00898 4.7001C7.98797 4.69553 7.97098 4.68744 7.94969 4.68365C7.42758 4.2774 7.09629 4.09334 5.97711 4.16123C5.26844 4.16123 4.72988 4.31756 3.97945 4.10303C2.97809 4.94295 3.25328 7.70182 3.39344 9.03256C3.21715 9.07221 2.91336 9.23584 3.1077 9.91564C3.35621 10.7863 3.55516 10.9852 3.90313 11.1097C4.05274 11.9553 4.50719 12.2271 4.54008 12.546C4.54008 13.0101 4.54008 13.3484 4.54008 13.6193C4.54008 14.0285 3.8727 14.3735 3.37887 14.5476C2.42895 14.8824 -0.217655 15.8733 0.0143373 18.6499H4.15598C4.03262 16.927 4.65313 14.656 8.09934 13.226Z"/>
<path d="M15.9819 13.7713C15.3363 13.5298 14.6007 13.1538 14.6007 12.6673C14.6007 12.3452 14.6007 11.9427 14.6007 11.3907C14.8371 10.7354 15.1924 10.6885 15.37 9.68279C15.7841 9.53482 16.0207 9.29814 16.3164 8.26279C16.5386 7.4835 16.2113 7.27432 15.9995 7.21853C16.0038 7.17701 16.0081 7.13525 16.0116 7.08619C16.0916 5.91904 16.7693 2.45447 14.4231 2.04045C13.802 1.5574 13.408 1.33854 12.0769 1.41939C11.2343 1.41912 10.5939 1.60514 9.70137 1.3501C8.51047 2.34908 8.83774 5.62979 9.0043 7.2126C8.79485 7.25951 8.43363 7.45412 8.66465 8.26279C8.96008 9.29814 9.19676 9.53482 9.61078 9.68279C9.7884 10.6885 10.3288 11.0114 10.3682 11.3907C10.3682 11.9427 10.3682 12.3451 10.3682 12.6673C10.3682 13.1538 9.57438 13.5644 8.98703 13.7713C7.85735 14.1695 4.71004 15.3479 4.98578 18.65H19.9831C20.2589 15.3479 17.1038 14.191 15.9819 13.7713Z" />
</g>
<defs>
<clipPath id="clip0_215_655">
<rect width="20" height="20"/>
</clipPath>
</defs>
</svg>
