<svg width="27" height="20" viewBox="0 0 27 20" fill="currentColor" xmlns="http://www.w3.org/2000/svg">
<path d="M1.77868 14.7351C1.96097 14.5415 2.13836 14.1828 2.11264 13.0326L7.27371 12.5145C6.62616 13.9946 6.17487 15.0014 6.17445 15.0023C6.16543 15.0217 6.15821 15.0416 6.15231 15.0619C6.12391 15.1616 5.99484 15.6764 6.28048 16.056C6.39421 16.2071 6.61172 16.3872 7.00297 16.3872C7.19565 16.3872 7.41047 16.3435 7.66048 16.2536C8.07609 16.1038 8.62351 15.9703 9.26294 15.8611V16.926C9.26294 17.1756 9.46463 17.3772 9.71418 17.3772H12.4217C12.6713 17.3772 12.873 17.1756 12.873 16.926V15.5469L13.7299 15.5402C13.924 15.5419 14.058 15.546 14.2267 15.551V16.926C14.2267 17.1756 14.4284 17.3772 14.678 17.3772H17.3856C17.6351 17.3772 17.8368 17.1756 17.8368 16.926V15.8832C18.4875 15.9991 18.9117 16.1327 19.2456 16.2523C19.4956 16.3425 19.709 16.3863 19.8995 16.3863C20.3083 16.3863 20.5204 16.1778 20.6102 16.0532C20.8882 15.6678 20.7361 15.1454 20.7027 15.0447C20.6978 15.0298 20.6928 15.0158 20.686 15.0014C20.686 15.0014 20.2298 13.9846 19.5773 12.4919L24.8868 13.023C24.8611 14.1693 25.0375 14.5266 25.2189 14.7189C25.3413 14.8484 25.5014 14.9193 25.6698 14.9193C25.7456 14.9193 25.8119 14.9052 25.867 14.8858C25.9884 14.8651 26.1333 14.8074 26.2713 14.6679C26.6378 14.297 27.0515 13.2749 26.9947 8.62595L26.9924 8.40392C26.9924 6.27623 26.7343 3.7401 25.5037 3.7401C25.2216 3.7401 24.969 3.85383 24.7744 4.06907C24.3336 4.55556 24.2704 5.52439 24.2817 6.16245L16.4807 5.13176C16.3296 4.75135 16.1861 4.38223 16.0516 4.0307C15.2127 1.83213 14.4681 0.510415 13.8399 0.103348C13.7352 0.0352041 13.6062 0 13.4582 0C13.3201 0 13.1942 0.0302493 13.1703 0.0365729C13.1418 0.0442178 13.1139 0.054175 13.0873 0.0668221C12.8553 0.177815 12.15 0.516267 10.8093 4.03023C10.673 4.38808 10.5264 4.764 10.3725 5.15073L2.71867 6.1625C2.72858 5.54472 2.6636 4.61964 2.23355 4.14358C2.03723 3.92651 1.78231 3.81146 1.49662 3.81146C0.265599 3.81146 0.00746514 6.32814 0.00746514 8.43959L0.00519998 8.66115C-0.051193 13.2947 0.361726 14.3146 0.728115 14.6851C0.867564 14.8262 1.01419 14.8841 1.13561 14.9043C1.31116 14.9622 1.60223 14.9215 1.77868 14.7351ZM10.8427 6.70628C10.8527 6.67334 11.0986 5.88181 11.6636 4.45717C12.1938 3.12054 13.1297 3.01719 13.4041 3.01719C13.4709 3.01719 13.5092 3.02304 13.5092 3.02304C15.2524 3.04876 15.9447 6.5808 15.9736 6.73105C15.9857 6.79693 15.9686 6.86555 15.9257 6.91698C15.8833 6.96842 15.8197 6.9982 15.7524 6.9982H11.0584C10.9866 6.9982 10.9194 6.96436 10.877 6.9066C10.8337 6.84889 10.8215 6.77442 10.8427 6.70628ZM13.7755 8.17561V13.8087C13.7755 14.0966 13.5733 14.3307 13.3242 14.3307C13.0751 14.3307 12.873 14.0961 12.873 13.8087V8.17561C12.873 7.8877 13.0751 7.65349 13.3242 7.65349C13.5733 7.65349 13.7755 7.88817 13.7755 8.17561Z" />
</svg>
